G04 Layer_Color=65535*
%FSLAX43Y43*%
%MOMM*%
G71*
G01*
G75*
%ADD101C,0.200*%
%ADD103C,0.250*%
%ADD105C,0.254*%
%ADD121C,0.100*%
%ADD130C,0.220*%
D101*
X142775Y62425D02*
G03*
X142775Y62175I0J-125D01*
G01*
X152850Y71983D02*
G03*
X152850Y73017I0J517D01*
G01*
X167625Y91150D02*
G03*
X168875Y91150I625J0D01*
G01*
X167725Y80350D02*
G03*
X168975Y80350I625J0D01*
G01*
X181950Y128300D02*
G03*
X181950Y128300I-6750J0D01*
G01*
X153100Y101700D02*
G03*
X153100Y102700I0J500D01*
G01*
X179325Y75175D02*
G03*
X180575Y75175I625J0D01*
G01*
X143525Y91075D02*
G03*
X144775Y91075I625J0D01*
G01*
X139800Y116000D02*
G03*
X139800Y117000I0J500D01*
G01*
X76135Y73850D02*
G03*
X74865Y73850I-635J0D01*
G01*
X136450Y111017D02*
G03*
X136450Y109983I0J-517D01*
G01*
X50100Y102550D02*
G03*
X50100Y102150I0J-200D01*
G01*
X96350Y100000D02*
G03*
X96350Y100600I0J300D01*
G01*
X92975Y129325D02*
G03*
X91725Y129325I-625J0D01*
G01*
X114000Y81350D02*
G03*
X114600Y81350I300J0D01*
G01*
X168325Y97425D02*
G03*
X168325Y98675I0J625D01*
G01*
X175125Y97425D02*
G03*
X175125Y98675I0J625D01*
G01*
X114363Y110825D02*
G03*
X114688Y110825I162J0D01*
G01*
X139625Y63150D02*
X142775D01*
X139625Y61450D02*
Y63150D01*
Y61450D02*
X142775D01*
Y62175D01*
Y62425D02*
Y63150D01*
X169240Y65900D02*
Y68470D01*
X184470D01*
Y65900D02*
Y68470D01*
X169240Y65900D02*
X184470D01*
X156560Y121230D02*
Y123800D01*
X151490Y121230D02*
X156560D01*
X151490D02*
Y123800D01*
X156560D01*
X128700Y69000D02*
X139700D01*
X128700D02*
Y73000D01*
X139700Y69000D02*
Y73000D01*
X136200Y76000D02*
X138200D01*
X130200D02*
X132200D01*
X89800Y54900D02*
X121300D01*
Y60350D01*
X120850Y60800D02*
X121300Y60350D01*
X118300Y60800D02*
X120850D01*
X89800Y54900D02*
Y60700D01*
Y60800D02*
X92800D01*
X160175Y123550D02*
Y130250D01*
X163425Y123550D02*
Y130250D01*
X160175Y123550D02*
X163425D01*
X160175Y130250D02*
X163425D01*
X143500Y55600D02*
Y59600D01*
X155000Y62600D02*
X157000D01*
X145000D02*
X147000D01*
X143500Y55600D02*
X158000D01*
X158500Y56100D01*
Y59600D01*
X177100Y114900D02*
X179775D01*
X181700D01*
Y112900D02*
Y114900D01*
X177100Y112900D02*
X181700D01*
X177100D02*
Y114900D01*
Y119500D02*
X179775D01*
X181700D01*
Y117500D02*
Y119500D01*
X177100Y117500D02*
X181700D01*
X177100D02*
Y119500D01*
X179025Y110600D02*
X181700D01*
X177100D02*
X179025D01*
X177100D02*
Y112600D01*
X181700D01*
Y110600D02*
Y112600D01*
X179025Y115200D02*
X181700D01*
X177100D02*
X179025D01*
X177100D02*
Y117200D01*
X181700D01*
Y115200D02*
Y117200D01*
X147900Y122900D02*
Y125575D01*
Y127500D01*
X149900D01*
Y122900D02*
Y127500D01*
X147900Y122900D02*
X149900D01*
X180400Y98600D02*
X183000D01*
Y91800D02*
Y98600D01*
X180950Y91800D02*
X182050D01*
X180400D02*
Y98600D01*
Y91800D02*
X180950D01*
X182050D02*
X183000D01*
X183400D02*
X186000D01*
X183400D02*
Y98600D01*
X184350D02*
X185450D01*
X186000Y91800D02*
Y98600D01*
X185450D02*
X186000D01*
X183400D02*
X184350D01*
X180400Y99200D02*
Y106000D01*
X181350D01*
X182450D01*
X180400Y99200D02*
X183000D01*
X182450Y106000D02*
X183000D01*
Y99200D02*
Y106000D01*
X183400D02*
X186000D01*
Y99200D02*
Y106000D01*
X183950Y99200D02*
X185050D01*
X183400D02*
Y106000D01*
Y99200D02*
X183950D01*
X185050D02*
X186000D01*
X179125Y102450D02*
Y105825D01*
X174675D02*
X179125D01*
X174675Y102450D02*
Y105825D01*
Y102450D02*
X176375D01*
X179125D01*
X129300Y102100D02*
Y104700D01*
X136100D01*
Y102650D02*
Y103750D01*
X129300Y102100D02*
X136100D01*
Y102650D01*
Y103750D02*
Y104700D01*
X159200Y110700D02*
X161800D01*
Y103900D02*
Y110700D01*
X159750Y103900D02*
X160850D01*
X159200D02*
Y110700D01*
Y103900D02*
X159750D01*
X160850D02*
X161800D01*
X156500Y113000D02*
X159100D01*
X156500D02*
Y119800D01*
X157450D02*
X158550D01*
X159100Y113000D02*
Y119800D01*
X158550D02*
X159100D01*
X156500D02*
X157450D01*
X139600Y126800D02*
X142200D01*
X139600D02*
Y133600D01*
X140550D02*
X141650D01*
X142200Y126800D02*
Y133600D01*
X141650D02*
X142200D01*
X139600D02*
X140550D01*
X176375Y106850D02*
X179125D01*
X174675D02*
X176375D01*
X174675D02*
Y110225D01*
X179125D01*
Y106850D02*
Y110225D01*
X152850Y74050D02*
X157950D01*
X152850Y70950D02*
X157950D01*
Y74050D01*
X152850Y73017D02*
Y74050D01*
Y70950D02*
Y71983D01*
X168150Y67200D02*
Y68470D01*
X160540Y65900D02*
Y68470D01*
X168150D01*
X160540Y65900D02*
X168150D01*
X188900Y64500D02*
Y105130D01*
X186330D02*
X188900D01*
X186330Y64500D02*
Y105130D01*
Y64500D02*
X188900D01*
X165335Y81150D02*
Y91150D01*
Y81150D02*
X171165D01*
Y91150D01*
X168875D02*
X171165D01*
X165335D02*
X167625D01*
X165435Y80350D02*
X167725D01*
X168975D02*
X171265D01*
Y70350D02*
Y80350D01*
X165435Y70350D02*
X171265D01*
X165435D02*
Y80350D01*
X177750Y130808D02*
X177750Y129792D01*
X177284Y130300D02*
X178300D01*
X154200Y88700D02*
X157275D01*
X159400D01*
Y85800D02*
Y88700D01*
X154200Y85800D02*
X159400D01*
X154200D02*
Y88700D01*
Y92000D02*
X157275D01*
X159400D01*
Y89100D02*
Y92000D01*
X154200Y89100D02*
X159400D01*
X154200D02*
Y92000D01*
X153100Y103700D02*
X158100D01*
X153100Y100700D02*
X158100D01*
Y103700D01*
X153100Y102700D02*
Y103700D01*
Y100700D02*
Y101700D01*
X156800Y108400D02*
Y111300D01*
X151600D02*
X156800D01*
X151600Y108400D02*
Y111300D01*
Y108400D02*
X153725D01*
X156800D01*
X180600Y75175D02*
X181500D01*
X178425D02*
X179325D01*
X181500Y70300D02*
Y75175D01*
X178425Y70300D02*
X181500D01*
X178425D02*
Y75175D01*
X114400Y68700D02*
X117000D01*
X114400Y64800D02*
X114400Y68700D01*
X117000Y64800D02*
Y68700D01*
X114400Y64800D02*
X117000Y64800D01*
X143600Y97150D02*
X143600Y96000D01*
X143600Y98450D02*
X143600Y99600D01*
X151100Y98300D02*
Y99600D01*
X143600D02*
X151100D01*
X143600Y97150D02*
Y98450D01*
X143600Y96000D02*
X151100D01*
Y98300D01*
X142625Y86200D02*
Y91075D01*
Y86200D02*
X145700D01*
Y91075D01*
X142625D02*
X143525D01*
X144800D02*
X145700D01*
X147825Y100100D02*
X150900D01*
X145700D02*
X147825D01*
X145700D02*
Y103000D01*
X150900D01*
Y100100D02*
Y103000D01*
X130150Y78650D02*
Y78910D01*
X129890Y78650D02*
X130150D01*
X127050D02*
Y78910D01*
Y78650D02*
X127310D01*
X127050Y81490D02*
Y81750D01*
X127310D01*
X129890D02*
X130150Y81490D01*
X147275Y108950D02*
X150500D01*
X145300D02*
X147275D01*
X145300D02*
Y111450D01*
X150500D01*
Y108950D02*
Y111450D01*
X147750Y115075D02*
Y118300D01*
Y113100D02*
Y115075D01*
X145250Y113100D02*
X147750D01*
X145250D02*
Y118300D01*
X147750D01*
X139800Y118000D02*
X144800D01*
X139800Y115000D02*
X144800D01*
Y118000D01*
X139800Y117000D02*
Y118000D01*
Y115000D02*
Y116000D01*
X144600Y122000D02*
Y124900D01*
X139400D02*
X144600D01*
X139400Y122000D02*
Y124900D01*
Y122000D02*
X141525D01*
X144600D01*
X140714Y103275D02*
X140714Y104900D01*
X145286D02*
X145286Y103275D01*
X140714Y104900D02*
X145286D01*
X140714Y103275D02*
X145286D01*
X76135Y73850D02*
X83900D01*
X67100D02*
X74865Y73850D01*
X67100Y85950D02*
X83900Y85950D01*
Y73850D02*
Y85950D01*
X67100Y73850D02*
X67100Y85950D01*
X123300Y100550D02*
Y103050D01*
Y100550D02*
X128500Y100550D01*
X128500Y103050D02*
X128500Y100550D01*
X126525Y103050D02*
X128500D01*
X123300D02*
X126525D01*
X123300Y103350D02*
Y105850D01*
Y103350D02*
X128500D01*
X128500Y105850D01*
X126525Y105850D02*
X128500Y105850D01*
X123300Y105850D02*
X126525D01*
X130800Y121500D02*
X133875Y121500D01*
X136000D01*
Y118600D02*
Y121500D01*
X130800Y118600D02*
X136000D01*
X130800D02*
Y121500D01*
Y124800D02*
X133875D01*
X136000D01*
X136000Y121900D02*
X136000Y124800D01*
X130800Y121900D02*
X136000D01*
X130800D02*
Y124800D01*
X136450Y111017D02*
Y112225D01*
X136450Y108700D02*
X136450Y109983D01*
X131350Y112225D02*
X131350Y108700D01*
X131350Y112225D02*
X136450Y112225D01*
X131350Y108700D02*
X136450D01*
X28500Y106865D02*
X50100Y106865D01*
X28500Y97835D02*
Y106865D01*
Y97835D02*
X50100Y97835D01*
Y102150D01*
Y102550D02*
Y106865D01*
X66200Y99900D02*
X89000D01*
X66200Y122700D02*
X89000D01*
X66200Y99900D02*
Y122700D01*
X89000Y99900D02*
Y122700D01*
X36100Y116475D02*
X51275D01*
X51850Y117050D01*
X51850Y129175D01*
X36100Y129675D02*
X51350D01*
X51850Y129175D01*
X36100Y116475D02*
Y129675D01*
X96350Y101200D02*
X99450D01*
X96350Y99400D02*
X99450D01*
Y101200D01*
X96350Y100600D02*
Y101200D01*
Y99400D02*
Y100000D01*
X93875Y129325D02*
Y134200D01*
X90800D02*
X93875D01*
X90800Y129325D02*
Y134200D01*
X92975Y129325D02*
X93875Y129325D01*
X90800D02*
X91700Y129325D01*
X98650Y129250D02*
Y131650D01*
Y129250D02*
X102400D01*
Y131650D01*
X99800D02*
X102400D01*
X98650D02*
X99800D01*
X30250Y82875D02*
X36950D01*
Y86125D01*
X30250Y82875D02*
Y86125D01*
Y67275D02*
X36950D01*
Y70525D01*
X30250Y67275D02*
Y70525D01*
X141700Y80775D02*
Y82625D01*
X144425Y78900D02*
Y82625D01*
X141700D02*
X144425D01*
X141750Y78900D02*
X144425D01*
X141700Y78950D02*
X141750Y78900D01*
X141700Y78950D02*
Y80775D01*
X149918Y73900D02*
Y76137D01*
X144711D02*
X145932D01*
X146430D02*
X146910D01*
X145932D02*
X146430D01*
X146910D02*
X149918D01*
X145092Y73900D02*
X149918D01*
X144711Y74281D02*
X145092Y73900D01*
X144711Y74281D02*
Y76137D01*
X146825Y70700D02*
X149900D01*
X144700D02*
X146825D01*
X144700D02*
Y73600D01*
X149900D01*
Y70700D02*
Y73600D01*
X182600Y124200D02*
X198700D01*
Y114700D02*
Y124200D01*
X182600Y114700D02*
X198700D01*
X182600D02*
Y124200D01*
X163030Y120270D02*
X165570D01*
Y115200D02*
Y120270D01*
X163030Y115200D02*
X165570D01*
X163030D02*
Y120270D01*
Y114870D02*
X165570D01*
Y109800D02*
Y114870D01*
X163030Y109800D02*
X165570D01*
X163030D02*
Y114870D01*
Y109470D02*
X165570D01*
Y104400D02*
Y109470D01*
X163030Y104400D02*
X165570D01*
X163030D02*
Y109470D01*
X113400Y81350D02*
X114000D01*
X114600D02*
X115200D01*
X113400Y78250D02*
X115200D01*
X113400D02*
Y81350D01*
X115200Y78250D02*
Y81350D01*
X168075Y105750D02*
X170825D01*
X172525D01*
Y102375D02*
Y105750D01*
X168075Y102375D02*
X172525D01*
X168075D02*
Y105750D01*
X168325Y98700D02*
Y99600D01*
Y96525D02*
Y97425D01*
Y99600D02*
X173200D01*
Y96525D02*
Y99600D01*
X168325Y96525D02*
X173200D01*
X175125Y98700D02*
Y99600D01*
Y96525D02*
Y97425D01*
Y99600D02*
X180000D01*
Y96525D02*
Y99600D01*
X175125Y96525D02*
X180000D01*
X182725Y75750D02*
Y82450D01*
X179475Y75750D02*
Y82450D01*
X182725D01*
X179475Y75750D02*
X182725D01*
Y83550D02*
Y90250D01*
X179475Y83550D02*
Y90250D01*
X182725D01*
X179475Y83550D02*
X182725D01*
X114960Y108875D02*
Y110825D01*
X114090Y108875D02*
X114960D01*
X114090D02*
Y110825D01*
X114688D01*
X114363D02*
X114960D01*
X121650Y105075D02*
X122183D01*
X122450Y105342D01*
X122183Y105608D01*
X121650D01*
X121784Y106408D02*
X121650Y106275D01*
Y106008D01*
X121784Y105875D01*
X122317D01*
X122450Y106008D01*
Y106275D01*
X122317Y106408D01*
X121784Y107208D02*
X121650Y107074D01*
Y106808D01*
X121784Y106674D01*
X122317D01*
X122450Y106808D01*
Y107074D01*
X122317Y107208D01*
X59200Y73075D02*
X59467D01*
X59333D01*
Y73875D01*
X59200Y73741D01*
X60000Y72942D02*
X60133Y73075D01*
Y73208D01*
X60000D01*
Y73075D01*
X60133D01*
X60000Y72942D01*
X59866Y72808D01*
X60666Y73741D02*
X60799Y73875D01*
X61066D01*
X61199Y73741D01*
Y73608D01*
X61066Y73475D01*
X61199Y73342D01*
Y73208D01*
X61066Y73075D01*
X60799D01*
X60666Y73208D01*
Y73342D01*
X60799Y73475D01*
X60666Y73608D01*
Y73741D01*
X60799Y73475D02*
X61066D01*
X61466Y73875D02*
Y73342D01*
X61733Y73075D01*
X61999Y73342D01*
Y73875D01*
X62266Y73075D02*
Y73608D01*
X62532Y73875D01*
X62799Y73608D01*
Y73075D01*
Y73475D01*
X62266D01*
X66400Y55925D02*
X66667D01*
X66533D01*
Y56725D01*
X66400Y56591D01*
X67200Y55792D02*
X67333Y55925D01*
Y56058D01*
X67200D01*
Y55925D01*
X67333D01*
X67200Y55792D01*
X67066Y55658D01*
X67866Y56591D02*
X67999Y56725D01*
X68266D01*
X68399Y56591D01*
Y56458D01*
X68266Y56325D01*
X68399Y56192D01*
Y56058D01*
X68266Y55925D01*
X67999D01*
X67866Y56058D01*
Y56192D01*
X67999Y56325D01*
X67866Y56458D01*
Y56591D01*
X67999Y56325D02*
X68266D01*
X68666Y56725D02*
Y56192D01*
X68933Y55925D01*
X69199Y56192D01*
Y56725D01*
X69466D02*
Y55925D01*
X69866D01*
X69999Y56058D01*
Y56591D01*
X69866Y56725D01*
X69466D01*
X121650Y62875D02*
Y63142D01*
Y63008D01*
X120850D01*
X120984Y62875D01*
Y63541D02*
X120850Y63675D01*
Y63941D01*
X120984Y64075D01*
X121517D01*
X121650Y63941D01*
Y63675D01*
X121517Y63541D01*
X120984D01*
X121783Y64474D02*
X121650Y64608D01*
X121517D01*
Y64474D01*
X121650D01*
Y64608D01*
X121783Y64474D01*
X121917Y64341D01*
X121650Y65541D02*
X120850D01*
X121250Y65141D01*
Y65674D01*
X120850Y65941D02*
X121383D01*
X121650Y66207D01*
X121383Y66474D01*
X120850D01*
X150833Y106300D02*
X150300D01*
Y105900D01*
X150567Y106033D01*
X150700D01*
X150833Y105900D01*
Y105633D01*
X150700Y105500D01*
X150433D01*
X150300Y105633D01*
X151100Y106300D02*
Y105767D01*
X151366Y105500D01*
X151633Y105767D01*
Y106300D01*
X135500Y79425D02*
X135767D01*
X135633D01*
Y80225D01*
X135500Y80091D01*
X136700Y80225D02*
X136433Y80091D01*
X136166Y79825D01*
Y79558D01*
X136300Y79425D01*
X136566D01*
X136700Y79558D01*
Y79692D01*
X136566Y79825D01*
X136166D01*
X136966Y80225D02*
Y79692D01*
X137233Y79425D01*
X137499Y79692D01*
Y80225D01*
X142067Y83558D02*
X142444Y83935D01*
X142350Y84406D02*
X142727Y84783D01*
X142821Y84689D01*
Y83935D01*
X142915Y83840D01*
Y84972D02*
X143292Y84595D01*
X143670D01*
Y84972D01*
X143292Y85349D01*
X122425Y64100D02*
X123225D01*
Y64633D01*
X122425Y65433D02*
Y64900D01*
X123225D01*
Y65433D01*
X122825Y64900D02*
Y65166D01*
X122425Y65699D02*
X123225D01*
Y66099D01*
X123092Y66233D01*
X122559D01*
X122425Y66099D01*
Y65699D01*
Y66499D02*
X122958D01*
X123225Y66766D01*
X122958Y67032D01*
X122425D01*
D103*
X143025Y64350D02*
G03*
X143025Y64350I-125J0D01*
G01*
X166650Y124600D02*
G03*
X166650Y124600I-125J0D01*
G01*
X152550Y69725D02*
G03*
X152550Y69725I-125J0D01*
G01*
X152970Y99400D02*
G03*
X152970Y99400I-125J0D01*
G01*
X129475Y82405D02*
G03*
X129475Y82405I-125J0D01*
G01*
X139670Y113700D02*
G03*
X139670Y113700I-125J0D01*
G01*
X145411Y105408D02*
G03*
X145411Y105408I-125J0D01*
G01*
X85225Y73450D02*
G03*
X85225Y73450I-125J0D01*
G01*
X137000Y113275D02*
G03*
X137000Y113275I-125J0D01*
G01*
X65000Y123550D02*
G03*
X65000Y123550I-125J0D01*
G01*
X96300Y98225D02*
G03*
X96300Y98225I-125J0D01*
G01*
X36025Y89225D02*
G03*
X36025Y89225I-125J0D01*
G01*
X70875Y68050D02*
G03*
X70875Y68050I-125J0D01*
G01*
X36025Y73625D02*
G03*
X36025Y73625I-125J0D01*
G01*
X112350Y81525D02*
G03*
X112350Y81525I-125J0D01*
G01*
X176500Y81400D02*
G03*
X176500Y81400I-125J0D01*
G01*
Y89200D02*
G03*
X176500Y89200I-125J0D01*
G01*
D105*
X50910Y107525D02*
G03*
X50910Y107525I-160J0D01*
G01*
X127630Y123800D02*
G03*
X127630Y123800I-11380J0D01*
G01*
X141454Y78700D02*
G03*
X141454Y78700I-79J0D01*
G01*
X181930Y58818D02*
Y59961D01*
X171770Y58818D02*
X181930D01*
X184470Y56405D02*
Y67200D01*
X169230Y56405D02*
Y67200D01*
Y56405D02*
X184470D01*
X171770Y59961D02*
X181930D01*
X171770Y58818D02*
Y59961D01*
X151490Y122500D02*
Y133270D01*
X156570Y122500D02*
Y133270D01*
X151490D02*
X156570D01*
X152760Y129764D02*
X155300D01*
X152760D02*
Y130831D01*
X155300D01*
Y129764D02*
Y130831D01*
X130800Y71200D02*
X137600D01*
X145500Y58100D02*
X156500D01*
X182800Y92000D02*
Y94200D01*
X180600Y91900D02*
Y94100D01*
X183600Y96200D02*
Y98400D01*
X185800Y96300D02*
Y98500D01*
X180600Y103600D02*
Y105800D01*
X182800Y103700D02*
Y105900D01*
X185800Y99400D02*
Y101600D01*
X183600Y99300D02*
Y101500D01*
X133700Y104500D02*
X135900D01*
X133800Y102300D02*
X136000D01*
X161600Y104100D02*
Y106300D01*
X159400Y104000D02*
Y106200D01*
X156700Y117400D02*
Y119600D01*
X158900Y117500D02*
Y119700D01*
X139800Y131200D02*
Y133400D01*
X142000Y131300D02*
Y133500D01*
X168150Y56405D02*
Y67200D01*
X160530Y56405D02*
Y67200D01*
Y56405D02*
X168150D01*
X161800Y59961D02*
X166880D01*
Y58818D02*
Y59961D01*
X161800Y58818D02*
X166880D01*
X161800D02*
Y59961D01*
X194966Y102590D02*
X196490D01*
Y67030D02*
Y102590D01*
X194966Y67030D02*
X196490D01*
X194966D02*
Y102590D01*
X198522Y64490D02*
Y105130D01*
X187600Y64490D02*
X198522D01*
X187600Y105130D02*
X198522D01*
X143400Y96700D02*
Y98900D01*
X46200Y80600D02*
X46200Y58000D01*
X39000Y83000D02*
X40500D01*
Y83500D01*
Y83900D01*
X41500Y82900D01*
Y82900D02*
Y82900D01*
X40500Y81900D02*
X41500Y82900D01*
X40500Y81900D02*
Y82700D01*
X39000D02*
X40500D01*
X39000D02*
Y83000D01*
Y74800D02*
Y75100D01*
Y74800D02*
X40500D01*
Y74000D02*
Y74800D01*
Y74000D02*
X41500Y75000D01*
Y75000D01*
X40500Y76000D02*
X41500Y75000D01*
X40500Y75600D02*
Y76000D01*
Y75100D02*
Y75600D01*
X39000Y75100D02*
X40500D01*
X39000Y67600D02*
X40500D01*
Y68100D01*
Y68500D01*
X41500Y67500D01*
Y67500D02*
Y67500D01*
X40500Y66500D02*
X41500Y67500D01*
X40500Y66500D02*
Y67300D01*
X39000D02*
X40500D01*
X39000D02*
Y67600D01*
X99968Y120800D02*
Y126800D01*
X105277D01*
X99968Y120800D02*
X105277D01*
X39000Y60300D02*
Y60600D01*
Y60300D02*
X40500D01*
Y59500D02*
Y60300D01*
Y59500D02*
X41500Y60500D01*
Y60500D01*
X40500Y61500D02*
X41500Y60500D01*
X40500Y61100D02*
Y61500D01*
Y60600D02*
Y61100D01*
X39000Y60600D02*
X40500D01*
X145000Y74276D02*
Y75800D01*
X34350Y133225D02*
Y134749D01*
X35112D01*
X35366Y134495D01*
Y133987D01*
X35112Y133733D01*
X34350D01*
X34858D02*
X35366Y133225D01*
X36889Y134495D02*
X36635Y134749D01*
X36127D01*
X35874Y134495D01*
Y133479D01*
X36127Y133225D01*
X36635D01*
X36889Y133479D01*
Y133987D01*
X36381D01*
X38921Y133225D02*
Y134749D01*
X39682D01*
X39936Y134495D01*
Y133987D01*
X39682Y133733D01*
X38921D01*
X39428D02*
X39936Y133225D01*
X41460Y134749D02*
X40444D01*
Y133225D01*
X41460D01*
X40444Y133987D02*
X40952D01*
X41968Y133225D02*
Y134749D01*
X42475Y134241D01*
X42983Y134749D01*
Y133225D01*
X44507Y134495D02*
X44253Y134749D01*
X43745D01*
X43491Y134495D01*
Y134241D01*
X43745Y133987D01*
X44253D01*
X44507Y133733D01*
Y133479D01*
X44253Y133225D01*
X43745D01*
X43491Y133479D01*
X46030Y134749D02*
X45015D01*
Y133225D01*
X46030D01*
X45015Y133987D02*
X45522D01*
X46538Y133225D02*
Y134749D01*
X47300D01*
X47554Y134495D01*
Y133987D01*
X47300Y133733D01*
X46538D01*
X47046D02*
X47554Y133225D01*
X48062Y134749D02*
Y133733D01*
X48569Y133225D01*
X49077Y133733D01*
Y134749D01*
X49585D02*
X50093D01*
X49839D01*
Y133225D01*
X49585D01*
X50093D01*
X51870Y134495D02*
X51616Y134749D01*
X51109D01*
X50855Y134495D01*
Y133479D01*
X51109Y133225D01*
X51616D01*
X51870Y133479D01*
X53394Y134749D02*
X52378D01*
Y133225D01*
X53394D01*
X52378Y133987D02*
X52886D01*
X54156Y132971D02*
X54410Y133225D01*
Y133479D01*
X54156D01*
Y133225D01*
X54410D01*
X54156Y132971D01*
X53902Y132717D01*
X57964Y133225D02*
X56949D01*
X57964Y134241D01*
Y134495D01*
X57710Y134749D01*
X57203D01*
X56949Y134495D01*
X58472D02*
X58726Y134749D01*
X59234D01*
X59488Y134495D01*
Y133479D01*
X59234Y133225D01*
X58726D01*
X58472Y133479D01*
Y134495D01*
X59996Y133225D02*
X60504D01*
X60250D01*
Y134749D01*
X59996Y134495D01*
X62281Y134749D02*
X61773Y134495D01*
X61265Y133987D01*
Y133479D01*
X61519Y133225D01*
X62027D01*
X62281Y133479D01*
Y133733D01*
X62027Y133987D01*
X61265D01*
X46576Y68100D02*
X47592D01*
X48100Y68608D01*
X47592Y69116D01*
X46576D01*
Y69624D02*
Y70131D01*
Y69877D01*
X48100D01*
Y69624D01*
Y70131D01*
X46576Y70893D02*
X48100D01*
Y71655D01*
X47846Y71909D01*
X46830D01*
X46576Y71655D01*
Y70893D01*
Y73432D02*
Y72417D01*
X48100D01*
Y73432D01*
X47338Y72417D02*
Y72924D01*
X46576Y74702D02*
Y74194D01*
X46830Y73940D01*
X47846D01*
X48100Y74194D01*
Y74702D01*
X47846Y74956D01*
X46830D01*
X46576Y74702D01*
X38000Y82100D02*
X38508D01*
X38254D01*
Y83624D01*
X38000Y83370D01*
X38516Y74200D02*
X37500D01*
X38516Y75216D01*
Y75470D01*
X38262Y75724D01*
X37754D01*
X37500Y75470D01*
Y67970D02*
X37754Y68224D01*
X38262D01*
X38516Y67970D01*
Y67716D01*
X38262Y67462D01*
X38008D01*
X38262D01*
X38516Y67208D01*
Y66954D01*
X38262Y66700D01*
X37754D01*
X37500Y66954D01*
X38262Y59700D02*
Y61224D01*
X37500Y60462D01*
X38516D01*
D121*
X178200Y75782D02*
G03*
X178200Y75775I-221J-7D01*
G01*
X142400Y91682D02*
G03*
X142400Y91675I-221J-7D01*
G01*
X94100Y128718D02*
G03*
X94100Y128725I221J7D01*
G01*
X167718Y96300D02*
G03*
X167725Y96300I7J-221D01*
G01*
X174518Y96300D02*
G03*
X174525Y96300I7J-221D01*
G01*
X66900Y125650D02*
X68100D01*
X66900D02*
Y128150D01*
X68100Y125650D02*
Y128150D01*
X66900D02*
X68100D01*
X79800Y125850D02*
X81000D01*
X79800D02*
Y128350D01*
X81000Y125850D02*
Y128350D01*
X79800D02*
X81000D01*
X94750Y119200D02*
Y120400D01*
X92250Y119200D02*
X94750D01*
X92250Y120400D02*
X94750D01*
X92250Y119200D02*
Y120400D01*
X75000Y125850D02*
X76200D01*
X75000D02*
Y128350D01*
X76200Y125850D02*
Y128350D01*
X75000D02*
X76200D01*
X86300Y125850D02*
X87500D01*
X86300D02*
Y128350D01*
X87500Y125850D02*
Y128350D01*
X86300D02*
X87500D01*
X63050Y114500D02*
Y115700D01*
X60550Y114500D02*
X63050D01*
X60550Y115700D02*
X63050D01*
X60550Y114500D02*
Y115700D01*
X60525Y104250D02*
Y105450D01*
X63025D01*
X60525Y104250D02*
X63025D01*
Y105450D01*
X74500Y93850D02*
X75700D01*
X74500D02*
Y96350D01*
X75700Y93850D02*
Y96350D01*
X74500D02*
X75700D01*
X91600Y102050D02*
X92800D01*
Y99550D02*
Y102050D01*
X91600Y99550D02*
Y102050D01*
Y99550D02*
X92800D01*
X71675Y55325D02*
X72050Y55700D01*
X72100D01*
X113275Y61000D02*
Y61300D01*
X108275Y61050D02*
Y61300D01*
X103275Y61000D02*
Y61300D01*
X98275Y61000D02*
Y61300D01*
X115960Y75292D02*
X116808Y76140D01*
X114192Y77060D02*
X115960Y75292D01*
X115040Y77908D02*
X116808Y76140D01*
X114192Y77060D02*
X115040Y77908D01*
X114160Y73492D02*
X115008Y74340D01*
X112392Y75260D02*
X114160Y73492D01*
X113240Y76108D02*
X115008Y74340D01*
X112392Y75260D02*
X113240Y76108D01*
X118600Y80150D02*
X119800D01*
Y77650D02*
Y80150D01*
X118600Y77650D02*
Y80150D01*
Y77650D02*
X119800D01*
X96550Y76300D02*
Y77500D01*
X94050Y76300D02*
X96550D01*
X94050Y77500D02*
X96550D01*
X94050Y76300D02*
Y77500D01*
X149960Y63992D02*
X150808Y64840D01*
X148192Y65760D02*
X149960Y63992D01*
X149040Y66608D02*
X150808Y64840D01*
X148192Y65760D02*
X149040Y66608D01*
X146400Y65650D02*
X147600D01*
X146400D02*
Y68150D01*
X147600Y65650D02*
Y68150D01*
X146400D02*
X147600D01*
X145100Y65650D02*
X146300D01*
X145100D02*
Y68150D01*
X146300Y65650D02*
Y68150D01*
X145100D02*
X146300D01*
X143700Y65650D02*
X144900D01*
X143700D02*
Y68150D01*
X144900Y65650D02*
Y68150D01*
X143700D02*
X144900D01*
X142400Y65650D02*
X143600D01*
X142400D02*
Y68150D01*
X143600Y65650D02*
Y68150D01*
X142400D02*
X143600D01*
X150392Y65660D02*
X151240Y66508D01*
X153008Y64740D01*
X150392Y65660D02*
X152160Y63892D01*
X153008Y64740D01*
X112860Y72192D02*
X113708Y73040D01*
X111092Y73960D02*
X112860Y72192D01*
X111940Y74808D02*
X113708Y73040D01*
X111092Y73960D02*
X111940Y74808D01*
X184800Y71750D02*
X186000D01*
X184800D02*
Y74250D01*
X186000Y71750D02*
Y74250D01*
X184800D02*
X186000D01*
X85350Y129300D02*
Y130500D01*
X87850D01*
X85350Y129300D02*
X87850D01*
Y130500D01*
X175200Y78150D02*
X176400D01*
Y75650D02*
Y78150D01*
X175200Y75650D02*
Y78150D01*
Y75650D02*
X176400D01*
X175300Y85950D02*
X176500D01*
Y83450D02*
Y85950D01*
X175300Y83450D02*
Y85950D01*
Y83450D02*
X176500D01*
X97800Y110150D02*
X99000D01*
Y107650D02*
Y110150D01*
X97800Y107650D02*
Y110150D01*
Y107650D02*
X99000D01*
X100000Y110150D02*
X101200D01*
Y107650D02*
Y110150D01*
X100000Y107650D02*
Y110150D01*
Y107650D02*
X101200D01*
X175200Y78350D02*
X176400D01*
X175200D02*
Y80850D01*
X176400Y78350D02*
Y80850D01*
X175200D02*
X176400D01*
X175300Y86150D02*
X176500D01*
X175300D02*
Y88650D01*
X176500Y86150D02*
Y88650D01*
X175300D02*
X176500D01*
X160600Y87050D02*
X161800D01*
X160600D02*
Y89550D01*
X161800Y87050D02*
Y89550D01*
X160600D02*
X161800D01*
X160600Y86850D02*
X161800D01*
Y84350D02*
Y86850D01*
X160600Y84350D02*
Y86850D01*
Y84350D02*
X161800D01*
X160600Y76550D02*
X161800D01*
X160600D02*
Y79050D01*
X161800Y76550D02*
Y79050D01*
X160600D02*
X161800D01*
X160600Y76350D02*
X161800D01*
Y73850D02*
Y76350D01*
X160600Y73850D02*
Y76350D01*
Y73850D02*
X161800D01*
X163750Y122000D02*
Y123200D01*
X161250Y122000D02*
X163750D01*
X161250Y123200D02*
X163750D01*
X161250Y122000D02*
Y123200D01*
X161050Y122000D02*
Y123200D01*
X158550Y122000D02*
X161050D01*
X158550Y123200D02*
X161050D01*
X158550Y122000D02*
Y123200D01*
X156700Y95200D02*
X157000Y94900D01*
Y93700D02*
Y94900D01*
X156700Y95200D02*
Y95250D01*
X156650Y93800D02*
Y95000D01*
X154150Y93800D02*
X156650D01*
X154150Y95000D02*
X156650D01*
X154150Y93800D02*
Y95000D01*
X124250Y61200D02*
Y62400D01*
X121750Y61200D02*
X124250D01*
X121750Y62400D02*
X124250D01*
X121750Y61200D02*
Y62400D01*
Y59800D02*
Y61000D01*
X124250D01*
X121750Y59800D02*
X124250D01*
Y61000D01*
X155500Y97750D02*
X156700D01*
Y95250D02*
Y97750D01*
X155500Y95250D02*
Y97750D01*
Y95250D02*
X156700D01*
X156900D02*
X158100D01*
X156900D02*
Y97750D01*
X158100Y95250D02*
Y97750D01*
X156900D02*
X158100D01*
X152750Y95200D02*
Y96400D01*
X155250D01*
X152750Y95200D02*
X155250D01*
X155250Y96400D02*
X155250Y95200D01*
X152750Y97800D02*
X152750Y96600D01*
X152750Y97800D02*
X155250D01*
X152750Y96600D02*
X155250Y96600D01*
Y97800D01*
X115700Y68950D02*
X116900D01*
X115700D02*
Y71450D01*
X116900Y68950D02*
Y71450D01*
X115700D02*
X116900D01*
X117400Y64800D02*
X117400D01*
X117400Y69200D02*
X117500Y69100D01*
X117300D02*
X117400Y69200D01*
Y64800D02*
Y69200D01*
X117100Y64550D02*
X117150D01*
X117400Y64800D01*
X117400Y64800D02*
X117400Y64800D01*
X114400Y64550D02*
X115600D01*
Y62050D02*
Y64550D01*
X114400Y62050D02*
Y64550D01*
Y62050D02*
X115600D01*
X116000D02*
X117200D01*
X116000D02*
Y64550D01*
X117200Y62050D02*
Y64550D01*
X116000D02*
X117200D01*
X97525Y64225D02*
Y64325D01*
X97700Y64250D02*
X98900D01*
Y61750D02*
Y64250D01*
X97700Y61750D02*
Y64250D01*
Y61750D02*
X98900D01*
X96000Y64250D02*
X96050D01*
X96300Y64500D01*
X98300Y65100D02*
Y65823D01*
X97525Y64325D02*
X98300Y65100D01*
X96300Y64250D02*
X97500D01*
Y61750D02*
Y64250D01*
X96300Y61750D02*
Y64250D01*
Y61750D02*
X97500D01*
X150950Y88500D02*
Y89700D01*
X148450Y88500D02*
X150950D01*
X148450Y89700D02*
X150950D01*
X148450Y88500D02*
Y89700D01*
X148350Y92700D02*
Y93900D01*
X150850D01*
X148350Y92700D02*
X150850D01*
Y93900D01*
Y94100D02*
Y95300D01*
X148350Y94100D02*
X150850D01*
X148350Y95300D02*
X150850D01*
X148350Y94100D02*
Y95300D01*
X148250Y105000D02*
Y106200D01*
X145750Y105000D02*
X148250D01*
X145750Y106200D02*
X148250D01*
X145750Y105000D02*
Y106200D01*
Y103300D02*
Y104500D01*
X148250D01*
X145750Y103300D02*
X148250D01*
Y104500D01*
X126250Y79400D02*
Y80600D01*
X123750Y79400D02*
X126250D01*
X123750Y80600D02*
X126250D01*
X123750Y79400D02*
Y80600D01*
X140950Y109300D02*
Y110500D01*
X143450D01*
X140950Y109300D02*
X143450D01*
Y110500D01*
X140950Y110700D02*
Y111900D01*
X143450D01*
X140950Y110700D02*
X143450D01*
Y111900D01*
X96200Y106650D02*
X97400D01*
Y104150D02*
Y106650D01*
X96200Y104150D02*
Y106650D01*
Y104150D02*
X97400D01*
X77450Y58800D02*
Y60000D01*
X79950D01*
X77450Y58800D02*
X79950D01*
Y60000D01*
X74892Y70340D02*
X75740Y69492D01*
X74892Y70340D02*
X76660Y72108D01*
X75740Y69492D02*
X77508Y71260D01*
X76660Y72108D02*
X77508Y71260D01*
X48200Y75750D02*
X49400D01*
Y73250D02*
Y75750D01*
X48200Y73250D02*
Y75750D01*
Y73250D02*
X49400D01*
X48200Y65750D02*
X49400D01*
X48200D02*
Y68250D01*
X49400Y65750D02*
Y68250D01*
X48200D02*
X49400D01*
X48300Y83050D02*
X49500D01*
Y80550D02*
Y83050D01*
X48300Y80550D02*
Y83050D01*
Y80550D02*
X49500D01*
X48200Y58150D02*
X49400D01*
X48200D02*
Y60650D01*
X49400Y58150D02*
Y60650D01*
X48200D02*
X49400D01*
X124200Y80750D02*
X125400D01*
X124200D02*
Y83250D01*
X125400Y80750D02*
Y83250D01*
X124200D02*
X125400D01*
X122300Y81850D02*
X123500D01*
X122300D02*
Y84350D01*
X123500Y81850D02*
Y84350D01*
X122300D02*
X123500D01*
X131000Y77150D02*
X132200D01*
X131000D02*
Y79650D01*
X132200Y77150D02*
Y79650D01*
X131000D02*
X132200D01*
X81500Y72000D02*
Y72800D01*
X83300D01*
X81500Y72000D02*
X83300D01*
Y72800D01*
X86000Y71600D02*
Y72400D01*
X87800D01*
X86000Y71600D02*
X87800D01*
Y72400D01*
X81500Y70800D02*
Y71600D01*
X83300D01*
X81500Y70800D02*
X83300D01*
Y71600D01*
X86000Y70400D02*
Y71200D01*
X87800D01*
X86000Y70400D02*
X87800D01*
Y71200D01*
X81500Y69600D02*
Y70400D01*
X83300D01*
X81500Y69600D02*
X83300D01*
Y70400D01*
X86000Y69200D02*
Y70000D01*
X87800D01*
X86000Y69200D02*
X87800D01*
Y70000D01*
X86000Y68200D02*
Y69000D01*
X87800D01*
X86000Y68200D02*
X87800D01*
Y69000D01*
X86000Y67000D02*
Y67800D01*
X87800D01*
X86000Y67000D02*
X87800D01*
Y67800D01*
X81500Y67600D02*
Y68400D01*
X83300D01*
X81500Y67600D02*
X83300D01*
Y68400D01*
X81500Y66400D02*
Y67200D01*
X83300D01*
X81500Y66400D02*
X83300D01*
Y67200D01*
X86000Y65800D02*
Y66600D01*
X87800D01*
X86000Y65800D02*
X87800D01*
Y66600D01*
X81500Y65200D02*
Y66000D01*
X83300D01*
X81500Y65200D02*
X83300D01*
Y66000D01*
X86000Y64600D02*
Y65400D01*
X87800D01*
X86000Y64600D02*
X87800D01*
Y65400D01*
X81500Y64000D02*
Y64800D01*
X83300D01*
X81500Y64000D02*
X83300D01*
Y64800D01*
X86000Y63400D02*
Y64200D01*
X87800D01*
X86000Y63400D02*
X87800D01*
Y64200D01*
X81500Y62800D02*
Y63600D01*
X83300D01*
X81500Y62800D02*
X83300D01*
Y63600D01*
X81500Y61800D02*
Y62600D01*
X83300D01*
X81500Y61800D02*
X83300D01*
Y62600D01*
X81500Y60800D02*
Y61600D01*
X83300D01*
X81500Y60800D02*
X83300D01*
Y61600D01*
X81025Y55800D02*
X81133Y55907D01*
X74092Y59160D02*
X74940Y60008D01*
X76708Y58240D01*
X74092Y59160D02*
X75860Y57392D01*
X76708Y58240D01*
X78350Y67800D02*
Y69000D01*
X80850D01*
X78350Y67800D02*
X80850D01*
Y69000D01*
X81500Y59800D02*
Y60600D01*
X83300D01*
X81500Y59800D02*
X83300D01*
Y60600D01*
X81500Y57800D02*
Y58600D01*
X83300D01*
X81500Y57800D02*
X83300D01*
Y58600D01*
X81500Y56800D02*
Y57600D01*
X83300D01*
X81500Y56800D02*
X83300D01*
Y57600D01*
X81500Y58800D02*
Y59600D01*
X83300D01*
X81500Y58800D02*
X83300D01*
Y59600D01*
X79200Y56800D02*
Y57600D01*
X81000D01*
X79200Y56800D02*
X81000D01*
Y57600D01*
X78800Y56007D02*
Y56600D01*
Y56007D02*
X79007Y55800D01*
X81025D01*
X78600Y56800D02*
X78800Y56600D01*
X78600Y56800D02*
Y57100D01*
X76800Y56800D02*
Y57600D01*
X78600D01*
X76800Y56800D02*
X78600D01*
Y57600D01*
X89650Y79100D02*
Y80300D01*
X87150Y79100D02*
X89650D01*
X87150Y80300D02*
X89650D01*
X87150Y79100D02*
Y80300D01*
X54534Y97200D02*
X55100Y97766D01*
X56373Y96493D01*
X54534Y97200D02*
X55807Y95927D01*
X56373Y96493D01*
X59434Y93800D02*
X60000Y93234D01*
X59434Y93800D02*
X60707Y95073D01*
X60000Y93234D02*
X61273Y94507D01*
X60707Y95073D02*
X61273Y94507D01*
X52500Y110900D02*
X52800Y110600D01*
X52500Y110900D02*
Y113166D01*
X51800Y110600D02*
X52600D01*
Y108800D02*
Y110600D01*
X51800Y108800D02*
Y110600D01*
Y108800D02*
X52600D01*
X60300Y102100D02*
X61100D01*
Y100300D02*
Y102100D01*
X60300Y100300D02*
Y102100D01*
Y100300D02*
X61100D01*
X59300Y102100D02*
X60100D01*
Y100300D02*
Y102100D01*
X59300Y100300D02*
Y102100D01*
Y100300D02*
X60100D01*
X52800Y110600D02*
X53600D01*
Y108800D02*
Y110600D01*
X52800Y108800D02*
Y110600D01*
Y108800D02*
X53600D01*
X61500Y79000D02*
Y80200D01*
X64000D01*
X61500Y79000D02*
X64000D01*
Y80200D01*
X89650Y82500D02*
Y83700D01*
X87150Y82500D02*
X89650D01*
X87150Y83700D02*
X89650D01*
X87150Y82500D02*
Y83700D01*
X89650Y81200D02*
Y82400D01*
X87150Y81200D02*
X89650D01*
X87150Y82400D02*
X89650D01*
X87150Y81200D02*
Y82400D01*
X89650Y76300D02*
Y77500D01*
X87150Y76300D02*
X89650D01*
X87150Y77500D02*
X89650D01*
X87150Y76300D02*
Y77500D01*
X117700Y65050D02*
X118900D01*
X117700D02*
Y67550D01*
X118900Y65050D02*
Y67550D01*
X117700D02*
X118900D01*
X28300Y109350D02*
X29500D01*
X28300D02*
Y111850D01*
X29500Y109350D02*
Y111850D01*
X28300D02*
X29500D01*
X38700D02*
X39900D01*
Y109350D02*
Y111850D01*
X38700Y109350D02*
Y111850D01*
Y109350D02*
X39900D01*
X49100Y111850D02*
X50300D01*
Y109350D02*
Y111850D01*
X49100Y109350D02*
Y111850D01*
Y109350D02*
X50300D01*
X45100Y95350D02*
X46300D01*
Y92850D02*
Y95350D01*
X45100Y92850D02*
Y95350D01*
Y92850D02*
X46300D01*
X40300Y95350D02*
X41500D01*
Y92850D02*
Y95350D01*
X40300Y92850D02*
Y95350D01*
Y92850D02*
X41500Y92850D01*
X42700Y111850D02*
X43900D01*
X43900Y109350D02*
X43900Y111850D01*
X42700Y109350D02*
Y111850D01*
Y109350D02*
X43900D01*
X47500Y111850D02*
X48700D01*
Y109350D02*
Y111850D01*
X47500Y109350D02*
Y111850D01*
Y109350D02*
X48700D01*
X137300Y114550D02*
X138500Y114550D01*
Y112050D02*
Y114550D01*
X137300Y112050D02*
X137300Y114550D01*
X137300Y112050D02*
X138500D01*
X127950Y110900D02*
Y112100D01*
X130450D01*
X127950Y110900D02*
X130450Y110900D01*
X130450Y112100D02*
X130450Y110900D01*
X128000Y108650D02*
X129200Y108650D01*
Y106150D02*
Y108650D01*
X128000Y106150D02*
X128000Y108650D01*
X128000Y106150D02*
X129200D01*
X121500Y101250D02*
X122700D01*
X121500D02*
Y103750D01*
X122700Y101250D02*
Y103750D01*
X121500D02*
X122700D01*
X137300Y108950D02*
X138500D01*
Y106450D02*
Y108950D01*
X137300Y106450D02*
Y108950D01*
Y106450D02*
X138500Y106450D01*
X129400Y108650D02*
X130600D01*
Y106150D02*
Y108650D01*
X129400Y106150D02*
Y108650D01*
Y106150D02*
X130600D01*
X130450Y112300D02*
X130450Y113500D01*
X127950Y112300D02*
X130450D01*
X127950Y113500D02*
X130450D01*
X127950Y112300D02*
X127950Y113500D01*
X130450Y117900D02*
X130450Y116700D01*
X127950D02*
X130450D01*
X127950Y117900D02*
X130450Y117900D01*
X127950Y117900D02*
X127950Y116700D01*
X127950Y115100D02*
X127950Y113900D01*
X127950Y115100D02*
X130450Y115100D01*
X127950Y113900D02*
X130450D01*
Y115100D01*
X127950Y115300D02*
Y116500D01*
X130450D01*
X127950Y115300D02*
X130450D01*
Y116500D01*
X68300Y93850D02*
X69500D01*
X68300D02*
Y96350D01*
X69500Y93850D02*
Y96350D01*
X68300D02*
X69500D01*
X63050Y110300D02*
Y111500D01*
X60550Y110300D02*
X63050D01*
X60550Y111500D02*
X63050D01*
X60550Y110300D02*
Y111500D01*
X92250Y107000D02*
Y108200D01*
X94750D01*
X92250Y107000D02*
X94750D01*
Y108200D01*
X79500Y93850D02*
X80700D01*
X79500D02*
Y96350D01*
X80700Y93850D02*
Y96350D01*
X79500D02*
X80700D01*
X85700Y96450D02*
X86900D01*
Y93950D02*
Y96450D01*
X85700Y93950D02*
Y96450D01*
Y93950D02*
X86900D01*
X63050Y106700D02*
Y107900D01*
X60550Y106700D02*
X63050D01*
X60550Y107900D02*
X63050D01*
X60550Y106700D02*
Y107900D01*
X68300Y128150D02*
X69500D01*
Y125650D02*
Y128150D01*
X68300Y125650D02*
Y128150D01*
Y125650D02*
X69500D01*
X94750Y112500D02*
Y113700D01*
X92250Y112500D02*
X94750D01*
X92250Y113700D02*
X94750D01*
X92250Y112500D02*
Y113700D01*
X84300Y93950D02*
X85500D01*
X84300D02*
Y96450D01*
X85500Y93950D02*
Y96450D01*
X84300D02*
X85500D01*
X94750Y117900D02*
Y119100D01*
X92250Y117900D02*
X94750D01*
X92250Y119100D02*
X94750D01*
X92250Y117900D02*
Y119100D01*
X60550Y102900D02*
Y104100D01*
X63050D01*
X60550Y102900D02*
X63050D01*
Y104100D01*
X53400Y99400D02*
X54200D01*
Y97600D02*
Y99400D01*
X53400Y97600D02*
Y99400D01*
Y97600D02*
X54200D01*
X56250Y108400D02*
Y109600D01*
X53750Y108400D02*
X56250D01*
X53750Y109600D02*
X56250D01*
X53750Y108400D02*
Y109600D01*
X56250Y109800D02*
Y111000D01*
X53750Y109800D02*
X56250D01*
X53750Y111000D02*
X56250D01*
X53750Y109800D02*
Y111000D01*
X59200Y105400D02*
X60450D01*
X60550Y105300D01*
X63750Y117550D02*
X64050D01*
X63900Y120025D02*
X64050D01*
X63900Y115050D02*
X64050D01*
X63750Y112550D02*
X64050D01*
X63750Y107550D02*
X64050D01*
X63900Y110050D02*
X64050D01*
X63750Y102550D02*
X64050D01*
X63900Y105050D02*
X64050D01*
X69350Y97450D02*
Y97750D01*
X66850Y97600D02*
Y97750D01*
X74350Y97450D02*
Y97750D01*
X71850Y97600D02*
Y97750D01*
X79350Y97450D02*
Y97750D01*
X76850Y97600D02*
Y97750D01*
X84350Y97450D02*
Y97750D01*
X81850Y97600D02*
Y97750D01*
X91150Y101050D02*
X91450D01*
X86850Y97600D02*
Y97750D01*
X91150Y106050D02*
X91450D01*
X91150Y103550D02*
X91300D01*
X91150Y111050D02*
X91450D01*
X91150Y108550D02*
X91300D01*
X91150Y113550D02*
X91300D01*
X91150Y116050D02*
X91450D01*
X91150Y118550D02*
X91300D01*
X91150Y121050D02*
X91450D01*
X87350Y124850D02*
Y125000D01*
X84850Y124850D02*
Y125150D01*
X82350Y124850D02*
Y125000D01*
X79850Y124850D02*
Y125150D01*
X77350Y124850D02*
Y125000D01*
X74850Y124850D02*
Y125150D01*
X72350Y124850D02*
Y125000D01*
X69850Y124850D02*
Y125150D01*
X67350Y124850D02*
Y125000D01*
X57534Y94700D02*
X58100Y95266D01*
X59373Y93993D01*
X57534Y94700D02*
X58807Y93427D01*
X59373Y93993D01*
X87150Y77700D02*
Y78900D01*
X89650D01*
X87150Y77700D02*
X89650D01*
Y78900D01*
X63592Y97860D02*
X64440Y98708D01*
X66208Y96940D01*
X63592Y97860D02*
X65360Y96092D01*
X66208Y96940D01*
X54800Y90850D02*
X56000D01*
Y88350D02*
Y90850D01*
X54800Y88350D02*
Y90850D01*
Y88350D02*
X56000D01*
X93575Y64525D02*
Y65725D01*
X96075D01*
X93575Y64525D02*
X96075D01*
Y65725D01*
X93500Y61750D02*
X94700D01*
X93500D02*
Y64250D01*
X94700Y61750D02*
Y64250D01*
X93500D02*
X94700D01*
X94900Y61750D02*
X96100D01*
X94900D02*
Y64250D01*
X96100Y61750D02*
Y64250D01*
X94900D02*
X96100D01*
X68150Y64000D02*
Y65200D01*
X65650Y64000D02*
X68150D01*
X65650Y65200D02*
X68150D01*
X65650Y64000D02*
Y65200D01*
X69300Y63100D02*
X70100D01*
Y61300D02*
Y63100D01*
X69300Y61300D02*
Y63100D01*
Y61300D02*
X70100D01*
X68300Y59800D02*
X69100D01*
X68300D02*
Y61600D01*
X69100Y59800D02*
Y61600D01*
X68300D02*
X69100D01*
X66800Y59450D02*
X68000D01*
Y56950D02*
Y59450D01*
X66800Y56950D02*
Y59450D01*
Y56950D02*
X68000D01*
X63400Y59750D02*
X64600D01*
X63400D02*
Y62250D01*
X64600Y59750D02*
Y62250D01*
X63400D02*
X64600D01*
X49700Y83050D02*
X50900D01*
Y80550D02*
Y83050D01*
X49700Y80550D02*
Y83050D01*
Y80550D02*
X50900D01*
X49600Y75750D02*
X50800D01*
Y73250D02*
Y75750D01*
X49600Y73250D02*
Y75750D01*
Y73250D02*
X50800D01*
X49600Y65750D02*
X50800D01*
X49600D02*
Y68250D01*
X50800Y65750D02*
Y68250D01*
X49600D02*
X50800D01*
X49600Y58150D02*
X50800D01*
X49600D02*
Y60650D01*
X50800Y58150D02*
Y60650D01*
X49600D02*
X50800D01*
X52200Y120625D02*
X53400D01*
X52200D02*
Y123125D01*
X53400Y120625D02*
Y123125D01*
X52200D02*
X53400D01*
X53800Y123150D02*
X55000D01*
Y120650D02*
Y123150D01*
X53800Y120650D02*
Y123150D01*
Y120650D02*
X55000D01*
X72100Y54700D02*
Y55500D01*
X73900D01*
X72100Y54700D02*
X73900D01*
Y55500D01*
X72100Y55700D02*
Y56500D01*
X73900D01*
X72100Y55700D02*
X73900D01*
Y56500D01*
X72100Y56700D02*
Y57500D01*
X73900D01*
X72100Y56700D02*
X73900D01*
Y57500D01*
X76800Y55800D02*
Y56600D01*
X78600D01*
X76800Y55800D02*
X78600D01*
Y56600D01*
X98850Y127200D02*
Y128400D01*
X101350D01*
X98850Y127200D02*
X101350D01*
Y128400D01*
X87850Y130700D02*
Y131900D01*
X85350Y130700D02*
X87850D01*
X85350Y131900D02*
X87850D01*
X85350Y130700D02*
Y131900D01*
X34400Y90950D02*
X35600D01*
Y88450D02*
Y90950D01*
X34400Y88450D02*
Y90950D01*
Y88450D02*
X35600D01*
X73150Y72200D02*
Y73400D01*
X70650Y72200D02*
X73150D01*
X70650Y73400D02*
X73150D01*
X70650Y72200D02*
Y73400D01*
X28575Y71925D02*
X29775D01*
X28575D02*
Y74425D01*
X29775Y71925D02*
Y74425D01*
X28575D02*
X29775D01*
X138400Y79950D02*
X139600D01*
X138400D02*
Y82450D01*
X139600Y79950D02*
Y82450D01*
X138400D02*
X139600D01*
X144450Y77400D02*
Y78600D01*
X141950Y77400D02*
X144450D01*
X141950Y78600D02*
X144450D01*
X141950Y77400D02*
Y78600D01*
X143200Y74750D02*
X144400D01*
X143200D02*
Y77250D01*
X144400Y74750D02*
Y77250D01*
X143200D02*
X144400D01*
X141800D02*
X143000D01*
Y74750D02*
Y77250D01*
X141800Y74750D02*
Y77250D01*
Y74750D02*
X143000D01*
X193750Y110200D02*
Y111400D01*
X191250Y110200D02*
X193750D01*
X191250Y111400D02*
X193750D01*
X191250Y110200D02*
Y111400D01*
X180900Y123650D02*
X182100D01*
Y121150D02*
Y123650D01*
X180900Y121150D02*
Y123650D01*
Y121150D02*
X182100D01*
X184550Y127200D02*
Y128400D01*
X187050D01*
X184550Y127200D02*
X187050D01*
Y128400D01*
X184550Y128600D02*
Y129800D01*
X187050D01*
X184550Y128600D02*
X187050D01*
Y129800D01*
X170250Y110700D02*
Y111900D01*
X172750D01*
X170250Y110700D02*
X172750D01*
Y111900D01*
X173100Y115750D02*
X174300D01*
Y113250D02*
Y115750D01*
X173100Y113250D02*
Y115750D01*
Y113250D02*
X174300D01*
X73500Y125850D02*
X74700D01*
X73500D02*
Y128350D01*
X74700Y125850D02*
Y128350D01*
X73500D02*
X74700D01*
X192700Y107450D02*
X193900D01*
X192700D02*
Y109950D01*
X193900Y107450D02*
Y109950D01*
X192700D02*
X193900D01*
X187700Y110450D02*
X188900D01*
Y107950D02*
Y110450D01*
X187700Y107950D02*
Y110450D01*
Y107950D02*
X188900D01*
X63100Y72750D02*
X64300D01*
Y70250D02*
Y72750D01*
X63100Y70250D02*
Y72750D01*
Y70250D02*
X64300D01*
X165950Y68800D02*
Y70000D01*
X168450D01*
X165950Y68800D02*
X168450D01*
Y70000D01*
X161750Y69400D02*
Y70600D01*
X159250Y69400D02*
X161750D01*
X159250Y70600D02*
X161750D01*
X159250Y69400D02*
Y70600D01*
X169550Y92700D02*
Y93900D01*
X172050D01*
X169550Y92700D02*
X172050D01*
Y93900D01*
X167000Y98650D02*
X168200D01*
Y96150D02*
Y98650D01*
X167000Y96150D02*
Y98650D01*
Y96150D02*
X168200D01*
X174450Y92700D02*
Y93900D01*
X176950D01*
X174450Y92700D02*
X176950D01*
Y93900D01*
X180050Y92700D02*
Y93900D01*
X177550Y92700D02*
X180050D01*
X177550Y93900D02*
X180050D01*
X177550Y92700D02*
Y93900D01*
X184800Y70550D02*
X186000D01*
Y68050D02*
Y70550D01*
X184800Y68050D02*
Y70550D01*
Y68050D02*
X186000D01*
X179750Y68800D02*
Y70000D01*
X182250D01*
X179750Y68800D02*
X182250D01*
Y70000D01*
X59750Y118200D02*
Y119400D01*
X62250D01*
X59750Y118200D02*
X62250D01*
Y119400D01*
X153700Y76450D02*
X154900D01*
X153700D02*
Y78950D01*
X154900Y76450D02*
Y78950D01*
X153700D02*
X154900D01*
X152850Y67100D02*
Y68300D01*
X155350D01*
X152850Y67100D02*
X155350D01*
Y68300D01*
X129350Y82500D02*
Y83700D01*
X126850Y82500D02*
X129350D01*
X126850Y83700D02*
X129350D01*
X126850Y82500D02*
Y83700D01*
Y83900D02*
Y85100D01*
X129350D01*
X126850Y83900D02*
X129350D01*
Y85100D01*
X155550Y67100D02*
Y68300D01*
X158050D01*
X155550Y67100D02*
X158050D01*
Y68300D01*
X158200Y68350D02*
X159400D01*
Y65850D02*
Y68350D01*
X158200Y65850D02*
Y68350D01*
Y65850D02*
X159400D01*
X155350Y65700D02*
Y66900D01*
X152850Y65700D02*
X155350D01*
X152850Y66900D02*
X155350D01*
X152850Y65700D02*
Y66900D01*
X138950Y57375D02*
Y58575D01*
X141450D01*
X138950Y57375D02*
X141450D01*
Y58575D01*
X139800Y68150D02*
X141000D01*
Y65650D02*
Y68150D01*
X139800Y65650D02*
Y68150D01*
Y65650D02*
X141000D01*
X141100Y68150D02*
X142300D01*
Y65650D02*
Y68150D01*
X141100Y65650D02*
Y68150D01*
Y65650D02*
X142300D01*
X171950Y68800D02*
Y70000D01*
X169450Y68800D02*
X171950D01*
X169450Y70000D02*
X171950D01*
X169450Y68800D02*
Y70000D01*
X68050Y68700D02*
Y69900D01*
X70550D01*
X68050Y68700D02*
X70550D01*
Y69900D01*
X186700Y63750D02*
X187900D01*
Y61250D02*
Y63750D01*
X186700Y61250D02*
Y63750D01*
Y61250D02*
X187900D01*
X72100Y125850D02*
X73300D01*
X72100D02*
Y128350D01*
X73300Y125850D02*
Y128350D01*
X72100D02*
X73300D01*
X172750Y113400D02*
Y114600D01*
X170250Y113400D02*
X172750D01*
X170250Y114600D02*
X172750D01*
X170250Y113400D02*
Y114600D01*
X83000Y129700D02*
Y130500D01*
X83400D01*
X83533Y130366D01*
Y130100D01*
X83400Y129967D01*
X83000D01*
X83267D02*
X83533Y129700D01*
X84333D02*
X83800D01*
X84333Y130233D01*
Y130366D01*
X84200Y130500D01*
X83933D01*
X83800Y130366D01*
X85133Y129700D02*
X84599D01*
X85133Y130233D01*
Y130366D01*
X84999Y130500D01*
X84733D01*
X84599Y130366D01*
X175000Y75800D02*
X174200D01*
Y76200D01*
X174334Y76333D01*
X174600D01*
X174733Y76200D01*
Y75800D01*
Y76067D02*
X175000Y76333D01*
X174200Y77133D02*
Y76600D01*
X174600D01*
X174467Y76866D01*
Y77000D01*
X174600Y77133D01*
X174867D01*
X175000Y77000D01*
Y76733D01*
X174867Y76600D01*
X175000Y77799D02*
X174200D01*
X174600Y77399D01*
Y77933D01*
X158775Y120950D02*
Y121750D01*
X159175D01*
X159308Y121616D01*
Y121350D01*
X159175Y121217D01*
X158775D01*
X159042D02*
X159308Y120950D01*
X160108Y121750D02*
X159575D01*
Y121350D01*
X159841Y121483D01*
X159975D01*
X160108Y121350D01*
Y121083D01*
X159975Y120950D01*
X159708D01*
X159575Y121083D01*
X160374Y120950D02*
X160641D01*
X160508D01*
Y121750D01*
X160374Y121616D01*
X154633Y93466D02*
X154500Y93600D01*
X154233D01*
X154100Y93466D01*
Y92933D01*
X154233Y92800D01*
X154500D01*
X154633Y92933D01*
X154900Y93466D02*
X155033Y93600D01*
X155300D01*
X155433Y93466D01*
Y93333D01*
X155300Y93200D01*
X155166D01*
X155300D01*
X155433Y93067D01*
Y92933D01*
X155300Y92800D01*
X155033D01*
X154900Y92933D01*
X155699Y93466D02*
X155833Y93600D01*
X156099D01*
X156233Y93466D01*
Y93333D01*
X156099Y93200D01*
X155966D01*
X156099D01*
X156233Y93067D01*
Y92933D01*
X156099Y92800D01*
X155833D01*
X155699Y92933D01*
X98034Y66533D02*
X97900Y66400D01*
Y66133D01*
X98034Y66000D01*
X98567D01*
X98700Y66133D01*
Y66400D01*
X98567Y66533D01*
X97900Y67333D02*
X98034Y67066D01*
X98300Y66800D01*
X98567D01*
X98700Y66933D01*
Y67200D01*
X98567Y67333D01*
X98433D01*
X98300Y67200D01*
Y66800D01*
X98034Y67599D02*
X97900Y67733D01*
Y67999D01*
X98034Y68133D01*
X98167D01*
X98300Y67999D01*
Y67866D01*
Y67999D01*
X98433Y68133D01*
X98567D01*
X98700Y67999D01*
Y67733D01*
X98567Y67599D01*
X77381Y72273D02*
X77192D01*
X77004Y72085D01*
X77004Y71896D01*
X77381Y71519D01*
X77569D01*
X77758Y71708D01*
X77758Y71896D01*
X78040Y71991D02*
X78229Y72179D01*
X78135Y72085D01*
X77569Y72650D01*
X77569Y72462D01*
X78889Y72839D02*
X78512Y72462D01*
Y73216D01*
X78418Y73310D01*
X78229D01*
X78040Y73122D01*
X78040Y72933D01*
X79077Y73027D02*
X79266Y73216D01*
X79172Y73122D01*
X78606Y73687D01*
X78606Y73499D01*
X77933Y58566D02*
X77800Y58700D01*
X77533D01*
X77400Y58566D01*
Y58033D01*
X77533Y57900D01*
X77800D01*
X77933Y58033D01*
X78200Y57900D02*
X78466D01*
X78333D01*
Y58700D01*
X78200Y58566D01*
X79399Y57900D02*
X78866D01*
X79399Y58433D01*
Y58566D01*
X79266Y58700D01*
X78999D01*
X78866Y58566D01*
X79666D02*
X79799Y58700D01*
X80066D01*
X80199Y58566D01*
Y58033D01*
X80066Y57900D01*
X79799D01*
X79666Y58033D01*
Y58566D01*
X127100Y85200D02*
Y86000D01*
X127500D01*
X127633Y85866D01*
Y85600D01*
X127500Y85467D01*
X127100D01*
X127367D02*
X127633Y85200D01*
X127900D02*
X128166D01*
X128033D01*
Y86000D01*
X127900Y85866D01*
X129099Y86000D02*
X128566D01*
Y85600D01*
X128833Y85733D01*
X128966D01*
X129099Y85600D01*
Y85333D01*
X128966Y85200D01*
X128699D01*
X128566Y85333D01*
X65500Y73200D02*
Y72400D01*
X66033D01*
X66300D02*
X66566D01*
X66433D01*
Y73200D01*
X66300Y73066D01*
X66966D02*
X67099Y73200D01*
X67366D01*
X67499Y73066D01*
Y72533D01*
X67366Y72400D01*
X67099D01*
X66966Y72533D01*
Y73066D01*
X151300Y92500D02*
Y91700D01*
X151833D01*
X152100Y92500D02*
X152633D01*
Y92366D01*
X152100Y91833D01*
Y91700D01*
X149900Y121900D02*
Y121100D01*
X150433D01*
X151233D02*
X150700D01*
X151233Y121633D01*
Y121766D01*
X151100Y121900D01*
X150833D01*
X150700Y121766D01*
X138725Y115475D02*
X139525D01*
Y115875D01*
X139392Y116008D01*
X138859D01*
X138725Y115875D01*
Y115475D01*
X139525Y116275D02*
X138992D01*
X138725Y116541D01*
X138992Y116808D01*
X139525D01*
X139125D01*
Y116275D01*
X139525Y117074D02*
Y117341D01*
Y117208D01*
X138725D01*
X138859Y117074D01*
X149733Y108366D02*
X149600Y108500D01*
X149333D01*
X149200Y108366D01*
Y107833D01*
X149333Y107700D01*
X149600D01*
X149733Y107833D01*
X150400Y107700D02*
Y108500D01*
X150000Y108100D01*
X150533D01*
X150799Y107700D02*
X151066D01*
X150933D01*
Y108500D01*
X150799Y108366D01*
X141633Y125866D02*
X141500Y126000D01*
X141233D01*
X141100Y125866D01*
Y125333D01*
X141233Y125200D01*
X141500D01*
X141633Y125333D01*
X141900Y125866D02*
X142033Y126000D01*
X142300D01*
X142433Y125866D01*
Y125733D01*
X142300Y125600D01*
X142166D01*
X142300D01*
X142433Y125467D01*
Y125333D01*
X142300Y125200D01*
X142033D01*
X141900Y125333D01*
X139133Y110266D02*
X139000Y110400D01*
X138733D01*
X138600Y110266D01*
Y109733D01*
X138733Y109600D01*
X139000D01*
X139133Y109733D01*
X139400Y110266D02*
X139533Y110400D01*
X139800D01*
X139933Y110266D01*
Y110133D01*
X139800Y110000D01*
X139666D01*
X139800D01*
X139933Y109867D01*
Y109733D01*
X139800Y109600D01*
X139533D01*
X139400Y109733D01*
X140199Y109600D02*
X140466D01*
X140333D01*
Y110400D01*
X140199Y110266D01*
X146700Y64500D02*
X147233Y63700D01*
Y64500D02*
X146700Y63700D01*
X148033Y64366D02*
X147900Y64500D01*
X147633D01*
X147500Y64366D01*
Y64233D01*
X147633Y64100D01*
X147900D01*
X148033Y63967D01*
Y63833D01*
X147900Y63700D01*
X147633D01*
X147500Y63833D01*
X148699Y63700D02*
Y64500D01*
X148299Y64100D01*
X148833D01*
X90433Y79966D02*
X90300Y80100D01*
X90033D01*
X89900Y79966D01*
Y79433D01*
X90033Y79300D01*
X90300D01*
X90433Y79433D01*
X90700D02*
X90833Y79300D01*
X91100D01*
X91233Y79433D01*
Y79966D01*
X91100Y80100D01*
X90833D01*
X90700Y79966D01*
Y79833D01*
X90833Y79700D01*
X91233D01*
X92033Y80100D02*
X91499D01*
Y79700D01*
X91766Y79833D01*
X91899D01*
X92033Y79700D01*
Y79433D01*
X91899Y79300D01*
X91633D01*
X91499Y79433D01*
X57933Y118966D02*
X57800Y119100D01*
X57533D01*
X57400Y118966D01*
Y118433D01*
X57533Y118300D01*
X57800D01*
X57933Y118433D01*
X58200Y119100D02*
X58733D01*
Y118966D01*
X58200Y118433D01*
Y118300D01*
X58999Y119100D02*
X59533D01*
Y118966D01*
X58999Y118433D01*
Y118300D01*
X176300Y82500D02*
Y83300D01*
X176700D01*
X176833Y83166D01*
Y82900D01*
X176700Y82767D01*
X176300D01*
X176567D02*
X176833Y82500D01*
X177633Y83300D02*
X177100D01*
Y82900D01*
X177366Y83033D01*
X177500D01*
X177633Y82900D01*
Y82633D01*
X177500Y82500D01*
X177233D01*
X177100Y82633D01*
X177899Y83166D02*
X178033Y83300D01*
X178299D01*
X178433Y83166D01*
Y83033D01*
X178299Y82900D01*
X178166D01*
X178299D01*
X178433Y82767D01*
Y82633D01*
X178299Y82500D01*
X178033D01*
X177899Y82633D01*
X53442Y100051D02*
Y100850D01*
X53841D01*
X53975Y100717D01*
Y100450D01*
X53841Y100317D01*
X53442D01*
X53708D02*
X53975Y100051D01*
X54241Y100717D02*
X54375Y100850D01*
X54641D01*
X54775Y100717D01*
Y100584D01*
X54641Y100450D01*
X54508D01*
X54641D01*
X54775Y100317D01*
Y100184D01*
X54641Y100051D01*
X54375D01*
X54241Y100184D01*
X55041Y100850D02*
X55574D01*
Y100717D01*
X55041Y100184D01*
Y100051D01*
X59725Y94500D02*
X59160Y95065D01*
X59442Y95348D01*
X59631D01*
X59819Y95160D01*
X59819Y94971D01*
X59536Y94688D01*
X59725Y94877D02*
X60102D01*
X59819Y95537D02*
X59819Y95725D01*
X60008Y95914D01*
X60196D01*
X60291Y95820D01*
Y95631D01*
X60196Y95537D01*
X60291Y95631D01*
X60479Y95631D01*
X60573Y95537D01*
X60573Y95348D01*
X60385Y95160D01*
X60196D01*
X60667Y96574D02*
X60573Y96291D01*
Y95914D01*
X60762Y95725D01*
X60950D01*
X61139Y95914D01*
X61139Y96102D01*
X61045Y96197D01*
X60856Y96197D01*
X60573Y95914D01*
X52448Y106548D02*
X51648D01*
Y106947D01*
X51781Y107081D01*
X52048D01*
X52181Y106947D01*
Y106548D01*
Y106814D02*
X52448Y107081D01*
X51781Y107347D02*
X51648Y107481D01*
Y107747D01*
X51781Y107881D01*
X51914D01*
X52048Y107747D01*
Y107614D01*
Y107747D01*
X52181Y107881D01*
X52314D01*
X52448Y107747D01*
Y107481D01*
X52314Y107347D01*
X51648Y108680D02*
Y108147D01*
X52048D01*
X51914Y108414D01*
Y108547D01*
X52048Y108680D01*
X52314D01*
X52448Y108547D01*
Y108280D01*
X52314Y108147D01*
X60300Y100100D02*
X61100D01*
Y99700D01*
X60966Y99567D01*
X60700D01*
X60567Y99700D01*
Y100100D01*
Y99833D02*
X60300Y99567D01*
X60966Y99300D02*
X61100Y99167D01*
Y98900D01*
X60966Y98767D01*
X60833D01*
X60700Y98900D01*
Y99034D01*
Y98900D01*
X60567Y98767D01*
X60433D01*
X60300Y98900D01*
Y99167D01*
X60433Y99300D01*
X60300Y98101D02*
X61100D01*
X60700Y98501D01*
Y97967D01*
X89900Y77900D02*
Y78700D01*
X90300D01*
X90433Y78566D01*
Y78300D01*
X90300Y78167D01*
X89900D01*
X90167D02*
X90433Y77900D01*
X90700Y78566D02*
X90833Y78700D01*
X91100D01*
X91233Y78566D01*
Y78433D01*
X91100Y78300D01*
X90966D01*
X91100D01*
X91233Y78167D01*
Y78033D01*
X91100Y77900D01*
X90833D01*
X90700Y78033D01*
X91499Y78566D02*
X91633Y78700D01*
X91899D01*
X92033Y78566D01*
Y78433D01*
X91899Y78300D01*
X91766D01*
X91899D01*
X92033Y78167D01*
Y78033D01*
X91899Y77900D01*
X91633D01*
X91499Y78033D01*
X53400Y96700D02*
X53965Y97266D01*
X54248Y96983D01*
Y96794D01*
X54060Y96606D01*
X53871Y96606D01*
X53589Y96888D01*
X53777Y96700D02*
Y96323D01*
X54437Y96606D02*
X54625Y96606D01*
X54814Y96417D01*
Y96229D01*
X54720Y96134D01*
X54531D01*
X54437Y96229D01*
X54531Y96134D01*
X54531Y95946D01*
X54437Y95852D01*
X54248Y95852D01*
X54060Y96040D01*
Y96229D01*
X54908Y95192D02*
X54531Y95569D01*
X55285D01*
X55379Y95663D01*
Y95852D01*
X55191Y96040D01*
X55002Y96040D01*
X56350Y93200D02*
Y94000D01*
X56750D01*
X56883Y93866D01*
Y93600D01*
X56750Y93467D01*
X56350D01*
X56617D02*
X56883Y93200D01*
X57150Y93866D02*
X57283Y94000D01*
X57550D01*
X57683Y93866D01*
Y93733D01*
X57550Y93600D01*
X57416D01*
X57550D01*
X57683Y93467D01*
Y93333D01*
X57550Y93200D01*
X57283D01*
X57150Y93333D01*
X57949Y93200D02*
X58216D01*
X58083D01*
Y94000D01*
X57949Y93866D01*
X52400Y111200D02*
X51600D01*
Y111600D01*
X51734Y111733D01*
X52000D01*
X52133Y111600D01*
Y111200D01*
Y111467D02*
X52400Y111733D01*
X51734Y112000D02*
X51600Y112133D01*
Y112400D01*
X51734Y112533D01*
X51867D01*
X52000Y112400D01*
Y112266D01*
Y112400D01*
X52133Y112533D01*
X52267D01*
X52400Y112400D01*
Y112133D01*
X52267Y112000D01*
X51734Y112799D02*
X51600Y112933D01*
Y113199D01*
X51734Y113333D01*
X52267D01*
X52400Y113199D01*
Y112933D01*
X52267Y112799D01*
X51734D01*
X136830Y121860D02*
X136696Y121727D01*
Y121460D01*
X136830Y121327D01*
X137363D01*
X137496Y121460D01*
Y121727D01*
X137363Y121860D01*
X137496Y122127D02*
Y122393D01*
Y122260D01*
X136696D01*
X136830Y122127D01*
Y122793D02*
X136696Y122926D01*
Y123193D01*
X136830Y123326D01*
X136963D01*
X137096Y123193D01*
Y123060D01*
Y123193D01*
X137229Y123326D01*
X137363D01*
X137496Y123193D01*
Y122926D01*
X137363Y122793D01*
X42600Y131000D02*
X43133Y130200D01*
Y131000D02*
X42600Y130200D01*
X43933Y130866D02*
X43800Y131000D01*
X43533D01*
X43400Y130866D01*
Y130733D01*
X43533Y130600D01*
X43800D01*
X43933Y130467D01*
Y130333D01*
X43800Y130200D01*
X43533D01*
X43400Y130333D01*
X44199Y130866D02*
X44333Y131000D01*
X44599D01*
X44733Y130866D01*
Y130733D01*
X44599Y130600D01*
X44466D01*
X44599D01*
X44733Y130467D01*
Y130333D01*
X44599Y130200D01*
X44333D01*
X44199Y130333D01*
X87300Y58900D02*
X87833Y58100D01*
Y58900D02*
X87300Y58100D01*
X88633Y58766D02*
X88500Y58900D01*
X88233D01*
X88100Y58766D01*
Y58633D01*
X88233Y58500D01*
X88500D01*
X88633Y58367D01*
Y58233D01*
X88500Y58100D01*
X88233D01*
X88100Y58233D01*
X89433Y58100D02*
X88899D01*
X89433Y58633D01*
Y58766D01*
X89299Y58900D01*
X89033D01*
X88899Y58766D01*
X162075Y107325D02*
X162875Y107858D01*
X162075D02*
X162875Y107325D01*
Y108125D02*
X162075D01*
Y108525D01*
X162209Y108658D01*
X162475D01*
X162608Y108525D01*
Y108125D01*
X162875Y109324D02*
X162075D01*
X162475Y108924D01*
Y109458D01*
X162100Y110000D02*
X162900Y110533D01*
X162100D02*
X162900Y110000D01*
Y110800D02*
X162100D01*
Y111200D01*
X162234Y111333D01*
X162500D01*
X162633Y111200D01*
Y110800D01*
X162234Y111599D02*
X162100Y111733D01*
Y111999D01*
X162234Y112133D01*
X162367D01*
X162500Y111999D01*
Y111866D01*
Y111999D01*
X162633Y112133D01*
X162767D01*
X162900Y111999D01*
Y111733D01*
X162767Y111599D01*
X163300Y121500D02*
X163833Y120700D01*
Y121500D02*
X163300Y120700D01*
X164100D02*
Y121500D01*
X164500D01*
X164633Y121366D01*
Y121100D01*
X164500Y120967D01*
X164100D01*
X165433Y120700D02*
X164899D01*
X165433Y121233D01*
Y121366D01*
X165299Y121500D01*
X165033D01*
X164899Y121366D01*
X129934Y109183D02*
X129800Y109050D01*
Y108783D01*
X129934Y108650D01*
X130467D01*
X130600Y108783D01*
Y109050D01*
X130467Y109183D01*
X130600Y109983D02*
Y109450D01*
X130067Y109983D01*
X129934D01*
X129800Y109850D01*
Y109583D01*
X129934Y109450D01*
X129800Y110249D02*
Y110783D01*
X129934D01*
X130467Y110249D01*
X130600D01*
X126033Y113166D02*
X125900Y113300D01*
X125633D01*
X125500Y113166D01*
Y112633D01*
X125633Y112500D01*
X125900D01*
X126033Y112633D01*
X126833Y112500D02*
X126300D01*
X126833Y113033D01*
Y113166D01*
X126700Y113300D01*
X126433D01*
X126300Y113166D01*
X127633Y113300D02*
X127366Y113166D01*
X127099Y112900D01*
Y112633D01*
X127233Y112500D01*
X127499D01*
X127633Y112633D01*
Y112767D01*
X127499Y112900D01*
X127099D01*
X137534Y117233D02*
X137400Y117100D01*
Y116833D01*
X137534Y116700D01*
X138067D01*
X138200Y116833D01*
Y117100D01*
X138067Y117233D01*
X138200Y118033D02*
Y117500D01*
X137667Y118033D01*
X137534D01*
X137400Y117900D01*
Y117633D01*
X137534Y117500D01*
X137400Y118833D02*
Y118299D01*
X137800D01*
X137667Y118566D01*
Y118699D01*
X137800Y118833D01*
X138067D01*
X138200Y118699D01*
Y118433D01*
X138067Y118299D01*
X182400Y69000D02*
Y69800D01*
X182800D01*
X182933Y69666D01*
Y69400D01*
X182800Y69267D01*
X182400D01*
X182667D02*
X182933Y69000D01*
X183600D02*
Y69800D01*
X183200Y69400D01*
X183733D01*
X184533Y69800D02*
X183999D01*
Y69400D01*
X184266Y69533D01*
X184399D01*
X184533Y69400D01*
Y69133D01*
X184399Y69000D01*
X184133D01*
X183999Y69133D01*
X185100Y67700D02*
X185900D01*
Y67300D01*
X185766Y67167D01*
X185500D01*
X185367Y67300D01*
Y67700D01*
Y67433D02*
X185100Y67167D01*
Y66500D02*
X185900D01*
X185500Y66900D01*
Y66367D01*
X185100Y65701D02*
X185900D01*
X185500Y66101D01*
Y65567D01*
X131934Y115533D02*
X131800Y115400D01*
Y115133D01*
X131934Y115000D01*
X132467D01*
X132600Y115133D01*
Y115400D01*
X132467Y115533D01*
X132600Y115800D02*
Y116066D01*
Y115933D01*
X131800D01*
X131934Y115800D01*
X131800Y116999D02*
Y116466D01*
X132200D01*
X132067Y116733D01*
Y116866D01*
X132200Y116999D01*
X132467D01*
X132600Y116866D01*
Y116599D01*
X132467Y116466D01*
X168500Y106100D02*
Y106900D01*
X168900D01*
X169033Y106766D01*
Y106500D01*
X168900Y106367D01*
X168500D01*
X168767D02*
X169033Y106100D01*
X169700D02*
Y106900D01*
X169300Y106500D01*
X169833D01*
X170633Y106100D02*
X170099D01*
X170633Y106633D01*
Y106766D01*
X170499Y106900D01*
X170233D01*
X170099Y106766D01*
X171700Y109800D02*
Y110600D01*
X172100D01*
X172233Y110466D01*
Y110200D01*
X172100Y110067D01*
X171700D01*
X171967D02*
X172233Y109800D01*
X172900D02*
Y110600D01*
X172500Y110200D01*
X173033D01*
X173299Y110466D02*
X173433Y110600D01*
X173699D01*
X173833Y110466D01*
Y110333D01*
X173699Y110200D01*
X173566D01*
X173699D01*
X173833Y110067D01*
Y109933D01*
X173699Y109800D01*
X173433D01*
X173299Y109933D01*
X49934Y76533D02*
X49800Y76400D01*
Y76133D01*
X49934Y76000D01*
X50467D01*
X50600Y76133D01*
Y76400D01*
X50467Y76533D01*
X50600Y76800D02*
Y77066D01*
Y76933D01*
X49800D01*
X49934Y76800D01*
X50600Y77999D02*
Y77466D01*
X50067Y77999D01*
X49934D01*
X49800Y77866D01*
Y77599D01*
X49934Y77466D01*
X50467Y78266D02*
X50600Y78399D01*
Y78666D01*
X50467Y78799D01*
X49934D01*
X49800Y78666D01*
Y78399D01*
X49934Y78266D01*
X50067D01*
X50200Y78399D01*
Y78799D01*
X167500Y98900D02*
X166700D01*
Y99300D01*
X166834Y99433D01*
X167100D01*
X167233Y99300D01*
Y98900D01*
Y99167D02*
X167500Y99433D01*
Y100100D02*
X166700D01*
X167100Y99700D01*
Y100233D01*
X166834Y100499D02*
X166700Y100633D01*
Y100899D01*
X166834Y101033D01*
X167367D01*
X167500Y100899D01*
Y100633D01*
X167367Y100499D01*
X166834D01*
X174500Y91600D02*
Y92400D01*
X174900D01*
X175033Y92266D01*
Y92000D01*
X174900Y91867D01*
X174500D01*
X174767D02*
X175033Y91600D01*
X175300Y92266D02*
X175433Y92400D01*
X175700D01*
X175833Y92266D01*
Y92133D01*
X175700Y92000D01*
X175566D01*
X175700D01*
X175833Y91867D01*
Y91733D01*
X175700Y91600D01*
X175433D01*
X175300Y91733D01*
X176099D02*
X176233Y91600D01*
X176499D01*
X176633Y91733D01*
Y92266D01*
X176499Y92400D01*
X176233D01*
X176099Y92266D01*
Y92133D01*
X176233Y92000D01*
X176633D01*
X89900Y82700D02*
Y83500D01*
X90300D01*
X90433Y83366D01*
Y83100D01*
X90300Y82967D01*
X89900D01*
X90167D02*
X90433Y82700D01*
X90700Y83366D02*
X90833Y83500D01*
X91100D01*
X91233Y83366D01*
Y83233D01*
X91100Y83100D01*
X90966D01*
X91100D01*
X91233Y82967D01*
Y82833D01*
X91100Y82700D01*
X90833D01*
X90700Y82833D01*
X91499Y83366D02*
X91633Y83500D01*
X91899D01*
X92033Y83366D01*
Y83233D01*
X91899Y83100D01*
X92033Y82967D01*
Y82833D01*
X91899Y82700D01*
X91633D01*
X91499Y82833D01*
Y82967D01*
X91633Y83100D01*
X91499Y83233D01*
Y83366D01*
X91633Y83100D02*
X91899D01*
X54800Y123400D02*
X54000D01*
Y123800D01*
X54134Y123933D01*
X54400D01*
X54533Y123800D01*
Y123400D01*
Y123667D02*
X54800Y123933D01*
Y124733D02*
Y124200D01*
X54267Y124733D01*
X54134D01*
X54000Y124600D01*
Y124333D01*
X54134Y124200D01*
X54000Y124999D02*
Y125533D01*
X54134D01*
X54667Y124999D01*
X54800D01*
X60700Y105700D02*
Y106500D01*
X61100D01*
X61233Y106366D01*
Y106100D01*
X61100Y105967D01*
X60700D01*
X60967D02*
X61233Y105700D01*
X62033D02*
X61500D01*
X62033Y106233D01*
Y106366D01*
X61900Y106500D01*
X61633D01*
X61500Y106366D01*
X62833Y106500D02*
X62566Y106366D01*
X62299Y106100D01*
Y105833D01*
X62433Y105700D01*
X62699D01*
X62833Y105833D01*
Y105967D01*
X62699Y106100D01*
X62299D01*
X73100Y128600D02*
X72300D01*
Y129000D01*
X72434Y129133D01*
X72700D01*
X72833Y129000D01*
Y128600D01*
Y128867D02*
X73100Y129133D01*
Y129933D02*
Y129400D01*
X72567Y129933D01*
X72434D01*
X72300Y129800D01*
Y129533D01*
X72434Y129400D01*
X72300Y130733D02*
Y130199D01*
X72700D01*
X72567Y130466D01*
Y130599D01*
X72700Y130733D01*
X72967D01*
X73100Y130599D01*
Y130333D01*
X72967Y130199D01*
X82975Y130825D02*
Y131625D01*
X83375D01*
X83508Y131491D01*
Y131225D01*
X83375Y131092D01*
X82975D01*
X83242D02*
X83508Y130825D01*
X84308D02*
X83775D01*
X84308Y131358D01*
Y131491D01*
X84175Y131625D01*
X83908D01*
X83775Y131491D01*
X84574D02*
X84708Y131625D01*
X84974D01*
X85108Y131491D01*
Y131358D01*
X84974Y131225D01*
X84841D01*
X84974D01*
X85108Y131092D01*
Y130958D01*
X84974Y130825D01*
X84708D01*
X84574Y130958D01*
X121900Y82500D02*
X121100D01*
Y82900D01*
X121234Y83033D01*
X121500D01*
X121633Y82900D01*
Y82500D01*
Y82767D02*
X121900Y83033D01*
Y83833D02*
Y83300D01*
X121367Y83833D01*
X121234D01*
X121100Y83700D01*
Y83433D01*
X121234Y83300D01*
X121900Y84099D02*
Y84366D01*
Y84233D01*
X121100D01*
X121234Y84099D01*
X125200Y83800D02*
X124400D01*
Y84200D01*
X124534Y84333D01*
X124800D01*
X124933Y84200D01*
Y83800D01*
Y84067D02*
X125200Y84333D01*
Y85133D02*
Y84600D01*
X124667Y85133D01*
X124534D01*
X124400Y85000D01*
Y84733D01*
X124534Y84600D01*
Y85399D02*
X124400Y85533D01*
Y85799D01*
X124534Y85933D01*
X125067D01*
X125200Y85799D01*
Y85533D01*
X125067Y85399D01*
X124534D01*
X153933Y85566D02*
X153800Y85700D01*
X153533D01*
X153400Y85566D01*
Y85033D01*
X153533Y84900D01*
X153800D01*
X153933Y85033D01*
X154600Y84900D02*
Y85700D01*
X154200Y85300D01*
X154733D01*
X154999Y85566D02*
X155133Y85700D01*
X155399D01*
X155533Y85566D01*
Y85033D01*
X155399Y84900D01*
X155133D01*
X154999Y85033D01*
Y85566D01*
X144134Y108133D02*
X144000Y108000D01*
Y107733D01*
X144134Y107600D01*
X144667D01*
X144800Y107733D01*
Y108000D01*
X144667Y108133D01*
X144800Y108400D02*
Y108666D01*
Y108533D01*
X144000D01*
X144134Y108400D01*
X144000Y109599D02*
X144134Y109333D01*
X144400Y109066D01*
X144667D01*
X144800Y109199D01*
Y109466D01*
X144667Y109599D01*
X144533D01*
X144400Y109466D01*
Y109066D01*
X129633Y123266D02*
X129500Y123400D01*
X129233D01*
X129100Y123266D01*
Y122733D01*
X129233Y122600D01*
X129500D01*
X129633Y122733D01*
X130433Y122600D02*
X129900D01*
X130433Y123133D01*
Y123266D01*
X130300Y123400D01*
X130033D01*
X129900Y123266D01*
X126133Y114866D02*
X126000Y115000D01*
X125733D01*
X125600Y114866D01*
Y114333D01*
X125733Y114200D01*
X126000D01*
X126133Y114333D01*
X126933Y114200D02*
X126400D01*
X126933Y114733D01*
Y114866D01*
X126800Y115000D01*
X126533D01*
X126400Y114866D01*
X127599Y114200D02*
Y115000D01*
X127199Y114600D01*
X127733D01*
X49934Y69033D02*
X49800Y68900D01*
Y68633D01*
X49934Y68500D01*
X50467D01*
X50600Y68633D01*
Y68900D01*
X50467Y69033D01*
X50600Y69300D02*
Y69566D01*
Y69433D01*
X49800D01*
X49934Y69300D01*
Y69966D02*
X49800Y70099D01*
Y70366D01*
X49934Y70499D01*
X50067D01*
X50200Y70366D01*
Y70233D01*
Y70366D01*
X50333Y70499D01*
X50467D01*
X50600Y70366D01*
Y70099D01*
X50467Y69966D01*
X49934Y70766D02*
X49800Y70899D01*
Y71166D01*
X49934Y71299D01*
X50467D01*
X50600Y71166D01*
Y70899D01*
X50467Y70766D01*
X49934D01*
X158433Y92966D02*
X158300Y93100D01*
X158033D01*
X157900Y92966D01*
Y92433D01*
X158033Y92300D01*
X158300D01*
X158433Y92433D01*
X158700Y92966D02*
X158833Y93100D01*
X159100D01*
X159233Y92966D01*
Y92833D01*
X159100Y92700D01*
X158966D01*
X159100D01*
X159233Y92567D01*
Y92433D01*
X159100Y92300D01*
X158833D01*
X158700Y92433D01*
X160033Y93100D02*
X159766Y92966D01*
X159499Y92700D01*
Y92433D01*
X159633Y92300D01*
X159899D01*
X160033Y92433D01*
Y92567D01*
X159899Y92700D01*
X159499D01*
X124033Y133566D02*
X123900Y133700D01*
X123633D01*
X123500Y133566D01*
Y133033D01*
X123633Y132900D01*
X123900D01*
X124033Y133033D01*
Y133300D01*
X123767D01*
X124300Y133700D02*
Y132900D01*
X124700D01*
X124833Y133033D01*
Y133167D01*
X124700Y133300D01*
X124300D01*
X124700D01*
X124833Y133433D01*
Y133566D01*
X124700Y133700D01*
X124300D01*
X125099Y132900D02*
X125366D01*
X125233D01*
Y133700D01*
X125099Y133566D01*
X167200Y92600D02*
X168000D01*
Y93000D01*
X167867Y93133D01*
X167334D01*
X167200Y93000D01*
Y92600D01*
Y93400D02*
X168000D01*
Y93800D01*
X167867Y93933D01*
X167334D01*
X167200Y93800D01*
Y93400D01*
X167867Y94199D02*
X168000Y94333D01*
Y94599D01*
X167867Y94733D01*
X167334D01*
X167200Y94599D01*
Y94333D01*
X167334Y94199D01*
X167467D01*
X167600Y94333D01*
Y94733D01*
X174000Y97200D02*
X174800D01*
Y97600D01*
X174667Y97733D01*
X174134D01*
X174000Y97600D01*
Y97200D01*
Y98000D02*
X174800D01*
Y98400D01*
X174667Y98533D01*
X174134D01*
X174000Y98400D01*
Y98000D01*
X174134Y98799D02*
X174000Y98933D01*
Y99199D01*
X174134Y99333D01*
X174267D01*
X174400Y99199D01*
X174533Y99333D01*
X174667D01*
X174800Y99199D01*
Y98933D01*
X174667Y98799D01*
X174533D01*
X174400Y98933D01*
X174267Y98799D01*
X174134D01*
X174400Y98933D02*
Y99199D01*
X176800Y70100D02*
Y69300D01*
X177200D01*
X177333Y69433D01*
Y69966D01*
X177200Y70100D01*
X176800D01*
X177600D02*
Y69300D01*
X178000D01*
X178133Y69433D01*
Y69966D01*
X178000Y70100D01*
X177600D01*
X178399Y69300D02*
X178666D01*
X178533D01*
Y70100D01*
X178399Y69966D01*
X179066D02*
X179199Y70100D01*
X179466D01*
X179599Y69966D01*
Y69433D01*
X179466Y69300D01*
X179199D01*
X179066Y69433D01*
Y69966D01*
X62300Y75300D02*
Y74500D01*
X62700D01*
X62833Y74633D01*
Y75166D01*
X62700Y75300D01*
X62300D01*
X63100D02*
Y74500D01*
X63500D01*
X63633Y74633D01*
Y75166D01*
X63500Y75300D01*
X63100D01*
X64433D02*
X64166Y75166D01*
X63899Y74900D01*
Y74633D01*
X64033Y74500D01*
X64299D01*
X64433Y74633D01*
Y74767D01*
X64299Y74900D01*
X63899D01*
X50600Y103600D02*
Y102800D01*
X51000D01*
X51133Y102933D01*
Y103466D01*
X51000Y103600D01*
X50600D01*
X51400D02*
Y102800D01*
X51800D01*
X51933Y102933D01*
Y103466D01*
X51800Y103600D01*
X51400D01*
X52733D02*
X52199D01*
Y103200D01*
X52466Y103333D01*
X52599D01*
X52733Y103200D01*
Y102933D01*
X52599Y102800D01*
X52333D01*
X52199Y102933D01*
X93900Y98900D02*
Y98100D01*
X94300D01*
X94433Y98233D01*
Y98766D01*
X94300Y98900D01*
X93900D01*
X94700D02*
Y98100D01*
X95100D01*
X95233Y98233D01*
Y98766D01*
X95100Y98900D01*
X94700D01*
X95899Y98100D02*
Y98900D01*
X95499Y98500D01*
X96033D01*
X91100Y135200D02*
Y134400D01*
X91500D01*
X91633Y134533D01*
Y135066D01*
X91500Y135200D01*
X91100D01*
X91900D02*
Y134400D01*
X92300D01*
X92433Y134533D01*
Y135066D01*
X92300Y135200D01*
X91900D01*
X92699Y135066D02*
X92833Y135200D01*
X93099D01*
X93233Y135066D01*
Y134933D01*
X93099Y134800D01*
X92966D01*
X93099D01*
X93233Y134667D01*
Y134533D01*
X93099Y134400D01*
X92833D01*
X92699Y134533D01*
X63900Y125300D02*
Y124500D01*
X64300D01*
X64433Y124633D01*
Y125166D01*
X64300Y125300D01*
X63900D01*
X64700D02*
Y124500D01*
X65100D01*
X65233Y124633D01*
Y125166D01*
X65100Y125300D01*
X64700D01*
X65499Y124500D02*
X65766D01*
X65633D01*
Y125300D01*
X65499Y125166D01*
X162200Y80900D02*
Y80100D01*
X162600D01*
X162733Y80233D01*
Y80766D01*
X162600Y80900D01*
X162200D01*
X163000Y80100D02*
Y80633D01*
X163266Y80900D01*
X163533Y80633D01*
Y80100D01*
Y80500D01*
X163000D01*
X163799Y80100D02*
X164066D01*
X163933D01*
Y80900D01*
X163799Y80766D01*
X164466D02*
X164599Y80900D01*
X164866D01*
X164999Y80766D01*
Y80233D01*
X164866Y80100D01*
X164599D01*
X164466Y80233D01*
Y80766D01*
X114100Y111846D02*
Y111047D01*
X114500D01*
X114633Y111180D01*
Y111713D01*
X114500Y111846D01*
X114100D01*
X114900Y111047D02*
Y111580D01*
X115166Y111846D01*
X115433Y111580D01*
Y111047D01*
Y111446D01*
X114900D01*
X115699Y111180D02*
X115833Y111047D01*
X116099D01*
X116233Y111180D01*
Y111713D01*
X116099Y111846D01*
X115833D01*
X115699Y111713D01*
Y111580D01*
X115833Y111446D01*
X116233D01*
X151734Y95933D02*
X151600Y95800D01*
Y95533D01*
X151734Y95400D01*
X152267D01*
X152400Y95533D01*
Y95800D01*
X152267Y95933D01*
X151734Y96200D02*
X151600Y96333D01*
Y96600D01*
X151734Y96733D01*
X151867D01*
X152000Y96600D01*
Y96466D01*
Y96600D01*
X152133Y96733D01*
X152267D01*
X152400Y96600D01*
Y96333D01*
X152267Y96200D01*
X151734Y96999D02*
X151600Y97133D01*
Y97399D01*
X151734Y97533D01*
X152267D01*
X152400Y97399D01*
Y97133D01*
X152267Y96999D01*
X151734D01*
X49834Y61433D02*
X49700Y61300D01*
Y61033D01*
X49834Y60900D01*
X50367D01*
X50500Y61033D01*
Y61300D01*
X50367Y61433D01*
X50500Y61700D02*
Y61966D01*
Y61833D01*
X49700D01*
X49834Y61700D01*
X50500Y62899D02*
Y62366D01*
X49967Y62899D01*
X49834D01*
X49700Y62766D01*
Y62499D01*
X49834Y62366D01*
Y63166D02*
X49700Y63299D01*
Y63566D01*
X49834Y63699D01*
X49967D01*
X50100Y63566D01*
X50233Y63699D01*
X50367D01*
X50500Y63566D01*
Y63299D01*
X50367Y63166D01*
X50233D01*
X50100Y63299D01*
X49967Y63166D01*
X49834D01*
X50100Y63299D02*
Y63566D01*
X185434Y74933D02*
X185300Y74800D01*
Y74533D01*
X185434Y74400D01*
X185967D01*
X186100Y74533D01*
Y74800D01*
X185967Y74933D01*
X186100Y75200D02*
Y75466D01*
Y75333D01*
X185300D01*
X185434Y75200D01*
Y75866D02*
X185300Y75999D01*
Y76266D01*
X185434Y76399D01*
X185967D01*
X186100Y76266D01*
Y75999D01*
X185967Y75866D01*
X185434D01*
X186100Y77199D02*
Y76666D01*
X185567Y77199D01*
X185434D01*
X185300Y77066D01*
Y76799D01*
X185434Y76666D01*
X168733Y92366D02*
X168600Y92500D01*
X168333D01*
X168200Y92366D01*
Y91833D01*
X168333Y91700D01*
X168600D01*
X168733Y91833D01*
X169000Y91700D02*
X169266D01*
X169133D01*
Y92500D01*
X169000Y92366D01*
X169666D02*
X169799Y92500D01*
X170066D01*
X170199Y92366D01*
Y91833D01*
X170066Y91700D01*
X169799D01*
X169666Y91833D01*
Y92366D01*
X170466D02*
X170599Y92500D01*
X170866D01*
X170999Y92366D01*
Y91833D01*
X170866Y91700D01*
X170599D01*
X170466Y91833D01*
Y92366D01*
X177959Y90908D02*
X177825Y90775D01*
Y90508D01*
X177959Y90375D01*
X178492D01*
X178625Y90508D01*
Y90775D01*
X178492Y90908D01*
Y91175D02*
X178625Y91308D01*
Y91575D01*
X178492Y91708D01*
X177959D01*
X177825Y91575D01*
Y91308D01*
X177959Y91175D01*
X178092D01*
X178225Y91308D01*
Y91708D01*
X178492Y91974D02*
X178625Y92108D01*
Y92374D01*
X178492Y92508D01*
X177959D01*
X177825Y92374D01*
Y92108D01*
X177959Y91974D01*
X178092D01*
X178225Y92108D01*
Y92508D01*
X28534Y112633D02*
X28400Y112500D01*
Y112233D01*
X28534Y112100D01*
X29067D01*
X29200Y112233D01*
Y112500D01*
X29067Y112633D01*
Y112900D02*
X29200Y113033D01*
Y113300D01*
X29067Y113433D01*
X28534D01*
X28400Y113300D01*
Y113033D01*
X28534Y112900D01*
X28667D01*
X28800Y113033D01*
Y113433D01*
X28534Y113699D02*
X28400Y113833D01*
Y114099D01*
X28534Y114233D01*
X28667D01*
X28800Y114099D01*
Y113966D01*
Y114099D01*
X28933Y114233D01*
X29067D01*
X29200Y114099D01*
Y113833D01*
X29067Y113699D01*
X49334Y112833D02*
X49200Y112700D01*
Y112433D01*
X49334Y112300D01*
X49867D01*
X50000Y112433D01*
Y112700D01*
X49867Y112833D01*
Y113100D02*
X50000Y113233D01*
Y113500D01*
X49867Y113633D01*
X49334D01*
X49200Y113500D01*
Y113233D01*
X49334Y113100D01*
X49467D01*
X49600Y113233D01*
Y113633D01*
X50000Y114433D02*
Y113899D01*
X49467Y114433D01*
X49334D01*
X49200Y114299D01*
Y114033D01*
X49334Y113899D01*
X40634Y90933D02*
X40500Y90800D01*
Y90533D01*
X40634Y90400D01*
X41167D01*
X41300Y90533D01*
Y90800D01*
X41167Y90933D01*
Y91200D02*
X41300Y91333D01*
Y91600D01*
X41167Y91733D01*
X40634D01*
X40500Y91600D01*
Y91333D01*
X40634Y91200D01*
X40767D01*
X40900Y91333D01*
Y91733D01*
X41300Y91999D02*
Y92266D01*
Y92133D01*
X40500D01*
X40634Y91999D01*
X47834Y112933D02*
X47700Y112800D01*
Y112533D01*
X47834Y112400D01*
X48367D01*
X48500Y112533D01*
Y112800D01*
X48367Y112933D01*
Y113200D02*
X48500Y113333D01*
Y113600D01*
X48367Y113733D01*
X47834D01*
X47700Y113600D01*
Y113333D01*
X47834Y113200D01*
X47967D01*
X48100Y113333D01*
Y113733D01*
X47834Y113999D02*
X47700Y114133D01*
Y114399D01*
X47834Y114533D01*
X48367D01*
X48500Y114399D01*
Y114133D01*
X48367Y113999D01*
X47834D01*
X39034Y112833D02*
X38900Y112700D01*
Y112433D01*
X39034Y112300D01*
X39567D01*
X39700Y112433D01*
Y112700D01*
X39567Y112833D01*
X39034Y113100D02*
X38900Y113233D01*
Y113500D01*
X39034Y113633D01*
X39167D01*
X39300Y113500D01*
X39433Y113633D01*
X39567D01*
X39700Y113500D01*
Y113233D01*
X39567Y113100D01*
X39433D01*
X39300Y113233D01*
X39167Y113100D01*
X39034D01*
X39300Y113233D02*
Y113500D01*
X39567Y113899D02*
X39700Y114033D01*
Y114299D01*
X39567Y114433D01*
X39034D01*
X38900Y114299D01*
Y114033D01*
X39034Y113899D01*
X39167D01*
X39300Y114033D01*
Y114433D01*
X45434Y90933D02*
X45300Y90800D01*
Y90533D01*
X45434Y90400D01*
X45967D01*
X46100Y90533D01*
Y90800D01*
X45967Y90933D01*
X45434Y91200D02*
X45300Y91333D01*
Y91600D01*
X45434Y91733D01*
X45567D01*
X45700Y91600D01*
X45833Y91733D01*
X45967D01*
X46100Y91600D01*
Y91333D01*
X45967Y91200D01*
X45833D01*
X45700Y91333D01*
X45567Y91200D01*
X45434D01*
X45700Y91333D02*
Y91600D01*
X45434Y91999D02*
X45300Y92133D01*
Y92399D01*
X45434Y92533D01*
X45567D01*
X45700Y92399D01*
X45833Y92533D01*
X45967D01*
X46100Y92399D01*
Y92133D01*
X45967Y91999D01*
X45833D01*
X45700Y92133D01*
X45567Y91999D01*
X45434D01*
X45700Y92133D02*
Y92399D01*
X43034Y112933D02*
X42900Y112800D01*
Y112533D01*
X43034Y112400D01*
X43567D01*
X43700Y112533D01*
Y112800D01*
X43567Y112933D01*
X43034Y113200D02*
X42900Y113333D01*
Y113600D01*
X43034Y113733D01*
X43167D01*
X43300Y113600D01*
X43433Y113733D01*
X43567D01*
X43700Y113600D01*
Y113333D01*
X43567Y113200D01*
X43433D01*
X43300Y113333D01*
X43167Y113200D01*
X43034D01*
X43300Y113333D02*
Y113600D01*
X42900Y113999D02*
Y114533D01*
X43034D01*
X43567Y113999D01*
X43700D01*
X59633Y79766D02*
X59500Y79900D01*
X59233D01*
X59100Y79766D01*
Y79233D01*
X59233Y79100D01*
X59500D01*
X59633Y79233D01*
X59900D02*
X60033Y79100D01*
X60300D01*
X60433Y79233D01*
Y79766D01*
X60300Y79900D01*
X60033D01*
X59900Y79766D01*
Y79633D01*
X60033Y79500D01*
X60433D01*
X61099Y79100D02*
Y79900D01*
X60699Y79500D01*
X61233D01*
X95334Y105133D02*
X95200Y105000D01*
Y104733D01*
X95334Y104600D01*
X95867D01*
X96000Y104733D01*
Y105000D01*
X95867Y105133D01*
X95334Y105400D02*
X95200Y105533D01*
Y105800D01*
X95334Y105933D01*
X95467D01*
X95600Y105800D01*
X95733Y105933D01*
X95867D01*
X96000Y105800D01*
Y105533D01*
X95867Y105400D01*
X95733D01*
X95600Y105533D01*
X95467Y105400D01*
X95334D01*
X95600Y105533D02*
Y105800D01*
X95200Y106733D02*
X95334Y106466D01*
X95600Y106199D01*
X95867D01*
X96000Y106333D01*
Y106599D01*
X95867Y106733D01*
X95733D01*
X95600Y106599D01*
Y106199D01*
X52534Y123933D02*
X52400Y123800D01*
Y123533D01*
X52534Y123400D01*
X53067D01*
X53200Y123533D01*
Y123800D01*
X53067Y123933D01*
X52534Y124200D02*
X52400Y124333D01*
Y124600D01*
X52534Y124733D01*
X52667D01*
X52800Y124600D01*
X52933Y124733D01*
X53067D01*
X53200Y124600D01*
Y124333D01*
X53067Y124200D01*
X52933D01*
X52800Y124333D01*
X52667Y124200D01*
X52534D01*
X52800Y124333D02*
Y124600D01*
X53200Y125399D02*
X52400D01*
X52800Y124999D01*
Y125533D01*
X90333Y81966D02*
X90200Y82100D01*
X89933D01*
X89800Y81966D01*
Y81433D01*
X89933Y81300D01*
X90200D01*
X90333Y81433D01*
X90600Y81966D02*
X90733Y82100D01*
X91000D01*
X91133Y81966D01*
Y81833D01*
X91000Y81700D01*
X91133Y81567D01*
Y81433D01*
X91000Y81300D01*
X90733D01*
X90600Y81433D01*
Y81567D01*
X90733Y81700D01*
X90600Y81833D01*
Y81966D01*
X90733Y81700D02*
X91000D01*
X91933Y82100D02*
X91399D01*
Y81700D01*
X91666Y81833D01*
X91799D01*
X91933Y81700D01*
Y81433D01*
X91799Y81300D01*
X91533D01*
X91399Y81433D01*
X54533Y107966D02*
X54400Y108100D01*
X54133D01*
X54000Y107966D01*
Y107433D01*
X54133Y107300D01*
X54400D01*
X54533Y107433D01*
X54800Y107966D02*
X54933Y108100D01*
X55200D01*
X55333Y107966D01*
Y107833D01*
X55200Y107700D01*
X55333Y107567D01*
Y107433D01*
X55200Y107300D01*
X54933D01*
X54800Y107433D01*
Y107567D01*
X54933Y107700D01*
X54800Y107833D01*
Y107966D01*
X54933Y107700D02*
X55200D01*
X55599Y107966D02*
X55733Y108100D01*
X55999D01*
X56133Y107966D01*
Y107833D01*
X55999Y107700D01*
X55866D01*
X55999D01*
X56133Y107567D01*
Y107433D01*
X55999Y107300D01*
X55733D01*
X55599Y107433D01*
X55133Y111866D02*
X55000Y112000D01*
X54733D01*
X54600Y111866D01*
Y111333D01*
X54733Y111200D01*
X55000D01*
X55133Y111333D01*
X55400Y111866D02*
X55533Y112000D01*
X55800D01*
X55933Y111866D01*
Y111733D01*
X55800Y111600D01*
X55933Y111467D01*
Y111333D01*
X55800Y111200D01*
X55533D01*
X55400Y111333D01*
Y111467D01*
X55533Y111600D01*
X55400Y111733D01*
Y111866D01*
X55533Y111600D02*
X55800D01*
X56733Y111200D02*
X56199D01*
X56733Y111733D01*
Y111866D01*
X56599Y112000D01*
X56333D01*
X56199Y111866D01*
X68584Y129033D02*
X68450Y128900D01*
Y128633D01*
X68584Y128500D01*
X69117D01*
X69250Y128633D01*
Y128900D01*
X69117Y129033D01*
X68584Y129300D02*
X68450Y129433D01*
Y129700D01*
X68584Y129833D01*
X68717D01*
X68850Y129700D01*
X68983Y129833D01*
X69117D01*
X69250Y129700D01*
Y129433D01*
X69117Y129300D01*
X68983D01*
X68850Y129433D01*
X68717Y129300D01*
X68584D01*
X68850Y129433D02*
Y129700D01*
X69250Y130099D02*
Y130366D01*
Y130233D01*
X68450D01*
X68584Y130099D01*
X61833Y102466D02*
X61700Y102600D01*
X61433D01*
X61300Y102466D01*
Y101933D01*
X61433Y101800D01*
X61700D01*
X61833Y101933D01*
X62100Y102466D02*
X62233Y102600D01*
X62500D01*
X62633Y102466D01*
Y102333D01*
X62500Y102200D01*
X62633Y102067D01*
Y101933D01*
X62500Y101800D01*
X62233D01*
X62100Y101933D01*
Y102067D01*
X62233Y102200D01*
X62100Y102333D01*
Y102466D01*
X62233Y102200D02*
X62500D01*
X62899Y102466D02*
X63033Y102600D01*
X63299D01*
X63433Y102466D01*
Y101933D01*
X63299Y101800D01*
X63033D01*
X62899Y101933D01*
Y102466D01*
X95633Y113466D02*
X95500Y113600D01*
X95233D01*
X95100Y113466D01*
Y112933D01*
X95233Y112800D01*
X95500D01*
X95633Y112933D01*
X95900Y113600D02*
X96433D01*
Y113466D01*
X95900Y112933D01*
Y112800D01*
X96699Y112933D02*
X96833Y112800D01*
X97099D01*
X97233Y112933D01*
Y113466D01*
X97099Y113600D01*
X96833D01*
X96699Y113466D01*
Y113333D01*
X96833Y113200D01*
X97233D01*
X84734Y91333D02*
X84600Y91200D01*
Y90933D01*
X84734Y90800D01*
X85267D01*
X85400Y90933D01*
Y91200D01*
X85267Y91333D01*
X84600Y91600D02*
Y92133D01*
X84734D01*
X85267Y91600D01*
X85400D01*
X84734Y92399D02*
X84600Y92533D01*
Y92799D01*
X84734Y92933D01*
X84867D01*
X85000Y92799D01*
X85133Y92933D01*
X85267D01*
X85400Y92799D01*
Y92533D01*
X85267Y92399D01*
X85133D01*
X85000Y92533D01*
X84867Y92399D01*
X84734D01*
X85000Y92533D02*
Y92799D01*
X94058Y117616D02*
X93925Y117750D01*
X93658D01*
X93525Y117616D01*
Y117083D01*
X93658Y116950D01*
X93925D01*
X94058Y117083D01*
X94325Y117750D02*
X94858D01*
Y117616D01*
X94325Y117083D01*
Y116950D01*
X95658Y117750D02*
X95391Y117616D01*
X95124Y117350D01*
Y117083D01*
X95258Y116950D01*
X95524D01*
X95658Y117083D01*
Y117217D01*
X95524Y117350D01*
X95124D01*
X102233Y127566D02*
X102100Y127700D01*
X101833D01*
X101700Y127566D01*
Y127033D01*
X101833Y126900D01*
X102100D01*
X102233Y127033D01*
X103033Y127700D02*
X102766Y127566D01*
X102500Y127300D01*
Y127033D01*
X102633Y126900D01*
X102900D01*
X103033Y127033D01*
Y127167D01*
X102900Y127300D01*
X102500D01*
X103299Y127700D02*
X103833D01*
Y127566D01*
X103299Y127033D01*
Y126900D01*
X65834Y57433D02*
X65700Y57300D01*
Y57033D01*
X65834Y56900D01*
X66367D01*
X66500Y57033D01*
Y57300D01*
X66367Y57433D01*
X66500Y57700D02*
Y57966D01*
Y57833D01*
X65700D01*
X65834Y57700D01*
X66500Y58899D02*
Y58366D01*
X65967Y58899D01*
X65834D01*
X65700Y58766D01*
Y58499D01*
X65834Y58366D01*
X65700Y59699D02*
Y59166D01*
X66100D01*
X65967Y59433D01*
Y59566D01*
X66100Y59699D01*
X66367D01*
X66500Y59566D01*
Y59299D01*
X66367Y59166D01*
X65433Y69566D02*
X65300Y69700D01*
X65033D01*
X64900Y69566D01*
Y69033D01*
X65033Y68900D01*
X65300D01*
X65433Y69033D01*
X65700Y68900D02*
X65966D01*
X65833D01*
Y69700D01*
X65700Y69566D01*
X66899Y68900D02*
X66366D01*
X66899Y69433D01*
Y69566D01*
X66766Y69700D01*
X66499D01*
X66366Y69566D01*
X67566Y68900D02*
Y69700D01*
X67166Y69300D01*
X67699D01*
X62833Y96666D02*
X62700Y96800D01*
X62433D01*
X62300Y96666D01*
Y96133D01*
X62433Y96000D01*
X62700D01*
X62833Y96133D01*
X63633Y96800D02*
X63366Y96666D01*
X63100Y96400D01*
Y96133D01*
X63233Y96000D01*
X63500D01*
X63633Y96133D01*
Y96267D01*
X63500Y96400D01*
X63100D01*
X64433Y96800D02*
X64166Y96666D01*
X63899Y96400D01*
Y96133D01*
X64033Y96000D01*
X64299D01*
X64433Y96133D01*
Y96267D01*
X64299Y96400D01*
X63899D01*
X53934Y89233D02*
X53800Y89100D01*
Y88833D01*
X53934Y88700D01*
X54467D01*
X54600Y88833D01*
Y89100D01*
X54467Y89233D01*
X53800Y90033D02*
X53934Y89766D01*
X54200Y89500D01*
X54467D01*
X54600Y89633D01*
Y89900D01*
X54467Y90033D01*
X54333D01*
X54200Y89900D01*
Y89500D01*
X53800Y90833D02*
Y90299D01*
X54200D01*
X54067Y90566D01*
Y90699D01*
X54200Y90833D01*
X54467D01*
X54600Y90699D01*
Y90433D01*
X54467Y90299D01*
X68234Y92133D02*
X68100Y92000D01*
Y91733D01*
X68234Y91600D01*
X68767D01*
X68900Y91733D01*
Y92000D01*
X68767Y92133D01*
X68900Y92400D02*
Y92666D01*
Y92533D01*
X68100D01*
X68234Y92400D01*
Y93066D02*
X68100Y93199D01*
Y93466D01*
X68234Y93599D01*
X68367D01*
X68500Y93466D01*
X68633Y93599D01*
X68767D01*
X68900Y93466D01*
Y93199D01*
X68767Y93066D01*
X68633D01*
X68500Y93199D01*
X68367Y93066D01*
X68234D01*
X68500Y93199D02*
Y93466D01*
X60733Y109991D02*
X60600Y110125D01*
X60333D01*
X60200Y109991D01*
Y109458D01*
X60333Y109325D01*
X60600D01*
X60733Y109458D01*
X61000Y109325D02*
X61266D01*
X61133D01*
Y110125D01*
X61000Y109991D01*
X61666Y110125D02*
X62199D01*
Y109991D01*
X61666Y109458D01*
Y109325D01*
X95633Y107966D02*
X95500Y108100D01*
X95233D01*
X95100Y107966D01*
Y107433D01*
X95233Y107300D01*
X95500D01*
X95633Y107433D01*
X95900Y107300D02*
X96166D01*
X96033D01*
Y108100D01*
X95900Y107966D01*
X96566D02*
X96699Y108100D01*
X96966D01*
X97099Y107966D01*
Y107433D01*
X96966Y107300D01*
X96699D01*
X96566Y107433D01*
Y107966D01*
X80034Y92733D02*
X79900Y92600D01*
Y92333D01*
X80034Y92200D01*
X80567D01*
X80700Y92333D01*
Y92600D01*
X80567Y92733D01*
Y93000D02*
X80700Y93133D01*
Y93400D01*
X80567Y93533D01*
X80034D01*
X79900Y93400D01*
Y93133D01*
X80034Y93000D01*
X80167D01*
X80300Y93133D01*
Y93533D01*
X86134Y92833D02*
X86000Y92700D01*
Y92433D01*
X86134Y92300D01*
X86667D01*
X86800Y92433D01*
Y92700D01*
X86667Y92833D01*
X86134Y93100D02*
X86000Y93233D01*
Y93500D01*
X86134Y93633D01*
X86267D01*
X86400Y93500D01*
X86533Y93633D01*
X86667D01*
X86800Y93500D01*
Y93233D01*
X86667Y93100D01*
X86533D01*
X86400Y93233D01*
X86267Y93100D01*
X86134D01*
X86400Y93233D02*
Y93500D01*
X50034Y83733D02*
X49900Y83600D01*
Y83333D01*
X50034Y83200D01*
X50567D01*
X50700Y83333D01*
Y83600D01*
X50567Y83733D01*
X50700Y84000D02*
Y84266D01*
Y84133D01*
X49900D01*
X50034Y84000D01*
X50700Y85199D02*
Y84666D01*
X50167Y85199D01*
X50034D01*
X49900Y85066D01*
Y84799D01*
X50034Y84666D01*
X49900Y85466D02*
Y85999D01*
X50034D01*
X50567Y85466D01*
X50700D01*
X157734Y110033D02*
X157600Y109900D01*
Y109633D01*
X157734Y109500D01*
X158267D01*
X158400Y109633D01*
Y109900D01*
X158267Y110033D01*
X158400Y110833D02*
Y110300D01*
X157867Y110833D01*
X157734D01*
X157600Y110700D01*
Y110433D01*
X157734Y110300D01*
X158267Y111099D02*
X158400Y111233D01*
Y111499D01*
X158267Y111633D01*
X157734D01*
X157600Y111499D01*
Y111233D01*
X157734Y111099D01*
X157867D01*
X158000Y111233D01*
Y111633D01*
X63734Y57133D02*
X63600Y57000D01*
Y56733D01*
X63734Y56600D01*
X64267D01*
X64400Y56733D01*
Y57000D01*
X64267Y57133D01*
X64400Y57400D02*
Y57666D01*
Y57533D01*
X63600D01*
X63734Y57400D01*
X64400Y58599D02*
Y58066D01*
X63867Y58599D01*
X63734D01*
X63600Y58466D01*
Y58199D01*
X63734Y58066D01*
X63600Y59399D02*
X63734Y59133D01*
X64000Y58866D01*
X64267D01*
X64400Y58999D01*
Y59266D01*
X64267Y59399D01*
X64133D01*
X64000Y59266D01*
Y58866D01*
X152634Y105333D02*
X152500Y105200D01*
Y104933D01*
X152634Y104800D01*
X153167D01*
X153300Y104933D01*
Y105200D01*
X153167Y105333D01*
X153300Y105600D02*
Y105866D01*
Y105733D01*
X152500D01*
X152634Y105600D01*
X153300Y106666D02*
X152500D01*
X152900Y106266D01*
Y106799D01*
X146933Y132466D02*
X146800Y132600D01*
X146533D01*
X146400Y132466D01*
Y131933D01*
X146533Y131800D01*
X146800D01*
X146933Y131933D01*
X147200Y131800D02*
X147466D01*
X147333D01*
Y132600D01*
X147200Y132466D01*
X99650Y132975D02*
Y132175D01*
X100050D01*
X100183Y132308D01*
Y132442D01*
X100050Y132575D01*
X99650D01*
X100050D01*
X100183Y132708D01*
Y132841D01*
X100050Y132975D01*
X99650D01*
X100983Y132308D02*
Y132841D01*
X100850Y132975D01*
X100583D01*
X100450Y132841D01*
Y132308D01*
X100583Y132175D01*
X100850D01*
X100716Y132442D02*
X100983Y132175D01*
X100850D02*
X100983Y132308D01*
X101249Y132175D02*
X101516D01*
X101383D01*
Y132975D01*
X101249Y132841D01*
X75334Y129133D02*
X75200Y129000D01*
Y128733D01*
X75334Y128600D01*
X75867D01*
X76000Y128733D01*
Y129000D01*
X75867Y129133D01*
X76000Y129400D02*
Y129666D01*
Y129533D01*
X75200D01*
X75334Y129400D01*
X76000Y130599D02*
Y130066D01*
X75467Y130599D01*
X75334D01*
X75200Y130466D01*
Y130199D01*
X75334Y130066D01*
X59433Y115366D02*
X59300Y115500D01*
X59033D01*
X58900Y115366D01*
Y114833D01*
X59033Y114700D01*
X59300D01*
X59433Y114833D01*
X60233Y115500D02*
X59966Y115366D01*
X59700Y115100D01*
Y114833D01*
X59833Y114700D01*
X60100D01*
X60233Y114833D01*
Y114967D01*
X60100Y115100D01*
X59700D01*
X59584Y106058D02*
X59450Y105925D01*
Y105658D01*
X59584Y105525D01*
X60117D01*
X60250Y105658D01*
Y105925D01*
X60117Y106058D01*
X59450Y106325D02*
Y106858D01*
X59584D01*
X60117Y106325D01*
X60250D01*
X73634Y94233D02*
X73500Y94100D01*
Y93833D01*
X73634Y93700D01*
X74167D01*
X74300Y93833D01*
Y94100D01*
X74167Y94233D01*
X74300Y94500D02*
Y94766D01*
Y94633D01*
X73500D01*
X73634Y94500D01*
X74167Y95166D02*
X74300Y95299D01*
Y95566D01*
X74167Y95699D01*
X73634D01*
X73500Y95566D01*
Y95299D01*
X73634Y95166D01*
X73767D01*
X73900Y95299D01*
Y95699D01*
X92766Y97967D02*
X92900Y98100D01*
Y98367D01*
X92766Y98500D01*
X92233D01*
X92100Y98367D01*
Y98100D01*
X92233Y97967D01*
X92100Y97167D02*
Y97700D01*
X92633Y97167D01*
X92766D01*
X92900Y97300D01*
Y97567D01*
X92766Y97700D01*
Y96901D02*
X92900Y96767D01*
Y96501D01*
X92766Y96367D01*
X92233D01*
X92100Y96501D01*
Y96767D01*
X92233Y96901D01*
X92766D01*
X93108Y121241D02*
X92975Y121375D01*
X92708D01*
X92575Y121241D01*
Y120708D01*
X92708Y120575D01*
X92975D01*
X93108Y120708D01*
X93908Y120575D02*
X93375D01*
X93908Y121108D01*
Y121241D01*
X93775Y121375D01*
X93508D01*
X93375Y121241D01*
X94174Y120575D02*
X94441D01*
X94308D01*
Y121375D01*
X94174Y121241D01*
X80134Y129133D02*
X80000Y129000D01*
Y128733D01*
X80134Y128600D01*
X80667D01*
X80800Y128733D01*
Y129000D01*
X80667Y129133D01*
X80800Y129933D02*
Y129400D01*
X80267Y129933D01*
X80134D01*
X80000Y129800D01*
Y129533D01*
X80134Y129400D01*
X80800Y130733D02*
Y130199D01*
X80267Y130733D01*
X80134D01*
X80000Y130599D01*
Y130333D01*
X80134Y130199D01*
X67259Y129033D02*
X67125Y128900D01*
Y128633D01*
X67259Y128500D01*
X67792D01*
X67925Y128633D01*
Y128900D01*
X67792Y129033D01*
X67925Y129833D02*
Y129300D01*
X67392Y129833D01*
X67259D01*
X67125Y129700D01*
Y129433D01*
X67259Y129300D01*
Y130099D02*
X67125Y130233D01*
Y130499D01*
X67259Y130633D01*
X67392D01*
X67525Y130499D01*
Y130366D01*
Y130499D01*
X67658Y130633D01*
X67792D01*
X67925Y130499D01*
Y130233D01*
X67792Y130099D01*
X57400Y112300D02*
Y111500D01*
X57800D01*
X57933Y111633D01*
Y111767D01*
X57800Y111900D01*
X57400D01*
X57800D01*
X57933Y112033D01*
Y112166D01*
X57800Y112300D01*
X57400D01*
X58733Y111633D02*
Y112166D01*
X58600Y112300D01*
X58333D01*
X58200Y112166D01*
Y111633D01*
X58333Y111500D01*
X58600D01*
X58466Y111767D02*
X58733Y111500D01*
X58600D02*
X58733Y111633D01*
X59533Y111500D02*
X58999D01*
X59533Y112033D01*
Y112166D01*
X59399Y112300D01*
X59133D01*
X58999Y112166D01*
X62500Y63200D02*
Y62400D01*
X62900D01*
X63033Y62533D01*
Y62667D01*
X62900Y62800D01*
X62500D01*
X62900D01*
X63033Y62933D01*
Y63066D01*
X62900Y63200D01*
X62500D01*
X63833Y62533D02*
Y63066D01*
X63700Y63200D01*
X63433D01*
X63300Y63066D01*
Y62533D01*
X63433Y62400D01*
X63700D01*
X63566Y62667D02*
X63833Y62400D01*
X63700D02*
X63833Y62533D01*
X64099Y63066D02*
X64233Y63200D01*
X64499D01*
X64633Y63066D01*
Y62933D01*
X64499Y62800D01*
X64366D01*
X64499D01*
X64633Y62667D01*
Y62533D01*
X64499Y62400D01*
X64233D01*
X64099Y62533D01*
X88433Y128166D02*
X88300Y128300D01*
X88033D01*
X87900Y128166D01*
Y127633D01*
X88033Y127500D01*
X88300D01*
X88433Y127633D01*
X88700Y127500D02*
X88966D01*
X88833D01*
Y128300D01*
X88700Y128166D01*
X89366Y127500D02*
X89633D01*
X89499D01*
Y128300D01*
X89366Y128166D01*
X129633Y120466D02*
X129500Y120600D01*
X129233D01*
X129100Y120466D01*
Y119933D01*
X129233Y119800D01*
X129500D01*
X129633Y119933D01*
X130433Y120600D02*
X129900D01*
Y120200D01*
X130166Y120333D01*
X130300D01*
X130433Y120200D01*
Y119933D01*
X130300Y119800D01*
X130033D01*
X129900Y119933D01*
X150833Y103866D02*
X150700Y104000D01*
X150433D01*
X150300Y103866D01*
Y103333D01*
X150433Y103200D01*
X150700D01*
X150833Y103333D01*
X151100Y103866D02*
X151233Y104000D01*
X151500D01*
X151633Y103866D01*
Y103733D01*
X151500Y103600D01*
X151366D01*
X151500D01*
X151633Y103467D01*
Y103333D01*
X151500Y103200D01*
X151233D01*
X151100Y103333D01*
X152433Y103200D02*
X151899D01*
X152433Y103733D01*
Y103866D01*
X152299Y104000D01*
X152033D01*
X151899Y103866D01*
X119533Y61766D02*
X119400Y61900D01*
X119133D01*
X119000Y61766D01*
Y61233D01*
X119133Y61100D01*
X119400D01*
X119533Y61233D01*
X119800Y61766D02*
X119933Y61900D01*
X120200D01*
X120333Y61766D01*
Y61633D01*
X120200Y61500D01*
X120066D01*
X120200D01*
X120333Y61367D01*
Y61233D01*
X120200Y61100D01*
X119933D01*
X119800Y61233D01*
X120999Y61100D02*
Y61900D01*
X120599Y61500D01*
X121133D01*
X138684Y112808D02*
X138550Y112675D01*
Y112408D01*
X138684Y112275D01*
X139217D01*
X139350Y112408D01*
Y112675D01*
X139217Y112808D01*
X138684Y113075D02*
X138550Y113208D01*
Y113475D01*
X138684Y113608D01*
X138817D01*
X138950Y113475D01*
Y113341D01*
Y113475D01*
X139083Y113608D01*
X139217D01*
X139350Y113475D01*
Y113208D01*
X139217Y113075D01*
X138550Y113874D02*
Y114408D01*
X138684D01*
X139217Y113874D01*
X139350D01*
X138834Y107733D02*
X138700Y107600D01*
Y107333D01*
X138834Y107200D01*
X139367D01*
X139500Y107333D01*
Y107600D01*
X139367Y107733D01*
X138834Y108000D02*
X138700Y108133D01*
Y108400D01*
X138834Y108533D01*
X138967D01*
X139100Y108400D01*
Y108266D01*
Y108400D01*
X139233Y108533D01*
X139367D01*
X139500Y108400D01*
Y108133D01*
X139367Y108000D01*
X138834Y108799D02*
X138700Y108933D01*
Y109199D01*
X138834Y109333D01*
X138967D01*
X139100Y109199D01*
X139233Y109333D01*
X139367D01*
X139500Y109199D01*
Y108933D01*
X139367Y108799D01*
X139233D01*
X139100Y108933D01*
X138967Y108799D01*
X138834D01*
X139100Y108933D02*
Y109199D01*
X151733Y93566D02*
X151600Y93700D01*
X151333D01*
X151200Y93566D01*
Y93033D01*
X151333Y92900D01*
X151600D01*
X151733Y93033D01*
X152400Y92900D02*
Y93700D01*
X152000Y93300D01*
X152533D01*
X152799Y93033D02*
X152933Y92900D01*
X153199D01*
X153333Y93033D01*
Y93566D01*
X153199Y93700D01*
X152933D01*
X152799Y93566D01*
Y93433D01*
X152933Y93300D01*
X153333D01*
X140034Y83333D02*
X139900Y83200D01*
Y82933D01*
X140034Y82800D01*
X140567D01*
X140700Y82933D01*
Y83200D01*
X140567Y83333D01*
X140700Y84000D02*
X139900D01*
X140300Y83600D01*
Y84133D01*
X139900Y84399D02*
Y84933D01*
X140034D01*
X140567Y84399D01*
X140700D01*
X120584Y101933D02*
X120450Y101800D01*
Y101533D01*
X120584Y101400D01*
X121117D01*
X121250Y101533D01*
Y101800D01*
X121117Y101933D01*
X121250Y102600D02*
X120450D01*
X120850Y102200D01*
Y102733D01*
X120584Y102999D02*
X120450Y103133D01*
Y103399D01*
X120584Y103533D01*
X120717D01*
X120850Y103399D01*
X120983Y103533D01*
X121117D01*
X121250Y103399D01*
Y103133D01*
X121117Y102999D01*
X120983D01*
X120850Y103133D01*
X120717Y102999D01*
X120584D01*
X120850Y103133D02*
Y103399D01*
X138734Y83233D02*
X138600Y83100D01*
Y82833D01*
X138734Y82700D01*
X139267D01*
X139400Y82833D01*
Y83100D01*
X139267Y83233D01*
X138600Y84033D02*
Y83500D01*
X139000D01*
X138867Y83766D01*
Y83900D01*
X139000Y84033D01*
X139267D01*
X139400Y83900D01*
Y83633D01*
X139267Y83500D01*
X138734Y84299D02*
X138600Y84433D01*
Y84699D01*
X138734Y84833D01*
X139267D01*
X139400Y84699D01*
Y84433D01*
X139267Y84299D01*
X138734D01*
X151733Y89366D02*
X151600Y89500D01*
X151333D01*
X151200Y89366D01*
Y88833D01*
X151333Y88700D01*
X151600D01*
X151733Y88833D01*
X152533Y89500D02*
X152000D01*
Y89100D01*
X152266Y89233D01*
X152400D01*
X152533Y89100D01*
Y88833D01*
X152400Y88700D01*
X152133D01*
X152000Y88833D01*
X152799Y89366D02*
X152933Y89500D01*
X153199D01*
X153333Y89366D01*
Y89233D01*
X153199Y89100D01*
X153066D01*
X153199D01*
X153333Y88967D01*
Y88833D01*
X153199Y88700D01*
X152933D01*
X152799Y88833D01*
X36333Y90566D02*
X36200Y90700D01*
X35933D01*
X35800Y90566D01*
Y90033D01*
X35933Y89900D01*
X36200D01*
X36333Y90033D01*
X37133Y90700D02*
X36600D01*
Y90300D01*
X36866Y90433D01*
X37000D01*
X37133Y90300D01*
Y90033D01*
X37000Y89900D01*
X36733D01*
X36600Y90033D01*
X37399Y89900D02*
X37666D01*
X37533D01*
Y90700D01*
X37399Y90566D01*
X28934Y75233D02*
X28800Y75100D01*
Y74833D01*
X28934Y74700D01*
X29467D01*
X29600Y74833D01*
Y75100D01*
X29467Y75233D01*
X28800Y76033D02*
Y75500D01*
X29200D01*
X29067Y75766D01*
Y75900D01*
X29200Y76033D01*
X29467D01*
X29600Y75900D01*
Y75633D01*
X29467Y75500D01*
X29600Y76833D02*
Y76299D01*
X29067Y76833D01*
X28934D01*
X28800Y76699D01*
Y76433D01*
X28934Y76299D01*
X152137Y91393D02*
X152004Y91527D01*
X151737D01*
X151604Y91393D01*
Y90860D01*
X151737Y90727D01*
X152004D01*
X152137Y90860D01*
X152937Y91527D02*
X152404D01*
Y91127D01*
X152670Y91260D01*
X152804D01*
X152937Y91127D01*
Y90860D01*
X152804Y90727D01*
X152537D01*
X152404Y90860D01*
X153603Y90727D02*
Y91527D01*
X153203Y91127D01*
X153737D01*
X142134Y72833D02*
X142000Y72700D01*
Y72433D01*
X142134Y72300D01*
X142667D01*
X142800Y72433D01*
Y72700D01*
X142667Y72833D01*
X142000Y73633D02*
Y73100D01*
X142400D01*
X142267Y73366D01*
Y73500D01*
X142400Y73633D01*
X142667D01*
X142800Y73500D01*
Y73233D01*
X142667Y73100D01*
X142000Y74433D02*
Y73899D01*
X142400D01*
X142267Y74166D01*
Y74299D01*
X142400Y74433D01*
X142667D01*
X142800Y74299D01*
Y74033D01*
X142667Y73899D01*
X39284Y70333D02*
X39150Y70200D01*
Y69933D01*
X39284Y69800D01*
X39817D01*
X39950Y69933D01*
Y70200D01*
X39817Y70333D01*
X39150Y71133D02*
Y70600D01*
X39550D01*
X39417Y70866D01*
Y71000D01*
X39550Y71133D01*
X39817D01*
X39950Y71000D01*
Y70733D01*
X39817Y70600D01*
X39150Y71933D02*
X39284Y71666D01*
X39550Y71399D01*
X39817D01*
X39950Y71533D01*
Y71799D01*
X39817Y71933D01*
X39683D01*
X39550Y71799D01*
Y71399D01*
X39433Y86966D02*
X39300Y87100D01*
X39033D01*
X38900Y86966D01*
Y86433D01*
X39033Y86300D01*
X39300D01*
X39433Y86433D01*
X40233Y87100D02*
X39700D01*
Y86700D01*
X39966Y86833D01*
X40100D01*
X40233Y86700D01*
Y86433D01*
X40100Y86300D01*
X39833D01*
X39700Y86433D01*
X40499Y87100D02*
X41033D01*
Y86966D01*
X40499Y86433D01*
Y86300D01*
X136733Y88266D02*
X136600Y88400D01*
X136333D01*
X136200Y88266D01*
Y87733D01*
X136333Y87600D01*
X136600D01*
X136733Y87733D01*
X137533Y88400D02*
X137000D01*
Y88000D01*
X137266Y88133D01*
X137400D01*
X137533Y88000D01*
Y87733D01*
X137400Y87600D01*
X137133D01*
X137000Y87733D01*
X137799D02*
X137933Y87600D01*
X138199D01*
X138333Y87733D01*
Y88266D01*
X138199Y88400D01*
X137933D01*
X137799Y88266D01*
Y88133D01*
X137933Y88000D01*
X138333D01*
X99234Y62833D02*
X99100Y62700D01*
Y62433D01*
X99234Y62300D01*
X99767D01*
X99900Y62433D01*
Y62700D01*
X99767Y62833D01*
X99100Y63633D02*
Y63100D01*
X99500D01*
X99367Y63366D01*
Y63500D01*
X99500Y63633D01*
X99767D01*
X99900Y63500D01*
Y63233D01*
X99767Y63100D01*
X99234Y63899D02*
X99100Y64033D01*
Y64299D01*
X99234Y64433D01*
X99367D01*
X99500Y64299D01*
X99633Y64433D01*
X99767D01*
X99900Y64299D01*
Y64033D01*
X99767Y63899D01*
X99633D01*
X99500Y64033D01*
X99367Y63899D01*
X99234D01*
X99500Y64033D02*
Y64299D01*
X73933Y73066D02*
X73800Y73200D01*
X73533D01*
X73400Y73066D01*
Y72533D01*
X73533Y72400D01*
X73800D01*
X73933Y72533D01*
X74733Y73200D02*
X74466Y73066D01*
X74200Y72800D01*
Y72533D01*
X74333Y72400D01*
X74600D01*
X74733Y72533D01*
Y72667D01*
X74600Y72800D01*
X74200D01*
X74999Y73066D02*
X75133Y73200D01*
X75399D01*
X75533Y73066D01*
Y72533D01*
X75399Y72400D01*
X75133D01*
X74999Y72533D01*
Y73066D01*
X152233Y87991D02*
X152100Y88125D01*
X151833D01*
X151700Y87991D01*
Y87458D01*
X151833Y87325D01*
X152100D01*
X152233Y87458D01*
X153033Y88125D02*
X152766Y87991D01*
X152500Y87725D01*
Y87458D01*
X152633Y87325D01*
X152900D01*
X153033Y87458D01*
Y87592D01*
X152900Y87725D01*
X152500D01*
X153833Y87325D02*
X153299D01*
X153833Y87858D01*
Y87991D01*
X153699Y88125D01*
X153433D01*
X153299Y87991D01*
X150833Y72566D02*
X150700Y72700D01*
X150433D01*
X150300Y72566D01*
Y72033D01*
X150433Y71900D01*
X150700D01*
X150833Y72033D01*
X151633Y72700D02*
X151366Y72566D01*
X151100Y72300D01*
Y72033D01*
X151233Y71900D01*
X151500D01*
X151633Y72033D01*
Y72167D01*
X151500Y72300D01*
X151100D01*
X151899Y71900D02*
X152166D01*
X152033D01*
Y72700D01*
X151899Y72566D01*
X68433Y73266D02*
X68300Y73400D01*
X68033D01*
X67900Y73266D01*
Y72733D01*
X68033Y72600D01*
X68300D01*
X68433Y72733D01*
X69233Y73400D02*
X68966Y73266D01*
X68700Y73000D01*
Y72733D01*
X68833Y72600D01*
X69100D01*
X69233Y72733D01*
Y72867D01*
X69100Y73000D01*
X68700D01*
X69899Y72600D02*
Y73400D01*
X69499Y73000D01*
X70033D01*
X133133Y78966D02*
X133000Y79100D01*
X132733D01*
X132600Y78966D01*
Y78433D01*
X132733Y78300D01*
X133000D01*
X133133Y78433D01*
X133933Y79100D02*
X133666Y78966D01*
X133400Y78700D01*
Y78433D01*
X133533Y78300D01*
X133800D01*
X133933Y78433D01*
Y78567D01*
X133800Y78700D01*
X133400D01*
X134199Y78966D02*
X134333Y79100D01*
X134599D01*
X134733Y78966D01*
Y78833D01*
X134599Y78700D01*
X134733Y78567D01*
Y78433D01*
X134599Y78300D01*
X134333D01*
X134199Y78433D01*
Y78567D01*
X134333Y78700D01*
X134199Y78833D01*
Y78966D01*
X134333Y78700D02*
X134599D01*
X125033Y61966D02*
X124900Y62100D01*
X124633D01*
X124500Y61966D01*
Y61433D01*
X124633Y61300D01*
X124900D01*
X125033Y61433D01*
X125300Y62100D02*
X125833D01*
Y61966D01*
X125300Y61433D01*
Y61300D01*
X126099Y61966D02*
X126233Y62100D01*
X126499D01*
X126633Y61966D01*
Y61433D01*
X126499Y61300D01*
X126233D01*
X126099Y61433D01*
Y61966D01*
X118234Y68233D02*
X118100Y68100D01*
Y67833D01*
X118234Y67700D01*
X118767D01*
X118900Y67833D01*
Y68100D01*
X118767Y68233D01*
X118100Y68500D02*
Y69033D01*
X118234D01*
X118767Y68500D01*
X118900D01*
Y69299D02*
Y69566D01*
Y69433D01*
X118100D01*
X118234Y69299D01*
X119834Y68633D02*
X119700Y68500D01*
Y68233D01*
X119834Y68100D01*
X120367D01*
X120500Y68233D01*
Y68500D01*
X120367Y68633D01*
X119700Y68900D02*
Y69433D01*
X119834D01*
X120367Y68900D01*
X120500D01*
Y70233D02*
Y69699D01*
X119967Y70233D01*
X119834D01*
X119700Y70099D01*
Y69833D01*
X119834Y69699D01*
X96334Y65033D02*
X96200Y64900D01*
Y64633D01*
X96334Y64500D01*
X96867D01*
X97000Y64633D01*
Y64900D01*
X96867Y65033D01*
X96200Y65300D02*
Y65833D01*
X96334D01*
X96867Y65300D01*
X97000D01*
X96334Y66099D02*
X96200Y66233D01*
Y66499D01*
X96334Y66633D01*
X96467D01*
X96600Y66499D01*
Y66366D01*
Y66499D01*
X96733Y66633D01*
X96867D01*
X97000Y66499D01*
Y66233D01*
X96867Y66099D01*
X91934Y62733D02*
X91800Y62600D01*
Y62333D01*
X91934Y62200D01*
X92467D01*
X92600Y62333D01*
Y62600D01*
X92467Y62733D01*
X91800Y63000D02*
Y63533D01*
X91934D01*
X92467Y63000D01*
X92600D01*
Y64199D02*
X91800D01*
X92200Y63799D01*
Y64333D01*
X113434Y62833D02*
X113300Y62700D01*
Y62433D01*
X113434Y62300D01*
X113967D01*
X114100Y62433D01*
Y62700D01*
X113967Y62833D01*
X113300Y63100D02*
Y63633D01*
X113434D01*
X113967Y63100D01*
X114100D01*
X113300Y64433D02*
Y63899D01*
X113700D01*
X113567Y64166D01*
Y64299D01*
X113700Y64433D01*
X113967D01*
X114100Y64299D01*
Y64033D01*
X113967Y63899D01*
X188833Y62866D02*
X188700Y63000D01*
X188433D01*
X188300Y62866D01*
Y62333D01*
X188433Y62200D01*
X188700D01*
X188833Y62333D01*
X189100Y62200D02*
X189366D01*
X189233D01*
Y63000D01*
X189100Y62866D01*
X189766Y62200D02*
X190033D01*
X189899D01*
Y63000D01*
X189766Y62866D01*
X190433D02*
X190566Y63000D01*
X190833D01*
X190966Y62866D01*
Y62333D01*
X190833Y62200D01*
X190566D01*
X190433Y62333D01*
Y62866D01*
X155334Y77133D02*
X155200Y77000D01*
Y76733D01*
X155334Y76600D01*
X155867D01*
X156000Y76733D01*
Y77000D01*
X155867Y77133D01*
Y77400D02*
X156000Y77533D01*
Y77800D01*
X155867Y77933D01*
X155334D01*
X155200Y77800D01*
Y77533D01*
X155334Y77400D01*
X155467D01*
X155600Y77533D01*
Y77933D01*
X155200Y78733D02*
X155334Y78466D01*
X155600Y78199D01*
X155867D01*
X156000Y78333D01*
Y78599D01*
X155867Y78733D01*
X155733D01*
X155600Y78599D01*
Y78199D01*
X152034Y67933D02*
X151900Y67800D01*
Y67533D01*
X152034Y67400D01*
X152567D01*
X152700Y67533D01*
Y67800D01*
X152567Y67933D01*
Y68200D02*
X152700Y68333D01*
Y68600D01*
X152567Y68733D01*
X152034D01*
X151900Y68600D01*
Y68333D01*
X152034Y68200D01*
X152167D01*
X152300Y68333D01*
Y68733D01*
X151900Y68999D02*
Y69533D01*
X152034D01*
X152567Y68999D01*
X152700D01*
X156333Y66666D02*
X156200Y66800D01*
X155933D01*
X155800Y66666D01*
Y66133D01*
X155933Y66000D01*
X156200D01*
X156333Y66133D01*
X156600D02*
X156733Y66000D01*
X157000D01*
X157133Y66133D01*
Y66666D01*
X157000Y66800D01*
X156733D01*
X156600Y66666D01*
Y66533D01*
X156733Y66400D01*
X157133D01*
X157399Y66666D02*
X157533Y66800D01*
X157799D01*
X157933Y66666D01*
Y66533D01*
X157799Y66400D01*
X157933Y66267D01*
Y66133D01*
X157799Y66000D01*
X157533D01*
X157399Y66133D01*
Y66267D01*
X157533Y66400D01*
X157399Y66533D01*
Y66666D01*
X157533Y66400D02*
X157799D01*
X159634Y66433D02*
X159500Y66300D01*
Y66033D01*
X159634Y65900D01*
X160167D01*
X160300Y66033D01*
Y66300D01*
X160167Y66433D01*
X160300Y66700D02*
Y66966D01*
Y66833D01*
X159500D01*
X159634Y66700D01*
Y67366D02*
X159500Y67499D01*
Y67766D01*
X159634Y67899D01*
X160167D01*
X160300Y67766D01*
Y67499D01*
X160167Y67366D01*
X159634D01*
X160300Y68166D02*
Y68433D01*
Y68299D01*
X159500D01*
X159634Y68166D01*
X155733Y65566D02*
X155600Y65700D01*
X155333D01*
X155200Y65566D01*
Y65033D01*
X155333Y64900D01*
X155600D01*
X155733Y65033D01*
X156000Y64900D02*
X156266D01*
X156133D01*
Y65700D01*
X156000Y65566D01*
X156666D02*
X156799Y65700D01*
X157066D01*
X157199Y65566D01*
Y65033D01*
X157066Y64900D01*
X156799D01*
X156666Y65033D01*
Y65566D01*
X157466D02*
X157599Y65700D01*
X157866D01*
X157999Y65566D01*
Y65433D01*
X157866Y65300D01*
X157733D01*
X157866D01*
X157999Y65167D01*
Y65033D01*
X157866Y64900D01*
X157599D01*
X157466Y65033D01*
X163633Y70166D02*
X163500Y70300D01*
X163233D01*
X163100Y70166D01*
Y69633D01*
X163233Y69500D01*
X163500D01*
X163633Y69633D01*
X163900Y69500D02*
X164166D01*
X164033D01*
Y70300D01*
X163900Y70166D01*
X164566D02*
X164699Y70300D01*
X164966D01*
X165099Y70166D01*
Y69633D01*
X164966Y69500D01*
X164699D01*
X164566Y69633D01*
Y70166D01*
X165766Y69500D02*
Y70300D01*
X165366Y69900D01*
X165899D01*
X119034Y81033D02*
X118900Y80900D01*
Y80633D01*
X119034Y80500D01*
X119567D01*
X119700Y80633D01*
Y80900D01*
X119567Y81033D01*
X119700Y81300D02*
Y81566D01*
Y81433D01*
X118900D01*
X119034Y81300D01*
Y81966D02*
X118900Y82099D01*
Y82366D01*
X119034Y82499D01*
X119567D01*
X119700Y82366D01*
Y82099D01*
X119567Y81966D01*
X119034D01*
X118900Y83299D02*
Y82766D01*
X119300D01*
X119167Y83033D01*
Y83166D01*
X119300Y83299D01*
X119567D01*
X119700Y83166D01*
Y82899D01*
X119567Y82766D01*
X98034Y110933D02*
X97900Y110800D01*
Y110533D01*
X98034Y110400D01*
X98567D01*
X98700Y110533D01*
Y110800D01*
X98567Y110933D01*
X98700Y111200D02*
Y111466D01*
Y111333D01*
X97900D01*
X98034Y111200D01*
Y111866D02*
X97900Y111999D01*
Y112266D01*
X98034Y112399D01*
X98567D01*
X98700Y112266D01*
Y111999D01*
X98567Y111866D01*
X98034D01*
Y112666D02*
X97900Y112799D01*
Y113066D01*
X98034Y113199D01*
X98167D01*
X98300Y113066D01*
X98433Y113199D01*
X98567D01*
X98700Y113066D01*
Y112799D01*
X98567Y112666D01*
X98433D01*
X98300Y112799D01*
X98167Y112666D01*
X98034D01*
X98300Y112799D02*
Y113066D01*
X100334Y110933D02*
X100200Y110800D01*
Y110533D01*
X100334Y110400D01*
X100867D01*
X101000Y110533D01*
Y110800D01*
X100867Y110933D01*
X101000Y111200D02*
Y111466D01*
Y111333D01*
X100200D01*
X100334Y111200D01*
Y111866D02*
X100200Y111999D01*
Y112266D01*
X100334Y112399D01*
X100867D01*
X101000Y112266D01*
Y111999D01*
X100867Y111866D01*
X100334D01*
X100867Y112666D02*
X101000Y112799D01*
Y113066D01*
X100867Y113199D01*
X100334D01*
X100200Y113066D01*
Y112799D01*
X100334Y112666D01*
X100467D01*
X100600Y112799D01*
Y113199D01*
X114034Y71033D02*
X113900Y70900D01*
Y70633D01*
X114034Y70500D01*
X114567D01*
X114700Y70633D01*
Y70900D01*
X114567Y71033D01*
X114700Y71300D02*
Y71566D01*
Y71433D01*
X113900D01*
X114034Y71300D01*
Y71966D02*
X113900Y72099D01*
Y72366D01*
X114034Y72499D01*
X114567D01*
X114700Y72366D01*
Y72099D01*
X114567Y71966D01*
X114034D01*
X113900Y73299D02*
X114034Y73033D01*
X114300Y72766D01*
X114567D01*
X114700Y72899D01*
Y73166D01*
X114567Y73299D01*
X114433D01*
X114300Y73166D01*
Y72766D01*
X116934Y74633D02*
X116800Y74500D01*
Y74233D01*
X116934Y74100D01*
X117467D01*
X117600Y74233D01*
Y74500D01*
X117467Y74633D01*
X117600Y74900D02*
Y75166D01*
Y75033D01*
X116800D01*
X116934Y74900D01*
Y75566D02*
X116800Y75699D01*
Y75966D01*
X116934Y76099D01*
X117467D01*
X117600Y75966D01*
Y75699D01*
X117467Y75566D01*
X116934D01*
X116800Y76366D02*
Y76899D01*
X116934D01*
X117467Y76366D01*
X117600D01*
X189133Y111066D02*
X189000Y111200D01*
X188733D01*
X188600Y111066D01*
Y110533D01*
X188733Y110400D01*
X189000D01*
X189133Y110533D01*
X189400Y110400D02*
X189666D01*
X189533D01*
Y111200D01*
X189400Y111066D01*
X190066Y110400D02*
X190333D01*
X190199D01*
Y111200D01*
X190066Y111066D01*
X190733Y110400D02*
X190999D01*
X190866D01*
Y111200D01*
X190733Y111066D01*
X174634Y113833D02*
X174500Y113700D01*
Y113433D01*
X174634Y113300D01*
X175167D01*
X175300Y113433D01*
Y113700D01*
X175167Y113833D01*
X175300Y114100D02*
Y114366D01*
Y114233D01*
X174500D01*
X174634Y114100D01*
X175300Y114766D02*
Y115033D01*
Y114899D01*
X174500D01*
X174634Y114766D01*
X175300Y115966D02*
Y115433D01*
X174767Y115966D01*
X174634D01*
X174500Y115833D01*
Y115566D01*
X174634Y115433D01*
X168033Y110466D02*
X167900Y110600D01*
X167633D01*
X167500Y110466D01*
Y109933D01*
X167633Y109800D01*
X167900D01*
X168033Y109933D01*
X168300Y109800D02*
X168566D01*
X168433D01*
Y110600D01*
X168300Y110466D01*
X168966Y109800D02*
X169233D01*
X169099D01*
Y110600D01*
X168966Y110466D01*
X169633D02*
X169766Y110600D01*
X170033D01*
X170166Y110466D01*
Y110333D01*
X170033Y110200D01*
X169899D01*
X170033D01*
X170166Y110067D01*
Y109933D01*
X170033Y109800D01*
X169766D01*
X169633Y109933D01*
X122233Y80266D02*
X122100Y80400D01*
X121833D01*
X121700Y80266D01*
Y79733D01*
X121833Y79600D01*
X122100D01*
X122233Y79733D01*
X123033Y80400D02*
X122766Y80266D01*
X122500Y80000D01*
Y79733D01*
X122633Y79600D01*
X122900D01*
X123033Y79733D01*
Y79867D01*
X122900Y80000D01*
X122500D01*
X123299Y79733D02*
X123433Y79600D01*
X123699D01*
X123833Y79733D01*
Y80266D01*
X123699Y80400D01*
X123433D01*
X123299Y80266D01*
Y80133D01*
X123433Y80000D01*
X123833D01*
X111434Y70633D02*
X111300Y70500D01*
Y70233D01*
X111434Y70100D01*
X111967D01*
X112100Y70233D01*
Y70500D01*
X111967Y70633D01*
X112100Y70900D02*
Y71166D01*
Y71033D01*
X111300D01*
X111434Y70900D01*
X112100Y71566D02*
Y71833D01*
Y71699D01*
X111300D01*
X111434Y71566D01*
X111300Y72766D02*
X111434Y72499D01*
X111700Y72233D01*
X111967D01*
X112100Y72366D01*
Y72633D01*
X111967Y72766D01*
X111833D01*
X111700Y72633D01*
Y72233D01*
X141334Y69033D02*
X141200Y68900D01*
Y68633D01*
X141334Y68500D01*
X141867D01*
X142000Y68633D01*
Y68900D01*
X141867Y69033D01*
X142000Y69300D02*
Y69566D01*
Y69433D01*
X141200D01*
X141334Y69300D01*
X142000Y69966D02*
Y70233D01*
Y70099D01*
X141200D01*
X141334Y69966D01*
X141200Y71166D02*
Y70633D01*
X141600D01*
X141467Y70899D01*
Y71033D01*
X141600Y71166D01*
X141867D01*
X142000Y71033D01*
Y70766D01*
X141867Y70633D01*
X138333Y56866D02*
X138200Y57000D01*
X137933D01*
X137800Y56866D01*
Y56333D01*
X137933Y56200D01*
X138200D01*
X138333Y56333D01*
X138600Y56200D02*
X138866D01*
X138733D01*
Y57000D01*
X138600Y56866D01*
X139266Y56200D02*
X139533D01*
X139399D01*
Y57000D01*
X139266Y56866D01*
X139933D02*
X140066Y57000D01*
X140333D01*
X140466Y56866D01*
Y56733D01*
X140333Y56600D01*
X140466Y56467D01*
Y56333D01*
X140333Y56200D01*
X140066D01*
X139933Y56333D01*
Y56467D01*
X140066Y56600D01*
X139933Y56733D01*
Y56866D01*
X140066Y56600D02*
X140333D01*
X78608Y70416D02*
X78475Y70550D01*
X78208D01*
X78075Y70416D01*
Y69883D01*
X78208Y69750D01*
X78475D01*
X78608Y69883D01*
X78875Y69750D02*
X79141D01*
X79008D01*
Y70550D01*
X78875Y70416D01*
X79541Y69750D02*
X79808D01*
X79674D01*
Y70550D01*
X79541Y70416D01*
X80208Y69883D02*
X80341Y69750D01*
X80608D01*
X80741Y69883D01*
Y70416D01*
X80608Y70550D01*
X80341D01*
X80208Y70416D01*
Y70283D01*
X80341Y70150D01*
X80741D01*
X71733Y59766D02*
X71600Y59900D01*
X71333D01*
X71200Y59766D01*
Y59233D01*
X71333Y59100D01*
X71600D01*
X71733Y59233D01*
X72000Y59100D02*
X72266D01*
X72133D01*
Y59900D01*
X72000Y59766D01*
X73199Y59100D02*
X72666D01*
X73199Y59633D01*
Y59766D01*
X73066Y59900D01*
X72799D01*
X72666Y59766D01*
X73999Y59100D02*
X73466D01*
X73999Y59633D01*
Y59766D01*
X73866Y59900D01*
X73599D01*
X73466Y59766D01*
X60533Y72466D02*
X60400Y72600D01*
X60133D01*
X60000Y72466D01*
Y71933D01*
X60133Y71800D01*
X60400D01*
X60533Y71933D01*
X60800Y71800D02*
X61066D01*
X60933D01*
Y72600D01*
X60800Y72466D01*
X61999Y71800D02*
X61466D01*
X61999Y72333D01*
Y72466D01*
X61866Y72600D01*
X61599D01*
X61466Y72466D01*
X62266D02*
X62399Y72600D01*
X62666D01*
X62799Y72466D01*
Y72333D01*
X62666Y72200D01*
X62533D01*
X62666D01*
X62799Y72067D01*
Y71933D01*
X62666Y71800D01*
X62399D01*
X62266Y71933D01*
X139300Y103100D02*
Y102300D01*
X139700D01*
X139833Y102433D01*
Y102966D01*
X139700Y103100D01*
X139300D01*
X140100Y102300D02*
Y102833D01*
X140366Y103100D01*
X140633Y102833D01*
Y102300D01*
Y102700D01*
X140100D01*
X141433Y102300D02*
X140899D01*
X141433Y102833D01*
Y102966D01*
X141299Y103100D01*
X141033D01*
X140899Y102966D01*
X136800Y109300D02*
X137600D01*
Y109700D01*
X137467Y109833D01*
X136934D01*
X136800Y109700D01*
Y109300D01*
X137600Y110100D02*
X137067D01*
X136800Y110366D01*
X137067Y110633D01*
X137600D01*
X137200D01*
Y110100D01*
X137600Y111299D02*
X136800D01*
X137200Y110899D01*
Y111433D01*
X142975Y83575D02*
Y82775D01*
X143375D01*
X143508Y82908D01*
Y83441D01*
X143375Y83575D01*
X142975D01*
X143775Y82775D02*
Y83308D01*
X144041Y83575D01*
X144308Y83308D01*
Y82775D01*
Y83175D01*
X143775D01*
X145108Y83575D02*
X144574D01*
Y83175D01*
X144841Y83308D01*
X144974D01*
X145108Y83175D01*
Y82908D01*
X144974Y82775D01*
X144708D01*
X144574Y82908D01*
X29000Y81900D02*
Y81100D01*
X29400D01*
X29533Y81233D01*
Y81766D01*
X29400Y81900D01*
X29000D01*
X29800Y81100D02*
Y81633D01*
X30066Y81900D01*
X30333Y81633D01*
Y81100D01*
Y81500D01*
X29800D01*
X31133Y81900D02*
X30866Y81766D01*
X30599Y81500D01*
Y81233D01*
X30733Y81100D01*
X30999D01*
X31133Y81233D01*
Y81367D01*
X30999Y81500D01*
X30599D01*
X29000Y66100D02*
Y65300D01*
X29400D01*
X29533Y65433D01*
Y65966D01*
X29400Y66100D01*
X29000D01*
X29800Y65300D02*
Y65833D01*
X30066Y66100D01*
X30333Y65833D01*
Y65300D01*
Y65700D01*
X29800D01*
X30599Y66100D02*
X31133D01*
Y65966D01*
X30599Y65433D01*
Y65300D01*
X142900Y92100D02*
Y91300D01*
X143300D01*
X143433Y91433D01*
Y91966D01*
X143300Y92100D01*
X142900D01*
X143700Y91300D02*
Y91833D01*
X143966Y92100D01*
X144233Y91833D01*
Y91300D01*
Y91700D01*
X143700D01*
X144499Y91966D02*
X144633Y92100D01*
X144899D01*
X145033Y91966D01*
Y91833D01*
X144899Y91700D01*
X145033Y91567D01*
Y91433D01*
X144899Y91300D01*
X144633D01*
X144499Y91433D01*
Y91567D01*
X144633Y91700D01*
X144499Y91833D01*
Y91966D01*
X144633Y91700D02*
X144899D01*
X162200Y91700D02*
Y90900D01*
X162600D01*
X162733Y91033D01*
Y91566D01*
X162600Y91700D01*
X162200D01*
X163000Y90900D02*
Y91433D01*
X163266Y91700D01*
X163533Y91433D01*
Y90900D01*
Y91300D01*
X163000D01*
X163799Y90900D02*
X164066D01*
X163933D01*
Y91700D01*
X163799Y91566D01*
X164466Y90900D02*
X164733D01*
X164599D01*
Y91700D01*
X164466Y91566D01*
X140134Y68833D02*
X140000Y68700D01*
Y68433D01*
X140134Y68300D01*
X140667D01*
X140800Y68433D01*
Y68700D01*
X140667Y68833D01*
X140800Y69100D02*
Y69366D01*
Y69233D01*
X140000D01*
X140134Y69100D01*
X140800Y69766D02*
Y70033D01*
Y69899D01*
X140000D01*
X140134Y69766D01*
X140000Y70433D02*
Y70966D01*
X140134D01*
X140667Y70433D01*
X140800D01*
X179433Y134766D02*
X179300Y134900D01*
X179033D01*
X178900Y134766D01*
Y134233D01*
X179033Y134100D01*
X179300D01*
X179433Y134233D01*
X179700Y134100D02*
X179966D01*
X179833D01*
Y134900D01*
X179700Y134766D01*
X180366Y134100D02*
X180633D01*
X180499D01*
Y134900D01*
X180366Y134766D01*
X181433Y134100D02*
Y134900D01*
X181033Y134500D01*
X181566D01*
X158200Y72100D02*
Y71300D01*
X158600D01*
X158733Y71433D01*
Y71966D01*
X158600Y72100D01*
X158200D01*
X159000D02*
Y71300D01*
X159400D01*
X159533Y71433D01*
Y71966D01*
X159400Y72100D01*
X159000D01*
X159799D02*
X160333D01*
Y71966D01*
X159799Y71433D01*
Y71300D01*
X112700Y82400D02*
Y81600D01*
X113100D01*
X113233Y81733D01*
Y82266D01*
X113100Y82400D01*
X112700D01*
X113500D02*
Y81600D01*
X113900D01*
X114033Y81733D01*
Y82266D01*
X113900Y82400D01*
X113500D01*
X114299Y81600D02*
X114566D01*
X114433D01*
Y82400D01*
X114299Y82266D01*
X114966Y81600D02*
X115233D01*
X115099D01*
Y82400D01*
X114966Y82266D01*
X198900Y118900D02*
X199700D01*
Y119300D01*
X199567Y119433D01*
X199034D01*
X198900Y119300D01*
Y118900D01*
Y119700D02*
X199700D01*
Y120100D01*
X199567Y120233D01*
X199034D01*
X198900Y120100D01*
Y119700D01*
X199700Y120499D02*
Y120766D01*
Y120633D01*
X198900D01*
X199034Y120499D01*
X199700Y121699D02*
Y121166D01*
X199167Y121699D01*
X199034D01*
X198900Y121566D01*
Y121299D01*
X199034Y121166D01*
X66800Y66900D02*
Y66100D01*
X67200D01*
X67333Y66233D01*
Y66766D01*
X67200Y66900D01*
X66800D01*
X67600D02*
Y66100D01*
X68000D01*
X68133Y66233D01*
Y66766D01*
X68000Y66900D01*
X67600D01*
X68399Y66100D02*
X68666D01*
X68533D01*
Y66900D01*
X68399Y66766D01*
X69066D02*
X69199Y66900D01*
X69466D01*
X69599Y66766D01*
Y66633D01*
X69466Y66500D01*
X69333D01*
X69466D01*
X69599Y66367D01*
Y66233D01*
X69466Y66100D01*
X69199D01*
X69066Y66233D01*
X148633Y129000D02*
X148100D01*
Y128600D01*
X148367D01*
X148100D01*
Y128200D01*
X148900Y129000D02*
Y128333D01*
X149033Y128200D01*
X149300D01*
X149433Y128333D01*
Y129000D01*
X149699Y128200D02*
X149966D01*
X149833D01*
Y129000D01*
X149699Y128866D01*
X129400Y129900D02*
Y129100D01*
X129933D01*
X130200D02*
X130466D01*
X130333D01*
Y129900D01*
X130200Y129766D01*
X126000Y92900D02*
X126800D01*
Y93433D01*
Y94100D02*
X126000D01*
X126400Y93700D01*
Y94233D01*
X185034Y59133D02*
X184900Y59000D01*
Y58733D01*
X185034Y58600D01*
X185567D01*
X185700Y58733D01*
Y59000D01*
X185567Y59133D01*
X185700Y59800D02*
X184900D01*
X185300Y59400D01*
Y59933D01*
X184900Y60733D02*
Y60199D01*
X185300D01*
X185167Y60466D01*
Y60599D01*
X185300Y60733D01*
X185567D01*
X185700Y60599D01*
Y60333D01*
X185567Y60199D01*
X151500Y84900D02*
Y84100D01*
X152033D01*
X152300Y84766D02*
X152433Y84900D01*
X152700D01*
X152833Y84766D01*
Y84633D01*
X152700Y84500D01*
X152833Y84367D01*
Y84233D01*
X152700Y84100D01*
X152433D01*
X152300Y84233D01*
Y84367D01*
X152433Y84500D01*
X152300Y84633D01*
Y84766D01*
X152433Y84500D02*
X152700D01*
X73300Y71900D02*
Y71100D01*
X73833D01*
X74100Y71233D02*
X74233Y71100D01*
X74500D01*
X74633Y71233D01*
Y71766D01*
X74500Y71900D01*
X74233D01*
X74100Y71766D01*
Y71633D01*
X74233Y71500D01*
X74633D01*
X144600Y107200D02*
Y106400D01*
X145133D01*
X145933Y107200D02*
X145400D01*
Y106800D01*
X145666Y106933D01*
X145800D01*
X145933Y106800D01*
Y106533D01*
X145800Y106400D01*
X145533D01*
X145400Y106533D01*
X62000Y101400D02*
Y100600D01*
X62533D01*
X62800D02*
X63066D01*
X62933D01*
Y101400D01*
X62800Y101266D01*
X63466Y100600D02*
X63733D01*
X63599D01*
Y101400D01*
X63466Y101266D01*
X168100Y113800D02*
Y113000D01*
X168633D01*
X168900D02*
X169166D01*
X169033D01*
Y113800D01*
X168900Y113666D01*
X170099Y113000D02*
X169566D01*
X170099Y113533D01*
Y113666D01*
X169966Y113800D01*
X169699D01*
X169566Y113666D01*
X126300Y115500D02*
Y116300D01*
X126700D01*
X126833Y116166D01*
Y115900D01*
X126700Y115767D01*
X126300D01*
X126567D02*
X126833Y115500D01*
X127100D02*
X127366D01*
X127233D01*
Y116300D01*
X127100Y116166D01*
X156733Y112166D02*
X156600Y112300D01*
X156333D01*
X156200Y112166D01*
Y111633D01*
X156333Y111500D01*
X156600D01*
X156733Y111633D01*
X157400Y111500D02*
Y112300D01*
X157000Y111900D01*
X157533D01*
X126400Y116900D02*
Y117700D01*
X126800D01*
X126933Y117566D01*
Y117300D01*
X126800Y117167D01*
X126400D01*
X126667D02*
X126933Y116900D01*
X127733D02*
X127200D01*
X127733Y117433D01*
Y117566D01*
X127600Y117700D01*
X127333D01*
X127200Y117566D01*
X154133Y84466D02*
X154000Y84600D01*
X153733D01*
X153600Y84466D01*
Y83933D01*
X153733Y83800D01*
X154000D01*
X154133Y83933D01*
X154800Y83800D02*
Y84600D01*
X154400Y84200D01*
X154933D01*
X155733Y83800D02*
X155199D01*
X155733Y84333D01*
Y84466D01*
X155599Y84600D01*
X155333D01*
X155199Y84466D01*
X154233Y82166D02*
X154100Y82300D01*
X153833D01*
X153700Y82166D01*
Y81633D01*
X153833Y81500D01*
X154100D01*
X154233Y81633D01*
X154900Y81500D02*
Y82300D01*
X154500Y81900D01*
X155033D01*
X155299Y82166D02*
X155433Y82300D01*
X155699D01*
X155833Y82166D01*
Y82033D01*
X155699Y81900D01*
X155566D01*
X155699D01*
X155833Y81767D01*
Y81633D01*
X155699Y81500D01*
X155433D01*
X155299Y81633D01*
X148500Y103400D02*
Y104200D01*
X148900D01*
X149033Y104066D01*
Y103800D01*
X148900Y103667D01*
X148500D01*
X148767D02*
X149033Y103400D01*
X149300Y104066D02*
X149433Y104200D01*
X149700D01*
X149833Y104066D01*
Y103933D01*
X149700Y103800D01*
X149566D01*
X149700D01*
X149833Y103667D01*
Y103533D01*
X149700Y103400D01*
X149433D01*
X149300Y103533D01*
X148475Y104675D02*
Y105475D01*
X148875D01*
X149008Y105341D01*
Y105075D01*
X148875Y104942D01*
X148475D01*
X148742D02*
X149008Y104675D01*
X149675D02*
Y105475D01*
X149275Y105075D01*
X149808D01*
X127800Y106400D02*
X127000D01*
Y106800D01*
X127134Y106933D01*
X127400D01*
X127533Y106800D01*
Y106400D01*
Y106667D02*
X127800Y106933D01*
Y107200D02*
Y107466D01*
Y107333D01*
X127000D01*
X127134Y107200D01*
Y107866D02*
X127000Y107999D01*
Y108266D01*
X127134Y108399D01*
X127667D01*
X127800Y108266D01*
Y107999D01*
X127667Y107866D01*
X127134D01*
X125600Y111000D02*
Y111800D01*
X126000D01*
X126133Y111666D01*
Y111400D01*
X126000Y111267D01*
X125600D01*
X125867D02*
X126133Y111000D01*
X126400D02*
X126666D01*
X126533D01*
Y111800D01*
X126400Y111666D01*
X127066Y111000D02*
X127333D01*
X127199D01*
Y111800D01*
X127066Y111666D01*
X146200Y94100D02*
Y94900D01*
X146600D01*
X146733Y94766D01*
Y94500D01*
X146600Y94367D01*
X146200D01*
X146467D02*
X146733Y94100D01*
X147000D02*
X147266D01*
X147133D01*
Y94900D01*
X147000Y94766D01*
X148199Y94100D02*
X147666D01*
X148199Y94633D01*
Y94766D01*
X148066Y94900D01*
X147799D01*
X147666Y94766D01*
X144100Y72600D02*
X143300D01*
Y73000D01*
X143434Y73133D01*
X143700D01*
X143833Y73000D01*
Y72600D01*
Y72867D02*
X144100Y73133D01*
Y73400D02*
Y73666D01*
Y73533D01*
X143300D01*
X143434Y73400D01*
Y74066D02*
X143300Y74199D01*
Y74466D01*
X143434Y74599D01*
X143567D01*
X143700Y74466D01*
Y74333D01*
Y74466D01*
X143833Y74599D01*
X143967D01*
X144100Y74466D01*
Y74199D01*
X143967Y74066D01*
X139700Y77600D02*
Y78400D01*
X140100D01*
X140233Y78266D01*
Y78000D01*
X140100Y77867D01*
X139700D01*
X139967D02*
X140233Y77600D01*
X140500D02*
X140766D01*
X140633D01*
Y78400D01*
X140500Y78266D01*
X141566Y77600D02*
Y78400D01*
X141166Y78000D01*
X141699D01*
X126900Y78100D02*
Y77300D01*
X127300D01*
X127433Y77433D01*
Y77966D01*
X127300Y78100D01*
X126900D01*
X127700D02*
Y77300D01*
X128100D01*
X128233Y77433D01*
Y77966D01*
X128100Y78100D01*
X127700D01*
X129033Y77300D02*
X128499D01*
X129033Y77833D01*
Y77966D01*
X128899Y78100D01*
X128633D01*
X128499Y77966D01*
X89900Y76500D02*
Y77300D01*
X90300D01*
X90433Y77166D01*
Y76900D01*
X90300Y76767D01*
X89900D01*
X90167D02*
X90433Y76500D01*
X91233D02*
X90700D01*
X91233Y77033D01*
Y77166D01*
X91100Y77300D01*
X90833D01*
X90700Y77166D01*
X91499D02*
X91633Y77300D01*
X91899D01*
X92033Y77166D01*
Y77033D01*
X91899Y76900D01*
X92033Y76767D01*
Y76633D01*
X91899Y76500D01*
X91633D01*
X91499Y76633D01*
Y76767D01*
X91633Y76900D01*
X91499Y77033D01*
Y77166D01*
X91633Y76900D02*
X91899D01*
X129500Y82800D02*
Y83600D01*
X129900D01*
X130033Y83466D01*
Y83200D01*
X129900Y83067D01*
X129500D01*
X129767D02*
X130033Y82800D01*
X130300D02*
X130566D01*
X130433D01*
Y83600D01*
X130300Y83466D01*
X131499Y83600D02*
X131233Y83466D01*
X130966Y83200D01*
Y82933D01*
X131099Y82800D01*
X131366D01*
X131499Y82933D01*
Y83067D01*
X131366Y83200D01*
X130966D01*
X59300Y100100D02*
X60100D01*
Y99700D01*
X59966Y99567D01*
X59700D01*
X59567Y99700D01*
Y100100D01*
Y99833D02*
X59300Y99567D01*
Y98767D02*
Y99300D01*
X59833Y98767D01*
X59966D01*
X60100Y98900D01*
Y99167D01*
X59966Y99300D01*
X59433Y98501D02*
X59300Y98367D01*
Y98101D01*
X59433Y97967D01*
X59966D01*
X60100Y98101D01*
Y98367D01*
X59966Y98501D01*
X59833D01*
X59700Y98367D01*
Y97967D01*
X114000Y65400D02*
X113200D01*
Y65800D01*
X113334Y65933D01*
X113600D01*
X113733Y65800D01*
Y65400D01*
Y65667D02*
X114000Y65933D01*
Y66200D02*
Y66466D01*
Y66333D01*
X113200D01*
X113334Y66200D01*
X113867Y66866D02*
X114000Y66999D01*
Y67266D01*
X113867Y67399D01*
X113334D01*
X113200Y67266D01*
Y66999D01*
X113334Y66866D01*
X113467D01*
X113600Y66999D01*
Y67399D01*
X117900Y69300D02*
X117100D01*
Y69700D01*
X117234Y69833D01*
X117500D01*
X117633Y69700D01*
Y69300D01*
Y69567D02*
X117900Y69833D01*
Y70100D02*
Y70366D01*
Y70233D01*
X117100D01*
X117234Y70100D01*
X117100Y70766D02*
Y71299D01*
X117234D01*
X117767Y70766D01*
X117900D01*
X116700Y71700D02*
X115900D01*
Y72100D01*
X116034Y72233D01*
X116300D01*
X116433Y72100D01*
Y71700D01*
Y71967D02*
X116700Y72233D01*
Y72500D02*
Y72766D01*
Y72633D01*
X115900D01*
X116034Y72500D01*
Y73166D02*
X115900Y73299D01*
Y73566D01*
X116034Y73699D01*
X116167D01*
X116300Y73566D01*
X116433Y73699D01*
X116567D01*
X116700Y73566D01*
Y73299D01*
X116567Y73166D01*
X116433D01*
X116300Y73299D01*
X116167Y73166D01*
X116034D01*
X116300Y73299D02*
Y73566D01*
X95625Y65925D02*
X94825D01*
Y66325D01*
X94959Y66458D01*
X95225D01*
X95358Y66325D01*
Y65925D01*
Y66192D02*
X95625Y66458D01*
Y67258D02*
Y66725D01*
X95092Y67258D01*
X94959D01*
X94825Y67125D01*
Y66858D01*
X94959Y66725D01*
X95625Y67924D02*
X94825D01*
X95225Y67524D01*
Y68058D01*
X182800Y56200D02*
X183333Y55400D01*
Y56200D02*
X182800Y55400D01*
X183600D02*
Y56200D01*
X184000D01*
X184133Y56066D01*
Y55800D01*
X184000Y55667D01*
X183600D01*
X184399Y55400D02*
X184666D01*
X184533D01*
Y56200D01*
X184399Y56066D01*
X160300Y74100D02*
X159500D01*
Y74500D01*
X159634Y74633D01*
X159900D01*
X160033Y74500D01*
Y74100D01*
Y74367D02*
X160300Y74633D01*
Y75300D02*
X159500D01*
X159900Y74900D01*
Y75433D01*
X159500Y76233D02*
X159634Y75966D01*
X159900Y75699D01*
X160167D01*
X160300Y75833D01*
Y76099D01*
X160167Y76233D01*
X160033D01*
X159900Y76099D01*
Y75699D01*
X161600Y82000D02*
X160800D01*
Y82400D01*
X160934Y82533D01*
X161200D01*
X161333Y82400D01*
Y82000D01*
Y82267D02*
X161600Y82533D01*
Y83200D02*
X160800D01*
X161200Y82800D01*
Y83333D01*
X160800Y83599D02*
Y84133D01*
X160934D01*
X161467Y83599D01*
X161600D01*
X160300Y76500D02*
X159500D01*
Y76900D01*
X159634Y77033D01*
X159900D01*
X160033Y76900D01*
Y76500D01*
Y76767D02*
X160300Y77033D01*
Y77700D02*
X159500D01*
X159900Y77300D01*
Y77833D01*
X160167Y78099D02*
X160300Y78233D01*
Y78499D01*
X160167Y78633D01*
X159634D01*
X159500Y78499D01*
Y78233D01*
X159634Y78099D01*
X159767D01*
X159900Y78233D01*
Y78633D01*
X160200Y89700D02*
Y90500D01*
X160600D01*
X160733Y90366D01*
Y90100D01*
X160600Y89967D01*
X160200D01*
X160467D02*
X160733Y89700D01*
X161533Y90500D02*
X161000D01*
Y90100D01*
X161266Y90233D01*
X161400D01*
X161533Y90100D01*
Y89833D01*
X161400Y89700D01*
X161133D01*
X161000Y89833D01*
X161799Y90366D02*
X161933Y90500D01*
X162199D01*
X162333Y90366D01*
Y89833D01*
X162199Y89700D01*
X161933D01*
X161799Y89833D01*
Y90366D01*
X162100Y68700D02*
X162900Y69233D01*
X162100D02*
X162900Y68700D01*
Y69500D02*
X162100D01*
Y69900D01*
X162234Y70033D01*
X162500D01*
X162633Y69900D01*
Y69500D01*
X162100Y70833D02*
Y70299D01*
X162500D01*
X162367Y70566D01*
Y70699D01*
X162500Y70833D01*
X162767D01*
X162900Y70699D01*
Y70433D01*
X162767Y70299D01*
X152700Y134800D02*
X153233Y134000D01*
Y134800D02*
X152700Y134000D01*
X153500D02*
Y134800D01*
X153900D01*
X154033Y134666D01*
Y134400D01*
X153900Y134267D01*
X153500D01*
X154299Y134666D02*
X154433Y134800D01*
X154699D01*
X154833Y134666D01*
Y134533D01*
X154699Y134400D01*
X154833Y134267D01*
Y134133D01*
X154699Y134000D01*
X154433D01*
X154299Y134133D01*
Y134267D01*
X154433Y134400D01*
X154299Y134533D01*
Y134666D01*
X154433Y134400D02*
X154699D01*
X164300Y122000D02*
Y122800D01*
X164700D01*
X164833Y122666D01*
Y122400D01*
X164700Y122267D01*
X164300D01*
X164567D02*
X164833Y122000D01*
X165633Y122800D02*
X165100D01*
Y122400D01*
X165366Y122533D01*
X165500D01*
X165633Y122400D01*
Y122133D01*
X165500Y122000D01*
X165233D01*
X165100Y122133D01*
X166433Y122000D02*
X165899D01*
X166433Y122533D01*
Y122666D01*
X166299Y122800D01*
X166033D01*
X165899Y122666D01*
X175100Y86600D02*
X174300D01*
Y87000D01*
X174434Y87133D01*
X174700D01*
X174833Y87000D01*
Y86600D01*
Y86867D02*
X175100Y87133D01*
X174300Y87933D02*
X174434Y87666D01*
X174700Y87400D01*
X174967D01*
X175100Y87533D01*
Y87800D01*
X174967Y87933D01*
X174833D01*
X174700Y87800D01*
Y87400D01*
X175100Y88199D02*
Y88466D01*
Y88333D01*
X174300D01*
X174434Y88199D01*
X176800Y117775D02*
X176000D01*
Y118175D01*
X176134Y118308D01*
X176400D01*
X176533Y118175D01*
Y117775D01*
Y118042D02*
X176800Y118308D01*
X176000Y119108D02*
X176134Y118841D01*
X176400Y118575D01*
X176667D01*
X176800Y118708D01*
Y118975D01*
X176667Y119108D01*
X176533D01*
X176400Y118975D01*
Y118575D01*
X176000Y119908D02*
Y119374D01*
X176400D01*
X176267Y119641D01*
Y119774D01*
X176400Y119908D01*
X176667D01*
X176800Y119774D01*
Y119508D01*
X176667Y119374D01*
X143500Y68300D02*
X142700D01*
Y68700D01*
X142834Y68833D01*
X143100D01*
X143233Y68700D01*
Y68300D01*
Y68567D02*
X143500Y68833D01*
X142700Y69633D02*
Y69100D01*
X143100D01*
X142967Y69366D01*
Y69500D01*
X143100Y69633D01*
X143367D01*
X143500Y69500D01*
Y69233D01*
X143367Y69100D01*
X142700Y70433D02*
Y69899D01*
X143100D01*
X142967Y70166D01*
Y70299D01*
X143100Y70433D01*
X143367D01*
X143500Y70299D01*
Y70033D01*
X143367Y69899D01*
X144700Y68400D02*
X143900D01*
Y68800D01*
X144034Y68933D01*
X144300D01*
X144433Y68800D01*
Y68400D01*
Y68667D02*
X144700Y68933D01*
X143900Y69733D02*
Y69200D01*
X144300D01*
X144167Y69466D01*
Y69600D01*
X144300Y69733D01*
X144567D01*
X144700Y69600D01*
Y69333D01*
X144567Y69200D01*
X143900Y70533D02*
X144034Y70266D01*
X144300Y69999D01*
X144567D01*
X144700Y70133D01*
Y70399D01*
X144567Y70533D01*
X144433D01*
X144300Y70399D01*
Y69999D01*
X146300Y68300D02*
X145500D01*
Y68700D01*
X145634Y68833D01*
X145900D01*
X146033Y68700D01*
Y68300D01*
Y68567D02*
X146300Y68833D01*
X145500Y69633D02*
Y69100D01*
X145900D01*
X145767Y69366D01*
Y69500D01*
X145900Y69633D01*
X146167D01*
X146300Y69500D01*
Y69233D01*
X146167Y69100D01*
X145500Y69899D02*
Y70433D01*
X145634D01*
X146167Y69899D01*
X146300D01*
X147400Y68300D02*
X146600D01*
Y68700D01*
X146734Y68833D01*
X147000D01*
X147133Y68700D01*
Y68300D01*
Y68567D02*
X147400Y68833D01*
X146600Y69633D02*
Y69100D01*
X147000D01*
X146867Y69366D01*
Y69500D01*
X147000Y69633D01*
X147267D01*
X147400Y69500D01*
Y69233D01*
X147267Y69100D01*
X146734Y69899D02*
X146600Y70033D01*
Y70299D01*
X146734Y70433D01*
X146867D01*
X147000Y70299D01*
X147133Y70433D01*
X147267D01*
X147400Y70299D01*
Y70033D01*
X147267Y69899D01*
X147133D01*
X147000Y70033D01*
X146867Y69899D01*
X146734D01*
X147000Y70033D02*
Y70299D01*
X148700Y66500D02*
X147900D01*
Y66900D01*
X148034Y67033D01*
X148300D01*
X148433Y66900D01*
Y66500D01*
Y66767D02*
X148700Y67033D01*
X147900Y67833D02*
Y67300D01*
X148300D01*
X148167Y67566D01*
Y67700D01*
X148300Y67833D01*
X148567D01*
X148700Y67700D01*
Y67433D01*
X148567Y67300D01*
Y68099D02*
X148700Y68233D01*
Y68499D01*
X148567Y68633D01*
X148034D01*
X147900Y68499D01*
Y68233D01*
X148034Y68099D01*
X148167D01*
X148300Y68233D01*
Y68633D01*
X93400Y75300D02*
Y76100D01*
X93800D01*
X93933Y75966D01*
Y75700D01*
X93800Y75567D01*
X93400D01*
X93667D02*
X93933Y75300D01*
X94733Y76100D02*
X94466Y75966D01*
X94200Y75700D01*
Y75433D01*
X94333Y75300D01*
X94600D01*
X94733Y75433D01*
Y75567D01*
X94600Y75700D01*
X94200D01*
X94999Y75966D02*
X95133Y76100D01*
X95399D01*
X95533Y75966D01*
Y75433D01*
X95399Y75300D01*
X95133D01*
X94999Y75433D01*
Y75966D01*
X176800Y112900D02*
X176000D01*
Y113300D01*
X176134Y113433D01*
X176400D01*
X176533Y113300D01*
Y112900D01*
Y113167D02*
X176800Y113433D01*
X176000Y114233D02*
X176134Y113966D01*
X176400Y113700D01*
X176667D01*
X176800Y113833D01*
Y114100D01*
X176667Y114233D01*
X176533D01*
X176400Y114100D01*
Y113700D01*
X176000Y115033D02*
X176134Y114766D01*
X176400Y114499D01*
X176667D01*
X176800Y114633D01*
Y114899D01*
X176667Y115033D01*
X176533D01*
X176400Y114899D01*
Y114499D01*
X176800Y115400D02*
X176000D01*
Y115800D01*
X176134Y115933D01*
X176400D01*
X176533Y115800D01*
Y115400D01*
Y115667D02*
X176800Y115933D01*
X176000Y116733D02*
X176134Y116466D01*
X176400Y116200D01*
X176667D01*
X176800Y116333D01*
Y116600D01*
X176667Y116733D01*
X176533D01*
X176400Y116600D01*
Y116200D01*
X176000Y116999D02*
Y117533D01*
X176134D01*
X176667Y116999D01*
X176800D01*
X175000Y78600D02*
X174200D01*
Y79000D01*
X174334Y79133D01*
X174600D01*
X174733Y79000D01*
Y78600D01*
Y78867D02*
X175000Y79133D01*
X174200Y79933D02*
X174334Y79666D01*
X174600Y79400D01*
X174867D01*
X175000Y79533D01*
Y79800D01*
X174867Y79933D01*
X174733D01*
X174600Y79800D01*
Y79400D01*
X174334Y80199D02*
X174200Y80333D01*
Y80599D01*
X174334Y80733D01*
X174467D01*
X174600Y80599D01*
X174733Y80733D01*
X174867D01*
X175000Y80599D01*
Y80333D01*
X174867Y80199D01*
X174733D01*
X174600Y80333D01*
X174467Y80199D01*
X174334D01*
X174600Y80333D02*
Y80599D01*
X176800Y110500D02*
X176000D01*
Y110900D01*
X176134Y111033D01*
X176400D01*
X176533Y110900D01*
Y110500D01*
Y110767D02*
X176800Y111033D01*
X176000Y111833D02*
X176134Y111566D01*
X176400Y111300D01*
X176667D01*
X176800Y111433D01*
Y111700D01*
X176667Y111833D01*
X176533D01*
X176400Y111700D01*
Y111300D01*
X176667Y112099D02*
X176800Y112233D01*
Y112499D01*
X176667Y112633D01*
X176134D01*
X176000Y112499D01*
Y112233D01*
X176134Y112099D01*
X176267D01*
X176400Y112233D01*
Y112633D01*
X178900Y121500D02*
Y122300D01*
X179300D01*
X179433Y122166D01*
Y121900D01*
X179300Y121767D01*
X178900D01*
X179167D02*
X179433Y121500D01*
X179700Y122300D02*
X180233D01*
Y122166D01*
X179700Y121633D01*
Y121500D01*
X180499D02*
X180766D01*
X180633D01*
Y122300D01*
X180499Y122166D01*
X153000Y64000D02*
Y64800D01*
X153400D01*
X153533Y64666D01*
Y64400D01*
X153400Y64267D01*
X153000D01*
X153267D02*
X153533Y64000D01*
X153800Y64800D02*
X154333D01*
Y64666D01*
X153800Y64133D01*
Y64000D01*
X154599Y64666D02*
X154733Y64800D01*
X154999D01*
X155133Y64666D01*
Y64133D01*
X154999Y64000D01*
X154733D01*
X154599Y64133D01*
Y64666D01*
X193800Y105300D02*
X193000D01*
Y105700D01*
X193134Y105833D01*
X193400D01*
X193533Y105700D01*
Y105300D01*
Y105567D02*
X193800Y105833D01*
X193000Y106100D02*
Y106633D01*
X193134D01*
X193667Y106100D01*
X193800D01*
Y107433D02*
Y106899D01*
X193267Y107433D01*
X193134D01*
X193000Y107299D01*
Y107033D01*
X193134Y106899D01*
X189400Y105400D02*
X188600D01*
Y105800D01*
X188734Y105933D01*
X189000D01*
X189133Y105800D01*
Y105400D01*
Y105667D02*
X189400Y105933D01*
X188600Y106200D02*
Y106733D01*
X188734D01*
X189267Y106200D01*
X189400D01*
X188734Y106999D02*
X188600Y107133D01*
Y107399D01*
X188734Y107533D01*
X188867D01*
X189000Y107399D01*
Y107266D01*
Y107399D01*
X189133Y107533D01*
X189267D01*
X189400Y107399D01*
Y107133D01*
X189267Y106999D01*
X170414Y114817D02*
Y115617D01*
X170813D01*
X170947Y115484D01*
Y115217D01*
X170813Y115084D01*
X170414D01*
X170680D02*
X170947Y114817D01*
X171213Y115617D02*
X171747D01*
Y115484D01*
X171213Y114951D01*
Y114817D01*
X172413D02*
Y115617D01*
X172013Y115217D01*
X172546D01*
X83500Y58800D02*
Y59600D01*
X83900D01*
X84033Y59466D01*
Y59200D01*
X83900Y59067D01*
X83500D01*
X83767D02*
X84033Y58800D01*
X84300Y59600D02*
X84833D01*
Y59466D01*
X84300Y58933D01*
Y58800D01*
X85633Y59600D02*
X85099D01*
Y59200D01*
X85366Y59333D01*
X85499D01*
X85633Y59200D01*
Y58933D01*
X85499Y58800D01*
X85233D01*
X85099Y58933D01*
X83500Y59800D02*
Y60600D01*
X83900D01*
X84033Y60466D01*
Y60200D01*
X83900Y60067D01*
X83500D01*
X83767D02*
X84033Y59800D01*
X84300Y60600D02*
X84833D01*
Y60466D01*
X84300Y59933D01*
Y59800D01*
X85633Y60600D02*
X85366Y60466D01*
X85099Y60200D01*
Y59933D01*
X85233Y59800D01*
X85499D01*
X85633Y59933D01*
Y60067D01*
X85499Y60200D01*
X85099D01*
X83500Y60800D02*
Y61600D01*
X83900D01*
X84033Y61466D01*
Y61200D01*
X83900Y61067D01*
X83500D01*
X83767D02*
X84033Y60800D01*
X84300Y61600D02*
X84833D01*
Y61466D01*
X84300Y60933D01*
Y60800D01*
X85099Y61600D02*
X85633D01*
Y61466D01*
X85099Y60933D01*
Y60800D01*
X83500Y61800D02*
Y62600D01*
X83900D01*
X84033Y62466D01*
Y62200D01*
X83900Y62067D01*
X83500D01*
X83767D02*
X84033Y61800D01*
X84300Y62600D02*
X84833D01*
Y62466D01*
X84300Y61933D01*
Y61800D01*
X85099Y62466D02*
X85233Y62600D01*
X85499D01*
X85633Y62466D01*
Y62333D01*
X85499Y62200D01*
X85633Y62067D01*
Y61933D01*
X85499Y61800D01*
X85233D01*
X85099Y61933D01*
Y62067D01*
X85233Y62200D01*
X85099Y62333D01*
Y62466D01*
X85233Y62200D02*
X85499D01*
X83500Y62800D02*
Y63600D01*
X83900D01*
X84033Y63466D01*
Y63200D01*
X83900Y63067D01*
X83500D01*
X83767D02*
X84033Y62800D01*
X84300Y63600D02*
X84833D01*
Y63466D01*
X84300Y62933D01*
Y62800D01*
X85099Y62933D02*
X85233Y62800D01*
X85499D01*
X85633Y62933D01*
Y63466D01*
X85499Y63600D01*
X85233D01*
X85099Y63466D01*
Y63333D01*
X85233Y63200D01*
X85633D01*
X88000Y63400D02*
Y64200D01*
X88400D01*
X88533Y64066D01*
Y63800D01*
X88400Y63667D01*
X88000D01*
X88267D02*
X88533Y63400D01*
X88800Y64066D02*
X88933Y64200D01*
X89200D01*
X89333Y64066D01*
Y63933D01*
X89200Y63800D01*
X89333Y63667D01*
Y63533D01*
X89200Y63400D01*
X88933D01*
X88800Y63533D01*
Y63667D01*
X88933Y63800D01*
X88800Y63933D01*
Y64066D01*
X88933Y63800D02*
X89200D01*
X89599Y64066D02*
X89733Y64200D01*
X89999D01*
X90133Y64066D01*
Y63533D01*
X89999Y63400D01*
X89733D01*
X89599Y63533D01*
Y64066D01*
X83500Y64000D02*
Y64800D01*
X83900D01*
X84033Y64666D01*
Y64400D01*
X83900Y64267D01*
X83500D01*
X83767D02*
X84033Y64000D01*
X84300Y64666D02*
X84433Y64800D01*
X84700D01*
X84833Y64666D01*
Y64533D01*
X84700Y64400D01*
X84833Y64267D01*
Y64133D01*
X84700Y64000D01*
X84433D01*
X84300Y64133D01*
Y64267D01*
X84433Y64400D01*
X84300Y64533D01*
Y64666D01*
X84433Y64400D02*
X84700D01*
X85099Y64000D02*
X85366D01*
X85233D01*
Y64800D01*
X85099Y64666D01*
X88000Y64600D02*
Y65400D01*
X88400D01*
X88533Y65266D01*
Y65000D01*
X88400Y64867D01*
X88000D01*
X88267D02*
X88533Y64600D01*
X88800Y65266D02*
X88933Y65400D01*
X89200D01*
X89333Y65266D01*
Y65133D01*
X89200Y65000D01*
X89333Y64867D01*
Y64733D01*
X89200Y64600D01*
X88933D01*
X88800Y64733D01*
Y64867D01*
X88933Y65000D01*
X88800Y65133D01*
Y65266D01*
X88933Y65000D02*
X89200D01*
X90133Y64600D02*
X89599D01*
X90133Y65133D01*
Y65266D01*
X89999Y65400D01*
X89733D01*
X89599Y65266D01*
X83500Y56800D02*
Y57600D01*
X83900D01*
X84033Y57466D01*
Y57200D01*
X83900Y57067D01*
X83500D01*
X83767D02*
X84033Y56800D01*
X84300Y57466D02*
X84433Y57600D01*
X84700D01*
X84833Y57466D01*
Y57333D01*
X84700Y57200D01*
X84833Y57067D01*
Y56933D01*
X84700Y56800D01*
X84433D01*
X84300Y56933D01*
Y57067D01*
X84433Y57200D01*
X84300Y57333D01*
Y57466D01*
X84433Y57200D02*
X84700D01*
X85099Y57466D02*
X85233Y57600D01*
X85499D01*
X85633Y57466D01*
Y57333D01*
X85499Y57200D01*
X85366D01*
X85499D01*
X85633Y57067D01*
Y56933D01*
X85499Y56800D01*
X85233D01*
X85099Y56933D01*
X83500Y57800D02*
Y58600D01*
X83900D01*
X84033Y58466D01*
Y58200D01*
X83900Y58067D01*
X83500D01*
X83767D02*
X84033Y57800D01*
X84300Y58466D02*
X84433Y58600D01*
X84700D01*
X84833Y58466D01*
Y58333D01*
X84700Y58200D01*
X84833Y58067D01*
Y57933D01*
X84700Y57800D01*
X84433D01*
X84300Y57933D01*
Y58067D01*
X84433Y58200D01*
X84300Y58333D01*
Y58466D01*
X84433Y58200D02*
X84700D01*
X85499Y57800D02*
Y58600D01*
X85099Y58200D01*
X85633D01*
X83500Y65200D02*
Y66000D01*
X83900D01*
X84033Y65866D01*
Y65600D01*
X83900Y65467D01*
X83500D01*
X83767D02*
X84033Y65200D01*
X84300Y65866D02*
X84433Y66000D01*
X84700D01*
X84833Y65866D01*
Y65733D01*
X84700Y65600D01*
X84833Y65467D01*
Y65333D01*
X84700Y65200D01*
X84433D01*
X84300Y65333D01*
Y65467D01*
X84433Y65600D01*
X84300Y65733D01*
Y65866D01*
X84433Y65600D02*
X84700D01*
X85633Y66000D02*
X85099D01*
Y65600D01*
X85366Y65733D01*
X85499D01*
X85633Y65600D01*
Y65333D01*
X85499Y65200D01*
X85233D01*
X85099Y65333D01*
X88000Y65800D02*
Y66600D01*
X88400D01*
X88533Y66466D01*
Y66200D01*
X88400Y66067D01*
X88000D01*
X88267D02*
X88533Y65800D01*
X88800Y66466D02*
X88933Y66600D01*
X89200D01*
X89333Y66466D01*
Y66333D01*
X89200Y66200D01*
X89333Y66067D01*
Y65933D01*
X89200Y65800D01*
X88933D01*
X88800Y65933D01*
Y66067D01*
X88933Y66200D01*
X88800Y66333D01*
Y66466D01*
X88933Y66200D02*
X89200D01*
X90133Y66600D02*
X89866Y66466D01*
X89599Y66200D01*
Y65933D01*
X89733Y65800D01*
X89999D01*
X90133Y65933D01*
Y66067D01*
X89999Y66200D01*
X89599D01*
X83500Y66400D02*
Y67200D01*
X83900D01*
X84033Y67066D01*
Y66800D01*
X83900Y66667D01*
X83500D01*
X83767D02*
X84033Y66400D01*
X84300Y67066D02*
X84433Y67200D01*
X84700D01*
X84833Y67066D01*
Y66933D01*
X84700Y66800D01*
X84833Y66667D01*
Y66533D01*
X84700Y66400D01*
X84433D01*
X84300Y66533D01*
Y66667D01*
X84433Y66800D01*
X84300Y66933D01*
Y67066D01*
X84433Y66800D02*
X84700D01*
X85099Y67200D02*
X85633D01*
Y67066D01*
X85099Y66533D01*
Y66400D01*
X88000Y67000D02*
Y67800D01*
X88400D01*
X88533Y67666D01*
Y67400D01*
X88400Y67267D01*
X88000D01*
X88267D02*
X88533Y67000D01*
X88800Y67666D02*
X88933Y67800D01*
X89200D01*
X89333Y67666D01*
Y67533D01*
X89200Y67400D01*
X89333Y67267D01*
Y67133D01*
X89200Y67000D01*
X88933D01*
X88800Y67133D01*
Y67267D01*
X88933Y67400D01*
X88800Y67533D01*
Y67666D01*
X88933Y67400D02*
X89200D01*
X89599Y67666D02*
X89733Y67800D01*
X89999D01*
X90133Y67666D01*
Y67533D01*
X89999Y67400D01*
X90133Y67267D01*
Y67133D01*
X89999Y67000D01*
X89733D01*
X89599Y67133D01*
Y67267D01*
X89733Y67400D01*
X89599Y67533D01*
Y67666D01*
X89733Y67400D02*
X89999D01*
X83500Y67600D02*
Y68400D01*
X83900D01*
X84033Y68266D01*
Y68000D01*
X83900Y67867D01*
X83500D01*
X83767D02*
X84033Y67600D01*
X84300Y68266D02*
X84433Y68400D01*
X84700D01*
X84833Y68266D01*
Y68133D01*
X84700Y68000D01*
X84833Y67867D01*
Y67733D01*
X84700Y67600D01*
X84433D01*
X84300Y67733D01*
Y67867D01*
X84433Y68000D01*
X84300Y68133D01*
Y68266D01*
X84433Y68000D02*
X84700D01*
X85099Y67733D02*
X85233Y67600D01*
X85499D01*
X85633Y67733D01*
Y68266D01*
X85499Y68400D01*
X85233D01*
X85099Y68266D01*
Y68133D01*
X85233Y68000D01*
X85633D01*
X88000Y68200D02*
Y69000D01*
X88400D01*
X88533Y68866D01*
Y68600D01*
X88400Y68467D01*
X88000D01*
X88267D02*
X88533Y68200D01*
X88800Y68333D02*
X88933Y68200D01*
X89200D01*
X89333Y68333D01*
Y68866D01*
X89200Y69000D01*
X88933D01*
X88800Y68866D01*
Y68733D01*
X88933Y68600D01*
X89333D01*
X89599Y68866D02*
X89733Y69000D01*
X89999D01*
X90133Y68866D01*
Y68333D01*
X89999Y68200D01*
X89733D01*
X89599Y68333D01*
Y68866D01*
X79010Y55898D02*
Y56697D01*
X79409D01*
X79543Y56564D01*
Y56297D01*
X79409Y56164D01*
X79010D01*
X79276D02*
X79543Y55898D01*
X79809Y56031D02*
X79943Y55898D01*
X80209D01*
X80342Y56031D01*
Y56564D01*
X80209Y56697D01*
X79943D01*
X79809Y56564D01*
Y56431D01*
X79943Y56297D01*
X80342D01*
X80609Y55898D02*
X80876D01*
X80742D01*
Y56697D01*
X80609Y56564D01*
X81300Y57800D02*
X80500D01*
Y58200D01*
X80634Y58333D01*
X80900D01*
X81033Y58200D01*
Y57800D01*
Y58067D02*
X81300Y58333D01*
X81167Y58600D02*
X81300Y58733D01*
Y59000D01*
X81167Y59133D01*
X80634D01*
X80500Y59000D01*
Y58733D01*
X80634Y58600D01*
X80767D01*
X80900Y58733D01*
Y59133D01*
X81300Y59933D02*
Y59399D01*
X80767Y59933D01*
X80634D01*
X80500Y59799D01*
Y59533D01*
X80634Y59399D01*
X88000Y69200D02*
Y70000D01*
X88400D01*
X88533Y69866D01*
Y69600D01*
X88400Y69467D01*
X88000D01*
X88267D02*
X88533Y69200D01*
X88800Y69333D02*
X88933Y69200D01*
X89200D01*
X89333Y69333D01*
Y69866D01*
X89200Y70000D01*
X88933D01*
X88800Y69866D01*
Y69733D01*
X88933Y69600D01*
X89333D01*
X89599Y69866D02*
X89733Y70000D01*
X89999D01*
X90133Y69866D01*
Y69733D01*
X89999Y69600D01*
X89866D01*
X89999D01*
X90133Y69467D01*
Y69333D01*
X89999Y69200D01*
X89733D01*
X89599Y69333D01*
X83500Y69600D02*
Y70400D01*
X83900D01*
X84033Y70266D01*
Y70000D01*
X83900Y69867D01*
X83500D01*
X83767D02*
X84033Y69600D01*
X84300Y69733D02*
X84433Y69600D01*
X84700D01*
X84833Y69733D01*
Y70266D01*
X84700Y70400D01*
X84433D01*
X84300Y70266D01*
Y70133D01*
X84433Y70000D01*
X84833D01*
X85499Y69600D02*
Y70400D01*
X85099Y70000D01*
X85633D01*
X88000Y70400D02*
Y71200D01*
X88400D01*
X88533Y71066D01*
Y70800D01*
X88400Y70667D01*
X88000D01*
X88267D02*
X88533Y70400D01*
X88800Y70533D02*
X88933Y70400D01*
X89200D01*
X89333Y70533D01*
Y71066D01*
X89200Y71200D01*
X88933D01*
X88800Y71066D01*
Y70933D01*
X88933Y70800D01*
X89333D01*
X90133Y71200D02*
X89599D01*
Y70800D01*
X89866Y70933D01*
X89999D01*
X90133Y70800D01*
Y70533D01*
X89999Y70400D01*
X89733D01*
X89599Y70533D01*
X83500Y70700D02*
Y71500D01*
X83900D01*
X84033Y71366D01*
Y71100D01*
X83900Y70967D01*
X83500D01*
X83767D02*
X84033Y70700D01*
X84300Y70833D02*
X84433Y70700D01*
X84700D01*
X84833Y70833D01*
Y71366D01*
X84700Y71500D01*
X84433D01*
X84300Y71366D01*
Y71233D01*
X84433Y71100D01*
X84833D01*
X85633Y71500D02*
X85366Y71366D01*
X85099Y71100D01*
Y70833D01*
X85233Y70700D01*
X85499D01*
X85633Y70833D01*
Y70967D01*
X85499Y71100D01*
X85099D01*
X88000Y71600D02*
Y72400D01*
X88400D01*
X88533Y72266D01*
Y72000D01*
X88400Y71867D01*
X88000D01*
X88267D02*
X88533Y71600D01*
X88800Y71733D02*
X88933Y71600D01*
X89200D01*
X89333Y71733D01*
Y72266D01*
X89200Y72400D01*
X88933D01*
X88800Y72266D01*
Y72133D01*
X88933Y72000D01*
X89333D01*
X89599Y72400D02*
X90133D01*
Y72266D01*
X89599Y71733D01*
Y71600D01*
X83500Y72000D02*
Y72800D01*
X83900D01*
X84033Y72666D01*
Y72400D01*
X83900Y72267D01*
X83500D01*
X83767D02*
X84033Y72000D01*
X84300Y72133D02*
X84433Y72000D01*
X84700D01*
X84833Y72133D01*
Y72666D01*
X84700Y72800D01*
X84433D01*
X84300Y72666D01*
Y72533D01*
X84433Y72400D01*
X84833D01*
X85099Y72666D02*
X85233Y72800D01*
X85499D01*
X85633Y72666D01*
Y72533D01*
X85499Y72400D01*
X85633Y72267D01*
Y72133D01*
X85499Y72000D01*
X85233D01*
X85099Y72133D01*
Y72267D01*
X85233Y72400D01*
X85099Y72533D01*
Y72666D01*
X85233Y72400D02*
X85499D01*
X172300Y69000D02*
Y69800D01*
X172700D01*
X172833Y69666D01*
Y69400D01*
X172700Y69267D01*
X172300D01*
X172567D02*
X172833Y69000D01*
X173100Y69133D02*
X173233Y69000D01*
X173500D01*
X173633Y69133D01*
Y69666D01*
X173500Y69800D01*
X173233D01*
X173100Y69666D01*
Y69533D01*
X173233Y69400D01*
X173633D01*
X173899Y69133D02*
X174033Y69000D01*
X174299D01*
X174433Y69133D01*
Y69666D01*
X174299Y69800D01*
X174033D01*
X173899Y69666D01*
Y69533D01*
X174033Y69400D01*
X174433D01*
X62625Y64200D02*
Y65000D01*
X63025D01*
X63158Y64866D01*
Y64600D01*
X63025Y64467D01*
X62625D01*
X62892D02*
X63158Y64200D01*
X63425D02*
X63691D01*
X63558D01*
Y65000D01*
X63425Y64866D01*
X64091D02*
X64224Y65000D01*
X64491D01*
X64624Y64866D01*
Y64333D01*
X64491Y64200D01*
X64224D01*
X64091Y64333D01*
Y64866D01*
X64891D02*
X65024Y65000D01*
X65291D01*
X65424Y64866D01*
Y64333D01*
X65291Y64200D01*
X65024D01*
X64891Y64333D01*
Y64866D01*
X74200Y54700D02*
Y55500D01*
X74600D01*
X74733Y55366D01*
Y55100D01*
X74600Y54967D01*
X74200D01*
X74467D02*
X74733Y54700D01*
X75000D02*
X75266D01*
X75133D01*
Y55500D01*
X75000Y55366D01*
X75666D02*
X75799Y55500D01*
X76066D01*
X76199Y55366D01*
Y54833D01*
X76066Y54700D01*
X75799D01*
X75666Y54833D01*
Y55366D01*
X76466Y54700D02*
X76733D01*
X76599D01*
Y55500D01*
X76466Y55366D01*
X68725Y54825D02*
Y55625D01*
X69125D01*
X69258Y55491D01*
Y55225D01*
X69125Y55092D01*
X68725D01*
X68992D02*
X69258Y54825D01*
X69525D02*
X69791D01*
X69658D01*
Y55625D01*
X69525Y55491D01*
X70191D02*
X70324Y55625D01*
X70591D01*
X70724Y55491D01*
Y54958D01*
X70591Y54825D01*
X70324D01*
X70191Y54958D01*
Y55491D01*
X71524Y54825D02*
X70991D01*
X71524Y55358D01*
Y55491D01*
X71391Y55625D01*
X71124D01*
X70991Y55491D01*
X71600Y57728D02*
Y58527D01*
X72000D01*
X72133Y58394D01*
Y58128D01*
X72000Y57994D01*
X71600D01*
X71867D02*
X72133Y57728D01*
X72400D02*
X72666D01*
X72533D01*
Y58527D01*
X72400Y58394D01*
X73066D02*
X73199Y58527D01*
X73466D01*
X73599Y58394D01*
Y57861D01*
X73466Y57728D01*
X73199D01*
X73066Y57861D01*
Y58394D01*
X73866D02*
X73999Y58527D01*
X74266D01*
X74399Y58394D01*
Y58261D01*
X74266Y58128D01*
X74133D01*
X74266D01*
X74399Y57994D01*
Y57861D01*
X74266Y57728D01*
X73999D01*
X73866Y57861D01*
X77500Y54800D02*
Y55600D01*
X77900D01*
X78033Y55466D01*
Y55200D01*
X77900Y55067D01*
X77500D01*
X77767D02*
X78033Y54800D01*
X78300D02*
X78566D01*
X78433D01*
Y55600D01*
X78300Y55466D01*
X78966D02*
X79099Y55600D01*
X79366D01*
X79499Y55466D01*
Y54933D01*
X79366Y54800D01*
X79099D01*
X78966Y54933D01*
Y55466D01*
X80166Y54800D02*
Y55600D01*
X79766Y55200D01*
X80299D01*
X68104Y57212D02*
Y58012D01*
X68504D01*
X68637Y57878D01*
Y57612D01*
X68504Y57478D01*
X68104D01*
X68371D02*
X68637Y57212D01*
X68904D02*
X69170D01*
X69037D01*
Y58012D01*
X68904Y57878D01*
X69570D02*
X69703Y58012D01*
X69970D01*
X70103Y57878D01*
Y57345D01*
X69970Y57212D01*
X69703D01*
X69570Y57345D01*
Y57878D01*
X70903Y58012D02*
X70370D01*
Y57612D01*
X70637Y57745D01*
X70770D01*
X70903Y57612D01*
Y57345D01*
X70770Y57212D01*
X70503D01*
X70370Y57345D01*
X70200Y58200D02*
X69400D01*
Y58600D01*
X69534Y58733D01*
X69800D01*
X69933Y58600D01*
Y58200D01*
Y58467D02*
X70200Y58733D01*
Y59000D02*
Y59266D01*
Y59133D01*
X69400D01*
X69534Y59000D01*
Y59666D02*
X69400Y59799D01*
Y60066D01*
X69534Y60199D01*
X70067D01*
X70200Y60066D01*
Y59799D01*
X70067Y59666D01*
X69534D01*
X69400Y60999D02*
X69534Y60733D01*
X69800Y60466D01*
X70067D01*
X70200Y60599D01*
Y60866D01*
X70067Y60999D01*
X69933D01*
X69800Y60866D01*
Y60466D01*
X49100Y60900D02*
X48300D01*
Y61300D01*
X48434Y61433D01*
X48700D01*
X48833Y61300D01*
Y60900D01*
Y61167D02*
X49100Y61433D01*
Y61700D02*
Y61966D01*
Y61833D01*
X48300D01*
X48434Y61700D01*
Y62366D02*
X48300Y62499D01*
Y62766D01*
X48434Y62899D01*
X48967D01*
X49100Y62766D01*
Y62499D01*
X48967Y62366D01*
X48434D01*
X48300Y63166D02*
Y63699D01*
X48434D01*
X48967Y63166D01*
X49100D01*
X49300Y83200D02*
X48500D01*
Y83600D01*
X48634Y83733D01*
X48900D01*
X49033Y83600D01*
Y83200D01*
Y83467D02*
X49300Y83733D01*
Y84000D02*
Y84266D01*
Y84133D01*
X48500D01*
X48634Y84000D01*
Y84666D02*
X48500Y84799D01*
Y85066D01*
X48634Y85199D01*
X49167D01*
X49300Y85066D01*
Y84799D01*
X49167Y84666D01*
X48634D01*
Y85466D02*
X48500Y85599D01*
Y85866D01*
X48634Y85999D01*
X48767D01*
X48900Y85866D01*
X49033Y85999D01*
X49167D01*
X49300Y85866D01*
Y85599D01*
X49167Y85466D01*
X49033D01*
X48900Y85599D01*
X48767Y85466D01*
X48634D01*
X48900Y85599D02*
Y85866D01*
X49300Y68500D02*
X48500D01*
Y68900D01*
X48634Y69033D01*
X48900D01*
X49033Y68900D01*
Y68500D01*
Y68767D02*
X49300Y69033D01*
Y69300D02*
Y69566D01*
Y69433D01*
X48500D01*
X48634Y69300D01*
Y69966D02*
X48500Y70099D01*
Y70366D01*
X48634Y70499D01*
X49167D01*
X49300Y70366D01*
Y70099D01*
X49167Y69966D01*
X48634D01*
X49167Y70766D02*
X49300Y70899D01*
Y71166D01*
X49167Y71299D01*
X48634D01*
X48500Y71166D01*
Y70899D01*
X48634Y70766D01*
X48767D01*
X48900Y70899D01*
Y71299D01*
X49200Y76000D02*
X48400D01*
Y76400D01*
X48534Y76533D01*
X48800D01*
X48933Y76400D01*
Y76000D01*
Y76267D02*
X49200Y76533D01*
Y76800D02*
Y77066D01*
Y76933D01*
X48400D01*
X48534Y76800D01*
X49200Y77466D02*
Y77733D01*
Y77599D01*
X48400D01*
X48534Y77466D01*
Y78133D02*
X48400Y78266D01*
Y78533D01*
X48534Y78666D01*
X49067D01*
X49200Y78533D01*
Y78266D01*
X49067Y78133D01*
X48534D01*
X142500Y129500D02*
Y128967D01*
X142767Y128700D01*
X143033Y128967D01*
Y129500D01*
X143300D02*
Y128700D01*
X143700D01*
X143833Y128833D01*
Y129366D01*
X143700Y129500D01*
X143300D01*
X144099Y128700D02*
X144366D01*
X144233D01*
Y129500D01*
X144099Y129366D01*
X133850Y105750D02*
Y105217D01*
X134117Y104950D01*
X134383Y105217D01*
Y105750D01*
X134650D02*
Y104950D01*
X135050D01*
X135183Y105083D01*
Y105616D01*
X135050Y105750D01*
X134650D01*
X135849Y104950D02*
Y105750D01*
X135449Y105350D01*
X135983D01*
X144300Y95800D02*
Y95267D01*
X144567Y95000D01*
X144833Y95267D01*
Y95800D01*
X145100D02*
Y95000D01*
X145500D01*
X145633Y95133D01*
Y95666D01*
X145500Y95800D01*
X145100D01*
X146433D02*
X145899D01*
Y95400D01*
X146166Y95533D01*
X146299D01*
X146433Y95400D01*
Y95133D01*
X146299Y95000D01*
X146033D01*
X145899Y95133D01*
X150500Y75400D02*
Y74867D01*
X150767Y74600D01*
X151033Y74867D01*
Y75400D01*
X151300D02*
Y74600D01*
X151700D01*
X151833Y74733D01*
Y75266D01*
X151700Y75400D01*
X151300D01*
X152633D02*
X152366Y75266D01*
X152099Y75000D01*
Y74733D01*
X152233Y74600D01*
X152499D01*
X152633Y74733D01*
Y74867D01*
X152499Y75000D01*
X152099D01*
X159425Y111775D02*
X159958D01*
X160225Y112042D01*
X159958Y112308D01*
X159425D01*
Y112575D02*
X160225D01*
Y112975D01*
X160092Y113108D01*
X159559D01*
X159425Y112975D01*
Y112575D01*
Y113374D02*
Y113908D01*
X159559D01*
X160092Y113374D01*
X160225D01*
X160950Y119100D02*
X161483D01*
X161750Y119367D01*
X161483Y119633D01*
X160950D01*
Y119900D02*
X161750D01*
Y120300D01*
X161617Y120433D01*
X161084D01*
X160950Y120300D01*
Y119900D01*
X161084Y120699D02*
X160950Y120833D01*
Y121099D01*
X161084Y121233D01*
X161217D01*
X161350Y121099D01*
X161483Y121233D01*
X161617D01*
X161750Y121099D01*
Y120833D01*
X161617Y120699D01*
X161483D01*
X161350Y120833D01*
X161217Y120699D01*
X161084D01*
X161350Y120833D02*
Y121099D01*
X183300Y106500D02*
X183833D01*
X184100Y106767D01*
X183833Y107033D01*
X183300D01*
Y107300D02*
X184100D01*
Y107700D01*
X183967Y107833D01*
X183434D01*
X183300Y107700D01*
Y107300D01*
X183967Y108099D02*
X184100Y108233D01*
Y108499D01*
X183967Y108633D01*
X183434D01*
X183300Y108499D01*
Y108233D01*
X183434Y108099D01*
X183567D01*
X183700Y108233D01*
Y108633D01*
X180300Y106500D02*
X180833D01*
X181100Y106767D01*
X180833Y107033D01*
X180300D01*
Y107300D02*
X181100D01*
Y107700D01*
X180967Y107833D01*
X180434D01*
X180300Y107700D01*
Y107300D01*
X181100Y108099D02*
Y108366D01*
Y108233D01*
X180300D01*
X180434Y108099D01*
Y108766D02*
X180300Y108899D01*
Y109166D01*
X180434Y109299D01*
X180967D01*
X181100Y109166D01*
Y108899D01*
X180967Y108766D01*
X180434D01*
X180000Y91597D02*
Y91064D01*
X180267Y90798D01*
X180533Y91064D01*
Y91597D01*
X180800D02*
Y90798D01*
X181200D01*
X181333Y90931D01*
Y91464D01*
X181200Y91597D01*
X180800D01*
X181599Y90798D02*
X181866D01*
X181733D01*
Y91597D01*
X181599Y91464D01*
X182266Y90798D02*
X182533D01*
X182399D01*
Y91597D01*
X182266Y91464D01*
X184500Y88800D02*
X185033D01*
X185300Y89067D01*
X185033Y89333D01*
X184500D01*
Y89600D02*
X185300D01*
Y90000D01*
X185167Y90133D01*
X184634D01*
X184500Y90000D01*
Y89600D01*
X185300Y90399D02*
Y90666D01*
Y90533D01*
X184500D01*
X184634Y90399D01*
X185300Y91599D02*
Y91066D01*
X184767Y91599D01*
X184634D01*
X184500Y91466D01*
Y91199D01*
X184634Y91066D01*
X173585Y119266D02*
X173962Y118888D01*
X174339D01*
Y119266D01*
X173962Y119643D01*
X174150Y119831D02*
X174715Y119266D01*
X174998Y119548D01*
X174998Y119737D01*
X174621Y120114D01*
X174433D01*
X174150Y119831D01*
X175281D02*
X175470Y120020D01*
X175375Y119925D01*
X174810Y120491D01*
X174810Y120302D01*
X175281Y120774D02*
X175281Y120962D01*
X175470Y121151D01*
X175658D01*
X175752Y121056D01*
Y120868D01*
X175658Y120774D01*
X175752Y120868D01*
X175941D01*
X176035Y120774D01*
Y120585D01*
X175847Y120397D01*
X175658D01*
X51054Y62319D02*
Y61785D01*
X51321Y61519D01*
X51587Y61785D01*
Y62319D01*
X51854D02*
Y61519D01*
X52254D01*
X52387Y61652D01*
Y62185D01*
X52254Y62319D01*
X51854D01*
X52653Y61519D02*
X52920D01*
X52787D01*
Y62319D01*
X52653Y62185D01*
X53853Y62319D02*
X53320D01*
Y61919D01*
X53587Y62052D01*
X53720D01*
X53853Y61919D01*
Y61652D01*
X53720Y61519D01*
X53453D01*
X53320Y61652D01*
X51054Y69913D02*
Y69380D01*
X51321Y69113D01*
X51587Y69380D01*
Y69913D01*
X51854D02*
Y69113D01*
X52254D01*
X52387Y69247D01*
Y69780D01*
X52254Y69913D01*
X51854D01*
X52653Y69113D02*
X52920D01*
X52787D01*
Y69913D01*
X52653Y69780D01*
X53320Y69913D02*
X53853D01*
Y69780D01*
X53320Y69247D01*
Y69113D01*
X51156Y84721D02*
Y84188D01*
X51422Y83922D01*
X51689Y84188D01*
Y84721D01*
X51955D02*
Y83922D01*
X52355D01*
X52488Y84055D01*
Y84588D01*
X52355Y84721D01*
X51955D01*
X52755Y83922D02*
X53022D01*
X52888D01*
Y84721D01*
X52755Y84588D01*
X53821Y83922D02*
Y84721D01*
X53422Y84321D01*
X53955D01*
X51100Y77000D02*
Y76467D01*
X51367Y76200D01*
X51633Y76467D01*
Y77000D01*
X51900D02*
Y76200D01*
X52300D01*
X52433Y76333D01*
Y76866D01*
X52300Y77000D01*
X51900D01*
X52699Y76200D02*
X52966D01*
X52833D01*
Y77000D01*
X52699Y76866D01*
X53899Y77000D02*
X53633Y76866D01*
X53366Y76600D01*
Y76333D01*
X53499Y76200D01*
X53766D01*
X53899Y76333D01*
Y76467D01*
X53766Y76600D01*
X53366D01*
X151900Y100600D02*
X152700D01*
Y101000D01*
X152567Y101133D01*
X152034D01*
X151900Y101000D01*
Y100600D01*
X152700Y101400D02*
X152167D01*
X151900Y101666D01*
X152167Y101933D01*
X152700D01*
X152300D01*
Y101400D01*
X152034Y102199D02*
X151900Y102333D01*
Y102599D01*
X152034Y102733D01*
X152167D01*
X152300Y102599D01*
Y102466D01*
Y102599D01*
X152433Y102733D01*
X152567D01*
X152700Y102599D01*
Y102333D01*
X152567Y102199D01*
X160900Y131600D02*
Y131067D01*
X161167Y130800D01*
X161433Y131067D01*
Y131600D01*
X161700D02*
X162233D01*
X161966D01*
Y130800D01*
X162499D02*
X162766D01*
X162633D01*
Y131600D01*
X162499Y131466D01*
X183000Y88950D02*
X183533D01*
X183800Y89217D01*
X183533Y89483D01*
X183000D01*
Y89750D02*
Y90283D01*
Y90016D01*
X183800D01*
Y91083D02*
Y90549D01*
X183267Y91083D01*
X183134D01*
X183000Y90949D01*
Y90683D01*
X183134Y90549D01*
X183000Y75800D02*
Y75267D01*
X183267Y75000D01*
X183533Y75267D01*
Y75800D01*
X183800D02*
X184333D01*
X184066D01*
Y75000D01*
X184599Y75666D02*
X184733Y75800D01*
X184999D01*
X185133Y75666D01*
Y75533D01*
X184999Y75400D01*
X184866D01*
X184999D01*
X185133Y75267D01*
Y75133D01*
X184999Y75000D01*
X184733D01*
X184599Y75133D01*
X190000Y106300D02*
Y105767D01*
X190267Y105500D01*
X190533Y105767D01*
Y106300D01*
X190800D02*
X191333D01*
X191066D01*
Y105500D01*
X191999D02*
Y106300D01*
X191599Y105900D01*
X192133D01*
X181900Y110100D02*
Y109567D01*
X182167Y109300D01*
X182433Y109567D01*
Y110100D01*
X182700D02*
X183233D01*
X182966D01*
Y109300D01*
X184033Y110100D02*
X183499D01*
Y109700D01*
X183766Y109833D01*
X183899D01*
X184033Y109700D01*
Y109433D01*
X183899Y109300D01*
X183633D01*
X183499Y109433D01*
X42189Y79006D02*
X42723Y78207D01*
Y79006D02*
X42189Y78207D01*
X43522Y78873D02*
X43389Y79006D01*
X43122D01*
X42989Y78873D01*
Y78740D01*
X43122Y78606D01*
X43389D01*
X43522Y78473D01*
Y78340D01*
X43389Y78207D01*
X43122D01*
X42989Y78340D01*
X43789Y79006D02*
X44322D01*
Y78873D01*
X43789Y78340D01*
Y78207D01*
X42189Y71513D02*
X42723Y70714D01*
Y71513D02*
X42189Y70714D01*
X43522Y71380D02*
X43389Y71513D01*
X43122D01*
X42989Y71380D01*
Y71247D01*
X43122Y71113D01*
X43389D01*
X43522Y70980D01*
Y70847D01*
X43389Y70714D01*
X43122D01*
X42989Y70847D01*
X43789Y71380D02*
X43922Y71513D01*
X44189D01*
X44322Y71380D01*
Y71247D01*
X44189Y71113D01*
X44322Y70980D01*
Y70847D01*
X44189Y70714D01*
X43922D01*
X43789Y70847D01*
Y70980D01*
X43922Y71113D01*
X43789Y71247D01*
Y71380D01*
X43922Y71113D02*
X44189D01*
X42189Y64020D02*
X42723Y63221D01*
Y64020D02*
X42189Y63221D01*
X43522Y63887D02*
X43389Y64020D01*
X43122D01*
X42989Y63887D01*
Y63754D01*
X43122Y63620D01*
X43389D01*
X43522Y63487D01*
Y63354D01*
X43389Y63221D01*
X43122D01*
X42989Y63354D01*
X43789D02*
X43922Y63221D01*
X44189D01*
X44322Y63354D01*
Y63887D01*
X44189Y64020D01*
X43922D01*
X43789Y63887D01*
Y63754D01*
X43922Y63620D01*
X44322D01*
X196400Y106800D02*
X196933Y106000D01*
Y106800D02*
X196400Y106000D01*
X197733Y106666D02*
X197600Y106800D01*
X197333D01*
X197200Y106666D01*
Y106533D01*
X197333Y106400D01*
X197600D01*
X197733Y106267D01*
Y106133D01*
X197600Y106000D01*
X197333D01*
X197200Y106133D01*
X198533Y106800D02*
X197999D01*
Y106400D01*
X198266Y106533D01*
X198399D01*
X198533Y106400D01*
Y106133D01*
X198399Y106000D01*
X198133D01*
X197999Y106133D01*
X42300Y86500D02*
X42833Y85700D01*
Y86500D02*
X42300Y85700D01*
X43633Y86366D02*
X43500Y86500D01*
X43233D01*
X43100Y86366D01*
Y86233D01*
X43233Y86100D01*
X43500D01*
X43633Y85967D01*
Y85833D01*
X43500Y85700D01*
X43233D01*
X43100Y85833D01*
X44433Y86500D02*
X44166Y86366D01*
X43899Y86100D01*
Y85833D01*
X44033Y85700D01*
X44299D01*
X44433Y85833D01*
Y85967D01*
X44299Y86100D01*
X43899D01*
X128900Y68500D02*
X129433Y67700D01*
Y68500D02*
X128900Y67700D01*
X130233Y68366D02*
X130100Y68500D01*
X129833D01*
X129700Y68366D01*
Y68233D01*
X129833Y68100D01*
X130100D01*
X130233Y67967D01*
Y67833D01*
X130100Y67700D01*
X129833D01*
X129700Y67833D01*
X130499Y67700D02*
X130766D01*
X130633D01*
Y68500D01*
X130499Y68366D01*
X145666Y123132D02*
X145532Y123266D01*
X145266D01*
X145132Y123132D01*
Y122599D01*
X145266Y122466D01*
X145532D01*
X145666Y122599D01*
X146465Y122466D02*
X145932D01*
X146465Y122999D01*
Y123132D01*
X146332Y123266D01*
X146065D01*
X145932Y123132D01*
X146732D02*
X146865Y123266D01*
X147132D01*
X147265Y123132D01*
Y122999D01*
X147132Y122866D01*
X147265Y122733D01*
Y122599D01*
X147132Y122466D01*
X146865D01*
X146732Y122599D01*
Y122733D01*
X146865Y122866D01*
X146732Y122999D01*
Y123132D01*
X146865Y122866D02*
X147132D01*
X124133Y99966D02*
X124000Y100100D01*
X123733D01*
X123600Y99966D01*
Y99433D01*
X123733Y99300D01*
X124000D01*
X124133Y99433D01*
X124800Y99300D02*
Y100100D01*
X124400Y99700D01*
X124933D01*
X125599Y99300D02*
Y100100D01*
X125199Y99700D01*
X125733D01*
X123933Y106766D02*
X123800Y106900D01*
X123533D01*
X123400Y106766D01*
Y106233D01*
X123533Y106100D01*
X123800D01*
X123933Y106233D01*
X124600Y106100D02*
Y106900D01*
X124200Y106500D01*
X124733D01*
X125533Y106900D02*
X125266Y106766D01*
X124999Y106500D01*
Y106233D01*
X125133Y106100D01*
X125399D01*
X125533Y106233D01*
Y106367D01*
X125399Y106500D01*
X124999D01*
X143600Y110900D02*
Y111700D01*
X144000D01*
X144133Y111566D01*
Y111300D01*
X144000Y111167D01*
X143600D01*
X143867D02*
X144133Y110900D01*
X144933Y111700D02*
X144666Y111566D01*
X144400Y111300D01*
Y111033D01*
X144533Y110900D01*
X144800D01*
X144933Y111033D01*
Y111167D01*
X144800Y111300D01*
X144400D01*
X156900Y121000D02*
X157433D01*
X157700Y121267D01*
X157433Y121533D01*
X156900D01*
Y121800D02*
X157700D01*
Y122200D01*
X157567Y122333D01*
X157034D01*
X156900Y122200D01*
Y121800D01*
X157700Y123133D02*
Y122599D01*
X157167Y123133D01*
X157034D01*
X156900Y122999D01*
Y122733D01*
X157034Y122599D01*
X146434Y119133D02*
X146300Y119000D01*
Y118733D01*
X146434Y118600D01*
X146967D01*
X147100Y118733D01*
Y119000D01*
X146967Y119133D01*
X146434Y119400D02*
X146300Y119533D01*
Y119800D01*
X146434Y119933D01*
X146567D01*
X146700Y119800D01*
Y119666D01*
Y119800D01*
X146833Y119933D01*
X146967D01*
X147100Y119800D01*
Y119533D01*
X146967Y119400D01*
X146300Y120733D02*
Y120199D01*
X146700D01*
X146567Y120466D01*
Y120599D01*
X146700Y120733D01*
X146967D01*
X147100Y120599D01*
Y120333D01*
X146967Y120199D01*
X145933Y112366D02*
X145800Y112500D01*
X145533D01*
X145400Y112366D01*
Y111833D01*
X145533Y111700D01*
X145800D01*
X145933Y111833D01*
X146200Y112366D02*
X146333Y112500D01*
X146600D01*
X146733Y112366D01*
Y112233D01*
X146600Y112100D01*
X146466D01*
X146600D01*
X146733Y111967D01*
Y111833D01*
X146600Y111700D01*
X146333D01*
X146200Y111833D01*
X146999D02*
X147133Y111700D01*
X147399D01*
X147533Y111833D01*
Y112366D01*
X147399Y112500D01*
X147133D01*
X146999Y112366D01*
Y112233D01*
X147133Y112100D01*
X147533D01*
X163500Y104000D02*
Y103200D01*
X164033D01*
X164300Y103866D02*
X164433Y104000D01*
X164700D01*
X164833Y103866D01*
Y103733D01*
X164700Y103600D01*
X164566D01*
X164700D01*
X164833Y103467D01*
Y103333D01*
X164700Y103200D01*
X164433D01*
X164300Y103333D01*
X154900Y83500D02*
Y82700D01*
X155433D01*
X156233Y83500D02*
X155966Y83366D01*
X155700Y83100D01*
Y82833D01*
X155833Y82700D01*
X156100D01*
X156233Y82833D01*
Y82967D01*
X156100Y83100D01*
X155700D01*
X151700Y97900D02*
Y98700D01*
X152100D01*
X152233Y98566D01*
Y98300D01*
X152100Y98167D01*
X151700D01*
X151967D02*
X152233Y97900D01*
X153033Y98700D02*
X152500D01*
Y98300D01*
X152766Y98433D01*
X152900D01*
X153033Y98300D01*
Y98033D01*
X152900Y97900D01*
X152633D01*
X152500Y98033D01*
X158700Y93700D02*
X157900D01*
Y94100D01*
X158034Y94233D01*
X158300D01*
X158433Y94100D01*
Y93700D01*
Y93967D02*
X158700Y94233D01*
X157900Y94500D02*
Y95033D01*
X158034D01*
X158567Y94500D01*
X158700D01*
X157400Y92200D02*
X156600D01*
Y92600D01*
X156734Y92733D01*
X157000D01*
X157133Y92600D01*
Y92200D01*
Y92467D02*
X157400Y92733D01*
X156734Y93000D02*
X156600Y93133D01*
Y93400D01*
X156734Y93533D01*
X156867D01*
X157000Y93400D01*
X157133Y93533D01*
X157267D01*
X157400Y93400D01*
Y93133D01*
X157267Y93000D01*
X157133D01*
X157000Y93133D01*
X156867Y93000D01*
X156734D01*
X157000Y93133D02*
Y93400D01*
X124500Y60100D02*
Y60900D01*
X124900D01*
X125033Y60766D01*
Y60500D01*
X124900Y60367D01*
X124500D01*
X124767D02*
X125033Y60100D01*
X125300Y60233D02*
X125433Y60100D01*
X125700D01*
X125833Y60233D01*
Y60766D01*
X125700Y60900D01*
X125433D01*
X125300Y60766D01*
Y60633D01*
X125433Y60500D01*
X125833D01*
X157900Y104100D02*
X158433D01*
X158700Y104367D01*
X158433Y104633D01*
X157900D01*
Y104900D02*
X158700D01*
Y105300D01*
X158567Y105433D01*
X158034D01*
X157900Y105300D01*
Y104900D01*
X158034Y105699D02*
X157900Y105833D01*
Y106099D01*
X158034Y106233D01*
X158167D01*
X158300Y106099D01*
Y105966D01*
Y106099D01*
X158433Y106233D01*
X158567D01*
X158700Y106099D01*
Y105833D01*
X158567Y105699D01*
X187300Y127300D02*
Y128100D01*
X187700D01*
X187833Y127966D01*
Y127700D01*
X187700Y127567D01*
X187300D01*
X187567D02*
X187833Y127300D01*
X188633Y128100D02*
X188366Y127966D01*
X188100Y127700D01*
Y127433D01*
X188233Y127300D01*
X188500D01*
X188633Y127433D01*
Y127567D01*
X188500Y127700D01*
X188100D01*
X189433Y127300D02*
X188899D01*
X189433Y127833D01*
Y127966D01*
X189299Y128100D01*
X189033D01*
X188899Y127966D01*
X187300Y128675D02*
Y129475D01*
X187700D01*
X187833Y129341D01*
Y129075D01*
X187700Y128942D01*
X187300D01*
X187567D02*
X187833Y128675D01*
X188633Y129475D02*
X188366Y129341D01*
X188100Y129075D01*
Y128808D01*
X188233Y128675D01*
X188500D01*
X188633Y128808D01*
Y128942D01*
X188500Y129075D01*
X188100D01*
X188899Y129341D02*
X189033Y129475D01*
X189299D01*
X189433Y129341D01*
Y129208D01*
X189299Y129075D01*
X189166D01*
X189299D01*
X189433Y128942D01*
Y128808D01*
X189299Y128675D01*
X189033D01*
X188899Y128808D01*
X74500Y128600D02*
X73700D01*
Y129000D01*
X73834Y129133D01*
X74100D01*
X74233Y129000D01*
Y128600D01*
Y128867D02*
X74500Y129133D01*
X73700Y129933D02*
X73834Y129666D01*
X74100Y129400D01*
X74367D01*
X74500Y129533D01*
Y129800D01*
X74367Y129933D01*
X74233D01*
X74100Y129800D01*
Y129400D01*
X74500Y130599D02*
X73700D01*
X74100Y130199D01*
Y130733D01*
X194225Y63675D02*
X194758Y62875D01*
Y63675D02*
X194225Y62875D01*
X195025D02*
Y63675D01*
X195425D01*
X195558Y63541D01*
Y63275D01*
X195425Y63142D01*
X195025D01*
X195824Y63008D02*
X195958Y62875D01*
X196224D01*
X196358Y63008D01*
Y63541D01*
X196224Y63675D01*
X195958D01*
X195824Y63541D01*
Y63408D01*
X195958Y63275D01*
X196358D01*
X160900Y73100D02*
X161700D01*
Y72700D01*
X161566Y72567D01*
X161300D01*
X161167Y72700D01*
Y73100D01*
Y72833D02*
X160900Y72567D01*
Y71900D02*
X161700D01*
X161300Y72300D01*
Y71767D01*
X161566Y71501D02*
X161700Y71367D01*
Y71101D01*
X161566Y70967D01*
X161433D01*
X161300Y71101D01*
X161167Y70967D01*
X161033D01*
X160900Y71101D01*
Y71367D01*
X161033Y71501D01*
X161167D01*
X161300Y71367D01*
X161433Y71501D01*
X161566D01*
X161300Y71367D02*
Y71101D01*
X174400Y100300D02*
X173600D01*
Y100700D01*
X173734Y100833D01*
X174000D01*
X174133Y100700D01*
Y100300D01*
Y100567D02*
X174400Y100833D01*
Y101500D02*
X173600D01*
X174000Y101100D01*
Y101633D01*
X174400Y101899D02*
Y102166D01*
Y102033D01*
X173600D01*
X173734Y101899D01*
X142000Y55700D02*
X142800D01*
Y56233D01*
Y56500D02*
Y56766D01*
Y56633D01*
X142000D01*
X142134Y56500D01*
Y57166D02*
X142000Y57299D01*
Y57566D01*
X142134Y57699D01*
X142267D01*
X142400Y57566D01*
Y57433D01*
Y57566D01*
X142533Y57699D01*
X142667D01*
X142800Y57566D01*
Y57299D01*
X142667Y57166D01*
X143300Y63900D02*
Y63100D01*
X143700D01*
X143833Y63233D01*
Y63766D01*
X143700Y63900D01*
X143300D01*
X144100Y63100D02*
Y63633D01*
X144366Y63900D01*
X144633Y63633D01*
Y63100D01*
Y63500D01*
X144100D01*
X144899Y63100D02*
X145166D01*
X145033D01*
Y63900D01*
X144899Y63766D01*
X146099Y63100D02*
X145566D01*
X146099Y63633D01*
Y63766D01*
X145966Y63900D01*
X145699D01*
X145566Y63766D01*
X171400Y81000D02*
X171667Y80600D01*
Y81000D02*
X171400Y80600D01*
X171800D02*
Y81000D01*
X172000D01*
X172066Y80933D01*
Y80800D01*
X172000Y80733D01*
X171800D01*
X172466Y81000D02*
X172333Y80933D01*
X172200Y80800D01*
Y80667D01*
X172266Y80600D01*
X172400D01*
X172466Y80667D01*
Y80733D01*
X172400Y80800D01*
X172200D01*
X173300Y75500D02*
X173567Y75100D01*
Y75500D02*
X173300Y75100D01*
X173700D02*
Y75500D01*
X173900D01*
X173966Y75433D01*
Y75300D01*
X173900Y75233D01*
X173700D01*
X174100Y75500D02*
X174366D01*
Y75433D01*
X174100Y75167D01*
Y75100D01*
X188400Y57333D02*
Y56800D01*
Y57067D01*
X188533Y57200D01*
X188667Y57333D01*
X188800D01*
X189600Y56800D02*
X189333D01*
X189200Y56933D01*
Y57200D01*
X189333Y57333D01*
X189600D01*
X189733Y57200D01*
Y57067D01*
X189200D01*
X189999Y56533D02*
Y57333D01*
X190399D01*
X190533Y57200D01*
Y56933D01*
X190399Y56800D01*
X189999D01*
X191332D02*
X190799D01*
X191332Y57333D01*
Y57466D01*
X191199Y57600D01*
X190933D01*
X190799Y57466D01*
X35300Y131633D02*
Y131100D01*
Y131367D01*
X35433Y131500D01*
X35567Y131633D01*
X35700D01*
X36500Y131100D02*
X36233D01*
X36100Y131233D01*
Y131500D01*
X36233Y131633D01*
X36500D01*
X36633Y131500D01*
Y131367D01*
X36100D01*
X36899Y130833D02*
Y131633D01*
X37299D01*
X37433Y131500D01*
Y131233D01*
X37299Y131100D01*
X36899D01*
X37699D02*
X37966D01*
X37833D01*
Y131900D01*
X37699Y131766D01*
X50884Y124308D02*
X50750Y124175D01*
Y123908D01*
X50884Y123775D01*
X51017D01*
X51150Y123908D01*
Y124175D01*
X51283Y124308D01*
X51417D01*
X51550Y124175D01*
Y123908D01*
X51417Y123775D01*
X50750Y124575D02*
X51550D01*
Y124975D01*
X51417Y125108D01*
X50884D01*
X50750Y124975D01*
Y124575D01*
X51017Y126707D02*
Y126308D01*
X51150Y126174D01*
X51417D01*
X51550Y126308D01*
Y126707D01*
X51017Y127107D02*
Y127374D01*
X51150Y127507D01*
X51550D01*
Y127107D01*
X51417Y126974D01*
X51283Y127107D01*
Y127507D01*
X51017Y127774D02*
X51550D01*
X51283D01*
X51150Y127907D01*
X51017Y128040D01*
Y128174D01*
X50750Y129107D02*
X51550D01*
Y128707D01*
X51417Y128573D01*
X51150D01*
X51017Y128707D01*
Y129107D01*
X200400Y133400D02*
G03*
X198400Y135400I-2000J0D01*
G01*
X27400Y135400D02*
G03*
X25400Y133400I0J-2000D01*
G01*
Y56400D02*
G03*
X27400Y54400I2000J0D01*
G01*
X198400D02*
G03*
X200400Y56400I0J2000D01*
G01*
X200400D02*
Y133400D01*
X27400Y135400D02*
X198400D01*
X25400Y133400D02*
X25400Y56400D01*
X27400Y54400D02*
X198400Y54400D01*
D130*
X166200Y98400D02*
G03*
X166200Y98400I-3900J0D01*
G01*
X155900Y116200D02*
G03*
X155900Y116200I-3900J0D01*
G01*
X138500Y95300D02*
G03*
X138500Y95300I-5000J0D01*
G01*
X138700Y129800D02*
G03*
X138700Y129800I-3900J0D01*
G01*
X152600Y81000D02*
G03*
X152600Y81000I-3900J0D01*
G01*
X162700Y117725D02*
Y118875D01*
X159500Y117725D02*
X162700D01*
X159500D02*
Y118875D01*
X162700D01*
Y114125D02*
Y115275D01*
X159500Y114125D02*
X162700D01*
X159500D02*
Y115275D01*
X162700D01*
X198700Y107300D02*
Y111200D01*
X194200D02*
X198700D01*
X194200Y107300D02*
Y111200D01*
Y107300D02*
X198700D01*
X157300Y82300D02*
X157700D01*
X157300Y81300D02*
X157700D01*
X157500Y83600D02*
X157700D01*
X157500Y82800D02*
X157700D01*
X157200Y84300D02*
X157600D01*
X157200Y85300D02*
X157600D01*
X157000Y107600D02*
Y108000D01*
X158000Y107600D02*
Y108000D01*
X154100Y108000D02*
X154500D01*
X154100Y107000D02*
X154500D01*
X149800Y87600D02*
X150200D01*
X149800Y86600D02*
X150200D01*
X139600Y87700D02*
Y88100D01*
X138600Y87700D02*
Y88100D01*
X149700Y91100D02*
X150100D01*
X149700Y90100D02*
X150100D01*
X149500Y91600D02*
X149700D01*
X149500Y92400D02*
X149700D01*
X117900Y63200D02*
Y63600D01*
X118900Y63200D02*
Y63600D01*
X142300Y108600D02*
X142700D01*
X142300Y107600D02*
X142700D01*
X186100Y62300D02*
Y62700D01*
X185100Y62300D02*
Y62700D01*
X147000Y107200D02*
X147200D01*
X147000Y106400D02*
X147200D01*
X147300Y108600D02*
X147700D01*
X147300Y107600D02*
X147700D01*
X138900Y122000D02*
Y122400D01*
X137900Y122000D02*
Y122400D01*
X52225Y72700D02*
Y75900D01*
Y72700D02*
X53375D01*
Y75900D01*
X52225D02*
X53375D01*
X119500Y66200D02*
Y66600D01*
X120500Y66200D02*
Y66600D01*
X135400Y118100D02*
X135800D01*
X135400Y117100D02*
X135800Y117100D01*
X132100Y118100D02*
X132500D01*
X132100Y117100D02*
X132500Y117100D01*
X144300Y131900D02*
X144700Y131900D01*
X144300Y132900D02*
X144700Y132900D01*
X52225Y57600D02*
Y60800D01*
Y57600D02*
X53375D01*
Y60800D01*
X52225D02*
X53375D01*
X52225Y65200D02*
Y68400D01*
Y65200D02*
X53375D01*
Y68400D01*
X52225D02*
X53375D01*
X52325Y80000D02*
Y83200D01*
Y80000D02*
X53475D01*
Y83200D01*
X52325D02*
X53475D01*
X42200Y73000D02*
X46100D01*
Y77500D01*
X42200D02*
X46100D01*
X42200Y73000D02*
Y77500D01*
Y65500D02*
X46100D01*
Y70000D01*
X42200D02*
X46100D01*
X42200Y65500D02*
Y70000D01*
Y58000D02*
Y62500D01*
X46100D01*
Y58000D02*
Y62500D01*
X42200Y58000D02*
X46100D01*
X56600Y107300D02*
X59500D01*
X59800Y107600D01*
Y111300D01*
X56600Y107300D02*
Y111300D01*
X59800D01*
X62600Y100200D02*
X62800D01*
X62600Y99400D02*
X62800D01*
X145300Y120100D02*
Y120500D01*
X146300Y120100D02*
Y120500D01*
X66100Y72100D02*
X66300D01*
X66100Y71300D02*
X66300D01*
X65200Y63800D02*
X68100D01*
X64900Y63500D02*
X65200Y63800D01*
X64900Y59800D02*
Y63500D01*
X68100Y59800D02*
Y63800D01*
X64900Y59800D02*
X68100D01*
X42300Y80500D02*
X46200D01*
Y85000D01*
X42300D02*
X46200D01*
X42300Y80500D02*
Y85000D01*
X71800Y71900D02*
X72000D01*
X71800Y71100D02*
X72000D01*
X68800Y71200D02*
X69200D01*
X68800Y72200D02*
X69200D01*
X39700Y84400D02*
Y84800D01*
X38700Y84400D02*
Y84800D01*
X37800Y70400D02*
Y70800D01*
X38800Y70400D02*
Y70800D01*
X141000Y80800D02*
Y81200D01*
X140000Y80800D02*
Y81200D01*
X173225Y119138D02*
X174038Y118325D01*
X171775Y116062D02*
X174038Y118325D01*
X170962Y116875D02*
X171775Y116062D01*
X170962Y116875D02*
X173225Y119138D01*
X171300Y112200D02*
X171500D01*
X171300Y113000D02*
X171500D01*
X190325Y106700D02*
X191475D01*
X190325D02*
Y109900D01*
X191475D01*
Y106700D02*
Y109900D01*
X187500Y109325D02*
Y110475D01*
X184300Y109325D02*
X187500D01*
X184300D02*
Y110475D01*
X187500D01*
X140800Y56000D02*
Y56200D01*
X141600Y56000D02*
Y56200D01*
M02*
