G04 Layer_Color=16711935*
%FSLAX43Y43*%
%MOMM*%
G71*
G01*
G75*
%ADD121C,0.100*%
%ADD221C,2.003*%
G04:AMPARAMS|DCode=222|XSize=2.003mm|YSize=2.003mm|CornerRadius=0.552mm|HoleSize=0mm|Usage=FLASHONLY|Rotation=270.000|XOffset=0mm|YOffset=0mm|HoleType=Round|Shape=RoundedRectangle|*
%AMROUNDEDRECTD222*
21,1,2.003,0.900,0,0,270.0*
21,1,0.900,2.003,0,0,270.0*
1,1,1.103,-0.450,-0.450*
1,1,1.103,-0.450,0.450*
1,1,1.103,0.450,0.450*
1,1,1.103,0.450,-0.450*
%
%ADD222ROUNDEDRECTD222*%
G04:AMPARAMS|DCode=223|XSize=2.003mm|YSize=2.003mm|CornerRadius=0.552mm|HoleSize=0mm|Usage=FLASHONLY|Rotation=180.000|XOffset=0mm|YOffset=0mm|HoleType=Round|Shape=RoundedRectangle|*
%AMROUNDEDRECTD223*
21,1,2.003,0.900,0,0,180.0*
21,1,0.900,2.003,0,0,180.0*
1,1,1.103,-0.450,0.450*
1,1,1.103,0.450,0.450*
1,1,1.103,0.450,-0.450*
1,1,1.103,-0.450,-0.450*
%
%ADD223ROUNDEDRECTD223*%
G04:AMPARAMS|DCode=224|XSize=2.203mm|YSize=2.203mm|CornerRadius=0.602mm|HoleSize=0mm|Usage=FLASHONLY|Rotation=180.000|XOffset=0mm|YOffset=0mm|HoleType=Round|Shape=RoundedRectangle|*
%AMROUNDEDRECTD224*
21,1,2.203,1.000,0,0,180.0*
21,1,1.000,2.203,0,0,180.0*
1,1,1.203,-0.500,0.500*
1,1,1.203,0.500,0.500*
1,1,1.203,0.500,-0.500*
1,1,1.203,-0.500,-0.500*
%
%ADD224ROUNDEDRECTD224*%
%ADD225C,2.203*%
%ADD226C,6.203*%
D121*
X111187Y120243D02*
X111752Y119677D01*
X111469Y119394D01*
X111281D01*
X111092Y119583D01*
X111092Y119771D01*
X111375Y120054D01*
X112223Y120148D02*
X112035Y119960D01*
X111846D01*
X111658Y120148D01*
X111658Y120337D01*
X111846Y120525D01*
X112035D01*
X112129Y120431D01*
X111752Y120054D01*
X112506Y120431D02*
X112789Y120714D01*
X112789Y120902D01*
X112600D01*
X112412Y120714D01*
X112223D01*
X112223Y120902D01*
X112506Y121185D01*
X113072Y120997D02*
X113260Y121185D01*
X113166Y121091D01*
X112789Y121468D01*
X112695Y121374D01*
X113920Y121468D02*
X114014Y121562D01*
Y121751D01*
X113543Y122222D01*
X113260Y121939D01*
Y121751D01*
X113449Y121562D01*
X113637D01*
X113920Y121845D01*
X114108Y122033D02*
X113731Y122410D01*
X114014Y122693D01*
X114203D01*
X114485Y122410D01*
X114957Y122882D02*
X114768Y122693D01*
X114580D01*
X114391Y122882D01*
Y123070D01*
X114580Y123259D01*
X114768D01*
X114862Y123164D01*
X114485Y122787D01*
X115051Y124107D02*
X115616Y123541D01*
X115334Y123259D01*
X115145D01*
X114957Y123447D01*
Y123636D01*
X115239Y123918D01*
X115805Y124861D02*
X116370Y124295D01*
X116653Y124578D01*
X116653Y124767D01*
X116559Y124861D01*
X116465Y124955D01*
X116276D01*
X115993Y124672D01*
X116559Y125238D02*
X116842Y124955D01*
X117030D01*
X117313Y125238D01*
X117407Y125144D01*
Y124955D01*
X117313Y124861D01*
Y125238D02*
X116936Y125615D01*
X118067Y125992D02*
X117501Y126557D01*
X117784Y126840D01*
X117973D01*
X118161Y126652D01*
X118161Y126463D01*
X117878Y126180D01*
X118067Y126369D02*
X118444D01*
X118632Y126557D02*
X118255Y126934D01*
Y127311D01*
X118632D01*
X119009Y126934D01*
X118727Y127217D01*
X118350Y126840D01*
X118727Y127594D02*
X118727Y127783D01*
X118915Y127971D01*
X119104D01*
X119198Y127877D01*
Y127688D01*
X119104Y127594D01*
X119198Y127688D01*
X119386Y127688D01*
X119481Y127594D01*
X119481Y127406D01*
X119292Y127217D01*
X119104D01*
X119198Y128254D02*
X119575Y128631D01*
X119386Y128442D01*
X119952Y127877D01*
X119763Y128819D02*
X120140Y128442D01*
X120517D01*
Y128819D01*
X120140Y129196D01*
X120329Y129385D02*
X120894Y128819D01*
X121177Y129102D01*
X121177Y129291D01*
X120800Y129668D01*
X120612D01*
X120329Y129385D01*
X200400Y133400D02*
G03*
X198400Y135400I-2000J0D01*
G01*
X27400Y135400D02*
G03*
X25400Y133400I0J-2000D01*
G01*
Y56400D02*
G03*
X27400Y54400I2000J0D01*
G01*
X198400D02*
G03*
X200400Y56400I0J2000D01*
G01*
X200400D02*
Y133400D01*
X27400Y135400D02*
X198400D01*
X25400Y133400D02*
X25400Y56400D01*
X27400Y54400D02*
X198400Y54400D01*
D221*
X173040Y67200D02*
D03*
X170500D02*
D03*
X175580D02*
D03*
X178120D02*
D03*
X180660D02*
D03*
X155300Y122500D02*
D03*
X161800Y67200D02*
D03*
X164340D02*
D03*
X187600Y68240D02*
D03*
Y65700D02*
D03*
Y70780D02*
D03*
Y73320D02*
D03*
Y86020D02*
D03*
Y88560D02*
D03*
Y83480D02*
D03*
Y80940D02*
D03*
Y75860D02*
D03*
Y78400D02*
D03*
Y93640D02*
D03*
Y91100D02*
D03*
Y96180D02*
D03*
Y98720D02*
D03*
Y101260D02*
D03*
X164300Y116460D02*
D03*
Y111060D02*
D03*
Y105660D02*
D03*
D222*
X183200Y67200D02*
D03*
X152760Y122500D02*
D03*
X166880Y67200D02*
D03*
D223*
X187600Y103800D02*
D03*
X164300Y119000D02*
D03*
Y113600D02*
D03*
Y108200D02*
D03*
D224*
X177700Y128300D02*
D03*
D225*
X172700D02*
D03*
X102600Y123800D02*
D03*
X122600D02*
D03*
D226*
X29400Y58400D02*
D03*
X196400Y131400D02*
D03*
X29400D02*
D03*
X196400Y58400D02*
D03*
X116100Y91500D02*
D03*
M02*
