M48
;Layer_Color=9474304
;FILE_FORMAT=4:3
METRIC,LZ
;TYPE=PLATED
T1F00S00C0.300
T2F00S00C0.600
T3F00S00C1.000
T4F00S00C1.200
T5F00S00C3.200
%
T01
X0164275Y006365
X016665Y0062025
X0175575Y0061525
X01756Y00708
X01748Y00739
X01757Y00754
X0179Y00748
X01844Y0072525
X01847Y00712
X0183675Y005835
X01709Y00724
Y00734
X01696Y0074
X01667Y00743
X0166Y00755
X01621
X01596
X01667Y00792
X0169175Y0077875
X0154325Y0078
X01523Y0075825
X0153125Y0073425
X01556Y00736
X0156825Y007175
X01587Y00723
X0158575Y0069975
X015117Y006757
X0151925Y006675
X014955Y0067675
X014905Y0065125
X01454Y0065
X0145047Y00689
X01481Y00693
X01406Y00711
X0139275Y00668
X01385Y00675
X01393Y006525
X0133475Y00668
X01316Y00766
X01306Y00785
X0129375Y007765
X01258Y00785
X0122675Y0079125
X0121525Y0066825
X01198Y0064275
X01232Y00634
X01241Y00643
X01368Y00756
X01375Y00763
X01382Y0077
X01389Y00777
X01397Y0077
X01512Y00607
X01166Y00615
X01149Y00615
X0115Y0063425
X01172Y00665
X011515Y0072425
X0116625Y0075325
X01178Y0077825
X01114Y00774
X01108Y00763
Y0075
X01117Y00757
X0110325Y0078725
X010865Y007785
X01074Y00744
Y00735
Y00726
Y00717
Y00708
Y00699
X01057Y00693
Y00684
Y00675
Y00666
Y00657
Y00648
X0102277Y0064939
X010248Y0065853
X01019Y00641
X01017Y00632
X01015Y00623
X01016Y00614
X0101675Y0058725
X0102725Y005855
X01042Y00581
X01054
X010695Y0058425
X01078Y00575
X01091Y00569
X01094Y00578
X01103Y005865
X01101Y00555
X00994Y005495
Y0059
X00984
X00974Y00592
X00964Y00593
X00954
X00945Y0059275
X00959Y005855
X00925Y005785
X0092725Y006165
X00927Y00626
Y00636
Y00646
X00929Y00656
Y00669
Y00681
Y00693
Y00705
Y00717
Y00729
X00939Y00723
Y00711
Y00699
Y00687
Y00675
X009395Y006625
X00972Y00656
X00917Y00616
X0086875Y00596
X008865Y00575
X00802Y00594
X008Y00674
X00832Y00753
X00832Y00763
X00834Y00777
X00829Y00785
X00801Y00787
X00865Y007435
X00939Y007365
X00961Y00753
X00974Y00759
X00968Y00768
X01005Y0058225
X00793Y00611
X0077025Y005975
X00762Y00572
X00747Y00582
X00709Y00566
X00708Y00601
X00687Y00631
X00693Y00639
X007Y00646
X00696Y00655
Y00704
X00715Y00692
X00752Y00695
X007815Y00691
X007797Y007133
X00738Y00781
X00707Y00787
X00678Y00789
X00687Y00761
X00693Y00753
X00701Y00746
X00648Y00726
X00637Y00734
X00596Y00743
X0061Y00774
X00613Y00783
X00547Y00774
X00531Y00774
X00678Y00688
X00642Y00635
X00624Y00553
X003735Y00719
X00361Y00894
X00393Y009775
X0035Y010005
X003815Y01053
X0035075Y0109525
X00355Y01124
X003Y01106
X00278Y01098
X00404Y01106
X00415Y01113
X004415Y010985
X00457Y011135
X004725Y010985
X00488Y01123
X00529Y0113
X00539Y01133
X0054Y01114
X00532Y01109
X0053Y01083
Y01073
X0054Y01047
X0055Y0105
X00558Y01055
X005585Y010445
X00572Y01041
X00574Y0105
X0059Y01046
X0059Y01059
X0058302Y0106702
X00599Y0105
X00601Y01035
X006025Y0102525
X0061125Y0102775
X0059208Y0103192
X00587Y01019
X00572Y01012
X0056Y01014
X00548Y01021
Y01004
X00546Y00991
X00553Y00983
X0056Y00976
X00566Y00959
X0057752Y0095752
X00588Y00964
X00606Y00976
X00627Y00985
X00652Y009905
X00668Y00969
X00678Y00967
X007Y00968
X00707Y00959
X00725Y00949
X0074425Y0095875
X00746Y00969
X0074475Y009345
X00747Y00925
X00737
X00757
X00767
X007925Y0093225
X00779Y0087075
X00767Y00869
X00757Y00866
X00747Y00863
X00737Y00861
X00694Y00847
X00681Y00832
X00674Y00838
X0067525Y008155
X00638Y00812
X006325Y008455
X0057475Y00851
X00557Y00833
X00537Y00834
X00524Y00852
X0054025Y0079375
X00558Y00795
X00582Y00805
X00569Y008875
X00554Y00912
X00607Y00922
X00626Y009245
X00613Y00938
X00666Y00934
X00676
X00694Y00935
X00667Y00949
X00687Y010035
X00703Y01003
X00713
X00727
X00737
X0074825
X0072725Y0103125
X00723Y01055
X00712Y01058
X00703
Y01047
X00713Y01049
X00679Y01047
X0068475Y01059
X0069225Y01065
X0067175Y0106475
X006735Y010805
X0069325Y01096
X006905Y0113075
X00705Y01136
X00714Y01138
X00735Y01131
X00742Y01138
X00772Y0114525
Y011685
X007215Y0117175
X006875Y0116675
X00676Y01144
X00667Y01151
X0066875Y0118725
X00632Y011855
X00619Y01172
X006255Y01162
X0059125Y0117025
X0057Y01164
X00566Y01155
X00575Y01152
X00584Y01148
X00587Y01136
X00577
X00567
X0056Y0113
X00553Y01142
X00554Y01175
X00562Y0117
X0054Y01169
X0053
X00522Y01163
X00499Y01185
X00513Y01099
X00507Y01091
X00505Y01022
X00514Y01019
X00531Y01023
X0053Y01
X00518Y00997
X00531Y00984
X00481Y0095625
X00433Y00957
X00398Y00948
X00471Y008985
X00457Y01069
X00409Y01068
X00601Y01084
X006105Y010815
X006255Y0108175
X00626Y011
X00604Y0111175
X00597Y01136
X0067Y010315
X0077475Y0103125
X00763Y010525
X0076625Y01096
X0078Y01116
X0076Y00796
X00707Y00797
X00717Y00823
X00829Y00794
X00866Y00807
X00897
X00915Y00859
X0095Y00856
X00992Y00864
X01007Y00852
X01072Y00851
X010845Y0084625
X01088Y00831
X01084Y0082
X01078Y00804
X01071Y00811
X01094Y00801
X01101Y00808
X01108Y0083
X01106Y0085975
X01118Y00868
X0110575Y009015
X0107525Y0090425
X01079Y00975
X01071Y00984
X01081Y00994
X01074Y01005
X01123Y00993
X01152Y01011
X01118Y01045
Y01062
X01106Y01056
Y0109
X01118
X0111Y01114
X01103Y0112
X01112Y01125
X01129Y01117
X0108754Y0112424
X01074Y01117
X01072Y01136
X01069Y01148
X01063Y01158
X01056Y01165
X01101Y01166
X00994Y01114
Y01064
X01006Y01071
X0096Y01096
X0094Y0109
X00928
Y01105
X00917Y01116
X00918Y01137
X00919Y01149
Y01164
X00928Y01174
X00956Y01184
X00884Y01186
X0087375Y0118775
X0088Y01167
X00884Y01158
X00887Y01174
Y01139
X00873Y01128
X00878Y0112
X00864Y01123
X0085625Y0111675
X0084Y01116
X00839Y01131
X00833Y01138
X00849Y011435
X0084575Y011685
X00846Y01095
X00845Y01078
X0083Y0108
X00823Y01091
X0082Y0109975
X00868Y010665
X00874Y01043
X00867Y01037
Y01027
Y01017
X00873Y0101
X00883Y01008
X00885Y01023
X00882Y01037
X0088177Y0105
X00853Y01028
X00852Y01012
X0086Y01007
X00844Y01002
X00835Y01003
X00836Y0103
X007985Y0100225
X008Y00966
X0083Y00939
X00849Y00929
Y00882
X00843Y00874
X00835Y00868
X00856Y00865
X0088Y00876
X0087Y00887
X008925Y009235
X00899Y00931
X00906Y00938
X00913Y00945
X00919Y00952
X00926Y00958
X00945Y00978
X00951Y00994
Y01004
Y0102
X0096Y01017
X00957Y01027
X00963Y01036
X00918Y01033
X00923Y01064
X00932Y0106
X00942Y01115
X00915Y00991
X00908Y00998
X00899Y00996
X00892Y0099
X00899Y00973
X00893Y00966
X00906Y00979
X0094Y00932
X00976Y00924
X00994Y0095
X0099Y01011
X01188Y00973
X01183Y00965
X01185Y0109
X0080175Y0089575
X01222Y00864
X0124075Y0084425
X01239Y00831
X01262Y00835
X0130025Y008415
X01311Y00863
X01286Y00802
X01213Y00809
X01213Y00818
X012465Y009145
X01238Y00967
Y00977
Y00987
X0125125Y00988
X0122075Y01005
X0122Y01039
X01204Y01102
X01197Y01096
X01266Y01101
X01284Y01105
X01293
X01328
Y01116
Y01094
X0135
X0135Y01105
X0135Y01116
X01396Y01108
X01388Y01068
X0132Y01058
X01275Y01137
X01204Y0096
X01192Y0096
X01198Y00953
X0121Y00952
X013625Y0082075
X01377Y0082
X01383Y00795
X01427Y00834
X01443Y00846
X01444Y00859
X01516Y008675
Y00884
X01532
X0153575Y0086875
X015155Y009025
X01526Y00946
X01575Y00945
X01493Y0106
X01513Y01085
X01509Y011
X01514Y01108
X01608Y01116
X01611Y01125
X01621Y01132
X0161225Y0115925
X01676Y01139
X01683Y01132
X01697Y01117
X01713Y01101
X0172Y01094
X01734Y01091
X0172Y01072
X01696Y01073
X0169Y01081
X01674Y0108625
X01708Y01051
X01675Y01017
X01679Y01008
X01664Y00993
Y00982
X01715Y00971
X01757Y00982
X0176825Y0097125
X01778Y00979
X01782Y00992
X017925Y0098475
X01805Y00949
X017915Y0092
X01772Y00921
X017355Y0091675
X01715Y00874
X01683Y00874
X0169175Y0084825
X016915Y008205
X01692Y00803
X01705Y00796
X0171Y00824
X01755Y0083
X0175725Y0087175
X017965Y0084625
X0186Y0091
X01852Y01026
X0183575Y0111125
X0181175Y010965
X01858Y01156
X01918Y01151
X01662Y00902
X01668Y00895
X01658Y00864
X01621Y00862
Y00836
X01612Y00912
X01607Y0092
X0162075Y0120075
X01672Y01269
X01667Y01284
X0178075Y0125425
X0181375Y012455
X01965Y01234
X01584Y01216
X01051Y01203
X00953Y01193
X00956Y01263
X00927Y01258
Y0127
X0092Y01264
Y01252
X00901Y01246
X00892Y01241
X00899Y01231
X00911
X00883Y01215
X00875Y01221
X00865
X00875Y01207
X00884Y012005
X0085475Y011935
X00826Y01194
X0082Y01222
X0081
X008Y01222
X00839Y01221
X00821Y01267
X0080375Y012685
X00853Y01273
X0086Y01266
X00881Y01257
X00876Y0129
X00918Y01291
X0093Y01286
X00933Y01306
X00826Y013
X00789Y01287
X0077475Y0127925
X00765Y01269
X00793Y01263
X0078925Y0122175
X007735Y012125
X00763Y01213
X00753
X00742
X00735Y01219
X00728Y01213
X00714
X00705
X00699Y0122
X00689
X00679
X00669
X00657Y01231
X00659Y01241
X00666Y0126
X006685Y0127525
X0071675Y012785
X00714Y01292
X00696Y0131
X00776
X0075225Y012235
X00626Y01219
X006335Y01208
X0060725Y0120525
X005565Y012075
X00544Y01194
X0049875Y0119675
X00571Y01226
X005855Y0128825
T02
X01197Y00626
X01418Y00851
X01374Y01017
X01387Y01035
X01413Y01158
Y01172
X01433
Y01158
X01556Y01022
X01706Y00983
X01832Y01003
X01818Y01067
X01832Y00922
X01818Y00868
X01842Y0082
X01891Y00975
T03
X01226Y01238
X01026
T04
X01618Y00672
X016434
X016688
X01705
X017304
X017558
X017812
X018066
X01832
X01876Y006824
Y00657
Y007078
Y007332
Y007586
Y00784
Y008094
Y008348
Y008602
Y008856
Y00911
Y009364
Y009618
Y009872
Y010126
Y01038
X01643Y010566
Y01082
Y011106
Y01136
Y011646
Y0119
X01727Y01283
X01777
X01553Y01225
X015276
T05
X01964Y00584
X00294
X01161Y00915
X01964Y01314
X00294
M30
