G04 Layer_Color=8388736*
%FSLAX43Y43*%
%MOMM*%
G71*
G01*
G75*
%ADD121C,0.100*%
G04:AMPARAMS|DCode=131|XSize=0.503mm|YSize=1.403mm|CornerRadius=0.177mm|HoleSize=0mm|Usage=FLASHONLY|Rotation=0.000|XOffset=0mm|YOffset=0mm|HoleType=Round|Shape=RoundedRectangle|*
%AMROUNDEDRECTD131*
21,1,0.503,1.050,0,0,0.0*
21,1,0.150,1.403,0,0,0.0*
1,1,0.353,0.075,-0.525*
1,1,0.353,-0.075,-0.525*
1,1,0.353,-0.075,0.525*
1,1,0.353,0.075,0.525*
%
%ADD131ROUNDEDRECTD131*%
%ADD132R,0.803X2.203*%
%ADD133O,0.803X2.203*%
%ADD134R,2.003X4.203*%
%ADD135R,1.103X0.903*%
%ADD136R,0.903X1.103*%
G04:AMPARAMS|DCode=137|XSize=0.703mm|YSize=0.703mm|CornerRadius=0.202mm|HoleSize=0mm|Usage=FLASHONLY|Rotation=180.000|XOffset=0mm|YOffset=0mm|HoleType=Round|Shape=RoundedRectangle|*
%AMROUNDEDRECTD137*
21,1,0.703,0.300,0,0,180.0*
21,1,0.300,0.703,0,0,180.0*
1,1,0.403,-0.150,0.150*
1,1,0.403,0.150,0.150*
1,1,0.403,0.150,-0.150*
1,1,0.403,-0.150,-0.150*
%
%ADD137ROUNDEDRECTD137*%
G04:AMPARAMS|DCode=138|XSize=0.703mm|YSize=0.703mm|CornerRadius=0.202mm|HoleSize=0mm|Usage=FLASHONLY|Rotation=90.000|XOffset=0mm|YOffset=0mm|HoleType=Round|Shape=RoundedRectangle|*
%AMROUNDEDRECTD138*
21,1,0.703,0.300,0,0,90.0*
21,1,0.300,0.703,0,0,90.0*
1,1,0.403,0.150,0.150*
1,1,0.403,0.150,-0.150*
1,1,0.403,-0.150,-0.150*
1,1,0.403,-0.150,0.150*
%
%ADD138ROUNDEDRECTD138*%
G04:AMPARAMS|DCode=139|XSize=0.703mm|YSize=0.703mm|CornerRadius=0.202mm|HoleSize=0mm|Usage=FLASHONLY|Rotation=225.000|XOffset=0mm|YOffset=0mm|HoleType=Round|Shape=RoundedRectangle|*
%AMROUNDEDRECTD139*
21,1,0.703,0.300,0,0,225.0*
21,1,0.300,0.703,0,0,225.0*
1,1,0.403,-0.212,0.000*
1,1,0.403,0.000,0.212*
1,1,0.403,0.212,0.000*
1,1,0.403,0.000,-0.212*
%
%ADD139ROUNDEDRECTD139*%
G04:AMPARAMS|DCode=140|XSize=0.703mm|YSize=0.703mm|CornerRadius=0.202mm|HoleSize=0mm|Usage=FLASHONLY|Rotation=315.000|XOffset=0mm|YOffset=0mm|HoleType=Round|Shape=RoundedRectangle|*
%AMROUNDEDRECTD140*
21,1,0.703,0.300,0,0,315.0*
21,1,0.300,0.703,0,0,315.0*
1,1,0.403,0.000,-0.212*
1,1,0.403,-0.212,0.000*
1,1,0.403,0.000,0.212*
1,1,0.403,0.212,0.000*
%
%ADD140ROUNDEDRECTD140*%
%ADD141R,1.703X3.003*%
G04:AMPARAMS|DCode=142|XSize=0.503mm|YSize=1.103mm|CornerRadius=0.177mm|HoleSize=0mm|Usage=FLASHONLY|Rotation=180.000|XOffset=0mm|YOffset=0mm|HoleType=Round|Shape=RoundedRectangle|*
%AMROUNDEDRECTD142*
21,1,0.503,0.750,0,0,180.0*
21,1,0.150,1.103,0,0,180.0*
1,1,0.353,-0.075,0.375*
1,1,0.353,0.075,0.375*
1,1,0.353,0.075,-0.375*
1,1,0.353,-0.075,-0.375*
%
%ADD142ROUNDEDRECTD142*%
G04:AMPARAMS|DCode=143|XSize=0.503mm|YSize=1.103mm|CornerRadius=0mm|HoleSize=0mm|Usage=FLASHONLY|Rotation=180.000|XOffset=0mm|YOffset=0mm|HoleType=Round|Shape=Octagon|*
%AMOCTAGOND143*
4,1,8,0.126,-0.552,-0.126,-0.552,-0.252,-0.426,-0.252,0.426,-0.126,0.552,0.126,0.552,0.252,0.426,0.252,-0.426,0.126,-0.552,0.0*
%
%ADD143OCTAGOND143*%

%ADD144R,0.503X1.103*%
%ADD145C,1.203*%
%ADD146R,2.353X1.303*%
%ADD147R,2.353X1.303*%
%ADD148R,2.353X3.703*%
G04:AMPARAMS|DCode=149|XSize=2.203mm|YSize=0.803mm|CornerRadius=0.252mm|HoleSize=0mm|Usage=FLASHONLY|Rotation=270.000|XOffset=0mm|YOffset=0mm|HoleType=Round|Shape=RoundedRectangle|*
%AMROUNDEDRECTD149*
21,1,2.203,0.300,0,0,270.0*
21,1,1.700,0.803,0,0,270.0*
1,1,0.503,-0.150,-0.850*
1,1,0.503,-0.150,0.850*
1,1,0.503,0.150,0.850*
1,1,0.503,0.150,-0.850*
%
%ADD149ROUNDEDRECTD149*%
G04:AMPARAMS|DCode=150|XSize=0.903mm|YSize=1.103mm|CornerRadius=0mm|HoleSize=0mm|Usage=FLASHONLY|Rotation=135.000|XOffset=0mm|YOffset=0mm|HoleType=Round|Shape=Rectangle|*
%AMROTATEDRECTD150*
4,1,4,0.709,0.071,-0.071,-0.709,-0.709,-0.071,0.071,0.709,0.709,0.071,0.0*
%
%ADD150ROTATEDRECTD150*%

%ADD151R,0.803X0.803*%
%ADD152R,1.303X2.203*%
%ADD153R,1.303X1.303*%
%ADD154R,1.403X2.003*%
%ADD155R,2.003X1.403*%
%ADD156R,1.953X2.403*%
%ADD157R,2.403X1.953*%
G04:AMPARAMS|DCode=158|XSize=0.503mm|YSize=1.853mm|CornerRadius=0.177mm|HoleSize=0mm|Usage=FLASHONLY|Rotation=180.000|XOffset=0mm|YOffset=0mm|HoleType=Round|Shape=RoundedRectangle|*
%AMROUNDEDRECTD158*
21,1,0.503,1.500,0,0,180.0*
21,1,0.150,1.853,0,0,180.0*
1,1,0.353,-0.075,0.750*
1,1,0.353,0.075,0.750*
1,1,0.353,0.075,-0.750*
1,1,0.353,-0.075,-0.750*
%
%ADD158ROUNDEDRECTD158*%
%ADD159R,0.503X1.853*%
G04:AMPARAMS|DCode=160|XSize=2.203mm|YSize=1.703mm|CornerRadius=0.477mm|HoleSize=0mm|Usage=FLASHONLY|Rotation=0.000|XOffset=0mm|YOffset=0mm|HoleType=Round|Shape=RoundedRectangle|*
%AMROUNDEDRECTD160*
21,1,2.203,0.750,0,0,0.0*
21,1,1.250,1.703,0,0,0.0*
1,1,0.953,0.625,-0.375*
1,1,0.953,-0.625,-0.375*
1,1,0.953,-0.625,0.375*
1,1,0.953,0.625,0.375*
%
%ADD160ROUNDEDRECTD160*%
%ADD161R,2.203X1.703*%
%ADD162R,1.103X1.503*%
%ADD163R,0.800X1.050*%
%ADD164R,1.403X2.803*%
%ADD165R,1.503X1.103*%
%ADD166R,0.803X2.003*%
%ADD167R,3.403X2.503*%
G04:AMPARAMS|DCode=168|XSize=7.203mm|YSize=4.203mm|CornerRadius=1.102mm|HoleSize=0mm|Usage=FLASHONLY|Rotation=180.000|XOffset=0mm|YOffset=0mm|HoleType=Round|Shape=RoundedRectangle|*
%AMROUNDEDRECTD168*
21,1,7.203,2.000,0,0,180.0*
21,1,5.000,4.203,0,0,180.0*
1,1,2.203,-2.500,1.000*
1,1,2.203,2.500,1.000*
1,1,2.203,2.500,-1.000*
1,1,2.203,-2.500,-1.000*
%
%ADD168ROUNDEDRECTD168*%
%ADD169R,2.203X0.803*%
G04:AMPARAMS|DCode=170|XSize=2.203mm|YSize=0.803mm|CornerRadius=0.252mm|HoleSize=0mm|Usage=FLASHONLY|Rotation=0.000|XOffset=0mm|YOffset=0mm|HoleType=Round|Shape=RoundedRectangle|*
%AMROUNDEDRECTD170*
21,1,2.203,0.300,0,0,0.0*
21,1,1.700,0.803,0,0,0.0*
1,1,0.503,0.850,-0.150*
1,1,0.503,-0.850,-0.150*
1,1,0.503,-0.850,0.150*
1,1,0.503,0.850,0.150*
%
%ADD170ROUNDEDRECTD170*%
%ADD171R,1.403X1.403*%
%ADD172R,1.053X1.303*%
%ADD173R,2.853X1.953*%
%ADD174O,0.483X0.863*%
%ADD175R,0.483X0.483*%
%ADD176O,0.863X0.483*%
%ADD177R,1.003X1.703*%
G04:AMPARAMS|DCode=178|XSize=0.903mm|YSize=1.103mm|CornerRadius=0mm|HoleSize=0mm|Usage=FLASHONLY|Rotation=45.000|XOffset=0mm|YOffset=0mm|HoleType=Round|Shape=Rectangle|*
%AMROTATEDRECTD178*
4,1,4,0.071,-0.709,-0.709,0.071,-0.071,0.709,0.709,-0.071,0.071,-0.709,0.0*
%
%ADD178ROTATEDRECTD178*%

%ADD179R,1.003X1.003*%
G04:AMPARAMS|DCode=180|XSize=0.803mm|YSize=0.803mm|CornerRadius=0.162mm|HoleSize=0mm|Usage=FLASHONLY|Rotation=0.000|XOffset=0mm|YOffset=0mm|HoleType=Round|Shape=RoundedRectangle|*
%AMROUNDEDRECTD180*
21,1,0.803,0.480,0,0,0.0*
21,1,0.480,0.803,0,0,0.0*
1,1,0.323,0.240,-0.240*
1,1,0.323,-0.240,-0.240*
1,1,0.323,-0.240,0.240*
1,1,0.323,0.240,0.240*
%
%ADD180ROUNDEDRECTD180*%
G04:AMPARAMS|DCode=181|XSize=11.203mm|YSize=5.203mm|CornerRadius=1.352mm|HoleSize=0mm|Usage=FLASHONLY|Rotation=90.000|XOffset=0mm|YOffset=0mm|HoleType=Round|Shape=RoundedRectangle|*
%AMROUNDEDRECTD181*
21,1,11.203,2.500,0,0,90.0*
21,1,8.500,5.203,0,0,90.0*
1,1,2.703,1.250,4.250*
1,1,2.703,1.250,-4.250*
1,1,2.703,-1.250,-4.250*
1,1,2.703,-1.250,4.250*
%
%ADD181ROUNDEDRECTD181*%
G04:AMPARAMS|DCode=182|XSize=0.803mm|YSize=0.803mm|CornerRadius=0.162mm|HoleSize=0mm|Usage=FLASHONLY|Rotation=135.000|XOffset=0mm|YOffset=0mm|HoleType=Round|Shape=RoundedRectangle|*
%AMROUNDEDRECTD182*
21,1,0.803,0.480,0,0,135.0*
21,1,0.480,0.803,0,0,135.0*
1,1,0.323,0.000,0.339*
1,1,0.323,0.339,0.000*
1,1,0.323,0.000,-0.339*
1,1,0.323,-0.339,0.000*
%
%ADD182ROUNDEDRECTD182*%
G04:AMPARAMS|DCode=183|XSize=0.803mm|YSize=0.803mm|CornerRadius=0.162mm|HoleSize=0mm|Usage=FLASHONLY|Rotation=225.000|XOffset=0mm|YOffset=0mm|HoleType=Round|Shape=RoundedRectangle|*
%AMROUNDEDRECTD183*
21,1,0.803,0.480,0,0,225.0*
21,1,0.480,0.803,0,0,225.0*
1,1,0.323,-0.339,0.000*
1,1,0.323,0.000,0.339*
1,1,0.323,0.339,0.000*
1,1,0.323,0.000,-0.339*
%
%ADD183ROUNDEDRECTD183*%
G04:AMPARAMS|DCode=184|XSize=0.803mm|YSize=0.803mm|CornerRadius=0.162mm|HoleSize=0mm|Usage=FLASHONLY|Rotation=90.000|XOffset=0mm|YOffset=0mm|HoleType=Round|Shape=RoundedRectangle|*
%AMROUNDEDRECTD184*
21,1,0.803,0.480,0,0,90.0*
21,1,0.480,0.803,0,0,90.0*
1,1,0.323,0.240,0.240*
1,1,0.323,0.240,-0.240*
1,1,0.323,-0.240,-0.240*
1,1,0.323,-0.240,0.240*
%
%ADD184ROUNDEDRECTD184*%
%ADD185R,1.803X0.503*%
G04:AMPARAMS|DCode=186|XSize=3.303mm|YSize=3.303mm|CornerRadius=0.179mm|HoleSize=0mm|Usage=FLASHONLY|Rotation=0.000|XOffset=0mm|YOffset=0mm|HoleType=Round|Shape=RoundedRectangle|*
%AMROUNDEDRECTD186*
21,1,3.303,2.945,0,0,0.0*
21,1,2.945,3.303,0,0,0.0*
1,1,0.358,1.472,-1.472*
1,1,0.358,-1.472,-1.472*
1,1,0.358,-1.472,1.472*
1,1,0.358,1.472,1.472*
%
%ADD186ROUNDEDRECTD186*%
%ADD187R,0.753X1.203*%
%ADD188R,2.203X1.303*%
%ADD189R,1.303X1.303*%
%ADD190R,0.503X1.803*%
%ADD191R,1.353X1.603*%
%ADD192R,1.953X0.903*%
%ADD193R,1.703X1.503*%
%ADD194R,1.703X1.003*%
%ADD195R,1.203X1.703*%
%ADD196R,1.603X1.003*%
%ADD197R,1.703X1.703*%
%ADD198R,1.753X1.203*%
%ADD199R,0.603X1.753*%
%ADD200R,1.503X2.103*%
%ADD201R,0.803X2.353*%
%ADD202R,0.803X2.353*%
%ADD203R,3.703X2.353*%
G04:AMPARAMS|DCode=204|XSize=5.853mm|YSize=5.853mm|CornerRadius=0.243mm|HoleSize=0mm|Usage=FLASHONLY|Rotation=0.000|XOffset=0mm|YOffset=0mm|HoleType=Round|Shape=RoundedRectangle|*
%AMROUNDEDRECTD204*
21,1,5.853,5.367,0,0,0.0*
21,1,5.367,5.853,0,0,0.0*
1,1,0.486,2.684,-2.684*
1,1,0.486,-2.684,-2.684*
1,1,0.486,-2.684,2.684*
1,1,0.486,2.684,2.684*
%
%ADD204ROUNDEDRECTD204*%
%ADD205O,0.503X1.203*%
%ADD206O,1.203X0.503*%
G04:AMPARAMS|DCode=207|XSize=0.503mm|YSize=1.203mm|CornerRadius=0.177mm|HoleSize=0mm|Usage=FLASHONLY|Rotation=90.000|XOffset=0mm|YOffset=0mm|HoleType=Round|Shape=RoundedRectangle|*
%AMROUNDEDRECTD207*
21,1,0.503,0.850,0,0,90.0*
21,1,0.150,1.203,0,0,90.0*
1,1,0.353,0.425,0.075*
1,1,0.353,0.425,-0.075*
1,1,0.353,-0.425,-0.075*
1,1,0.353,-0.425,0.075*
%
%ADD207ROUNDEDRECTD207*%
%ADD208R,0.803X1.203*%
G04:AMPARAMS|DCode=209|XSize=1.153mm|YSize=1.803mm|CornerRadius=0.339mm|HoleSize=0mm|Usage=FLASHONLY|Rotation=180.000|XOffset=0mm|YOffset=0mm|HoleType=Round|Shape=RoundedRectangle|*
%AMROUNDEDRECTD209*
21,1,1.153,1.125,0,0,180.0*
21,1,0.475,1.803,0,0,180.0*
1,1,0.678,-0.237,0.563*
1,1,0.678,0.237,0.563*
1,1,0.678,0.237,-0.563*
1,1,0.678,-0.237,-0.563*
%
%ADD209ROUNDEDRECTD209*%
%ADD210R,1.153X1.803*%
%ADD211P,1.136X4X360.0*%
%ADD212R,1.003X2.503*%
%ADD213O,1.003X2.503*%
%ADD214R,0.803X0.803*%
%ADD215R,1.753X0.603*%
G04:AMPARAMS|DCode=216|XSize=1.253mm|YSize=0.603mm|CornerRadius=0.202mm|HoleSize=0mm|Usage=FLASHONLY|Rotation=0.000|XOffset=0mm|YOffset=0mm|HoleType=Round|Shape=RoundedRectangle|*
%AMROUNDEDRECTD216*
21,1,1.253,0.200,0,0,0.0*
21,1,0.850,0.603,0,0,0.0*
1,1,0.403,0.425,-0.100*
1,1,0.403,-0.425,-0.100*
1,1,0.403,-0.425,0.100*
1,1,0.403,0.425,0.100*
%
%ADD216ROUNDEDRECTD216*%
%ADD217R,1.253X0.603*%
%ADD218R,1.050X0.800*%
G04:AMPARAMS|DCode=219|XSize=0.533mm|YSize=0.533mm|CornerRadius=0.135mm|HoleSize=0mm|Usage=FLASHONLY|Rotation=315.000|XOffset=0mm|YOffset=0mm|HoleType=Round|Shape=RoundedRectangle|*
%AMROUNDEDRECTD219*
21,1,0.533,0.264,0,0,315.0*
21,1,0.264,0.533,0,0,315.0*
1,1,0.269,0.000,-0.187*
1,1,0.269,-0.187,0.000*
1,1,0.269,0.000,0.187*
1,1,0.269,0.187,0.000*
%
%ADD219ROUNDEDRECTD219*%
G04:AMPARAMS|DCode=220|XSize=0.533mm|YSize=0.533mm|CornerRadius=0.135mm|HoleSize=0mm|Usage=FLASHONLY|Rotation=180.000|XOffset=0mm|YOffset=0mm|HoleType=Round|Shape=RoundedRectangle|*
%AMROUNDEDRECTD220*
21,1,0.533,0.264,0,0,180.0*
21,1,0.264,0.533,0,0,180.0*
1,1,0.269,-0.132,0.132*
1,1,0.269,0.132,0.132*
1,1,0.269,0.132,-0.132*
1,1,0.269,-0.132,-0.132*
%
%ADD220ROUNDEDRECTD220*%
%ADD221C,2.003*%
G04:AMPARAMS|DCode=222|XSize=2.003mm|YSize=2.003mm|CornerRadius=0.552mm|HoleSize=0mm|Usage=FLASHONLY|Rotation=270.000|XOffset=0mm|YOffset=0mm|HoleType=Round|Shape=RoundedRectangle|*
%AMROUNDEDRECTD222*
21,1,2.003,0.900,0,0,270.0*
21,1,0.900,2.003,0,0,270.0*
1,1,1.103,-0.450,-0.450*
1,1,1.103,-0.450,0.450*
1,1,1.103,0.450,0.450*
1,1,1.103,0.450,-0.450*
%
%ADD222ROUNDEDRECTD222*%
G04:AMPARAMS|DCode=223|XSize=2.003mm|YSize=2.003mm|CornerRadius=0.552mm|HoleSize=0mm|Usage=FLASHONLY|Rotation=180.000|XOffset=0mm|YOffset=0mm|HoleType=Round|Shape=RoundedRectangle|*
%AMROUNDEDRECTD223*
21,1,2.003,0.900,0,0,180.0*
21,1,0.900,2.003,0,0,180.0*
1,1,1.103,-0.450,0.450*
1,1,1.103,0.450,0.450*
1,1,1.103,0.450,-0.450*
1,1,1.103,-0.450,-0.450*
%
%ADD223ROUNDEDRECTD223*%
G04:AMPARAMS|DCode=224|XSize=2.203mm|YSize=2.203mm|CornerRadius=0.602mm|HoleSize=0mm|Usage=FLASHONLY|Rotation=180.000|XOffset=0mm|YOffset=0mm|HoleType=Round|Shape=RoundedRectangle|*
%AMROUNDEDRECTD224*
21,1,2.203,1.000,0,0,180.0*
21,1,1.000,2.203,0,0,180.0*
1,1,1.203,-0.500,0.500*
1,1,1.203,0.500,0.500*
1,1,1.203,0.500,-0.500*
1,1,1.203,-0.500,-0.500*
%
%ADD224ROUNDEDRECTD224*%
%ADD225C,2.203*%
%ADD226C,6.203*%
D121*
X200400Y133400D02*
G03*
X198400Y135400I-2000J0D01*
G01*
X27400Y135400D02*
G03*
X25400Y133400I0J-2000D01*
G01*
Y56400D02*
G03*
X27400Y54400I2000J0D01*
G01*
X198400D02*
G03*
X200400Y56400I0J2000D01*
G01*
X200400D02*
Y133400D01*
X27400Y135400D02*
X198400D01*
X25400Y133400D02*
X25400Y56400D01*
X27400Y54400D02*
X198400Y54400D01*
D131*
X140200Y59850D02*
D03*
X140700D02*
D03*
X141200D02*
D03*
X141700D02*
D03*
X142200Y59850D02*
D03*
X140200Y64650D02*
D03*
X140700D02*
D03*
X141200D02*
D03*
X141700Y64650D02*
D03*
X142200Y64650D02*
D03*
D132*
X135700Y76000D02*
D03*
X168900Y95325D02*
D03*
X175700D02*
D03*
D133*
X134700Y76000D02*
D03*
X133700D02*
D03*
X132700D02*
D03*
X154500Y62600D02*
D03*
X153500D02*
D03*
X152500D02*
D03*
X151500D02*
D03*
X148500D02*
D03*
X149500D02*
D03*
X150500D02*
D03*
D134*
X129700Y73000D02*
D03*
X138700D02*
D03*
X144500Y59600D02*
D03*
X157500D02*
D03*
D135*
X67500Y127650D02*
D03*
Y126150D02*
D03*
X80400Y127850D02*
D03*
Y126350D02*
D03*
X75600Y127850D02*
D03*
Y126350D02*
D03*
X86900Y127850D02*
D03*
Y126350D02*
D03*
X75100Y95850D02*
D03*
Y94350D02*
D03*
X92200Y100050D02*
D03*
Y101550D02*
D03*
X119200Y78150D02*
D03*
Y79650D02*
D03*
X147000Y67650D02*
D03*
Y66150D02*
D03*
X145700Y67650D02*
D03*
Y66150D02*
D03*
X144300Y67650D02*
D03*
Y66150D02*
D03*
X143000Y67650D02*
D03*
Y66150D02*
D03*
X185400Y73750D02*
D03*
Y72250D02*
D03*
X175800Y76150D02*
D03*
Y77650D02*
D03*
X175900Y83950D02*
D03*
Y85450D02*
D03*
X98400Y108150D02*
D03*
Y109650D02*
D03*
X100600Y108150D02*
D03*
Y109650D02*
D03*
X175800Y80350D02*
D03*
Y78850D02*
D03*
X175900Y88150D02*
D03*
Y86650D02*
D03*
X161200Y89050D02*
D03*
Y87550D02*
D03*
Y84850D02*
D03*
Y86350D02*
D03*
Y78550D02*
D03*
Y77050D02*
D03*
Y74350D02*
D03*
Y75850D02*
D03*
X156100Y95750D02*
D03*
Y97250D02*
D03*
X157500Y97250D02*
D03*
Y95750D02*
D03*
X116300Y70950D02*
D03*
Y69450D02*
D03*
X115000Y62550D02*
D03*
Y64050D02*
D03*
X116600Y64050D02*
D03*
Y62550D02*
D03*
X98300Y62250D02*
D03*
Y63750D02*
D03*
X96900Y62250D02*
D03*
Y63750D02*
D03*
X96800Y104650D02*
D03*
Y106150D02*
D03*
X48800Y73750D02*
D03*
Y75250D02*
D03*
Y67750D02*
D03*
Y66250D02*
D03*
X48900Y81050D02*
D03*
Y82550D02*
D03*
X48800Y60150D02*
D03*
Y58650D02*
D03*
X124800Y82750D02*
D03*
Y81250D02*
D03*
X122900Y83850D02*
D03*
Y82350D02*
D03*
X131600Y79150D02*
D03*
Y77650D02*
D03*
X118300Y67050D02*
D03*
Y65550D02*
D03*
X28900Y111350D02*
D03*
Y109850D02*
D03*
X39300Y109850D02*
D03*
Y111350D02*
D03*
X49700Y109850D02*
D03*
Y111350D02*
D03*
X45700Y93350D02*
D03*
Y94850D02*
D03*
X40900Y93350D02*
D03*
X40900Y94850D02*
D03*
X43300Y109850D02*
D03*
Y111350D02*
D03*
X48100Y109850D02*
D03*
Y111350D02*
D03*
X137900Y112550D02*
D03*
X137900Y114050D02*
D03*
X128600Y106650D02*
D03*
X128600Y108150D02*
D03*
X122100Y103250D02*
D03*
Y101750D02*
D03*
X137900Y106950D02*
D03*
Y108450D02*
D03*
X130000Y106650D02*
D03*
X130000Y108150D02*
D03*
X68900Y95850D02*
D03*
Y94350D02*
D03*
X80100Y95850D02*
D03*
Y94350D02*
D03*
X86300Y94450D02*
D03*
Y95950D02*
D03*
X68900Y126150D02*
D03*
Y127650D02*
D03*
X84900Y95950D02*
D03*
Y94450D02*
D03*
X55400Y88850D02*
D03*
Y90350D02*
D03*
X94100Y63750D02*
D03*
Y62250D02*
D03*
X95500Y63750D02*
D03*
Y62250D02*
D03*
X67400Y57450D02*
D03*
Y58950D02*
D03*
X64000Y61750D02*
D03*
Y60250D02*
D03*
X50300Y81050D02*
D03*
Y82550D02*
D03*
X50200Y73750D02*
D03*
Y75250D02*
D03*
Y67750D02*
D03*
Y66250D02*
D03*
Y60150D02*
D03*
Y58650D02*
D03*
X52800Y122625D02*
D03*
Y121125D02*
D03*
X54400Y121150D02*
D03*
Y122650D02*
D03*
X35000Y88950D02*
D03*
Y90450D02*
D03*
X29175Y73925D02*
D03*
Y72425D02*
D03*
X139000Y81950D02*
D03*
Y80450D02*
D03*
X143800Y76750D02*
D03*
Y75250D02*
D03*
X142400Y75250D02*
D03*
Y76750D02*
D03*
X181500Y121650D02*
D03*
Y123150D02*
D03*
X173700Y113750D02*
D03*
Y115250D02*
D03*
X74100Y127850D02*
D03*
Y126350D02*
D03*
X193300Y109450D02*
D03*
Y107950D02*
D03*
X188300Y108450D02*
D03*
Y109950D02*
D03*
X63700Y70750D02*
D03*
Y72250D02*
D03*
X167600Y96650D02*
D03*
Y98150D02*
D03*
X185400Y68550D02*
D03*
Y70050D02*
D03*
X154300Y78450D02*
D03*
Y76950D02*
D03*
X158800Y66350D02*
D03*
Y67850D02*
D03*
X140400Y66150D02*
D03*
Y67650D02*
D03*
X141700Y66150D02*
D03*
Y67650D02*
D03*
X187300Y61750D02*
D03*
Y63250D02*
D03*
X72700Y127850D02*
D03*
Y126350D02*
D03*
D136*
X92750Y119800D02*
D03*
X94250D02*
D03*
X61050Y115100D02*
D03*
X62550D02*
D03*
X62525Y104850D02*
D03*
X61025D02*
D03*
X94550Y76900D02*
D03*
X96050D02*
D03*
X87350Y129900D02*
D03*
X85850D02*
D03*
X161750Y122600D02*
D03*
X163250D02*
D03*
X159050D02*
D03*
X160550D02*
D03*
X154650Y94400D02*
D03*
X156150D02*
D03*
X122250Y61800D02*
D03*
X123750D02*
D03*
X123750Y60400D02*
D03*
X122250D02*
D03*
X154750Y95800D02*
D03*
X153250Y95800D02*
D03*
X154750Y97200D02*
D03*
X153250Y97200D02*
D03*
X148950Y89100D02*
D03*
X150450D02*
D03*
X150350Y93300D02*
D03*
X148850D02*
D03*
X148850Y94700D02*
D03*
X150350D02*
D03*
X146250Y105600D02*
D03*
X147750D02*
D03*
X147750Y103900D02*
D03*
X146250D02*
D03*
X124250Y80000D02*
D03*
X125750D02*
D03*
X142950Y109900D02*
D03*
X141450D02*
D03*
X142950Y111300D02*
D03*
X141450D02*
D03*
X79450Y59400D02*
D03*
X77950D02*
D03*
X80350Y68400D02*
D03*
X78850D02*
D03*
X87650Y79700D02*
D03*
X89150D02*
D03*
X63500Y79600D02*
D03*
X62000D02*
D03*
X87650Y83100D02*
D03*
X89150D02*
D03*
X87650Y81800D02*
D03*
X89150D02*
D03*
X87650Y76900D02*
D03*
X89150D02*
D03*
X129950Y111500D02*
D03*
X128450D02*
D03*
X128450Y112900D02*
D03*
X129950Y112900D02*
D03*
X128450Y117300D02*
D03*
X129950Y117300D02*
D03*
Y114500D02*
D03*
X128450Y114500D02*
D03*
X129950Y115900D02*
D03*
X128450D02*
D03*
X61050Y110900D02*
D03*
X62550D02*
D03*
X94250Y107600D02*
D03*
X92750D02*
D03*
X61050Y107300D02*
D03*
X62550D02*
D03*
X92750Y113100D02*
D03*
X94250D02*
D03*
X92750Y118500D02*
D03*
X94250D02*
D03*
X62550Y103500D02*
D03*
X61050D02*
D03*
X54250Y109000D02*
D03*
X55750D02*
D03*
X54250Y110400D02*
D03*
X55750D02*
D03*
X89150Y78300D02*
D03*
X87650D02*
D03*
X95575Y65125D02*
D03*
X94075D02*
D03*
X66150Y64600D02*
D03*
X67650D02*
D03*
X100850Y127800D02*
D03*
X99350D02*
D03*
X85850Y131300D02*
D03*
X87350D02*
D03*
X71150Y72800D02*
D03*
X72650D02*
D03*
X142450Y78000D02*
D03*
X143950D02*
D03*
X191750Y110800D02*
D03*
X193250D02*
D03*
X186550Y127800D02*
D03*
X185050D02*
D03*
X186550Y129200D02*
D03*
X185050D02*
D03*
X172250Y111300D02*
D03*
X170750D02*
D03*
X167950Y69400D02*
D03*
X166450D02*
D03*
X159750Y70000D02*
D03*
X161250D02*
D03*
X171550Y93300D02*
D03*
X170050D02*
D03*
X176450D02*
D03*
X174950D02*
D03*
X178050D02*
D03*
X179550D02*
D03*
X181750Y69400D02*
D03*
X180250D02*
D03*
X61750Y118800D02*
D03*
X60250D02*
D03*
X154850Y67700D02*
D03*
X153350D02*
D03*
X127350Y83100D02*
D03*
X128850D02*
D03*
Y84500D02*
D03*
X127350D02*
D03*
X157550Y67700D02*
D03*
X156050D02*
D03*
X153350Y66300D02*
D03*
X154850D02*
D03*
X140950Y57975D02*
D03*
X139450D02*
D03*
X169950Y69400D02*
D03*
X171450D02*
D03*
X70050Y69300D02*
D03*
X68550D02*
D03*
X170750Y114000D02*
D03*
X172250D02*
D03*
D137*
X122000Y104300D02*
D03*
X120478Y63428D02*
D03*
X122750Y63375D02*
D03*
D138*
X63250Y73425D02*
D03*
X70350Y56600D02*
D03*
X149775Y106000D02*
D03*
D139*
X137932Y79732D02*
D03*
D140*
X143943Y85382D02*
D03*
D141*
X120300Y58150D02*
D03*
X90800D02*
D03*
X174500Y104100D02*
D03*
X179400Y104100D02*
D03*
Y108500D02*
D03*
X174500Y108500D02*
D03*
X167800Y104100D02*
D03*
X172700Y104100D02*
D03*
D142*
X93300Y60400D02*
D03*
X93800D02*
D03*
X94300D02*
D03*
X94800D02*
D03*
X95300D02*
D03*
X95800D02*
D03*
X96800D02*
D03*
X97300D02*
D03*
X97800D02*
D03*
X98300D02*
D03*
X98800D02*
D03*
X99300D02*
D03*
X99800D02*
D03*
X100300D02*
D03*
X100800D02*
D03*
X101300D02*
D03*
X101800D02*
D03*
X102300D02*
D03*
X102800D02*
D03*
X103300D02*
D03*
X103800D02*
D03*
X104300D02*
D03*
X104800D02*
D03*
X105300D02*
D03*
X105800D02*
D03*
X106300D02*
D03*
X106800D02*
D03*
X107300D02*
D03*
X107800D02*
D03*
X108300D02*
D03*
X108800D02*
D03*
X109300D02*
D03*
X109800D02*
D03*
X110300D02*
D03*
X110800D02*
D03*
X111300D02*
D03*
X111800D02*
D03*
X112300D02*
D03*
X112800D02*
D03*
X117300D02*
D03*
X116800D02*
D03*
X116300D02*
D03*
X115800D02*
D03*
X115300D02*
D03*
X114800D02*
D03*
X114300D02*
D03*
X113800D02*
D03*
X113300D02*
D03*
D143*
X96300D02*
D03*
D144*
X117800D02*
D03*
D145*
X189400Y58400D02*
D03*
X34400Y131400D02*
D03*
D146*
X164900Y124600D02*
D03*
Y129200D02*
D03*
X178000Y81400D02*
D03*
Y76800D02*
D03*
Y89200D02*
D03*
Y84600D02*
D03*
D147*
X164900Y126900D02*
D03*
X178000Y79100D02*
D03*
Y86900D02*
D03*
D148*
X158700Y126900D02*
D03*
X184200Y79100D02*
D03*
Y86900D02*
D03*
D149*
X147500Y62600D02*
D03*
X170170Y95325D02*
D03*
X171440D02*
D03*
X172710D02*
D03*
X168900Y101000D02*
D03*
X170175D02*
D03*
X171450D02*
D03*
X172700D02*
D03*
X176970Y95325D02*
D03*
X178240D02*
D03*
X179510D02*
D03*
X175700Y101000D02*
D03*
X176975D02*
D03*
X178250D02*
D03*
X179500D02*
D03*
D150*
X114970Y77130D02*
D03*
X116030Y76070D02*
D03*
X113170Y75330D02*
D03*
X114230Y74270D02*
D03*
X148970Y65830D02*
D03*
X150030Y64770D02*
D03*
X152230Y64670D02*
D03*
X151170Y65730D02*
D03*
X111870Y74030D02*
D03*
X112930Y72970D02*
D03*
X75930Y58170D02*
D03*
X74870Y59230D02*
D03*
X65430Y96870D02*
D03*
X64370Y97930D02*
D03*
D151*
X161100Y117200D02*
D03*
X160150Y119400D02*
D03*
X162050D02*
D03*
X161100Y113600D02*
D03*
X160150Y115800D02*
D03*
X162050D02*
D03*
X185900Y108800D02*
D03*
X184950Y111000D02*
D03*
X186850D02*
D03*
D152*
X195000Y108900D02*
D03*
X198000D02*
D03*
D153*
X196500Y110500D02*
D03*
D154*
X177800Y113900D02*
D03*
X181000D02*
D03*
X177800Y118500D02*
D03*
X181000D02*
D03*
X181000Y111600D02*
D03*
X177800D02*
D03*
X181000Y116200D02*
D03*
X177800D02*
D03*
X149500Y110200D02*
D03*
X146300D02*
D03*
X127500Y101800D02*
D03*
X124300D02*
D03*
X127500Y104600D02*
D03*
X124300D02*
D03*
D155*
X148900Y123600D02*
D03*
Y126800D02*
D03*
X146500Y117300D02*
D03*
Y114100D02*
D03*
D156*
X181700Y93050D02*
D03*
Y97350D02*
D03*
X184700Y97350D02*
D03*
Y93050D02*
D03*
X181700Y100450D02*
D03*
Y104750D02*
D03*
X184700Y100450D02*
D03*
Y104750D02*
D03*
X160500Y105150D02*
D03*
Y109450D02*
D03*
X157800Y118550D02*
D03*
Y114250D02*
D03*
X140900Y132350D02*
D03*
Y128050D02*
D03*
D157*
X134850Y103400D02*
D03*
X130550D02*
D03*
D158*
X157675Y75275D02*
D03*
X157025D02*
D03*
X156375D02*
D03*
X155725D02*
D03*
X155075D02*
D03*
X154425D02*
D03*
X153775D02*
D03*
X153125D02*
D03*
X157675Y69725D02*
D03*
X157025D02*
D03*
X156375D02*
D03*
X155725D02*
D03*
X155075D02*
D03*
X154425D02*
D03*
X153775D02*
D03*
X135525Y113275D02*
D03*
X134875D02*
D03*
X134225D02*
D03*
X133575D02*
D03*
X132925D02*
D03*
X132275D02*
D03*
X131625D02*
D03*
X136175Y107725D02*
D03*
X135525D02*
D03*
X134875Y107725D02*
D03*
X134225Y107725D02*
D03*
X133575D02*
D03*
X132925Y107725D02*
D03*
X132275Y107725D02*
D03*
X131625D02*
D03*
D159*
X153125Y69725D02*
D03*
X136175Y113275D02*
D03*
D160*
X173000Y82400D02*
D03*
Y84900D02*
D03*
Y87400D02*
D03*
Y89900D02*
D03*
X163500Y82400D02*
D03*
Y84900D02*
D03*
Y87400D02*
D03*
X163600Y76600D02*
D03*
Y74100D02*
D03*
Y71600D02*
D03*
X173100Y79100D02*
D03*
Y76600D02*
D03*
Y74100D02*
D03*
Y71600D02*
D03*
D161*
X163500Y89900D02*
D03*
X163600Y79100D02*
D03*
X143000Y102400D02*
D03*
D162*
X156500Y81800D02*
D03*
X158500D02*
D03*
X158400Y84800D02*
D03*
X156400D02*
D03*
X153300Y107500D02*
D03*
X155300D02*
D03*
X149000Y87100D02*
D03*
X151000D02*
D03*
X148900Y90600D02*
D03*
X150900D02*
D03*
X141500Y108100D02*
D03*
X143500D02*
D03*
X146500D02*
D03*
X148500D02*
D03*
X134600Y117600D02*
D03*
X136600D02*
D03*
X131300D02*
D03*
X133300D02*
D03*
X145500Y132400D02*
D03*
X143500D02*
D03*
X70000Y71700D02*
D03*
X68000D02*
D03*
D163*
X156850Y83200D02*
D03*
X158350D02*
D03*
X150350Y92000D02*
D03*
X148850D02*
D03*
X146350Y106800D02*
D03*
X147850D02*
D03*
X61950Y99800D02*
D03*
X63450D02*
D03*
X65450Y71700D02*
D03*
X66950D02*
D03*
X71150Y71500D02*
D03*
X72650D02*
D03*
X172150Y112600D02*
D03*
X170650D02*
D03*
D164*
X155200Y87200D02*
D03*
X158400D02*
D03*
X155200Y90500D02*
D03*
X158400D02*
D03*
X152600Y109900D02*
D03*
X155800D02*
D03*
X149900Y101600D02*
D03*
X146700D02*
D03*
X140400Y123500D02*
D03*
X143600D02*
D03*
X131800Y120000D02*
D03*
X135000D02*
D03*
X131800Y123300D02*
D03*
X135000D02*
D03*
X148900Y72200D02*
D03*
X145700D02*
D03*
D165*
X157500Y106800D02*
D03*
Y108800D02*
D03*
X139100Y88900D02*
D03*
Y86900D02*
D03*
X118400Y62400D02*
D03*
Y64400D02*
D03*
X185600Y63500D02*
D03*
Y61500D02*
D03*
X138400Y123200D02*
D03*
Y121200D02*
D03*
X120000Y65400D02*
D03*
Y67400D02*
D03*
X145800Y119300D02*
D03*
Y121300D02*
D03*
X39200Y85600D02*
D03*
Y83600D02*
D03*
X38300Y69600D02*
D03*
Y71600D02*
D03*
X140500Y82000D02*
D03*
Y80000D02*
D03*
D166*
X157505Y105000D02*
D03*
X156235D02*
D03*
X154965D02*
D03*
X153695D02*
D03*
X157505Y99400D02*
D03*
X156235D02*
D03*
X154965D02*
D03*
X153695D02*
D03*
X144205Y119300D02*
D03*
X142935D02*
D03*
X141665D02*
D03*
X140395D02*
D03*
X144205Y113700D02*
D03*
X142935D02*
D03*
X141665D02*
D03*
X140395D02*
D03*
D167*
X155600Y102200D02*
D03*
X142300Y116500D02*
D03*
D168*
X162300Y95800D02*
D03*
Y101000D02*
D03*
X152000Y113600D02*
D03*
Y118800D02*
D03*
X134800Y127200D02*
D03*
Y132400D02*
D03*
X148700Y78400D02*
D03*
Y83600D02*
D03*
D169*
X177225Y74600D02*
D03*
X141425Y90500D02*
D03*
X95075Y129900D02*
D03*
D170*
X177225Y73330D02*
D03*
Y72060D02*
D03*
Y70790D02*
D03*
X182900Y74600D02*
D03*
Y73325D02*
D03*
Y72050D02*
D03*
Y70800D02*
D03*
X147100Y86700D02*
D03*
Y87950D02*
D03*
Y89225D02*
D03*
Y90500D02*
D03*
X141425Y86690D02*
D03*
Y87960D02*
D03*
Y89230D02*
D03*
X89400Y133700D02*
D03*
Y132450D02*
D03*
Y131175D02*
D03*
X89400Y129900D02*
D03*
X95075Y133710D02*
D03*
Y132440D02*
D03*
Y131170D02*
D03*
D171*
X115700Y65600D02*
D03*
D172*
X116300Y68000D02*
D03*
X115100D02*
D03*
D173*
X149450Y97800D02*
D03*
X145150D02*
D03*
D174*
X129350Y81525D02*
D03*
X128850D02*
D03*
X128350D02*
D03*
X127850D02*
D03*
Y78875D02*
D03*
X128350D02*
D03*
X128850D02*
D03*
X129350D02*
D03*
D175*
Y81715D02*
D03*
X128850D02*
D03*
X128350D02*
D03*
X127850D02*
D03*
X127085Y80950D02*
D03*
Y80450D02*
D03*
Y79950D02*
D03*
Y79450D02*
D03*
X127850Y78685D02*
D03*
X128350D02*
D03*
X128850D02*
D03*
X129350D02*
D03*
X130115Y79450D02*
D03*
Y79950D02*
D03*
Y80450D02*
D03*
Y80950D02*
D03*
D176*
X127275D02*
D03*
Y80450D02*
D03*
Y79950D02*
D03*
Y79450D02*
D03*
X129925D02*
D03*
Y79950D02*
D03*
Y80450D02*
D03*
Y80950D02*
D03*
D177*
X141500Y105900D02*
D03*
X143000D02*
D03*
X144500D02*
D03*
D178*
X76730Y71330D02*
D03*
X75670Y70270D02*
D03*
D179*
X51450Y75250D02*
D03*
Y73350D02*
D03*
X54025Y74300D02*
D03*
X51450Y60150D02*
D03*
Y58250D02*
D03*
X54025Y59200D02*
D03*
X51450Y67750D02*
D03*
Y65850D02*
D03*
X54025Y66800D02*
D03*
X51550Y82550D02*
D03*
Y80650D02*
D03*
X54125Y81600D02*
D03*
D180*
X82900Y72400D02*
D03*
X81900D02*
D03*
X87400Y72000D02*
D03*
X86400D02*
D03*
X82900Y71200D02*
D03*
X81900D02*
D03*
X87400Y70800D02*
D03*
X86400D02*
D03*
X82900Y70000D02*
D03*
X81900D02*
D03*
X87400Y69600D02*
D03*
X86400D02*
D03*
X87400Y68600D02*
D03*
X86400D02*
D03*
X87400Y67400D02*
D03*
X86400D02*
D03*
X82900Y68000D02*
D03*
X81900D02*
D03*
X82900Y66800D02*
D03*
X81900D02*
D03*
X87400Y66200D02*
D03*
X86400D02*
D03*
X82900Y65600D02*
D03*
X81900D02*
D03*
X87400Y65000D02*
D03*
X86400D02*
D03*
X82900Y64400D02*
D03*
X81900D02*
D03*
X87400Y63800D02*
D03*
X86400D02*
D03*
X82900Y63200D02*
D03*
X81900D02*
D03*
X82900Y62200D02*
D03*
X81900D02*
D03*
X82900Y61200D02*
D03*
X81900D02*
D03*
X82900Y60200D02*
D03*
X81900D02*
D03*
X82900Y58200D02*
D03*
X81900D02*
D03*
X82900Y57200D02*
D03*
X81900D02*
D03*
X82900Y59200D02*
D03*
X81900D02*
D03*
X80600Y57200D02*
D03*
X79600D02*
D03*
X78200D02*
D03*
X77200D02*
D03*
X73500Y55100D02*
D03*
X72500D02*
D03*
X73500Y56100D02*
D03*
X72500D02*
D03*
X73500Y57100D02*
D03*
X72500D02*
D03*
X78200Y56200D02*
D03*
X77200D02*
D03*
D181*
X129500Y95300D02*
D03*
X137500Y95300D02*
D03*
D182*
X55807Y96493D02*
D03*
X55100Y97200D02*
D03*
X58807Y93993D02*
D03*
X58100Y94700D02*
D03*
D183*
X60707Y94507D02*
D03*
X60000Y93800D02*
D03*
D184*
X52200Y109200D02*
D03*
Y110200D02*
D03*
X60700Y100700D02*
D03*
Y101700D02*
D03*
X59700Y100700D02*
D03*
Y101700D02*
D03*
X53200Y109200D02*
D03*
Y110200D02*
D03*
X53800Y98000D02*
D03*
Y99000D02*
D03*
X69700Y61700D02*
D03*
Y62700D02*
D03*
X68700Y61200D02*
D03*
Y60200D02*
D03*
D185*
X85100Y74150D02*
D03*
Y74650D02*
D03*
Y75150D02*
D03*
Y75650D02*
D03*
Y76150D02*
D03*
Y76650D02*
D03*
Y77150D02*
D03*
Y77650D02*
D03*
Y78150D02*
D03*
Y78650D02*
D03*
Y79150D02*
D03*
Y79650D02*
D03*
Y80150D02*
D03*
Y80650D02*
D03*
Y81150D02*
D03*
Y81650D02*
D03*
Y82150D02*
D03*
Y82650D02*
D03*
Y83150D02*
D03*
Y83650D02*
D03*
Y84150D02*
D03*
Y84650D02*
D03*
Y85150D02*
D03*
Y85650D02*
D03*
X65900Y74150D02*
D03*
Y74650D02*
D03*
X65900Y75150D02*
D03*
Y75650D02*
D03*
Y76150D02*
D03*
Y76650D02*
D03*
Y77150D02*
D03*
X65900Y77650D02*
D03*
Y78150D02*
D03*
X65900Y78650D02*
D03*
Y79150D02*
D03*
Y79650D02*
D03*
Y80150D02*
D03*
Y80650D02*
D03*
Y81150D02*
D03*
Y81650D02*
D03*
Y82150D02*
D03*
Y82650D02*
D03*
Y83150D02*
D03*
Y83650D02*
D03*
X65900Y84150D02*
D03*
Y84650D02*
D03*
X65900Y85150D02*
D03*
Y85650D02*
D03*
X65000Y122050D02*
D03*
Y121550D02*
D03*
Y121050D02*
D03*
Y120550D02*
D03*
Y120050D02*
D03*
Y119550D02*
D03*
Y119050D02*
D03*
Y118550D02*
D03*
Y118050D02*
D03*
Y117550D02*
D03*
Y117050D02*
D03*
Y116550D02*
D03*
Y116050D02*
D03*
Y115550D02*
D03*
Y115050D02*
D03*
Y114550D02*
D03*
Y114050D02*
D03*
Y113550D02*
D03*
Y113050D02*
D03*
Y112550D02*
D03*
Y112050D02*
D03*
Y111550D02*
D03*
Y111050D02*
D03*
Y110550D02*
D03*
Y110050D02*
D03*
Y109550D02*
D03*
Y109050D02*
D03*
Y108550D02*
D03*
Y108050D02*
D03*
Y107550D02*
D03*
Y107050D02*
D03*
Y106550D02*
D03*
Y106050D02*
D03*
Y105550D02*
D03*
Y105050D02*
D03*
Y104550D02*
D03*
Y104050D02*
D03*
Y103550D02*
D03*
Y103050D02*
D03*
Y102550D02*
D03*
Y102050D02*
D03*
Y101550D02*
D03*
Y101050D02*
D03*
Y100550D02*
D03*
X90200Y122050D02*
D03*
Y121550D02*
D03*
Y121050D02*
D03*
Y120550D02*
D03*
Y120050D02*
D03*
Y119550D02*
D03*
Y119050D02*
D03*
Y118550D02*
D03*
Y118050D02*
D03*
Y117550D02*
D03*
Y117050D02*
D03*
Y116550D02*
D03*
Y116050D02*
D03*
Y115550D02*
D03*
Y115050D02*
D03*
Y114550D02*
D03*
Y114050D02*
D03*
Y113550D02*
D03*
Y113050D02*
D03*
Y112550D02*
D03*
Y112050D02*
D03*
Y111550D02*
D03*
Y111050D02*
D03*
Y110550D02*
D03*
Y110050D02*
D03*
Y109550D02*
D03*
Y109050D02*
D03*
Y108550D02*
D03*
Y108050D02*
D03*
Y107550D02*
D03*
Y107050D02*
D03*
Y106550D02*
D03*
Y106050D02*
D03*
Y105550D02*
D03*
Y105050D02*
D03*
Y104550D02*
D03*
Y104050D02*
D03*
Y103550D02*
D03*
Y103050D02*
D03*
Y102550D02*
D03*
Y102050D02*
D03*
Y101550D02*
D03*
Y101050D02*
D03*
Y100550D02*
D03*
D186*
X133900Y110500D02*
D03*
D187*
X28900Y96500D02*
D03*
X29700D02*
D03*
X30500D02*
D03*
X31300D02*
D03*
X32100Y96500D02*
D03*
X32900Y96500D02*
D03*
X33700D02*
D03*
X34500D02*
D03*
X35300D02*
D03*
X36100D02*
D03*
X36900D02*
D03*
X37700D02*
D03*
X38500D02*
D03*
X39300D02*
D03*
X40100Y96500D02*
D03*
X40900D02*
D03*
X41700Y96500D02*
D03*
X42500D02*
D03*
X43300D02*
D03*
X44100D02*
D03*
X44900D02*
D03*
X45700Y96500D02*
D03*
X46500Y96500D02*
D03*
X47300D02*
D03*
X48100D02*
D03*
X48900D02*
D03*
X49700D02*
D03*
X28900Y108200D02*
D03*
X29700D02*
D03*
X30500D02*
D03*
X31300D02*
D03*
X32100D02*
D03*
X32900D02*
D03*
X33700Y108200D02*
D03*
X34500D02*
D03*
X35300Y108200D02*
D03*
X36100Y108200D02*
D03*
X36900D02*
D03*
X37700D02*
D03*
X38500Y108200D02*
D03*
X39300Y108200D02*
D03*
X40100D02*
D03*
X40900D02*
D03*
X41700D02*
D03*
X42500D02*
D03*
X43300D02*
D03*
X44100D02*
D03*
X44900D02*
D03*
X45700D02*
D03*
X46500D02*
D03*
X47300Y108200D02*
D03*
X48100D02*
D03*
X48900Y108200D02*
D03*
X49700Y108200D02*
D03*
D188*
X43800Y76700D02*
D03*
Y73700D02*
D03*
Y69200D02*
D03*
Y66200D02*
D03*
Y58700D02*
D03*
Y61700D02*
D03*
X43900Y84200D02*
D03*
Y81200D02*
D03*
D189*
X45400Y75200D02*
D03*
Y67700D02*
D03*
Y60200D02*
D03*
X45500Y82700D02*
D03*
D190*
X66850Y98700D02*
D03*
X67350D02*
D03*
X67850D02*
D03*
X68350D02*
D03*
X68850D02*
D03*
X69350D02*
D03*
X69850D02*
D03*
X70350D02*
D03*
X70850D02*
D03*
X71350D02*
D03*
X71850D02*
D03*
X72350D02*
D03*
X72850D02*
D03*
X73350D02*
D03*
X73850D02*
D03*
X74350D02*
D03*
X74850D02*
D03*
X75350D02*
D03*
X75850D02*
D03*
X76350D02*
D03*
X76850D02*
D03*
X77350D02*
D03*
X77850D02*
D03*
X78350D02*
D03*
X78850D02*
D03*
X79350D02*
D03*
X79850D02*
D03*
X80350D02*
D03*
X80850D02*
D03*
X81350D02*
D03*
X81850D02*
D03*
X82350D02*
D03*
X82850D02*
D03*
X83350D02*
D03*
X83850D02*
D03*
X84350D02*
D03*
X84850D02*
D03*
X85350D02*
D03*
X85850D02*
D03*
X86350D02*
D03*
X86850D02*
D03*
X87350D02*
D03*
X87850D02*
D03*
X88350D02*
D03*
X66850Y123900D02*
D03*
X67350D02*
D03*
X67850D02*
D03*
X68350D02*
D03*
X68850D02*
D03*
X69350D02*
D03*
X69850D02*
D03*
X70350D02*
D03*
X70850D02*
D03*
X71350D02*
D03*
X71850D02*
D03*
X72350D02*
D03*
X72850D02*
D03*
X73350D02*
D03*
X73850D02*
D03*
X74350D02*
D03*
X74850D02*
D03*
X75350D02*
D03*
X75850D02*
D03*
X76350D02*
D03*
X76850D02*
D03*
X77350D02*
D03*
X77850D02*
D03*
X78350D02*
D03*
X78850D02*
D03*
X79350D02*
D03*
X79850D02*
D03*
X80350D02*
D03*
X80850D02*
D03*
X81350D02*
D03*
X81850D02*
D03*
X82350D02*
D03*
X82850D02*
D03*
X83350D02*
D03*
X83850D02*
D03*
X84350D02*
D03*
X84850D02*
D03*
X85350D02*
D03*
X85850D02*
D03*
X86350D02*
D03*
X86850D02*
D03*
X87350D02*
D03*
X87850D02*
D03*
X88350D02*
D03*
D191*
X59000Y110400D02*
D03*
X57400Y108200D02*
D03*
Y110400D02*
D03*
X59000Y108200D02*
D03*
X65700Y60700D02*
D03*
X67300Y62900D02*
D03*
Y60700D02*
D03*
X65700Y62900D02*
D03*
D192*
X48075Y118575D02*
D03*
Y119675D02*
D03*
Y121875D02*
D03*
Y120775D02*
D03*
Y125175D02*
D03*
Y126275D02*
D03*
Y124075D02*
D03*
Y122975D02*
D03*
D193*
X47950Y117375D02*
D03*
D194*
X40350Y117125D02*
D03*
D195*
X38700Y117425D02*
D03*
D196*
X39700Y129075D02*
D03*
D197*
X47950Y128725D02*
D03*
D198*
X37025Y128725D02*
D03*
D199*
X98875Y103000D02*
D03*
X98225D02*
D03*
X97575D02*
D03*
X96925D02*
D03*
X98900Y97625D02*
D03*
X98250D02*
D03*
X97600D02*
D03*
X96950D02*
D03*
D200*
X103300Y128900D02*
D03*
Y132100D02*
D03*
X97800Y128900D02*
D03*
Y132100D02*
D03*
D201*
X34870Y87040D02*
D03*
X32330D02*
D03*
X36140D02*
D03*
X31060D02*
D03*
X34870Y71440D02*
D03*
X32330D02*
D03*
X36140D02*
D03*
X31060D02*
D03*
D202*
X33600Y87040D02*
D03*
Y71440D02*
D03*
D203*
Y80690D02*
D03*
Y65090D02*
D03*
D204*
X74800Y64600D02*
D03*
D205*
X72050Y68250D02*
D03*
X72550D02*
D03*
X73050D02*
D03*
X73550D02*
D03*
X74050D02*
D03*
X74550D02*
D03*
X75050D02*
D03*
X75550D02*
D03*
X76050D02*
D03*
X76550D02*
D03*
X77050D02*
D03*
X77550D02*
D03*
Y60950D02*
D03*
X77050D02*
D03*
X76550D02*
D03*
X76050D02*
D03*
X75550D02*
D03*
X75050D02*
D03*
X74550D02*
D03*
X74050D02*
D03*
X73550D02*
D03*
X73050D02*
D03*
X72550D02*
D03*
X72050D02*
D03*
D206*
X78450Y67350D02*
D03*
Y66850D02*
D03*
Y66350D02*
D03*
Y65850D02*
D03*
Y65350D02*
D03*
Y64850D02*
D03*
Y64350D02*
D03*
Y63850D02*
D03*
Y63350D02*
D03*
Y62850D02*
D03*
Y62350D02*
D03*
Y61850D02*
D03*
X71175D02*
D03*
Y62350D02*
D03*
Y62850D02*
D03*
Y63350D02*
D03*
Y63850D02*
D03*
Y64350D02*
D03*
Y64850D02*
D03*
Y65350D02*
D03*
Y65850D02*
D03*
Y66350D02*
D03*
Y66850D02*
D03*
D207*
X71150Y67350D02*
D03*
D208*
X142100Y79500D02*
D03*
X143050D02*
D03*
X144000D02*
D03*
X142100Y82000D02*
D03*
X144000D02*
D03*
D209*
X149100Y75000D02*
D03*
D210*
X145700D02*
D03*
D211*
X173278Y116822D02*
D03*
X171050Y117706D02*
D03*
X172394Y119050D02*
D03*
D212*
X183600Y113400D02*
D03*
D213*
X184700D02*
D03*
X185800D02*
D03*
X186900D02*
D03*
X188000D02*
D03*
X189100D02*
D03*
X190200D02*
D03*
X193200D02*
D03*
X194300D02*
D03*
X195400D02*
D03*
X196500D02*
D03*
X197600D02*
D03*
X183600Y125600D02*
D03*
X184700D02*
D03*
X185800D02*
D03*
X186900D02*
D03*
X188000D02*
D03*
X189100D02*
D03*
X190200Y125600D02*
D03*
X193200D02*
D03*
X194300Y125600D02*
D03*
X195400D02*
D03*
X196500D02*
D03*
X197600D02*
D03*
D214*
X189800Y108300D02*
D03*
X192000Y109250D02*
D03*
Y107350D02*
D03*
D215*
X111625Y80750D02*
D03*
Y80100D02*
D03*
Y79450D02*
D03*
Y78800D02*
D03*
X117000Y80775D02*
D03*
Y80125D02*
D03*
Y79475D02*
D03*
Y78825D02*
D03*
D216*
X115450Y109200D02*
D03*
X113600D02*
D03*
Y109850D02*
D03*
X115450Y110500D02*
D03*
D217*
X113600D02*
D03*
D218*
X141200Y55350D02*
D03*
Y56850D02*
D03*
D219*
X174793Y75007D02*
D03*
X175146Y74654D02*
D03*
D220*
X170900Y80800D02*
D03*
X170400D02*
D03*
D221*
X173040Y67200D02*
D03*
X170500D02*
D03*
X175580D02*
D03*
X178120D02*
D03*
X180660D02*
D03*
X155300Y122500D02*
D03*
X161800Y67200D02*
D03*
X164340D02*
D03*
X187600Y68240D02*
D03*
Y65700D02*
D03*
Y70780D02*
D03*
Y73320D02*
D03*
Y86020D02*
D03*
Y88560D02*
D03*
Y83480D02*
D03*
Y80940D02*
D03*
Y75860D02*
D03*
Y78400D02*
D03*
Y93640D02*
D03*
Y91100D02*
D03*
Y96180D02*
D03*
Y98720D02*
D03*
Y101260D02*
D03*
X164300Y116460D02*
D03*
Y111060D02*
D03*
Y105660D02*
D03*
D222*
X183200Y67200D02*
D03*
X152760Y122500D02*
D03*
X166880Y67200D02*
D03*
D223*
X187600Y103800D02*
D03*
X164300Y119000D02*
D03*
Y113600D02*
D03*
Y108200D02*
D03*
D224*
X177700Y128300D02*
D03*
D225*
X172700D02*
D03*
X102600Y123800D02*
D03*
X122600D02*
D03*
D226*
X29400Y58400D02*
D03*
X196400Y131400D02*
D03*
X29400D02*
D03*
X196400Y58400D02*
D03*
X116100Y91500D02*
D03*
M02*
