M48
;Layer_Color=9474304
;FILE_FORMAT=4:3
METRIC,LZ
;TYPE=PLATED
T1F00S00C0.300
T2F00S00C1.300
%
T01
X0206Y01328
X02062Y01403
X01981Y01503
X01779
X01754Y01439
X01654Y01403
X01653Y01328
X01858
X01857Y01404
X01549Y01439
X01577Y01504
X0137
X01447Y01403
X01446Y01328
X0124
X01242Y01403
X01135Y01359
X01038Y01328
X01037Y01404
X00934Y01439
X00962Y01504
X00832Y01434
X00834Y01394
X00833Y01328
X01164Y01504
X00757
X0075Y01446
X00741Y01422
X0074Y01356
X00769Y01368
X0068Y01372
X00663Y01389
X00667Y01412
X00707Y01477
X00615Y014725
X00601Y0148
X00583Y01453
X00575Y01506
X00523Y01495
X00309Y01499
Y01324
T02
X019995Y01388
Y01438
X021245
Y01388
X019195Y01388
Y01438
X017945
Y01388
X017145
Y01438
X015895
Y01388
X015095
Y01438
X013845
Y01388
X013045
Y01438
X011795
Y01388
X010995
Y01438
X009745
Y01388
X008945
Y01438
X007695
Y01388
X006895
Y01438
X005645
Y01388
M30
