G04 Layer_Color=65535*
%FSLAX43Y43*%
%MOMM*%
G71*
G01*
G75*
%ADD17C,0.200*%
%ADD18C,0.100*%
D17*
X205000Y135000D02*
Y135700D01*
X204500Y136200D02*
X205000Y135700D01*
X204500Y136200D02*
Y146400D01*
X205000Y146900D01*
Y147600D01*
X207400D01*
X205000Y135000D02*
X207400D01*
Y135700D01*
X207900Y136200D01*
Y146500D01*
X207700Y146700D02*
X207900Y146500D01*
X207700Y146700D02*
Y146700D01*
X207400Y147000D02*
X207700Y146700D01*
X207400Y147000D02*
Y147600D01*
X184500Y135000D02*
Y135700D01*
X184000Y136200D02*
X184500Y135700D01*
X184000Y136200D02*
Y146400D01*
X184500Y146900D01*
Y147600D01*
X186900D01*
X184500Y135000D02*
X186900D01*
Y135700D01*
X187400Y136200D01*
Y146500D01*
X187200Y146700D02*
X187400Y146500D01*
X187200Y146700D02*
Y146700D01*
X186900Y147000D02*
X187200Y146700D01*
X186900Y147000D02*
Y147600D01*
X164000Y135000D02*
Y135700D01*
X163500Y136200D02*
X164000Y135700D01*
X163500Y136200D02*
Y146400D01*
X164000Y146900D01*
Y147600D01*
X166400D01*
X164000Y135000D02*
X166400D01*
Y135700D01*
X166900Y136200D01*
Y146500D01*
X166700Y146700D02*
X166900Y146500D01*
X166700Y146700D02*
Y146700D01*
X166400Y147000D02*
X166700Y146700D01*
X166400Y147000D02*
Y147600D01*
X143500Y135000D02*
Y135700D01*
X143000Y136200D02*
X143500Y135700D01*
X143000Y136200D02*
Y146400D01*
X143500Y146900D01*
Y147600D01*
X145900D01*
X143500Y135000D02*
X145900D01*
Y135700D01*
X146400Y136200D01*
Y146500D01*
X146200Y146700D02*
X146400Y146500D01*
X146200Y146700D02*
Y146700D01*
X145900Y147000D02*
X146200Y146700D01*
X145900Y147000D02*
Y147600D01*
X123000Y135000D02*
Y135700D01*
X122500Y136200D02*
X123000Y135700D01*
X122500Y136200D02*
Y146400D01*
X123000Y146900D01*
Y147600D01*
X125400D01*
X123000Y135000D02*
X125400D01*
Y135700D01*
X125900Y136200D01*
Y146500D01*
X125700Y146700D02*
X125900Y146500D01*
X125700Y146700D02*
Y146700D01*
X125400Y147000D02*
X125700Y146700D01*
X125400Y147000D02*
Y147600D01*
X102500Y135000D02*
Y135700D01*
X102000Y136200D02*
X102500Y135700D01*
X102000Y136200D02*
Y146400D01*
X102500Y146900D01*
Y147600D01*
X104900D01*
X102500Y135000D02*
X104900D01*
Y135700D01*
X105400Y136200D01*
Y146500D01*
X105200Y146700D02*
X105400Y146500D01*
X105200Y146700D02*
Y146700D01*
X104900Y147000D02*
X105200Y146700D01*
X104900Y147000D02*
Y147600D01*
X82000Y135000D02*
Y135700D01*
X81500Y136200D02*
X82000Y135700D01*
X81500Y136200D02*
Y146400D01*
X82000Y146900D01*
Y147600D01*
X84400D01*
X82000Y135000D02*
X84400D01*
Y135700D01*
X84900Y136200D01*
Y146500D01*
X84700Y146700D02*
X84900Y146500D01*
X84700Y146700D02*
Y146700D01*
X84400Y147000D02*
X84700Y146700D01*
X84400Y147000D02*
Y147600D01*
X61500Y135000D02*
Y135700D01*
X61000Y136200D02*
X61500Y135700D01*
X61000Y136200D02*
Y146400D01*
X61500Y146900D01*
Y147600D01*
X63900D01*
X61500Y135000D02*
X63900D01*
Y135700D01*
X64400Y136200D01*
Y146500D01*
X64200Y146700D02*
X64400Y146500D01*
X64200Y146700D02*
Y146700D01*
X63900Y147000D02*
X64200Y146700D01*
X63900Y147000D02*
Y147600D01*
X43600Y139800D02*
Y142900D01*
X43500Y139700D02*
X43600Y139800D01*
X43017Y139700D02*
X43500D01*
X42200Y139900D02*
Y142900D01*
Y139900D02*
X42400Y139700D01*
X43017D01*
X42200Y142900D02*
X43600D01*
X208200D02*
X209600D01*
X208400Y139700D02*
X209017D01*
X208200Y139900D02*
X208400Y139700D01*
X208200Y139900D02*
Y142900D01*
X209017Y139700D02*
X209500D01*
X209600Y139800D01*
Y142900D01*
X202800D02*
X204200D01*
X203000Y139700D02*
X203617D01*
X202800Y139900D02*
X203000Y139700D01*
X202800Y139900D02*
Y142900D01*
X203617Y139700D02*
X204100D01*
X204200Y139800D01*
Y142900D01*
X187700D02*
X189100D01*
X187900Y139700D02*
X188517D01*
X187700Y139900D02*
X187900Y139700D01*
X187700Y139900D02*
Y142900D01*
X188517Y139700D02*
X189000D01*
X189100Y139800D01*
Y142900D01*
X182299Y142900D02*
X183699D01*
X182499Y139700D02*
X183116D01*
X182299Y139900D02*
X182499Y139700D01*
X182299Y139900D02*
Y142900D01*
X183116Y139700D02*
X183599D01*
X183699Y139800D01*
Y142900D01*
X167200Y142900D02*
X168600D01*
X167400Y139700D02*
X168017D01*
X167200Y139900D02*
X167400Y139700D01*
X167200Y139900D02*
Y142900D01*
X168017Y139700D02*
X168500D01*
X168600Y139800D01*
Y142900D01*
X161800D02*
X163200D01*
X162000Y139700D02*
X162617D01*
X161800Y139900D02*
X162000Y139700D01*
X161800Y139900D02*
Y142900D01*
X162617Y139700D02*
X163100D01*
X163200Y139800D01*
Y142900D01*
X146700D02*
X148100D01*
X146900Y139700D02*
X147517D01*
X146700Y139900D02*
X146900Y139700D01*
X146700Y139900D02*
Y142900D01*
X147517Y139700D02*
X148000D01*
X148100Y139800D01*
Y142900D01*
X141300D02*
X142700D01*
X141500Y139700D02*
X142117D01*
X141300Y139900D02*
X141500Y139700D01*
X141300Y139900D02*
Y142900D01*
X142117Y139700D02*
X142600D01*
X142700Y139800D01*
Y142900D01*
X126200D02*
X127600D01*
X126400Y139700D02*
X127017D01*
X126200Y139900D02*
X126400Y139700D01*
X126200Y139900D02*
Y142900D01*
X127017Y139700D02*
X127500D01*
X127600Y139800D01*
Y142900D01*
X120800D02*
X122200D01*
X121000Y139700D02*
X121617D01*
X120800Y139900D02*
X121000Y139700D01*
X120800Y139900D02*
Y142900D01*
X121617Y139700D02*
X122100D01*
X122200Y139800D01*
Y142900D01*
X105700D02*
X107100D01*
X105900Y139700D02*
X106517D01*
X105700Y139900D02*
X105900Y139700D01*
X105700Y139900D02*
Y142900D01*
X106517Y139700D02*
X107000D01*
X107100Y139800D01*
Y142900D01*
X100300D02*
X101700D01*
X100500Y139700D02*
X101117D01*
X100300Y139900D02*
X100500Y139700D01*
X100300Y139900D02*
Y142900D01*
X101117Y139700D02*
X101600D01*
X101700Y139800D01*
Y142900D01*
X85200D02*
X86600D01*
X85400Y139700D02*
X86017D01*
X85200Y139900D02*
X85400Y139700D01*
X85200Y139900D02*
Y142900D01*
X86017Y139700D02*
X86500D01*
X86600Y139800D01*
Y142900D01*
X79800D02*
X81200D01*
X80000Y139700D02*
X80617D01*
X79800Y139900D02*
X80000Y139700D01*
X79800Y139900D02*
Y142900D01*
X80617Y139700D02*
X81100D01*
X81200Y139800D01*
Y142900D01*
X64700D02*
X66100D01*
X64900Y139700D02*
X65517D01*
X64700Y139900D02*
X64900Y139700D01*
X64700Y139900D02*
Y142900D01*
X65517Y139700D02*
X66000D01*
X66100Y139800D01*
Y142900D01*
X59300D02*
X60700D01*
X59500Y139700D02*
X60117Y139700D01*
X59300Y139900D02*
X59500Y139700D01*
X59300Y139900D02*
Y142900D01*
X60117Y139700D02*
X60600D01*
X60700Y139800D01*
Y142900D01*
X40600Y139700D02*
X42000D01*
X41183Y142900D02*
X41800Y142900D01*
X42000Y142700D01*
Y139700D02*
Y142700D01*
X40700Y142900D02*
X41183D01*
X40600Y142800D02*
X40700Y142900D01*
X40600Y139700D02*
Y142800D01*
D18*
X208300Y145650D02*
X209500D01*
Y143150D02*
Y145650D01*
X208300Y143150D02*
Y145650D01*
Y143150D02*
X209500D01*
X202900Y145650D02*
X204100D01*
Y143150D02*
Y145650D01*
X202900Y143150D02*
Y145650D01*
Y143150D02*
X204100D01*
X187800Y145650D02*
X189000D01*
Y143150D02*
Y145650D01*
X187800Y143150D02*
Y145650D01*
Y143150D02*
X189000D01*
X182400Y145650D02*
X183600D01*
Y143150D02*
Y145650D01*
X182400Y143150D02*
Y145650D01*
Y143150D02*
X183600D01*
X161900Y145650D02*
X163100D01*
Y143150D02*
Y145650D01*
X161900Y143150D02*
Y145650D01*
Y143150D02*
X163100D01*
X126300Y145650D02*
X127500D01*
Y143150D02*
Y145650D01*
X126300Y143150D02*
Y145650D01*
Y143150D02*
X127500D01*
X120900Y145650D02*
X122100D01*
Y143150D02*
Y145650D01*
X120900Y143150D02*
Y145650D01*
Y143150D02*
X122100D01*
X105800Y145650D02*
X107000D01*
Y143150D02*
Y145650D01*
X105800Y143150D02*
Y145650D01*
Y143150D02*
X107000D01*
X100400Y145650D02*
X101600D01*
Y143150D02*
Y145650D01*
X100400Y143150D02*
Y145650D01*
Y143150D02*
X101600D01*
X85300Y145650D02*
X86500D01*
Y143150D02*
Y145650D01*
X85300Y143150D02*
Y145650D01*
Y143150D02*
X86500D01*
X79900Y145650D02*
X81100D01*
Y143150D02*
Y145650D01*
X79900Y143150D02*
Y145650D01*
Y143150D02*
X81100D01*
X59425Y145625D02*
X60625D01*
Y143125D02*
Y145625D01*
X59425Y143125D02*
Y145625D01*
Y143125D02*
X60625D01*
X64800Y145625D02*
X66000D01*
Y143125D02*
Y145625D01*
X64800Y143125D02*
Y145625D01*
Y143125D02*
X66000D01*
X146800Y145650D02*
X148000D01*
Y143150D02*
Y145650D01*
X146800Y143150D02*
Y145650D01*
Y143150D02*
X148000D01*
X141400Y145650D02*
X142600D01*
Y143150D02*
Y145650D01*
X141400Y143150D02*
Y145650D01*
Y143150D02*
X142600D01*
X167300Y145650D02*
X168500D01*
Y143150D02*
Y145650D01*
X167300Y143150D02*
Y145650D01*
Y143150D02*
X168500D01*
X59750Y147200D02*
Y148400D01*
X57250Y147200D02*
X59750D01*
X57250Y148400D02*
X59750D01*
X57250Y147200D02*
Y148400D01*
X59750Y145800D02*
Y147000D01*
X57250Y145800D02*
X59750D01*
X57250Y147000D02*
X59750D01*
X57250Y145800D02*
Y147000D01*
X58150Y140550D02*
X58950D01*
X58550D01*
Y141083D01*
X58150D01*
X58950D01*
X58150Y141350D02*
X58950D01*
Y141883D01*
Y142149D02*
Y142416D01*
Y142283D01*
X58150D01*
X58284Y142149D01*
X78750Y140500D02*
X79550D01*
X79150D01*
Y141033D01*
X78750D01*
X79550D01*
X78750Y141300D02*
X79550D01*
Y141833D01*
Y142633D02*
Y142099D01*
X79017Y142633D01*
X78884D01*
X78750Y142499D01*
Y142233D01*
X78884Y142099D01*
X67100Y140200D02*
X67900D01*
X67500D01*
Y140733D01*
X67100D01*
X67900D01*
X67100Y141000D02*
X67900D01*
Y141533D01*
X67234Y141799D02*
X67100Y141933D01*
Y142199D01*
X67234Y142333D01*
X67367D01*
X67500Y142199D01*
Y142066D01*
Y142199D01*
X67633Y142333D01*
X67767D01*
X67900Y142199D01*
Y141933D01*
X67767Y141799D01*
X86900Y140500D02*
X87700D01*
X87300D01*
Y141033D01*
X86900D01*
X87700D01*
X86900Y141300D02*
X87700D01*
Y141833D01*
Y142499D02*
X86900D01*
X87300Y142099D01*
Y142633D01*
X99225Y140400D02*
X100025D01*
X99625D01*
Y140933D01*
X99225D01*
X100025D01*
X99225Y141200D02*
X100025D01*
Y141733D01*
X99225Y142533D02*
Y141999D01*
X99625D01*
X99492Y142266D01*
Y142399D01*
X99625Y142533D01*
X99892D01*
X100025Y142399D01*
Y142133D01*
X99892Y141999D01*
X119700Y140400D02*
X120500D01*
X120100D01*
Y140933D01*
X119700D01*
X120500D01*
X119700Y141200D02*
X120500D01*
Y141733D01*
X119700Y142533D02*
X119834Y142266D01*
X120100Y141999D01*
X120367D01*
X120500Y142133D01*
Y142399D01*
X120367Y142533D01*
X120233D01*
X120100Y142399D01*
Y141999D01*
X107350Y140225D02*
X108150D01*
X107750D01*
Y140758D01*
X107350D01*
X108150D01*
X107350Y141025D02*
X108150D01*
Y141558D01*
X107350Y141824D02*
Y142358D01*
X107484D01*
X108017Y141824D01*
X108150D01*
X127900Y140200D02*
X128700D01*
X128300D01*
Y140733D01*
X127900D01*
X128700D01*
X127900Y141000D02*
X128700D01*
Y141533D01*
X128034Y141799D02*
X127900Y141933D01*
Y142199D01*
X128034Y142333D01*
X128167D01*
X128300Y142199D01*
X128433Y142333D01*
X128567D01*
X128700Y142199D01*
Y141933D01*
X128567Y141799D01*
X128433D01*
X128300Y141933D01*
X128167Y141799D01*
X128034D01*
X128300Y141933D02*
Y142199D01*
X140100Y140500D02*
X140900D01*
X140500D01*
Y141033D01*
X140100D01*
X140900D01*
X140100Y141300D02*
X140900D01*
Y141833D01*
X140767Y142099D02*
X140900Y142233D01*
Y142499D01*
X140767Y142633D01*
X140234D01*
X140100Y142499D01*
Y142233D01*
X140234Y142099D01*
X140367D01*
X140500Y142233D01*
Y142633D01*
X160700Y139900D02*
X161500D01*
X161100D01*
Y140433D01*
X160700D01*
X161500D01*
X160700Y140700D02*
X161500D01*
Y141233D01*
Y141499D02*
Y141766D01*
Y141633D01*
X160700D01*
X160834Y141499D01*
Y142166D02*
X160700Y142299D01*
Y142566D01*
X160834Y142699D01*
X161367D01*
X161500Y142566D01*
Y142299D01*
X161367Y142166D01*
X160834D01*
X148500Y140500D02*
X149300D01*
X148900D01*
Y141033D01*
X148500D01*
X149300D01*
X148500Y141300D02*
X149300D01*
Y141833D01*
Y142099D02*
Y142366D01*
Y142233D01*
X148500D01*
X148634Y142099D01*
X149300Y142766D02*
Y143033D01*
Y142899D01*
X148500D01*
X148634Y142766D01*
X168900Y140000D02*
X169700D01*
X169300D01*
Y140533D01*
X168900D01*
X169700D01*
X168900Y140800D02*
X169700D01*
Y141333D01*
Y141599D02*
Y141866D01*
Y141733D01*
X168900D01*
X169034Y141599D01*
X169700Y142799D02*
Y142266D01*
X169167Y142799D01*
X169034D01*
X168900Y142666D01*
Y142399D01*
X169034Y142266D01*
X181200Y140000D02*
X182000D01*
X181600D01*
Y140533D01*
X181200D01*
X182000D01*
X181200Y140800D02*
X182000D01*
Y141333D01*
Y141599D02*
Y141866D01*
Y141733D01*
X181200D01*
X181334Y141599D01*
Y142266D02*
X181200Y142399D01*
Y142666D01*
X181334Y142799D01*
X181467D01*
X181600Y142666D01*
Y142533D01*
Y142666D01*
X181733Y142799D01*
X181867D01*
X182000Y142666D01*
Y142399D01*
X181867Y142266D01*
X201700Y140000D02*
X202500D01*
X202100D01*
Y140533D01*
X201700D01*
X202500D01*
X201700Y140800D02*
X202500D01*
Y141333D01*
Y141599D02*
Y141866D01*
Y141733D01*
X201700D01*
X201834Y141599D01*
X202500Y142666D02*
X201700D01*
X202100Y142266D01*
Y142799D01*
X189400Y140000D02*
X190200D01*
X189800D01*
Y140533D01*
X189400D01*
X190200D01*
X189400Y140800D02*
X190200D01*
Y141333D01*
Y141599D02*
Y141866D01*
Y141733D01*
X189400D01*
X189534Y141599D01*
X189400Y142799D02*
Y142266D01*
X189800D01*
X189667Y142533D01*
Y142666D01*
X189800Y142799D01*
X190067D01*
X190200Y142666D01*
Y142399D01*
X190067Y142266D01*
X209900Y140100D02*
X210700D01*
X210300D01*
Y140633D01*
X209900D01*
X210700D01*
X209900Y140900D02*
X210700D01*
Y141433D01*
Y141699D02*
Y141966D01*
Y141833D01*
X209900D01*
X210034Y141699D01*
X209900Y142899D02*
X210034Y142633D01*
X210300Y142366D01*
X210567D01*
X210700Y142499D01*
Y142766D01*
X210567Y142899D01*
X210433D01*
X210300Y142766D01*
Y142366D01*
X42500Y136600D02*
X43300D01*
X42900D01*
Y137133D01*
X42500D01*
X43300D01*
X42500Y137400D02*
X43300D01*
Y137933D01*
Y138199D02*
Y138466D01*
Y138333D01*
X42500D01*
X42634Y138199D01*
X42500Y138866D02*
Y139399D01*
X42634D01*
X43167Y138866D01*
X43300D01*
X59075Y143475D02*
X58275D01*
Y143875D01*
X58409Y144008D01*
X58675D01*
X58808Y143875D01*
Y143475D01*
Y143742D02*
X59075Y144008D01*
Y144275D02*
Y144541D01*
Y144408D01*
X58275D01*
X58409Y144275D01*
X79850Y145825D02*
Y146625D01*
X80250D01*
X80383Y146491D01*
Y146225D01*
X80250Y146092D01*
X79850D01*
X80117D02*
X80383Y145825D01*
X81183D02*
X80650D01*
X81183Y146358D01*
Y146491D01*
X81050Y146625D01*
X80783D01*
X80650Y146491D01*
X67125Y143450D02*
X66325D01*
Y143850D01*
X66459Y143983D01*
X66725D01*
X66858Y143850D01*
Y143450D01*
Y143717D02*
X67125Y143983D01*
X66459Y144250D02*
X66325Y144383D01*
Y144650D01*
X66459Y144783D01*
X66592D01*
X66725Y144650D01*
Y144516D01*
Y144650D01*
X66858Y144783D01*
X66992D01*
X67125Y144650D01*
Y144383D01*
X66992Y144250D01*
X85350Y145850D02*
Y146650D01*
X85750D01*
X85883Y146516D01*
Y146250D01*
X85750Y146117D01*
X85350D01*
X85617D02*
X85883Y145850D01*
X86550D02*
Y146650D01*
X86150Y146250D01*
X86683D01*
X100300Y145850D02*
Y146650D01*
X100700D01*
X100833Y146516D01*
Y146250D01*
X100700Y146117D01*
X100300D01*
X100567D02*
X100833Y145850D01*
X101633Y146650D02*
X101100D01*
Y146250D01*
X101366Y146383D01*
X101500D01*
X101633Y146250D01*
Y145983D01*
X101500Y145850D01*
X101233D01*
X101100Y145983D01*
X120700Y145800D02*
Y146600D01*
X121100D01*
X121233Y146466D01*
Y146200D01*
X121100Y146067D01*
X120700D01*
X120967D02*
X121233Y145800D01*
X122033Y146600D02*
X121766Y146466D01*
X121500Y146200D01*
Y145933D01*
X121633Y145800D01*
X121900D01*
X122033Y145933D01*
Y146067D01*
X121900Y146200D01*
X121500D01*
X105900Y145900D02*
Y146700D01*
X106300D01*
X106433Y146566D01*
Y146300D01*
X106300Y146167D01*
X105900D01*
X106167D02*
X106433Y145900D01*
X106700Y146700D02*
X107233D01*
Y146566D01*
X106700Y146033D01*
Y145900D01*
X126400D02*
Y146700D01*
X126800D01*
X126933Y146566D01*
Y146300D01*
X126800Y146167D01*
X126400D01*
X126667D02*
X126933Y145900D01*
X127200Y146566D02*
X127333Y146700D01*
X127600D01*
X127733Y146566D01*
Y146433D01*
X127600Y146300D01*
X127733Y146167D01*
Y146033D01*
X127600Y145900D01*
X127333D01*
X127200Y146033D01*
Y146167D01*
X127333Y146300D01*
X127200Y146433D01*
Y146566D01*
X127333Y146300D02*
X127600D01*
X141452Y145899D02*
Y146699D01*
X141852D01*
X141985Y146565D01*
Y146299D01*
X141852Y146166D01*
X141452D01*
X141719D02*
X141985Y145899D01*
X142252Y146032D02*
X142385Y145899D01*
X142652D01*
X142785Y146032D01*
Y146565D01*
X142652Y146699D01*
X142385D01*
X142252Y146565D01*
Y146432D01*
X142385Y146299D01*
X142785D01*
X161000Y145900D02*
Y146700D01*
X161400D01*
X161533Y146566D01*
Y146300D01*
X161400Y146167D01*
X161000D01*
X161267D02*
X161533Y145900D01*
X161800D02*
X162066D01*
X161933D01*
Y146700D01*
X161800Y146566D01*
X162466D02*
X162599Y146700D01*
X162866D01*
X162999Y146566D01*
Y146033D01*
X162866Y145900D01*
X162599D01*
X162466Y146033D01*
Y146566D01*
X146850Y145899D02*
Y146699D01*
X147250D01*
X147383Y146565D01*
Y146299D01*
X147250Y146166D01*
X146850D01*
X147116D02*
X147383Y145899D01*
X147650D02*
X147916D01*
X147783D01*
Y146699D01*
X147650Y146565D01*
X148316Y145899D02*
X148583D01*
X148449D01*
Y146699D01*
X148316Y146565D01*
X167356Y145912D02*
Y146712D01*
X167756D01*
X167889Y146579D01*
Y146312D01*
X167756Y146179D01*
X167356D01*
X167622D02*
X167889Y145912D01*
X168155D02*
X168422D01*
X168289D01*
Y146712D01*
X168155Y146579D01*
X169355Y145912D02*
X168822D01*
X169355Y146445D01*
Y146579D01*
X169222Y146712D01*
X168955D01*
X168822Y146579D01*
X181600Y145900D02*
Y146700D01*
X182000D01*
X182133Y146566D01*
Y146300D01*
X182000Y146167D01*
X181600D01*
X181867D02*
X182133Y145900D01*
X182400D02*
X182666D01*
X182533D01*
Y146700D01*
X182400Y146566D01*
X183066D02*
X183199Y146700D01*
X183466D01*
X183599Y146566D01*
Y146433D01*
X183466Y146300D01*
X183333D01*
X183466D01*
X183599Y146167D01*
Y146033D01*
X183466Y145900D01*
X183199D01*
X183066Y146033D01*
X202200Y145900D02*
Y146700D01*
X202600D01*
X202733Y146566D01*
Y146300D01*
X202600Y146167D01*
X202200D01*
X202467D02*
X202733Y145900D01*
X203000D02*
X203266D01*
X203133D01*
Y146700D01*
X203000Y146566D01*
X204066Y145900D02*
Y146700D01*
X203666Y146300D01*
X204199D01*
X187800Y145900D02*
Y146700D01*
X188200D01*
X188333Y146566D01*
Y146300D01*
X188200Y146167D01*
X187800D01*
X188067D02*
X188333Y145900D01*
X188600D02*
X188866D01*
X188733D01*
Y146700D01*
X188600Y146566D01*
X189799Y146700D02*
X189266D01*
Y146300D01*
X189533Y146433D01*
X189666D01*
X189799Y146300D01*
Y146033D01*
X189666Y145900D01*
X189399D01*
X189266Y146033D01*
X208300Y145800D02*
Y146600D01*
X208700D01*
X208833Y146466D01*
Y146200D01*
X208700Y146067D01*
X208300D01*
X208567D02*
X208833Y145800D01*
X209100D02*
X209366D01*
X209233D01*
Y146600D01*
X209100Y146466D01*
X210299Y146600D02*
X210033Y146466D01*
X209766Y146200D01*
Y145933D01*
X209899Y145800D01*
X210166D01*
X210299Y145933D01*
Y146067D01*
X210166Y146200D01*
X209766D01*
X61535Y148979D02*
X61401Y149112D01*
X61135D01*
X61001Y148979D01*
Y148845D01*
X61135Y148712D01*
X61401D01*
X61535Y148579D01*
Y148446D01*
X61401Y148312D01*
X61135D01*
X61001Y148446D01*
X61801Y149112D02*
Y148312D01*
X62201D01*
X62334Y148446D01*
Y148579D01*
X62201Y148712D01*
X61801D01*
X62201D01*
X62334Y148845D01*
Y148979D01*
X62201Y149112D01*
X61801D01*
X62601Y148312D02*
X62867D01*
X62734D01*
Y149112D01*
X62601Y148979D01*
X82733Y148566D02*
X82600Y148700D01*
X82333D01*
X82200Y148566D01*
Y148433D01*
X82333Y148300D01*
X82600D01*
X82733Y148167D01*
Y148033D01*
X82600Y147900D01*
X82333D01*
X82200Y148033D01*
X83000Y148700D02*
Y147900D01*
X83400D01*
X83533Y148033D01*
Y148167D01*
X83400Y148300D01*
X83000D01*
X83400D01*
X83533Y148433D01*
Y148566D01*
X83400Y148700D01*
X83000D01*
X84333Y147900D02*
X83799D01*
X84333Y148433D01*
Y148566D01*
X84199Y148700D01*
X83933D01*
X83799Y148566D01*
X102545Y148979D02*
X102411Y149112D01*
X102145D01*
X102012Y148979D01*
Y148845D01*
X102145Y148712D01*
X102411D01*
X102545Y148579D01*
Y148446D01*
X102411Y148312D01*
X102145D01*
X102012Y148446D01*
X102811Y149112D02*
Y148312D01*
X103211D01*
X103345Y148446D01*
Y148579D01*
X103211Y148712D01*
X102811D01*
X103211D01*
X103345Y148845D01*
Y148979D01*
X103211Y149112D01*
X102811D01*
X103611Y148979D02*
X103744Y149112D01*
X104011D01*
X104144Y148979D01*
Y148845D01*
X104011Y148712D01*
X103878D01*
X104011D01*
X104144Y148579D01*
Y148446D01*
X104011Y148312D01*
X103744D01*
X103611Y148446D01*
X123733Y148566D02*
X123600Y148700D01*
X123333D01*
X123200Y148566D01*
Y148433D01*
X123333Y148300D01*
X123600D01*
X123733Y148167D01*
Y148033D01*
X123600Y147900D01*
X123333D01*
X123200Y148033D01*
X124000Y148700D02*
Y147900D01*
X124400D01*
X124533Y148033D01*
Y148167D01*
X124400Y148300D01*
X124000D01*
X124400D01*
X124533Y148433D01*
Y148566D01*
X124400Y148700D01*
X124000D01*
X125199Y147900D02*
Y148700D01*
X124799Y148300D01*
X125333D01*
X143536Y148979D02*
X143403Y149112D01*
X143136D01*
X143003Y148979D01*
Y148845D01*
X143136Y148712D01*
X143403D01*
X143536Y148579D01*
Y148446D01*
X143403Y148312D01*
X143136D01*
X143003Y148446D01*
X143803Y149112D02*
Y148312D01*
X144202D01*
X144336Y148446D01*
Y148579D01*
X144202Y148712D01*
X143803D01*
X144202D01*
X144336Y148845D01*
Y148979D01*
X144202Y149112D01*
X143803D01*
X145135D02*
X144602D01*
Y148712D01*
X144869Y148845D01*
X145002D01*
X145135Y148712D01*
Y148446D01*
X145002Y148312D01*
X144736D01*
X144602Y148446D01*
X164045Y148979D02*
X163911Y149112D01*
X163645D01*
X163512Y148979D01*
Y148845D01*
X163645Y148712D01*
X163911D01*
X164045Y148579D01*
Y148446D01*
X163911Y148312D01*
X163645D01*
X163512Y148446D01*
X164311Y149112D02*
Y148312D01*
X164711D01*
X164844Y148446D01*
Y148579D01*
X164711Y148712D01*
X164311D01*
X164711D01*
X164844Y148845D01*
Y148979D01*
X164711Y149112D01*
X164311D01*
X165644D02*
X165378Y148979D01*
X165111Y148712D01*
Y148446D01*
X165244Y148312D01*
X165511D01*
X165644Y148446D01*
Y148579D01*
X165511Y148712D01*
X165111D01*
X184529Y148979D02*
X184396Y149112D01*
X184129D01*
X183996Y148979D01*
Y148845D01*
X184129Y148712D01*
X184396D01*
X184529Y148579D01*
Y148446D01*
X184396Y148312D01*
X184129D01*
X183996Y148446D01*
X184795Y149112D02*
Y148312D01*
X185195D01*
X185329Y148446D01*
Y148579D01*
X185195Y148712D01*
X184795D01*
X185195D01*
X185329Y148845D01*
Y148979D01*
X185195Y149112D01*
X184795D01*
X185595D02*
X186128D01*
Y148979D01*
X185595Y148446D01*
Y148312D01*
X205038Y148979D02*
X204904Y149112D01*
X204638D01*
X204504Y148979D01*
Y148845D01*
X204638Y148712D01*
X204904D01*
X205038Y148579D01*
Y148446D01*
X204904Y148312D01*
X204638D01*
X204504Y148446D01*
X205304Y149112D02*
Y148312D01*
X205704D01*
X205837Y148446D01*
Y148579D01*
X205704Y148712D01*
X205304D01*
X205704D01*
X205837Y148845D01*
Y148979D01*
X205704Y149112D01*
X205304D01*
X206104Y148979D02*
X206237Y149112D01*
X206504D01*
X206637Y148979D01*
Y148845D01*
X206504Y148712D01*
X206637Y148579D01*
Y148446D01*
X206504Y148312D01*
X206237D01*
X206104Y148446D01*
Y148579D01*
X206237Y148712D01*
X206104Y148845D01*
Y148979D01*
X206237Y148712D02*
X206504D01*
X41000Y136600D02*
X41800D01*
X41400D01*
Y137133D01*
X41000D01*
X41800D01*
X41000Y137400D02*
X41800D01*
Y137933D01*
Y138199D02*
Y138466D01*
Y138333D01*
X41000D01*
X41134Y138199D01*
Y138866D02*
X41000Y138999D01*
Y139266D01*
X41134Y139399D01*
X41267D01*
X41400Y139266D01*
X41533Y139399D01*
X41667D01*
X41800Y139266D01*
Y138999D01*
X41667Y138866D01*
X41533D01*
X41400Y138999D01*
X41267Y138866D01*
X41134D01*
X41400Y138999D02*
Y139266D01*
X54900Y145900D02*
Y146700D01*
X55300D01*
X55433Y146566D01*
Y146300D01*
X55300Y146167D01*
X54900D01*
X55167D02*
X55433Y145900D01*
X55700D02*
X55966D01*
X55833D01*
Y146700D01*
X55700Y146566D01*
X56366Y146700D02*
X56899D01*
Y146566D01*
X56366Y146033D01*
Y145900D01*
X54900Y147300D02*
Y148100D01*
X55300D01*
X55433Y147966D01*
Y147700D01*
X55300Y147567D01*
X54900D01*
X55167D02*
X55433Y147300D01*
X55700D02*
X55966D01*
X55833D01*
Y148100D01*
X55700Y147966D01*
X56366D02*
X56499Y148100D01*
X56766D01*
X56899Y147966D01*
Y147833D01*
X56766Y147700D01*
X56899Y147567D01*
Y147433D01*
X56766Y147300D01*
X56499D01*
X56366Y147433D01*
Y147567D01*
X56499Y147700D01*
X56366Y147833D01*
Y147966D01*
X56499Y147700D02*
X56766D01*
X30400Y153200D02*
G03*
X29400Y152200I0J-1000D01*
G01*
Y132400D02*
G03*
X30400Y131400I1000J0D01*
G01*
X218200D02*
G03*
X219200Y132400I0J1000D01*
G01*
Y152200D02*
G03*
X218200Y153200I-1000J0D01*
G01*
X29400Y132400D02*
Y152200D01*
X219200Y132400D02*
Y152200D01*
X30400Y153200D02*
X218200D01*
X30400Y131400D02*
X218200D01*
M02*
