G04 Layer_Physical_Order=1*
G04 Layer_Color=255*
%FSLAX43Y43*%
%MOMM*%
G71*
G01*
G75*
%ADD10R,1.500X3.000*%
%ADD11R,0.900X0.700*%
%ADD12R,1.100X0.800*%
%ADD13R,0.700X0.900*%
%ADD14C,1.000*%
%ADD15C,0.300*%
%ADD16C,0.500*%
%ADD17C,0.200*%
%ADD18C,0.100*%
%ADD19C,2.000*%
%ADD20C,0.700*%
G36*
X219100Y152400D02*
Y148100D01*
Y132200D01*
X218400Y131500D01*
Y131500D01*
X30200D01*
X29500Y132200D01*
Y152400D01*
X30200Y153100D01*
X218400D01*
X219100Y152400D01*
D02*
G37*
%LPC*%
G36*
X57500Y151212D02*
X57480Y151208D01*
X48300D01*
X48144Y151177D01*
X48012Y151088D01*
X40012Y143088D01*
X39923Y142956D01*
X39892Y142800D01*
X39892Y142800D01*
Y141400D01*
X39892Y141400D01*
X39923Y141244D01*
X40012Y141112D01*
X40500Y140623D01*
Y139650D01*
X42100D01*
Y139650D01*
X43700D01*
Y140950D01*
X42100D01*
Y140950D01*
X41327D01*
X40754Y141523D01*
X40807Y141650D01*
X42100D01*
Y141650D01*
X43700D01*
Y142950D01*
X43508D01*
Y143131D01*
X46369Y145992D01*
X57150D01*
Y145700D01*
X57711D01*
X57771Y145588D01*
X57735Y145534D01*
X57688Y145300D01*
X57735Y145066D01*
X57839Y144910D01*
X57783Y144783D01*
X57222D01*
X57080Y144892D01*
X56776Y145018D01*
X56450Y145061D01*
X56124Y145018D01*
X55820Y144892D01*
X55558Y144692D01*
X55358Y144430D01*
X55232Y144126D01*
X55189Y143800D01*
X55232Y143474D01*
X55358Y143170D01*
X55558Y142908D01*
X55820Y142708D01*
X56124Y142582D01*
X56450Y142539D01*
X56776Y142582D01*
X57080Y142708D01*
X57342Y142908D01*
X57542Y143170D01*
X57668Y143474D01*
X57711Y143800D01*
X57701Y143872D01*
X57785Y143967D01*
X59325D01*
Y143025D01*
X59229Y142950D01*
X59200D01*
Y141650D01*
X60800D01*
Y142950D01*
X60800D01*
X60725Y143025D01*
Y143967D01*
X64700D01*
Y143025D01*
X64604Y142950D01*
X64600D01*
Y141650D01*
X66111Y141650D01*
X66126Y141650D01*
X66135Y141634D01*
X66194Y141523D01*
X66135Y141434D01*
X66088Y141200D01*
X66112Y141081D01*
X66008Y140954D01*
X65527D01*
Y140427D01*
X66204D01*
Y140657D01*
X66331Y140725D01*
X66466Y140635D01*
X66700Y140588D01*
X66934Y140635D01*
X67133Y140767D01*
X67149Y140792D01*
X79696D01*
Y140427D01*
X80500D01*
X81304D01*
Y140792D01*
X85096D01*
Y140427D01*
X85900D01*
X86704D01*
Y140792D01*
X94800D01*
X94800Y140792D01*
X94826Y140797D01*
X96310Y139314D01*
X96232Y139126D01*
X96189Y138800D01*
X96232Y138474D01*
X96358Y138170D01*
X96558Y137908D01*
X96820Y137708D01*
X97124Y137582D01*
X97450Y137539D01*
X97776Y137582D01*
X97995Y137673D01*
X98150Y137642D01*
X98150Y137642D01*
X102700D01*
Y135050D01*
X104700D01*
Y137642D01*
X109200D01*
X109200Y137642D01*
X109356Y137673D01*
X109374Y137685D01*
X109624Y137582D01*
X109950Y137539D01*
X110276Y137582D01*
X110580Y137708D01*
X110842Y137908D01*
X111042Y138170D01*
X111134Y138392D01*
X116766D01*
X116858Y138170D01*
X117058Y137908D01*
X117320Y137708D01*
X117624Y137582D01*
X117950Y137539D01*
X118276Y137582D01*
X118499Y137674D01*
X118562Y137612D01*
X118562Y137612D01*
X118694Y137523D01*
X118850Y137492D01*
X118850Y137492D01*
X123200D01*
Y135050D01*
X125200D01*
Y137492D01*
X129550D01*
X129550Y137492D01*
X129706Y137523D01*
X129838Y137612D01*
X129901Y137674D01*
X130124Y137582D01*
X130450Y137539D01*
X130776Y137582D01*
X131080Y137708D01*
X131342Y137908D01*
X131542Y138170D01*
X131668Y138474D01*
X131711Y138800D01*
X131668Y139126D01*
X131542Y139430D01*
X131342Y139692D01*
X131080Y139892D01*
X130776Y140018D01*
X130450Y140061D01*
X130124Y140018D01*
X129820Y139892D01*
X129558Y139692D01*
X129358Y139430D01*
X129232Y139126D01*
X129189Y138800D01*
X129232Y138474D01*
X129257Y138413D01*
X129187Y138308D01*
X125200D01*
Y138550D01*
X123200D01*
Y138308D01*
X119213D01*
X119143Y138413D01*
X119168Y138474D01*
X119211Y138800D01*
X119168Y139126D01*
X119042Y139430D01*
X118842Y139692D01*
X118580Y139892D01*
X118276Y140018D01*
X117950Y140061D01*
X117624Y140018D01*
X117320Y139892D01*
X117058Y139692D01*
X116858Y139430D01*
X116766Y139208D01*
X111134D01*
X111042Y139430D01*
X110842Y139692D01*
X110580Y139892D01*
X110276Y140018D01*
X109950Y140061D01*
X109624Y140018D01*
X109320Y139892D01*
X109058Y139692D01*
X108858Y139430D01*
X108732Y139126D01*
X108689Y138800D01*
X108718Y138585D01*
X108606Y138458D01*
X104700D01*
Y138550D01*
X102700D01*
Y138458D01*
X98794D01*
X98682Y138585D01*
X98711Y138800D01*
X98668Y139126D01*
X98542Y139430D01*
X98342Y139692D01*
X98080Y139892D01*
X97776Y140018D01*
X97450Y140061D01*
X97124Y140018D01*
X96866Y139911D01*
X95188Y141588D01*
X95056Y141677D01*
X94900Y141708D01*
X94744Y141677D01*
X94641Y141608D01*
X86809D01*
X86700Y141650D01*
Y142950D01*
X86666D01*
X86600Y143050D01*
Y143992D01*
X88118D01*
X88202Y143897D01*
X88189Y143800D01*
X88232Y143474D01*
X88358Y143170D01*
X88558Y142908D01*
X88820Y142708D01*
X89124Y142582D01*
X89450Y142539D01*
X89776Y142582D01*
X90080Y142708D01*
X90342Y142908D01*
X90542Y143170D01*
X90668Y143474D01*
X90711Y143800D01*
X90668Y144126D01*
X90542Y144430D01*
X90400Y144615D01*
X90463Y144742D01*
X96437D01*
X96500Y144615D01*
X96358Y144430D01*
X96232Y144126D01*
X96189Y143800D01*
X96232Y143474D01*
X96358Y143170D01*
X96558Y142908D01*
X96820Y142708D01*
X97124Y142582D01*
X97450Y142539D01*
X97776Y142582D01*
X98080Y142708D01*
X98342Y142908D01*
X98542Y143170D01*
X98668Y143474D01*
X98711Y143800D01*
X98698Y143897D01*
X98782Y143992D01*
X100300D01*
Y143050D01*
X100234Y142950D01*
X100200D01*
Y141650D01*
X101800D01*
Y142950D01*
X101766D01*
X101700Y143050D01*
Y143992D01*
X105700D01*
Y143050D01*
X105634Y142950D01*
X105600D01*
Y141650D01*
X107200D01*
Y142950D01*
X107166D01*
X107100Y143050D01*
Y143992D01*
X108618D01*
X108702Y143897D01*
X108689Y143800D01*
X108732Y143474D01*
X108858Y143170D01*
X109058Y142908D01*
X109320Y142708D01*
X109624Y142582D01*
X109950Y142539D01*
X110276Y142582D01*
X110580Y142708D01*
X110842Y142908D01*
X111042Y143170D01*
X111168Y143474D01*
X111211Y143800D01*
X111168Y144126D01*
X111042Y144430D01*
X110900Y144615D01*
X110963Y144742D01*
X116937D01*
X117000Y144615D01*
X116858Y144430D01*
X116732Y144126D01*
X116689Y143800D01*
X116732Y143474D01*
X116858Y143170D01*
X117058Y142908D01*
X117320Y142708D01*
X117624Y142582D01*
X117950Y142539D01*
X118276Y142582D01*
X118580Y142708D01*
X118842Y142908D01*
X119042Y143170D01*
X119168Y143474D01*
X119211Y143800D01*
X119198Y143897D01*
X119282Y143992D01*
X120800D01*
Y143050D01*
X120734Y142950D01*
X120700D01*
Y141650D01*
X122300D01*
Y142950D01*
X122266D01*
X122200Y143050D01*
Y143992D01*
X126200D01*
Y143050D01*
X126134Y142950D01*
X126100D01*
Y141650D01*
X127700D01*
Y142950D01*
X127666D01*
X127600Y143050D01*
Y143992D01*
X129118D01*
X129202Y143897D01*
X129189Y143800D01*
X129232Y143474D01*
X129358Y143170D01*
X129558Y142908D01*
X129820Y142708D01*
X130124Y142582D01*
X130450Y142539D01*
X130776Y142582D01*
X131080Y142708D01*
X131342Y142908D01*
X131542Y143170D01*
X131668Y143474D01*
X131711Y143800D01*
X131668Y144126D01*
X131542Y144430D01*
X131400Y144615D01*
X131463Y144742D01*
X137437D01*
X137500Y144615D01*
X137358Y144430D01*
X137232Y144126D01*
X137189Y143800D01*
X137232Y143474D01*
X137358Y143170D01*
X137558Y142908D01*
X137820Y142708D01*
X138124Y142582D01*
X138450Y142539D01*
X138776Y142582D01*
X139080Y142708D01*
X139342Y142908D01*
X139542Y143170D01*
X139668Y143474D01*
X139711Y143800D01*
X139698Y143897D01*
X139782Y143992D01*
X141300D01*
Y143050D01*
X141234Y142950D01*
X141200D01*
Y141650D01*
X142800D01*
Y142950D01*
X142766D01*
X142700Y143050D01*
Y143992D01*
X146700D01*
Y143050D01*
X146634Y142950D01*
X146600D01*
Y141650D01*
X148200D01*
Y142950D01*
X148166D01*
X148100Y143050D01*
Y143992D01*
X149618D01*
X149702Y143897D01*
X149689Y143800D01*
X149732Y143474D01*
X149858Y143170D01*
X150058Y142908D01*
X150320Y142708D01*
X150624Y142582D01*
X150950Y142539D01*
X151276Y142582D01*
X151580Y142708D01*
X151842Y142908D01*
X152042Y143170D01*
X152168Y143474D01*
X152211Y143800D01*
X152168Y144126D01*
X152042Y144430D01*
X151900Y144615D01*
X151963Y144742D01*
X157937D01*
X158000Y144615D01*
X157858Y144430D01*
X157732Y144126D01*
X157689Y143800D01*
X157732Y143474D01*
X157858Y143170D01*
X158058Y142908D01*
X158320Y142708D01*
X158624Y142582D01*
X158950Y142539D01*
X159276Y142582D01*
X159580Y142708D01*
X159842Y142908D01*
X160042Y143170D01*
X160168Y143474D01*
X160211Y143800D01*
X160198Y143897D01*
X160282Y143992D01*
X161800D01*
Y143050D01*
X161734Y142950D01*
X161700D01*
Y141650D01*
X163300D01*
Y142950D01*
X163266D01*
X163200Y143050D01*
Y143992D01*
X167200D01*
Y143050D01*
X167134Y142950D01*
X167100D01*
Y141650D01*
X168700D01*
Y142950D01*
X168666D01*
X168600Y143050D01*
Y143992D01*
X170118D01*
X170202Y143897D01*
X170189Y143800D01*
X170232Y143474D01*
X170358Y143170D01*
X170558Y142908D01*
X170820Y142708D01*
X171124Y142582D01*
X171450Y142539D01*
X171776Y142582D01*
X172080Y142708D01*
X172342Y142908D01*
X172542Y143170D01*
X172668Y143474D01*
X172711Y143800D01*
X172668Y144126D01*
X172542Y144430D01*
X172400Y144615D01*
X172463Y144742D01*
X178437D01*
X178500Y144615D01*
X178358Y144430D01*
X178232Y144126D01*
X178189Y143800D01*
X178232Y143474D01*
X178358Y143170D01*
X178558Y142908D01*
X178820Y142708D01*
X179124Y142582D01*
X179450Y142539D01*
X179776Y142582D01*
X180080Y142708D01*
X180342Y142908D01*
X180542Y143170D01*
X180668Y143474D01*
X180711Y143800D01*
X180698Y143897D01*
X180782Y143992D01*
X182300D01*
Y143050D01*
X182235Y142950D01*
X182199D01*
Y141650D01*
X183799D01*
Y142950D01*
X183765D01*
X183700Y143050D01*
Y143992D01*
X187700D01*
Y143050D01*
X187634Y142950D01*
X187600D01*
Y141650D01*
X189200D01*
Y142950D01*
X189166D01*
X189100Y143050D01*
Y143992D01*
X190618D01*
X190702Y143897D01*
X190689Y143800D01*
X190732Y143474D01*
X190858Y143170D01*
X191058Y142908D01*
X191320Y142708D01*
X191624Y142582D01*
X191950Y142539D01*
X192276Y142582D01*
X192580Y142708D01*
X192842Y142908D01*
X193042Y143170D01*
X193168Y143474D01*
X193211Y143800D01*
X193168Y144126D01*
X193042Y144430D01*
X192900Y144615D01*
X192963Y144742D01*
X198937D01*
X199000Y144615D01*
X198858Y144430D01*
X198732Y144126D01*
X198689Y143800D01*
X198732Y143474D01*
X198858Y143170D01*
X199058Y142908D01*
X199320Y142708D01*
X199624Y142582D01*
X199950Y142539D01*
X200276Y142582D01*
X200580Y142708D01*
X200842Y142908D01*
X201042Y143170D01*
X201168Y143474D01*
X201211Y143800D01*
X201198Y143897D01*
X201282Y143992D01*
X202800D01*
Y143050D01*
X202734Y142950D01*
X202700D01*
Y141650D01*
X204300D01*
Y142950D01*
X204266D01*
X204200Y143050D01*
Y143992D01*
X208200D01*
Y143050D01*
X208134Y142950D01*
X208100D01*
Y141650D01*
X209700D01*
Y142950D01*
X209666D01*
X209600Y143050D01*
Y143992D01*
X211118D01*
X211202Y143897D01*
X211189Y143800D01*
X211232Y143474D01*
X211358Y143170D01*
X211558Y142908D01*
X211820Y142708D01*
X212124Y142582D01*
X212450Y142539D01*
X212776Y142582D01*
X213080Y142708D01*
X213342Y142908D01*
X213542Y143170D01*
X213668Y143474D01*
X213711Y143800D01*
X213668Y144126D01*
X213542Y144430D01*
X213342Y144692D01*
X213080Y144892D01*
X212776Y145018D01*
X212450Y145061D01*
X212124Y145018D01*
X211820Y144892D01*
X211710Y144808D01*
X209600D01*
Y145750D01*
X209308D01*
Y146700D01*
X209277Y146856D01*
X209188Y146988D01*
X209188Y146988D01*
X207688Y148488D01*
X207556Y148577D01*
X207400Y148608D01*
X207400Y148608D01*
X204800D01*
X204800Y148608D01*
X204644Y148577D01*
X204512Y148488D01*
X203212Y147188D01*
X203123Y147056D01*
X203092Y146900D01*
X203092Y146900D01*
Y145750D01*
X202800D01*
Y145558D01*
X189100D01*
Y145750D01*
X188808D01*
Y146600D01*
X188777Y146756D01*
X188688Y146888D01*
X188688Y146888D01*
X187188Y148388D01*
X187056Y148477D01*
X186900Y148508D01*
X186900Y148508D01*
X184500D01*
X184344Y148477D01*
X184212Y148388D01*
X184212Y148388D01*
X182712Y146888D01*
X182623Y146756D01*
X182592Y146600D01*
X182592Y146600D01*
Y145750D01*
X182300D01*
Y145558D01*
X168600D01*
Y145750D01*
X168308D01*
Y146500D01*
X168277Y146656D01*
X168188Y146788D01*
X168188Y146788D01*
X166688Y148288D01*
X166556Y148377D01*
X166400Y148408D01*
X166400Y148408D01*
X164000D01*
X164000Y148408D01*
X163844Y148377D01*
X163712Y148288D01*
X163712Y148288D01*
X162212Y146788D01*
X162123Y146656D01*
X162092Y146500D01*
X162092Y146500D01*
Y145750D01*
X161800D01*
Y145558D01*
X148100D01*
Y145750D01*
X147808D01*
Y146400D01*
X147808Y146400D01*
X147777Y146556D01*
X147688Y146688D01*
X147688Y146688D01*
X146088Y148288D01*
X145956Y148377D01*
X145800Y148408D01*
X145800Y148408D01*
X143500D01*
X143344Y148377D01*
X143212Y148288D01*
X143212Y148288D01*
X141712Y146788D01*
X141623Y146656D01*
X141592Y146500D01*
X141592Y146500D01*
Y145750D01*
X141300D01*
Y145558D01*
X127600D01*
Y145750D01*
X127308D01*
Y146400D01*
X127308Y146400D01*
X127277Y146556D01*
X127188Y146688D01*
X127188Y146688D01*
X125688Y148188D01*
X125556Y148277D01*
X125400Y148308D01*
X125400Y148308D01*
X122900D01*
X122900Y148308D01*
X122744Y148277D01*
X122612Y148188D01*
X122612Y148188D01*
X121212Y146788D01*
X121123Y146656D01*
X121092Y146500D01*
X121092Y146500D01*
Y145750D01*
X120800D01*
Y145558D01*
X107100D01*
Y145750D01*
X106808D01*
Y146300D01*
X106808Y146300D01*
X106777Y146456D01*
X106688Y146588D01*
X106688Y146588D01*
X104988Y148288D01*
X104856Y148377D01*
X104700Y148408D01*
X104700Y148408D01*
X102500D01*
X102500Y148408D01*
X102344Y148377D01*
X102212Y148288D01*
X102212Y148288D01*
X100712Y146788D01*
X100623Y146656D01*
X100592Y146500D01*
X100592Y146500D01*
Y145750D01*
X100300D01*
Y145558D01*
X86600D01*
Y145750D01*
X86308D01*
Y146475D01*
X86277Y146631D01*
X86188Y146763D01*
X86188Y146763D01*
X84563Y148388D01*
X84431Y148477D01*
X84275Y148508D01*
X84275Y148508D01*
X81975D01*
X81975Y148508D01*
X81819Y148477D01*
X81687Y148388D01*
X81687Y148388D01*
X80212Y146913D01*
X80123Y146781D01*
X80092Y146625D01*
X80092Y146625D01*
Y145750D01*
X79800D01*
Y145708D01*
X66100D01*
Y145725D01*
X65785D01*
X65771Y145795D01*
X65708Y145890D01*
Y146650D01*
X65708Y146650D01*
X65677Y146806D01*
X65588Y146938D01*
X65588Y146938D01*
X64238Y148288D01*
X64106Y148377D01*
X63950Y148408D01*
X63950Y148408D01*
X61100D01*
X60944Y148377D01*
X60812Y148288D01*
X60812Y148288D01*
X60780Y148257D01*
X60630Y148286D01*
X60533Y148433D01*
X60334Y148565D01*
X60100Y148612D01*
X59866Y148565D01*
X59780Y148508D01*
X59550D01*
X59511Y148500D01*
X58650D01*
Y147227D01*
X58650Y147100D01*
X58650D01*
Y147100D01*
X58650D01*
Y145922D01*
X58555Y145872D01*
X58523Y145867D01*
X58350Y145902D01*
Y147100D01*
X58350D01*
X58350Y147100D01*
X58350Y147227D01*
Y148500D01*
X57150D01*
Y147777D01*
X56681Y147308D01*
X46000D01*
X45844Y147277D01*
X45712Y147188D01*
X41473Y142950D01*
X41193D01*
X41144Y143067D01*
X48469Y150392D01*
X56930D01*
X56935Y150366D01*
X57067Y150167D01*
X57266Y150035D01*
X57500Y149988D01*
X57734Y150035D01*
X57933Y150167D01*
X58065Y150366D01*
X58112Y150600D01*
X58065Y150834D01*
X57933Y151033D01*
X57734Y151165D01*
X57500Y151212D01*
D02*
G37*
G36*
X32400Y151156D02*
X32204Y151131D01*
X32022Y151055D01*
X31865Y150935D01*
X31745Y150778D01*
X31669Y150596D01*
X31644Y150400D01*
X31669Y150204D01*
X31745Y150022D01*
X31865Y149865D01*
X32022Y149745D01*
X32204Y149669D01*
X32400Y149644D01*
X32596Y149669D01*
X32778Y149745D01*
X32935Y149865D01*
X33055Y150022D01*
X33131Y150204D01*
X33156Y150400D01*
X33131Y150596D01*
X33055Y150778D01*
X32935Y150935D01*
X32778Y151055D01*
X32596Y151131D01*
X32400Y151156D01*
D02*
G37*
G36*
X168704Y140954D02*
X168027D01*
Y140427D01*
X168704D01*
Y140954D01*
D02*
G37*
G36*
X163304D02*
X162627D01*
Y140427D01*
X163304D01*
Y140954D01*
D02*
G37*
G36*
X167773D02*
X167096D01*
Y140427D01*
X167773D01*
Y140954D01*
D02*
G37*
G36*
X162373D02*
X161696D01*
Y140427D01*
X162373D01*
Y140954D01*
D02*
G37*
G36*
X148204D02*
X147527D01*
Y140427D01*
X148204D01*
Y140954D01*
D02*
G37*
G36*
X142804D02*
X142127D01*
Y140427D01*
X142804D01*
Y140954D01*
D02*
G37*
G36*
X107204D02*
X106527D01*
Y140427D01*
X107204D01*
Y140954D01*
D02*
G37*
G36*
X147273D02*
X146596D01*
Y140427D01*
X147273D01*
Y140954D01*
D02*
G37*
G36*
X141873D02*
X141196D01*
Y140427D01*
X141873D01*
Y140954D01*
D02*
G37*
G36*
X106273D02*
X105596D01*
Y140427D01*
X106273D01*
Y140954D01*
D02*
G37*
G36*
X101804D02*
X101127D01*
Y140427D01*
X101804D01*
Y140954D01*
D02*
G37*
G36*
X60804D02*
X60127D01*
Y140427D01*
X60804D01*
Y140954D01*
D02*
G37*
G36*
X100873D02*
X100196D01*
Y140427D01*
X100873D01*
Y140954D01*
D02*
G37*
G36*
X65273D02*
X64596D01*
Y140427D01*
X65273D01*
Y140954D01*
D02*
G37*
G36*
X59873D02*
X59196D01*
Y140427D01*
X59873D01*
Y140954D01*
D02*
G37*
G36*
X209704D02*
X209027D01*
Y140427D01*
X209704D01*
Y140954D01*
D02*
G37*
G36*
X204304D02*
X203627D01*
Y140427D01*
X204304D01*
Y140954D01*
D02*
G37*
G36*
X127704D02*
X127027D01*
Y140427D01*
X127704D01*
Y140954D01*
D02*
G37*
G36*
X122304D02*
X121627D01*
Y140427D01*
X122304D01*
Y140954D01*
D02*
G37*
G36*
X208773D02*
X208096D01*
Y140427D01*
X208773D01*
Y140954D01*
D02*
G37*
G36*
X203373D02*
X202696D01*
Y140427D01*
X203373D01*
Y140954D01*
D02*
G37*
G36*
X126773D02*
X126096D01*
Y140427D01*
X126773D01*
Y140954D01*
D02*
G37*
G36*
X121373D02*
X120696D01*
Y140427D01*
X121373D01*
Y140954D01*
D02*
G37*
G36*
X189204D02*
X188527D01*
Y140427D01*
X189204D01*
Y140954D01*
D02*
G37*
G36*
X188273D02*
X187596D01*
Y140427D01*
X188273D01*
Y140954D01*
D02*
G37*
G36*
X183803Y140954D02*
X183126D01*
Y140427D01*
X183803D01*
Y140954D01*
D02*
G37*
G36*
X182872D02*
X182195D01*
Y140427D01*
X182872D01*
Y140954D01*
D02*
G37*
G36*
X209704Y140173D02*
X209027D01*
Y139646D01*
X209704D01*
Y140173D01*
D02*
G37*
G36*
X208773D02*
X208096D01*
Y139646D01*
X208773D01*
Y140173D01*
D02*
G37*
G36*
X204304D02*
X203627D01*
Y139646D01*
X204304D01*
Y140173D01*
D02*
G37*
G36*
X203373D02*
X202696D01*
Y139646D01*
X203373D01*
Y140173D01*
D02*
G37*
G36*
X189204Y140173D02*
X188527D01*
Y139646D01*
X189204D01*
Y140173D01*
D02*
G37*
G36*
X188273D02*
X187596D01*
Y139646D01*
X188273D01*
Y140173D01*
D02*
G37*
G36*
X168704Y140173D02*
X168027D01*
Y139646D01*
X168704D01*
Y140173D01*
D02*
G37*
G36*
X167773D02*
X167096D01*
Y139646D01*
X167773D01*
Y140173D01*
D02*
G37*
G36*
X163304D02*
X162627D01*
Y139646D01*
X163304D01*
Y140173D01*
D02*
G37*
G36*
X162373D02*
X161696D01*
Y139646D01*
X162373D01*
Y140173D01*
D02*
G37*
G36*
X148204Y140173D02*
X147527D01*
Y139646D01*
X148204D01*
Y140173D01*
D02*
G37*
G36*
X147273D02*
X146596D01*
Y139646D01*
X147273D01*
Y140173D01*
D02*
G37*
G36*
X142804D02*
X142127D01*
Y139646D01*
X142804D01*
Y140173D01*
D02*
G37*
G36*
X141873D02*
X141196D01*
Y139646D01*
X141873D01*
Y140173D01*
D02*
G37*
G36*
X127704Y140173D02*
X127027D01*
Y139646D01*
X127704D01*
Y140173D01*
D02*
G37*
G36*
X126773D02*
X126096D01*
Y139646D01*
X126773D01*
Y140173D01*
D02*
G37*
G36*
X122304D02*
X121627D01*
Y139646D01*
X122304D01*
Y140173D01*
D02*
G37*
G36*
X121373D02*
X120696D01*
Y139646D01*
X121373D01*
Y140173D01*
D02*
G37*
G36*
X107204Y140173D02*
X106527D01*
Y139646D01*
X107204D01*
Y140173D01*
D02*
G37*
G36*
X106273D02*
X105596D01*
Y139646D01*
X106273D01*
Y140173D01*
D02*
G37*
G36*
X101804Y140173D02*
X101127D01*
Y139646D01*
X101804D01*
Y140173D01*
D02*
G37*
G36*
X100873D02*
X100196D01*
Y139646D01*
X100873D01*
Y140173D01*
D02*
G37*
G36*
X86704Y140173D02*
X86027D01*
Y139646D01*
X86704D01*
Y140173D01*
D02*
G37*
G36*
X85773D02*
X85096D01*
Y139646D01*
X85773D01*
Y140173D01*
D02*
G37*
G36*
X81304Y140173D02*
X80627D01*
Y139646D01*
X81304D01*
Y140173D01*
D02*
G37*
G36*
X80373D02*
X79696D01*
Y139646D01*
X80373D01*
Y140173D01*
D02*
G37*
G36*
X66204Y140173D02*
X65527D01*
Y139646D01*
X66204D01*
Y140173D01*
D02*
G37*
G36*
X65273D02*
X64596D01*
Y139646D01*
X65273D01*
Y140173D01*
D02*
G37*
G36*
X60804D02*
X60127D01*
Y139646D01*
X60804D01*
Y140173D01*
D02*
G37*
G36*
X59873D02*
X59196D01*
Y139646D01*
X59873D01*
Y140173D01*
D02*
G37*
G36*
X183803Y140173D02*
X183126D01*
Y139646D01*
X183803D01*
Y140173D01*
D02*
G37*
G36*
X182872D02*
X182195D01*
Y139646D01*
X182872D01*
Y140173D01*
D02*
G37*
G36*
X212450Y140061D02*
X212124Y140018D01*
X211820Y139892D01*
X211558Y139692D01*
X211358Y139430D01*
X211232Y139126D01*
X211189Y138800D01*
X211224Y138535D01*
X211135Y138408D01*
X207200D01*
Y138550D01*
X205200D01*
Y138408D01*
X201265D01*
X201176Y138535D01*
X201211Y138800D01*
X201168Y139126D01*
X201042Y139430D01*
X200842Y139692D01*
X200580Y139892D01*
X200276Y140018D01*
X199950Y140061D01*
X199624Y140018D01*
X199320Y139892D01*
X199058Y139692D01*
X198858Y139430D01*
X198766Y139208D01*
X193134D01*
X193042Y139430D01*
X192842Y139692D01*
X192580Y139892D01*
X192276Y140018D01*
X191950Y140061D01*
X191624Y140018D01*
X191320Y139892D01*
X191058Y139692D01*
X190858Y139430D01*
X190732Y139126D01*
X190689Y138800D01*
X190724Y138535D01*
X190635Y138408D01*
X186700D01*
Y138550D01*
X184700D01*
Y138408D01*
X180765D01*
X180676Y138535D01*
X180711Y138800D01*
X180668Y139126D01*
X180542Y139430D01*
X180342Y139692D01*
X180080Y139892D01*
X179776Y140018D01*
X179450Y140061D01*
X179124Y140018D01*
X178820Y139892D01*
X178558Y139692D01*
X178358Y139430D01*
X178232Y139126D01*
X178189Y138800D01*
X178232Y138474D01*
X178324Y138251D01*
X174381Y134308D01*
X134701D01*
X134652Y134425D01*
X137901Y137674D01*
X138124Y137582D01*
X138450Y137539D01*
X138776Y137582D01*
X139041Y137692D01*
X139144Y137623D01*
X139300Y137592D01*
X143700D01*
Y135050D01*
X145700D01*
Y137592D01*
X150150D01*
X150150Y137592D01*
X150306Y137623D01*
X150390Y137679D01*
X150624Y137582D01*
X150950Y137539D01*
X151276Y137582D01*
X151580Y137708D01*
X151842Y137908D01*
X152042Y138170D01*
X152134Y138392D01*
X157766D01*
X157858Y138170D01*
X158058Y137908D01*
X158320Y137708D01*
X158624Y137582D01*
X158950Y137539D01*
X159276Y137582D01*
X159526Y137685D01*
X159544Y137673D01*
X159700Y137642D01*
X159700Y137642D01*
X164200D01*
Y135050D01*
X166200D01*
Y137642D01*
X170700D01*
X170700Y137642D01*
X170856Y137673D01*
X170874Y137685D01*
X171124Y137582D01*
X171450Y137539D01*
X171776Y137582D01*
X172080Y137708D01*
X172342Y137908D01*
X172542Y138170D01*
X172668Y138474D01*
X172711Y138800D01*
X172668Y139126D01*
X172542Y139430D01*
X172342Y139692D01*
X172080Y139892D01*
X171776Y140018D01*
X171450Y140061D01*
X171124Y140018D01*
X170820Y139892D01*
X170558Y139692D01*
X170358Y139430D01*
X170232Y139126D01*
X170189Y138800D01*
X170218Y138585D01*
X170106Y138458D01*
X166200D01*
Y138550D01*
X164200D01*
Y138458D01*
X160294D01*
X160182Y138585D01*
X160211Y138800D01*
X160168Y139126D01*
X160042Y139430D01*
X159842Y139692D01*
X159580Y139892D01*
X159276Y140018D01*
X158950Y140061D01*
X158624Y140018D01*
X158320Y139892D01*
X158058Y139692D01*
X157858Y139430D01*
X157766Y139208D01*
X152134D01*
X152042Y139430D01*
X151842Y139692D01*
X151580Y139892D01*
X151276Y140018D01*
X150950Y140061D01*
X150624Y140018D01*
X150320Y139892D01*
X150058Y139692D01*
X149858Y139430D01*
X149732Y139126D01*
X149689Y138800D01*
X149724Y138535D01*
X149635Y138408D01*
X145700D01*
Y138550D01*
X143700D01*
Y138408D01*
X139765D01*
X139676Y138535D01*
X139711Y138800D01*
X139668Y139126D01*
X139542Y139430D01*
X139342Y139692D01*
X139080Y139892D01*
X138776Y140018D01*
X138450Y140061D01*
X138124Y140018D01*
X137820Y139892D01*
X137558Y139692D01*
X137358Y139430D01*
X137232Y139126D01*
X137189Y138800D01*
X137232Y138474D01*
X137324Y138251D01*
X133881Y134808D01*
X75369D01*
X74606Y135571D01*
X74612Y135600D01*
X74565Y135834D01*
X74433Y136033D01*
X74234Y136165D01*
X74000Y136212D01*
X73766Y136165D01*
X73567Y136033D01*
X73470Y135887D01*
X73320Y135857D01*
X71688Y137488D01*
X71556Y137577D01*
X71400Y137608D01*
X71400Y137608D01*
X69658D01*
X69615Y137735D01*
X69842Y137908D01*
X70042Y138170D01*
X70134Y138392D01*
X75766D01*
X75858Y138170D01*
X76058Y137908D01*
X76320Y137708D01*
X76624Y137582D01*
X76950Y137539D01*
X77276Y137582D01*
X77503Y137676D01*
X77619Y137598D01*
X77775Y137567D01*
X82200D01*
Y135050D01*
X84200D01*
Y137567D01*
X88625D01*
X88625Y137567D01*
X88781Y137598D01*
X88897Y137676D01*
X89124Y137582D01*
X89450Y137539D01*
X89776Y137582D01*
X90080Y137708D01*
X90342Y137908D01*
X90542Y138170D01*
X90668Y138474D01*
X90711Y138800D01*
X90668Y139126D01*
X90542Y139430D01*
X90342Y139692D01*
X90080Y139892D01*
X89776Y140018D01*
X89450Y140061D01*
X89124Y140018D01*
X88820Y139892D01*
X88558Y139692D01*
X88358Y139430D01*
X88232Y139126D01*
X88189Y138800D01*
X88227Y138510D01*
X88149Y138383D01*
X84200D01*
Y138550D01*
X82200D01*
Y138383D01*
X78251D01*
X78173Y138510D01*
X78211Y138800D01*
X78168Y139126D01*
X78042Y139430D01*
X77842Y139692D01*
X77580Y139892D01*
X77276Y140018D01*
X76950Y140061D01*
X76624Y140018D01*
X76320Y139892D01*
X76058Y139692D01*
X75858Y139430D01*
X75766Y139208D01*
X70134D01*
X70042Y139430D01*
X69842Y139692D01*
X69580Y139892D01*
X69276Y140018D01*
X68950Y140061D01*
X68624Y140018D01*
X68320Y139892D01*
X68058Y139692D01*
X67858Y139430D01*
X67732Y139126D01*
X67689Y138800D01*
X67712Y138628D01*
X67628Y138533D01*
X63700D01*
Y138550D01*
X61700D01*
Y138533D01*
X57772D01*
X57688Y138628D01*
X57711Y138800D01*
X57668Y139126D01*
X57542Y139430D01*
X57342Y139692D01*
X57080Y139892D01*
X56776Y140018D01*
X56450Y140061D01*
X56124Y140018D01*
X55820Y139892D01*
X55558Y139692D01*
X55358Y139430D01*
X55232Y139126D01*
X55189Y138800D01*
X55232Y138474D01*
X55358Y138170D01*
X55558Y137908D01*
X55820Y137708D01*
X56124Y137582D01*
X56450Y137539D01*
X56776Y137582D01*
X57080Y137708D01*
X57120Y137738D01*
X57225Y137717D01*
X61700D01*
Y135050D01*
X63700D01*
Y137717D01*
X67483D01*
X67539Y137590D01*
X67435Y137434D01*
X67388Y137200D01*
X67435Y136966D01*
X67567Y136767D01*
X67766Y136635D01*
X68000Y136588D01*
X68234Y136635D01*
X68433Y136767D01*
X68449Y136792D01*
X71231D01*
X74412Y133612D01*
X74412Y133612D01*
X74544Y133523D01*
X74700Y133492D01*
X74700Y133492D01*
X174550D01*
X174550Y133492D01*
X174706Y133523D01*
X174838Y133612D01*
X178901Y137674D01*
X179124Y137582D01*
X179450Y137539D01*
X179776Y137582D01*
X180010Y137679D01*
X180094Y137623D01*
X180250Y137592D01*
X184700D01*
Y135050D01*
X186700D01*
Y137592D01*
X191150D01*
X191150Y137592D01*
X191306Y137623D01*
X191390Y137679D01*
X191624Y137582D01*
X191950Y137539D01*
X192276Y137582D01*
X192580Y137708D01*
X192842Y137908D01*
X193042Y138170D01*
X193134Y138392D01*
X198766D01*
X198858Y138170D01*
X199058Y137908D01*
X199320Y137708D01*
X199624Y137582D01*
X199950Y137539D01*
X200276Y137582D01*
X200510Y137679D01*
X200594Y137623D01*
X200750Y137592D01*
X200750Y137592D01*
X205200D01*
Y135050D01*
X207200D01*
Y137592D01*
X211650D01*
X211650Y137592D01*
X211806Y137623D01*
X211890Y137679D01*
X212124Y137582D01*
X212450Y137539D01*
X212776Y137582D01*
X213080Y137708D01*
X213342Y137908D01*
X213542Y138170D01*
X213668Y138474D01*
X213711Y138800D01*
X213668Y139126D01*
X213542Y139430D01*
X213342Y139692D01*
X213080Y139892D01*
X212776Y140018D01*
X212450Y140061D01*
D02*
G37*
G36*
X216900Y134656D02*
X216704Y134631D01*
X216522Y134555D01*
X216365Y134435D01*
X216245Y134278D01*
X216169Y134096D01*
X216144Y133900D01*
X216169Y133704D01*
X216245Y133522D01*
X216365Y133365D01*
X216522Y133245D01*
X216704Y133169D01*
X216900Y133144D01*
X217096Y133169D01*
X217278Y133245D01*
X217435Y133365D01*
X217555Y133522D01*
X217631Y133704D01*
X217656Y133900D01*
X217631Y134096D01*
X217555Y134278D01*
X217435Y134435D01*
X217278Y134555D01*
X217096Y134631D01*
X216900Y134656D01*
D02*
G37*
%LPD*%
G36*
X85200Y143050D02*
X85134Y142950D01*
X85100D01*
Y141650D01*
X84990Y141608D01*
X81409D01*
X81300Y141650D01*
Y142950D01*
X81266D01*
X81200Y143050D01*
Y143992D01*
X85200D01*
Y143050D01*
D02*
G37*
G36*
X76154Y144765D02*
X76058Y144692D01*
X75858Y144430D01*
X75732Y144126D01*
X75689Y143800D01*
X75732Y143474D01*
X75858Y143170D01*
X76058Y142908D01*
X76320Y142708D01*
X76624Y142582D01*
X76950Y142539D01*
X77276Y142582D01*
X77580Y142708D01*
X77842Y142908D01*
X78042Y143170D01*
X78168Y143474D01*
X78211Y143800D01*
X78198Y143897D01*
X78282Y143992D01*
X79800D01*
Y143050D01*
X79734Y142950D01*
X79700D01*
Y141650D01*
X79590Y141608D01*
X74522D01*
X74484Y141735D01*
X74533Y141767D01*
X74665Y141966D01*
X74712Y142200D01*
X74665Y142434D01*
X74533Y142633D01*
X74334Y142765D01*
X74100Y142812D01*
X73866Y142765D01*
X73667Y142633D01*
X73651Y142608D01*
X70719D01*
X70076Y143251D01*
X70168Y143474D01*
X70211Y143800D01*
X70168Y144126D01*
X70042Y144430D01*
X69842Y144692D01*
X69746Y144765D01*
X69789Y144892D01*
X76111D01*
X76154Y144765D01*
D02*
G37*
D10*
X206200Y145800D02*
D03*
Y136800D02*
D03*
X185700Y145800D02*
D03*
Y136800D02*
D03*
X165200Y145800D02*
D03*
Y136800D02*
D03*
X144700Y145800D02*
D03*
Y136800D02*
D03*
X124200Y145800D02*
D03*
Y136800D02*
D03*
X103700Y145800D02*
D03*
Y136800D02*
D03*
X83200Y145800D02*
D03*
Y136800D02*
D03*
X62700Y145800D02*
D03*
Y136800D02*
D03*
D11*
X208900Y143650D02*
D03*
Y145150D02*
D03*
X203500Y143650D02*
D03*
Y145150D02*
D03*
X188400Y143650D02*
D03*
Y145150D02*
D03*
X183000Y143650D02*
D03*
Y145150D02*
D03*
X162500Y143650D02*
D03*
Y145150D02*
D03*
X126900Y143650D02*
D03*
Y145150D02*
D03*
X121500Y143650D02*
D03*
Y145150D02*
D03*
X106400Y143650D02*
D03*
Y145150D02*
D03*
X101000Y143650D02*
D03*
Y145150D02*
D03*
X85900Y143650D02*
D03*
Y145150D02*
D03*
X80500Y143650D02*
D03*
Y145150D02*
D03*
X60025Y143625D02*
D03*
Y145125D02*
D03*
X65400Y143625D02*
D03*
Y145125D02*
D03*
X147400Y143650D02*
D03*
Y145150D02*
D03*
X142000Y143650D02*
D03*
Y145150D02*
D03*
X167900Y143650D02*
D03*
Y145150D02*
D03*
D12*
X42900Y140300D02*
D03*
Y142300D02*
D03*
X208900D02*
D03*
Y140300D02*
D03*
X203500Y142300D02*
D03*
Y140300D02*
D03*
X188400Y142300D02*
D03*
Y140300D02*
D03*
X182999Y142300D02*
D03*
Y140300D02*
D03*
X167900Y142300D02*
D03*
Y140300D02*
D03*
X162500Y142300D02*
D03*
Y140300D02*
D03*
X147400Y142300D02*
D03*
Y140300D02*
D03*
X142000Y142300D02*
D03*
Y140300D02*
D03*
X126900Y142300D02*
D03*
Y140300D02*
D03*
X121500Y142300D02*
D03*
Y140300D02*
D03*
X106400Y142300D02*
D03*
Y140300D02*
D03*
X101000Y142300D02*
D03*
Y140300D02*
D03*
X85900Y142300D02*
D03*
Y140300D02*
D03*
X80500Y142300D02*
D03*
Y140300D02*
D03*
X65400Y142300D02*
D03*
Y140300D02*
D03*
X60000Y142300D02*
D03*
Y140300D02*
D03*
X41300Y140300D02*
D03*
Y142300D02*
D03*
D13*
X57750Y147800D02*
D03*
X59250D02*
D03*
X57750Y146400D02*
D03*
X59250D02*
D03*
D14*
X32400Y150400D02*
D03*
X216900Y133900D02*
D03*
D15*
X48300Y150800D02*
X57500D01*
X40300Y142800D02*
X48300Y150800D01*
X40300Y141400D02*
Y142800D01*
Y141400D02*
X41400Y140300D01*
X46000Y146900D02*
X56850D01*
X41600Y142500D02*
X46000Y146900D01*
X46200Y146400D02*
X57750D01*
X43100Y143300D02*
X46200Y146400D01*
X43100Y142300D02*
Y143300D01*
X71400Y137200D02*
X74700Y133900D01*
X68000Y137200D02*
X71400D01*
X66700Y141200D02*
X94800D01*
X94900Y141300D01*
X98150Y138050D01*
X65300Y145600D02*
Y146650D01*
X56600Y144375D02*
X69100D01*
X59850Y145300D02*
X60025Y145125D01*
X58300Y145300D02*
X59850D01*
X68950Y143800D02*
X70550Y142200D01*
X74100D01*
X201000Y144400D02*
X211850D01*
X212450Y143800D01*
X200400D02*
X201000Y144400D01*
X199950Y143800D02*
X200400D01*
X180300Y144400D02*
X191100D01*
X179700Y143800D02*
X180300Y144400D01*
X179450Y143800D02*
X179700D01*
X191700D02*
X191950D01*
X191100Y144400D02*
X191700Y143800D01*
X188400Y145150D02*
X203500D01*
X167900D02*
X183000D01*
X164000Y148000D02*
X166400D01*
X162500Y146500D02*
X164000Y148000D01*
X162500Y145150D02*
Y146500D01*
X166400Y148000D02*
X167900Y146500D01*
Y145150D02*
Y146500D01*
X159800Y144400D02*
X170500D01*
X159200Y143800D02*
X159800Y144400D01*
X158950Y143800D02*
X159200D01*
X171100D02*
X171450D01*
X170500Y144400D02*
X171100Y143800D01*
X150500D02*
X150950D01*
X149900Y144400D02*
X150500Y143800D01*
X139500Y144400D02*
X149900D01*
X138900Y143800D02*
X139500Y144400D01*
X138450Y143800D02*
X138900D01*
X208900Y145150D02*
Y146700D01*
X207400Y148200D02*
X208900Y146700D01*
X204800Y148200D02*
X207400D01*
X203500Y146900D02*
X204800Y148200D01*
X203500Y145150D02*
Y146900D01*
X186900Y148100D02*
X188400Y146600D01*
X184500Y148100D02*
X186900D01*
X183000Y146600D02*
X184500Y148100D01*
X188400Y145150D02*
Y146600D01*
X183000Y145150D02*
Y146600D01*
X147400Y145150D02*
X162500D01*
X211650Y138000D02*
X212450Y138800D01*
X200750Y138000D02*
X211650D01*
X199950Y138800D02*
X200750Y138000D01*
X199950Y138800D02*
X199950Y138800D01*
X191950Y138800D02*
X199950D01*
X191150Y138000D02*
X191950Y138800D01*
X180250Y138000D02*
X191150D01*
X179450Y138800D02*
X180250Y138000D01*
X174550Y133900D02*
X179450Y138800D01*
X74700Y133900D02*
X174550D01*
X75200Y134400D02*
X134050D01*
X74000Y135600D02*
X75200Y134400D01*
X74000Y135600D02*
X74000D01*
X170700Y138050D02*
X171450Y138800D01*
X159700Y138050D02*
X170700D01*
X158950Y138800D02*
X159700Y138050D01*
X150950Y138800D02*
X158950D01*
X139300Y138000D02*
X150150D01*
X150950Y138800D01*
X138500D02*
X139300Y138000D01*
X138450Y138800D02*
X138500D01*
X134050Y134400D02*
X138450Y138800D01*
X68950D02*
X76950D01*
X147400Y145150D02*
Y146400D01*
X145800Y148000D02*
X147400Y146400D01*
X143500Y148000D02*
X145800D01*
X142000Y146500D02*
X143500Y148000D01*
X142000Y145150D02*
Y146500D01*
X126900Y145150D02*
X142000D01*
X126900D02*
Y146400D01*
X125400Y147900D02*
X126900Y146400D01*
X122900Y147900D02*
X125400D01*
X121500Y146500D02*
X122900Y147900D01*
X121500Y145150D02*
Y146500D01*
X106400Y145150D02*
X121500D01*
X129850Y144400D02*
X130450Y143800D01*
X118800Y144400D02*
X129850D01*
X118200Y143800D02*
X118800Y144400D01*
X117950Y143800D02*
X118200D01*
X98050Y144400D02*
X109350D01*
X97450Y143800D02*
X98050Y144400D01*
X109350D02*
X109950Y143800D01*
X118850Y137900D02*
X129550D01*
X130450Y138800D01*
X117950D02*
X118850Y137900D01*
X109950Y138800D02*
X117950D01*
X98150Y138050D02*
X109200D01*
X80500Y145125D02*
Y146625D01*
X65400Y145300D02*
X80500D01*
X102500Y148000D02*
X104700D01*
X101000Y146500D02*
X102500Y148000D01*
X104700D02*
X106400Y146300D01*
X77775Y137975D02*
X88625D01*
X89450Y138800D01*
X76950D02*
X77775Y137975D01*
X85900Y145150D02*
Y146475D01*
Y145150D02*
X101000D01*
X109200Y138050D02*
X109950Y138800D01*
X106400Y145150D02*
Y146300D01*
X101000Y145150D02*
Y146500D01*
X84275Y148100D02*
X85900Y146475D01*
X81975Y148100D02*
X84275D01*
X80500Y146625D02*
X81975Y148100D01*
X88850Y144400D02*
X89450Y143800D01*
X77550Y144400D02*
X88850D01*
X76950Y143800D02*
X77550Y144400D01*
X57225Y138125D02*
X68175D01*
X56550Y138800D02*
X57225Y138125D01*
X68175D02*
X68850Y138800D01*
X62700Y136500D02*
Y138100D01*
X59250Y146400D02*
Y147800D01*
X56850Y146900D02*
X57750Y147800D01*
X59250D02*
X59550Y148100D01*
X60000D01*
X60100Y147900D02*
Y148000D01*
X60000Y148100D02*
X60100Y148000D01*
X60025Y145125D02*
Y146925D01*
X61100Y148000D01*
X63950D01*
X65300Y146650D01*
X62700Y145800D02*
Y146600D01*
Y144400D02*
Y145800D01*
X61500Y147250D02*
X61550Y147200D01*
X62100D01*
X62700Y146600D01*
D16*
X65300Y145025D02*
Y145600D01*
X126900Y142300D02*
Y143650D01*
X121500Y142300D02*
Y143650D01*
X208900Y142300D02*
Y143650D01*
X203500Y142300D02*
Y143650D01*
X188400Y142300D02*
Y143650D01*
X183000Y142301D02*
Y143650D01*
X167900Y142300D02*
Y143650D01*
X162500Y142300D02*
Y143650D01*
X147400Y142300D02*
Y143650D01*
X142000Y142300D02*
Y143650D01*
X106400Y142300D02*
Y143650D01*
X101000Y142300D02*
Y143600D01*
X85900Y142300D02*
Y143600D01*
X80500Y142300D02*
Y143625D01*
X65425Y142325D02*
Y143600D01*
X60025Y142325D02*
Y143625D01*
X41400Y140300D02*
X43100D01*
D17*
X65300Y145025D02*
X65425Y144900D01*
X56450Y138800D02*
X56550D01*
X68850D02*
X68950D01*
X43100Y142300D02*
X43277Y142477D01*
D18*
X30400Y153200D02*
G03*
X29400Y152200I0J-1000D01*
G01*
Y132400D02*
G03*
X30400Y131400I1000J0D01*
G01*
X218200D02*
G03*
X219200Y132400I0J1000D01*
G01*
Y152200D02*
G03*
X218200Y153200I-1000J0D01*
G01*
X29400Y132400D02*
Y152200D01*
X219200Y132400D02*
Y152200D01*
X30400Y153200D02*
X218200D01*
X30400Y131400D02*
X218200D01*
D19*
X97450Y138800D02*
D03*
X158950Y143800D02*
D03*
X171450D02*
D03*
X158950Y138800D02*
D03*
X171450D02*
D03*
X76950Y143800D02*
D03*
X89450D02*
D03*
X76950Y138800D02*
D03*
X89450D02*
D03*
X179450Y143800D02*
D03*
X191950D02*
D03*
X179450Y138800D02*
D03*
X191950D02*
D03*
X117950Y143800D02*
D03*
X130450D02*
D03*
X117950Y138800D02*
D03*
X130450D02*
D03*
X199950Y143800D02*
D03*
X212450D02*
D03*
X199950Y138800D02*
D03*
X212450D02*
D03*
X138450Y143800D02*
D03*
X150950D02*
D03*
X138450Y138800D02*
D03*
X150950D02*
D03*
X56450Y143800D02*
D03*
X68950D02*
D03*
X56450Y138800D02*
D03*
X68950D02*
D03*
X109950D02*
D03*
Y143800D02*
D03*
X97450D02*
D03*
D20*
X68000Y137200D02*
D03*
X66700Y141200D02*
D03*
X58300Y145300D02*
D03*
X74100Y142200D02*
D03*
X74000Y135600D02*
D03*
X57500Y150600D02*
D03*
X52300Y149500D02*
D03*
X30900Y149900D02*
D03*
Y132400D02*
D03*
X66300Y138900D02*
D03*
X83400Y139400D02*
D03*
X83300Y132800D02*
D03*
X103800D02*
D03*
X124000D02*
D03*
X144600D02*
D03*
X165300D02*
D03*
X185800D02*
D03*
X206000D02*
D03*
X157700Y150400D02*
D03*
X137000D02*
D03*
X116400D02*
D03*
X96200D02*
D03*
X75700D02*
D03*
X198100Y150300D02*
D03*
X177900D02*
D03*
X103700Y140400D02*
D03*
X124200Y140300D02*
D03*
X144700D02*
D03*
X165400D02*
D03*
X185700Y140400D02*
D03*
X206200Y140300D02*
D03*
X70700Y147700D02*
D03*
X93400Y143900D02*
D03*
X154900D02*
D03*
X175400D02*
D03*
X113500Y135900D02*
D03*
X76900Y136800D02*
D03*
X75000Y144600D02*
D03*
X83200Y143400D02*
D03*
X60100Y148000D02*
D03*
X61500Y147250D02*
D03*
M02*
