G04 Layer_Color=32896*
%FSLAX43Y43*%
%MOMM*%
G71*
G01*
G75*
%ADD18C,0.100*%
%ADD22C,0.254*%
D18*
X54300Y149100D02*
X55800D01*
X56800D02*
X57800D01*
X58800D02*
X59800D01*
X60800D02*
X61800D01*
X62800D02*
X63800D01*
X54300Y146100D02*
X56800Y146100D01*
X57800D02*
X58800D01*
X59800D02*
X60800D01*
X61800D02*
X62800D01*
X63800D02*
X64800D01*
X65900D02*
X67300D01*
X54300Y146100D02*
Y149100D01*
X67300Y146100D02*
Y148200D01*
X66400Y149100D02*
X67300Y148200D01*
X64800Y149100D02*
X66400D01*
X62600Y151600D02*
X62067Y150800D01*
Y151600D02*
X62600Y150800D01*
X61267Y151466D02*
X61400Y151600D01*
X61667D01*
X61800Y151466D01*
Y151333D01*
X61667Y151200D01*
X61400D01*
X61267Y151067D01*
Y150933D01*
X61400Y150800D01*
X61667D01*
X61800Y150933D01*
X61001Y150800D02*
X60734D01*
X60867D01*
Y151600D01*
X61001Y151466D01*
X30400Y153200D02*
G03*
X29400Y152200I0J-1000D01*
G01*
Y132400D02*
G03*
X30400Y131400I1000J0D01*
G01*
X218200D02*
G03*
X219200Y132400I0J1000D01*
G01*
Y152200D02*
G03*
X218200Y153200I-1000J0D01*
G01*
X29400Y132400D02*
Y152200D01*
X219200Y132400D02*
Y152200D01*
X30400Y153200D02*
X218200D01*
X30400Y131400D02*
X218200D01*
D22*
X65750Y144875D02*
X74800D01*
X57800Y150275D02*
X67200D01*
X57375Y149850D02*
X57800Y150275D01*
M02*
